<svg width="127" height="58" viewBox="0 0 127 58" fill="none" xmlns="http://www.w3.org/2000/svg">
<path d="M3.64645 15.0186C3.84171 14.8233 4.15829 14.8233 4.35355 15.0186L7.53553 18.2006C7.7308 18.3958 7.7308 18.7124 7.53553 18.9077C7.34027 19.103 7.02369 19.103 6.82843 18.9077L4 16.0793L1.17157 18.9077C0.976311 19.103 0.659728 19.103 0.464466 18.9077C0.269204 18.7124 0.269204 18.3958 0.464466 18.2006L3.64645 15.0186ZM79.1924 1V1.5V1ZM4 15.3722H4.5C4.5 16.574 4.51821 17.7268 4.55404 18.832L4.0543 18.8482L3.55457 18.8644C3.51836 17.7477 3.5 16.5841 3.5 15.3722H4ZM4.5456 25.5227L5.04187 25.4618C5.35308 27.9963 5.79279 30.1737 6.34629 32.0274L5.8672 32.1704L5.3881 32.3135C4.81521 30.3949 4.36577 28.1608 4.04932 25.5836L4.5456 25.5227ZM8.79475 38.1716L9.18424 37.8581C10.681 39.7174 12.4816 40.682 14.5334 40.9559L14.4672 41.4516L14.4011 41.9472C12.0895 41.6386 10.0594 40.54 8.40526 38.4851L8.79475 38.1716ZM21.0794 40.5295L20.9147 40.0574C22.8099 39.396 24.8235 38.423 26.9275 37.2068L27.1777 37.6397L27.4279 38.0726C25.2878 39.3097 23.2158 40.3135 21.2442 41.0016L21.0794 40.5295ZM32.8459 33.969L32.5571 33.5608C34.3229 32.3117 36.1238 30.9532 37.9455 29.522L38.2544 29.9152L38.5633 30.3083C36.732 31.7471 34.9173 33.1162 33.1346 34.3772L32.8459 33.969ZM43.5076 25.6567L43.188 25.2722C44.9065 23.8438 46.6294 22.3845 48.3453 20.9238L48.6694 21.3045L48.9935 21.6853C47.2766 23.1468 45.5502 24.6091 43.8272 26.0413L43.5076 25.6567ZM53.8145 16.923L53.4912 16.5416C55.2435 15.0559 56.9752 13.6016 58.6723 12.2134L58.9889 12.6004L59.3055 12.9874C57.6149 14.3703 55.8881 15.8204 54.1379 17.3044L53.8145 16.923ZM64.3019 8.41237L64.0016 8.0126C65.9395 6.55687 67.8099 5.24717 69.5882 4.14528L69.8515 4.5703L70.1149 4.99532C68.3697 6.07674 66.5247 7.36797 64.6022 8.81214L64.3019 8.41237ZM75.9126 1.58721L75.7582 1.11166C76.9681 0.718681 78.1187 0.5 79.1924 0.5L79.1924 1V1.5C78.2514 1.5 77.2077 1.6923 76.0671 2.06276L75.9126 1.58721ZM79.1924 1L79.1924 0.5C80.4357 0.5 81.6146 0.624069 82.7334 0.861813L82.6294 1.35089L82.5255 1.83997C81.4778 1.61733 80.3688 1.5 79.1924 1.5V1ZM88.8158 4.23629L89.12 3.83953C90.9218 5.22131 92.4941 6.97238 93.8863 8.98125L93.4753 9.26604L93.0643 9.55084C91.7168 7.60642 90.213 5.93795 88.5115 4.63305L88.8158 4.23629ZM96.843 15.2758L97.2969 15.0661C98.2408 17.1086 99.0904 19.2757 99.8743 21.5038L99.4026 21.6697L98.9309 21.8357C98.1545 19.6284 97.3163 17.4921 96.3891 15.4856L96.843 15.2758ZM101.513 28.2343L101.992 28.0913C102.656 30.3158 103.285 32.5466 103.904 34.7224L103.423 34.8592L102.942 34.9959C102.322 32.8169 101.695 30.5939 101.034 28.3774L101.513 28.2343ZM105.365 41.468L105.843 41.3191C106.572 43.6574 107.322 45.8399 108.134 47.7834L107.672 47.976L107.211 48.1687C106.383 46.1848 105.622 43.9697 104.888 41.6169L105.365 41.468ZM111.038 53.9594L111.424 53.6412C112.987 55.5355 114.761 56.5555 116.908 56.4977L116.921 56.9975L116.935 57.4973C114.391 57.5658 112.347 56.3316 110.653 54.2776L111.038 53.9594ZM123.256 54.5308L122.975 54.1173C123.827 53.5378 124.726 52.8446 125.674 52.0289L126 52.408L126.326 52.7871C125.354 53.6233 124.426 54.3403 123.538 54.9442L123.256 54.5308Z" fill="#03010D"/>
</svg>
