<svg width="26" height="26" viewBox="0 0 26 26" fill="none" xmlns="http://www.w3.org/2000/svg">
<path d="M13 25.1875C6.28 25.1875 0.8125 19.72 0.8125 13C0.8125 6.28 6.28 0.8125 13 0.8125C19.72 0.8125 25.1875 6.28 25.1875 13C25.1875 19.72 19.72 25.1875 13 25.1875ZM13 2.6875C7.31375 2.6875 2.6875 7.31375 2.6875 13C2.6875 18.6862 7.31375 23.3125 13 23.3125C18.6862 23.3125 23.3125 18.6862 23.3125 13C23.3125 7.31375 18.6862 2.6875 13 2.6875ZM8.3125 10.5V9.25C8.3125 9.00136 8.41127 8.7629 8.58709 8.58709C8.7629 8.41127 9.00136 8.3125 9.25 8.3125C9.49864 8.3125 9.7371 8.41127 9.91291 8.58709C10.0887 8.7629 10.1875 9.00136 10.1875 9.25V10.5C10.1875 10.7486 10.0887 10.9871 9.91291 11.1629C9.7371 11.3387 9.49864 11.4375 9.25 11.4375C9.00136 11.4375 8.7629 11.3387 8.58709 11.1629C8.41127 10.9871 8.3125 10.7486 8.3125 10.5ZM16.75 11.4375C16.9986 11.4375 17.2371 11.3387 17.4129 11.1629C17.5887 10.9871 17.6875 10.7486 17.6875 10.5V9.25C17.6875 9.00136 17.5887 8.7629 17.4129 8.58709C17.2371 8.41127 16.9986 8.3125 16.75 8.3125C16.5014 8.3125 16.2629 8.41127 16.0871 8.58709C15.9113 8.7629 15.8125 9.00136 15.8125 9.25V10.5C15.8125 11.0175 16.2325 11.4375 16.75 11.4375ZM18.4263 14.6712C18.2057 14.5593 17.9501 14.5385 17.7144 14.6133C17.4787 14.6881 17.2818 14.8526 17.1663 15.0712C17.1225 15.1525 16.0787 17.0625 13 17.0625C9.92125 17.0625 8.8775 15.1538 8.83875 15.0813C8.72752 14.859 8.53255 14.69 8.29673 14.6114C8.0609 14.5329 7.80353 14.5513 7.58125 14.6625C7.35897 14.7737 7.18997 14.9687 7.11144 15.2045C7.03291 15.4404 7.05127 15.6977 7.1625 15.92C7.22375 16.0438 8.72125 18.9387 13.0013 18.9387C17.2812 18.9387 18.7788 16.0438 18.84 15.92C18.9502 15.6996 18.9687 15.4445 18.8914 15.2105C18.8141 14.9765 18.6461 14.7827 18.4263 14.6712Z" fill="#03010D"/>
</svg>
