<svg width="25" height="25" viewBox="0 0 25 25" fill="none" xmlns="http://www.w3.org/2000/svg">
<g clip-path="url(#clip0_110_478)">
<path fill-rule="evenodd" clip-rule="evenodd" d="M20.4713 19.3681L17.1351 17.4421C16.4868 17.0678 15.6502 17.2908 15.2762 17.9397L15.1445 18.1681C14.8112 18.7463 14.2983 19.1148 13.6446 19.2488C12.9935 19.3822 12.3724 19.2425 11.8408 18.8437C10.7496 18.025 9.71869 17.1211 8.75424 16.1567C7.78998 15.1924 6.88608 14.1617 6.06767 13.0706C5.66879 12.5388 5.5287 11.9178 5.6621 11.2664C5.79599 10.6127 6.16532 10.1007 6.74321 9.76714L6.97138 9.6355C7.28783 9.45288 7.50937 9.16074 7.604 8.80815C7.69819 8.45713 7.65141 8.09155 7.46962 7.77671L5.54335 4.44043C5.20131 3.848 4.4955 3.61289 3.86049 3.85659L3.81904 3.87251C3.16454 4.12358 1.36069 4.78247 0.875921 5.26724C-0.557624 6.70083 0.0557546 9.29429 0.695305 10.9446C1.81537 13.835 3.94003 16.6169 6.11738 18.7939C8.29443 20.9708 11.0762 23.096 13.9663 24.2161C14.969 24.6046 16.0974 24.9114 17.1798 24.9114C18.0858 24.9114 18.9875 24.692 19.6441 24.0354C20.1062 23.5733 20.7916 21.713 21.0428 21.0812L21.059 21.0406C21.3097 20.4099 21.0573 19.7063 20.4713 19.3681ZM19.4437 6.28052C19.5976 6.33574 19.7307 6.43716 19.8249 6.5709C19.919 6.70465 19.9695 6.8642 19.9695 7.02773V10.8266H20.1174C20.5554 10.8266 20.9111 11.1823 20.9111 11.6204C20.9111 12.0589 20.5559 12.4141 20.1174 12.4141H19.9695V13.2928C19.9695 13.7313 19.6138 14.0863 19.1757 14.0863C18.7374 14.0863 18.3822 13.7313 18.3822 13.2928V12.4141H15.396C15.2456 12.4141 15.0984 12.3714 14.9713 12.2909C14.8442 12.2105 14.7426 12.0956 14.6783 11.9597C14.6141 11.8236 14.5898 11.6722 14.6084 11.5229C14.6269 11.3736 14.6874 11.2327 14.7829 11.1165L18.5626 6.52314C18.6667 6.39693 18.8071 6.3059 18.9648 6.26248C19.1225 6.21905 19.2897 6.22535 19.4437 6.28052ZM18.3822 10.8267H17.0774L18.3822 9.24126V10.8267ZM13.0026 9.25947C13.1484 8.72524 13.0627 8.32739 12.7466 8.07725C12.3789 7.78662 11.7668 7.73511 11.3526 7.96069C11.0544 8.12309 10.9283 8.39687 10.9664 8.79819C11.0088 9.23462 10.6892 9.62261 10.2527 9.66426C9.81606 9.70659 9.4288 9.38647 9.38666 8.95054C9.28627 7.90757 9.72597 7.03843 10.593 6.56621C11.5704 6.03457 12.8612 6.1436 13.7317 6.83276C14.5568 7.4854 14.8494 8.52275 14.5339 9.67759C14.3191 10.4646 13.5759 11.044 12.7898 11.658C12.4543 11.9196 12.0976 12.1979 11.7743 12.4991H14.0807C14.519 12.4991 14.8742 12.8547 14.8742 13.2928C14.8742 13.7313 14.519 14.0863 14.0807 14.0863H10.1584C10.024 14.0864 9.89168 14.0523 9.77401 13.9872C9.65633 13.9221 9.55712 13.8282 9.48569 13.7143C9.4143 13.6003 9.37305 13.47 9.36581 13.3357C9.35856 13.2014 9.38557 13.0675 9.44428 12.9465C9.98437 11.8338 10.9983 11.0423 11.8129 10.4065C12.309 10.0191 12.9265 9.53726 13.0026 9.25947ZM25 10.4265C25 13.1875 23.9245 15.7832 21.9722 17.7357C21.8985 17.8095 21.811 17.868 21.7146 17.908C21.6183 17.9479 21.5151 17.9684 21.4108 17.9684C21.3065 17.9684 21.2033 17.9479 21.107 17.908C21.0107 17.868 20.9233 17.8095 20.8497 17.7357C20.5396 17.4257 20.5396 16.923 20.8497 16.613C22.502 14.9606 23.4125 12.7633 23.4125 10.4265C23.4125 5.60142 19.4874 1.67637 14.6624 1.67637C12.3253 1.67637 10.1282 2.58667 8.47568 4.23901C8.16562 4.54907 7.66318 4.54907 7.35312 4.23901C7.04306 3.92895 7.04306 3.42651 7.35312 3.11645C9.30571 1.16436 11.9013 0.0888672 14.6624 0.0888672C20.3624 0.088916 25 4.72627 25 10.4265Z" fill="#7A4DFC"/>
</g>
<defs>
<clipPath id="clip0_110_478">
<rect width="25" height="25" fill="white"/>
</clipPath>
</defs>
</svg>
