<svg width="25" height="25" viewBox="0 0 25 25" fill="none" xmlns="http://www.w3.org/2000/svg">
<path d="M21.0938 5.46875H17.1875V4.6875C17.1875 3.39531 16.1359 2.34375 14.8438 2.34375H10.1562C8.86406 2.34375 7.8125 3.39531 7.8125 4.6875V5.46875H3.90625C2.61406 5.46875 1.5625 6.52031 1.5625 7.8125V20.3125C1.5625 21.6047 2.61406 22.6562 3.90625 22.6562H21.0938C22.3859 22.6562 23.4375 21.6047 23.4375 20.3125V7.8125C23.4375 6.52031 22.3859 5.46875 21.0938 5.46875ZM9.375 4.6875C9.375 4.25703 9.72578 3.90625 10.1562 3.90625H14.8438C15.2742 3.90625 15.625 4.25703 15.625 4.6875V5.46875H9.375V4.6875ZM8.59375 7.03125H20.9359L18.5641 10.5898C18.4928 10.6969 18.3962 10.7847 18.2827 10.8453C18.1693 10.906 18.0427 10.9377 17.9141 10.9375H15.4812C15.3206 10.4819 15.023 10.0871 14.6291 9.80731C14.2352 9.52756 13.7644 9.37655 13.2812 9.375H11.7188C11.2356 9.37655 10.7648 9.52756 10.3709 9.80731C9.97703 10.0871 9.67936 10.4819 9.51875 10.9375H7.08594C6.95735 10.9375 6.83075 10.9058 6.71736 10.8452C6.60397 10.7845 6.5073 10.6968 6.43594 10.5898L4.06406 7.03125H8.59375ZM14.0625 11.7188C14.0625 12.1492 13.7117 12.5 13.2812 12.5H11.7188C11.2883 12.5 10.9375 12.1492 10.9375 11.7188C10.9375 11.2883 11.2883 10.9375 11.7188 10.9375H13.2812C13.7117 10.9375 14.0625 11.2883 14.0625 11.7188ZM21.875 20.3125C21.875 20.743 21.5242 21.0938 21.0938 21.0938H3.90625C3.47578 21.0938 3.125 20.743 3.125 20.3125V8.43984L5.13594 11.4562C5.34975 11.7775 5.63966 12.0409 5.97988 12.223C6.32009 12.4051 6.70005 12.5002 7.08594 12.5H9.51875C9.67936 12.9556 9.97703 13.3504 10.3709 13.6302C10.7648 13.9099 11.2356 14.061 11.7188 14.0625H13.2812C13.7644 14.061 14.2352 13.9099 14.6291 13.6302C15.023 13.3504 15.3206 12.9556 15.4812 12.5H17.9141C18.6992 12.5 19.4281 12.1094 19.8641 11.4562L21.875 8.43984V20.3125Z" fill="#7A4DFC"/>
</svg>
