<svg width="30" height="30" viewBox="0 0 30 30" fill="none" xmlns="http://www.w3.org/2000/svg">
<path d="M26.2016 3.90131H25.8456C26.5241 2.79667 26.2736 1.31363 25.1847 0.505695C24.0113 -0.364757 22.344 -0.0845673 21.5251 1.13908L19.6768 3.90137H3.79836C2.49321 3.90137 1.4314 4.96319 1.4314 6.26834V21.4013C1.4314 22.7064 2.49321 23.7682 3.79836 23.7682H12.9924L12.2977 26.686H10.7984C9.82121 26.686 9.02623 27.4809 9.02623 28.4581V28.8281H7.17792C6.85432 28.8281 6.592 29.0905 6.592 29.414C6.592 29.7375 6.85432 29.9999 7.17792 29.9999H22.8221C23.1457 29.9999 23.408 29.7375 23.408 29.414C23.408 29.0905 23.1457 28.8281 22.8221 28.8281H20.9738V28.4581C20.9738 27.4809 20.1788 26.686 19.2017 26.686H17.7023L17.0077 23.7682H26.2017C27.5068 23.7682 28.5686 22.7064 28.5686 21.4013V6.26828C28.5686 4.96313 27.5068 3.90131 26.2016 3.90131ZM17.8063 14.2018C16.8902 14.8431 15.174 13.9714 13.535 14.846C13.1352 12.7686 13.3873 10.8148 15.4688 10.3836C15.7378 10.3275 16.0274 10.3021 16.274 10.3071L18.3936 11.8798C18.7012 12.7743 18.5857 13.6563 17.8063 14.2018ZM18.3968 7.92141L20.0554 9.15197L18.7799 10.7071L17.2783 9.59294L18.3968 7.92141ZM22.4991 1.79081C22.9429 1.12748 23.848 0.973146 24.4864 1.44687C25.1251 1.92065 25.2394 2.83153 24.7334 3.44857L20.7994 8.2449L19.0492 6.94637L22.4991 1.79081ZM19.8019 28.4581V28.8281H10.1981V28.4581C10.1981 28.1271 10.4674 27.8578 10.7984 27.8578H19.2016C19.5326 27.8578 19.8019 28.1271 19.8019 28.4581ZM16.4977 26.686H13.5023L14.197 23.7682H15.803L16.4977 26.686ZM27.3968 21.4013C27.3968 22.0603 26.8606 22.5964 26.2017 22.5964H3.79842C3.13943 22.5964 2.60331 22.0603 2.60331 21.4013V18.6574H4.27765C4.60126 18.6574 4.86358 18.395 4.86358 18.0715C4.86358 17.7479 4.60126 17.4855 4.27765 17.4855H2.60319V6.26828C2.60319 5.60929 3.13931 5.07316 3.7983 5.07316H18.8926L16.175 9.13445C15.0268 9.14482 13.8804 9.54484 13.1299 10.4209C12.1087 11.613 11.9293 13.4861 12.5967 15.9881C12.7108 16.4159 13.2446 16.5692 13.5676 16.2607C15.0827 14.813 16.9696 16.3921 18.6593 15.0244C19.6908 14.1895 19.9349 12.8621 19.5459 11.6209L24.9164 5.07316H26.2015C26.8605 5.07316 27.3967 5.60929 27.3967 6.26828V17.4855H8.96494C8.64133 17.4855 8.37901 17.7479 8.37901 18.0714C8.37901 18.395 8.64133 18.6573 8.96494 18.6573H27.3968V21.4013Z" fill="white"/>
<path d="M6.50814 17.4968C6.3752 17.5233 6.25556 17.595 6.16964 17.6999C6.08372 17.8047 6.03686 17.9361 6.03705 18.0717C6.03705 18.4382 6.37215 18.7189 6.73724 18.6459C6.8896 18.6155 7.02364 18.5258 7.10989 18.3966C7.19615 18.2674 7.22755 18.1092 7.1972 17.9568C7.13199 17.6363 6.82109 17.4338 6.50814 17.4968Z" fill="white"/>
</svg>
