<svg width="30" height="30" viewBox="0 0 30 30" fill="none" xmlns="http://www.w3.org/2000/svg">
<path d="M28.7368 11.8556L25.9041 9.49305C25.4602 9.12274 24.931 8.89493 24.414 8.85133C23.813 8.80305 23.2735 9.00696 22.9318 9.41618L20.7272 12.0595L12.3155 22.1465L12.3211 22.1512C12.211 22.2791 12.1512 22.4427 12.1529 22.6115L12.264 28.0823C12.2659 28.1853 12.2905 28.2867 12.3361 28.3792C12.3816 28.4717 12.4469 28.553 12.5274 28.6174C12.6079 28.6818 12.7015 28.7278 12.8017 28.7519C12.902 28.7761 13.0062 28.7779 13.1072 28.7573L18.3699 27.6871C18.5293 27.6548 18.6643 27.5648 18.7646 27.4443L18.7697 27.4485L27.1416 17.4098L29.3461 14.7665C30.0085 13.971 29.7404 12.6927 28.7368 11.8556ZM13.6524 27.2104L13.5891 24.1063L16.6383 26.6029L13.6524 27.2104ZM18.1351 26.0118L13.8493 22.5023L21.3568 13.5004L25.6107 17.0479L18.1351 26.0118ZM28.2657 13.8651L26.5116 15.9679L22.2577 12.4204L24.0118 10.3171C24.054 10.2665 24.1646 10.2421 24.2958 10.2529C24.5241 10.2721 24.7819 10.3888 25.0027 10.5731L27.8354 12.9356C28.2765 13.3031 28.3651 13.7465 28.2657 13.8651Z" fill="white"/>
<path d="M9.83018 23.16C9.79516 23.1379 9.7583 23.119 9.72002 23.1032C9.71581 23.1014 9.71206 23.0986 9.70784 23.0971C9.6277 23.0654 9.54233 23.0488 9.45612 23.0484L9.44299 23.0475C9.35683 23.0483 9.27153 23.0648 9.19127 23.0962L9.17909 23.1C9.09384 23.135 9.01628 23.1865 8.9508 23.2514L8.9494 23.2523L8.94799 23.2537L8.94471 23.257L7.16487 25.0364C6.97652 25.2238 6.72173 25.3291 6.45604 25.3295C6.19034 25.3298 5.93528 25.2251 5.74643 25.0382L5.25424 24.5461C5.06758 24.3577 4.96285 24.1032 4.96285 23.838C4.96285 23.5728 5.06758 23.3183 5.25424 23.13L7.03643 21.3478L7.03831 21.3459L7.04065 21.3436L7.04206 21.3412C7.10768 21.2751 7.15831 21.1978 7.19299 21.1143C7.19487 21.1101 7.19534 21.1054 7.19721 21.1012C7.22854 21.0213 7.24506 20.9363 7.24596 20.8504L7.24502 20.8373C7.24446 20.7509 7.22777 20.6654 7.19581 20.5851L7.19065 20.5757C7.17491 20.5367 7.15561 20.4992 7.13299 20.4637C6.54898 19.5662 6.1352 18.5688 5.91237 17.5214C5.91002 17.5106 5.90534 17.5012 5.90252 17.4904C5.89422 17.4561 5.88341 17.4224 5.87018 17.3896C5.86315 17.3732 5.85284 17.3587 5.84487 17.3428C5.83174 17.3179 5.81956 17.2931 5.80409 17.2701C5.79377 17.2551 5.78112 17.2425 5.76987 17.2289C5.75252 17.2073 5.73565 17.1853 5.71596 17.1661C5.70565 17.1557 5.69346 17.1478 5.68268 17.1384C5.65924 17.1182 5.63581 17.0976 5.61002 17.0807C5.60065 17.0746 5.59034 17.0704 5.58049 17.0648C5.55164 17.0468 5.52139 17.0311 5.49002 17.0179C5.47831 17.0132 5.46612 17.0109 5.4544 17.0067C5.42346 16.9959 5.39299 16.9851 5.36065 16.979C5.33815 16.9748 5.31518 16.9743 5.29221 16.972C5.27018 16.9696 5.24862 16.9654 5.22565 16.9654H2.70143C2.43517 16.9652 2.17988 16.8593 1.99156 16.6711C1.80324 16.4829 1.69727 16.2276 1.6969 15.9614V15.2723C1.6969 14.7187 2.14737 14.2682 2.70143 14.2682H5.22659L5.23081 14.2673C5.30177 14.2659 5.37211 14.2538 5.4394 14.2312C5.45065 14.2275 5.4619 14.2251 5.47315 14.2209C5.53737 14.1965 5.59643 14.1632 5.65034 14.1225C5.66065 14.115 5.66956 14.107 5.6794 14.0986C5.7319 14.0536 5.77924 14.0029 5.81674 13.9448C5.82143 13.9373 5.82471 13.9293 5.82893 13.9218C5.86643 13.8586 5.89596 13.7896 5.91237 13.7156L5.91377 13.7118C6.13686 12.6644 6.55061 11.6669 7.1344 10.769C7.15784 10.7329 7.17612 10.6954 7.19206 10.657L7.19674 10.6476C7.22956 10.5656 7.24502 10.4803 7.24596 10.395L7.2469 10.3823C7.24603 10.2963 7.22951 10.2112 7.19815 10.1311L7.19393 10.1184C7.15885 10.0331 7.10741 9.9556 7.04252 9.89012L7.04159 9.88871L7.04018 9.88731L7.03596 9.88309L5.25706 8.10418C5.06966 7.91583 4.9643 7.66104 4.96395 7.39535C4.9636 7.12965 5.06828 6.87459 5.25518 6.68574L5.74737 6.19355C5.93583 6.00686 6.19037 5.90212 6.45565 5.90212C6.72092 5.90212 6.97547 6.00686 7.16393 6.19355L8.95034 7.97996C8.95315 7.98277 8.95737 7.98371 8.96018 7.98652C9.02018 8.04465 9.08862 8.08824 9.16268 8.12106C9.17956 8.12856 9.19596 8.13418 9.21284 8.14027C9.28831 8.16699 9.36612 8.18527 9.44627 8.18574H9.44815C9.52737 8.18574 9.60659 8.16746 9.68346 8.1398C9.70643 8.13184 9.72706 8.12012 9.74909 8.10981C9.77627 8.09668 9.80487 8.08918 9.83065 8.07231C10.7281 7.48837 11.7253 7.0746 12.7725 6.85168C12.781 6.8498 12.7885 6.84606 12.7969 6.84371C12.8339 6.83434 12.87 6.82402 12.9042 6.80949C12.9221 6.80199 12.9375 6.79121 12.9539 6.7823C12.9774 6.76965 13.0013 6.7584 13.0233 6.7434C13.0421 6.73027 13.0585 6.71481 13.0758 6.69981C13.0927 6.68527 13.111 6.67215 13.1264 6.65621C13.1424 6.64027 13.155 6.62199 13.1691 6.60418C13.1836 6.58637 13.1991 6.56996 13.2113 6.55074C13.2235 6.53246 13.2319 6.51277 13.2422 6.49309C13.253 6.47246 13.2656 6.45277 13.2746 6.43121C13.2839 6.40777 13.29 6.3834 13.2971 6.35902C13.3027 6.33981 13.3102 6.32105 13.3144 6.3009C13.321 6.26762 13.3228 6.23293 13.3247 6.19871C13.3252 6.18699 13.3285 6.17574 13.3285 6.16356V3.6398C13.3285 3.08621 13.7789 2.63574 14.333 2.63574H15.0216C15.5756 2.63574 16.0261 3.08621 16.0261 3.6398V6.16402C16.0261 6.17949 16.0299 6.19355 16.0308 6.20902C16.0327 6.23996 16.0341 6.2709 16.0402 6.3009C16.0449 6.32387 16.0528 6.34496 16.0599 6.36699C16.0664 6.38856 16.0711 6.41059 16.0796 6.43121C16.0889 6.45465 16.1021 6.47574 16.1142 6.49777C16.1241 6.51559 16.1321 6.53434 16.1433 6.55121C16.1564 6.5709 16.1719 6.58824 16.1869 6.60606C16.2005 6.62293 16.2131 6.64074 16.2286 6.65668C16.2441 6.67262 16.2619 6.68574 16.2792 6.69981C16.2971 6.71481 16.3135 6.73074 16.3327 6.74387C16.3533 6.75793 16.3763 6.76871 16.3983 6.7809C16.4161 6.79074 16.433 6.80199 16.4517 6.80996C16.4832 6.82355 16.5169 6.83293 16.5506 6.84184C16.5619 6.84465 16.5717 6.8498 16.583 6.85215C17.6304 7.07532 18.6279 7.48906 19.5258 8.07277C19.5511 8.08918 19.5797 8.09668 19.606 8.10981C19.6285 8.12059 19.6496 8.1323 19.6725 8.14027C19.7494 8.16793 19.8281 8.18621 19.9078 8.18621C19.9885 8.18621 20.0672 8.16746 20.1427 8.14074C20.1596 8.13465 20.176 8.12902 20.1928 8.12152C20.2669 8.08871 20.3353 8.04512 20.3953 7.98699C20.3981 7.98418 20.4024 7.98324 20.4057 7.98043L22.1897 6.1959C22.3782 6.00873 22.6329 5.90353 22.8985 5.90318C23.1642 5.90282 23.4192 6.00735 23.6081 6.19402L24.1003 6.68621C24.3685 6.95434 24.4467 7.33871 24.3455 7.68043C24.3999 7.68184 24.4533 7.67996 24.5082 7.68418C24.9233 7.72314 25.3288 7.83202 25.7077 8.00621C25.9177 7.20418 25.7199 6.31684 25.0946 5.69199L24.6024 5.19981C23.6667 4.26418 22.14 4.26324 21.1969 5.19981L19.7949 6.6023C19.0523 6.17688 18.2585 5.84767 17.4328 5.62262V3.6398C17.4321 3.0007 17.1778 2.38799 16.7259 1.93611C16.2739 1.48424 15.6612 1.23011 15.0221 1.22949H14.3335C13.6944 1.23036 13.0818 1.48457 12.6299 1.93639C12.178 2.38821 11.9237 3.00077 11.9227 3.6398V5.62215C11.097 5.84733 10.3033 6.17653 9.56065 6.60184L8.15627 5.19746C7.21549 4.26277 5.68784 4.26371 4.75315 5.19934L4.26096 5.69152C3.32534 6.62668 3.32487 8.1534 4.26096 9.09699L5.66299 10.499C5.23776 11.2417 4.90856 12.0354 4.68331 12.8611H2.70143C2.0624 12.8619 1.44978 13.1161 0.997875 13.568C0.545967 14.0198 0.291641 14.6323 0.290649 15.2714V15.9604C0.291394 16.5995 0.54564 17.2122 0.997602 17.6641C1.44956 18.116 2.06232 18.3701 2.70143 18.3707H4.68331C4.9084 19.1964 5.2376 19.9902 5.66299 20.7328L4.25909 22.1371C3.3244 23.0779 3.32534 24.6046 4.26096 25.5403L4.75315 26.0325C5.22096 26.5003 5.8369 26.7342 6.45331 26.7342C7.06971 26.7342 7.68706 26.5007 8.15815 26.0325L9.56065 24.6304C10.0328 24.8988 10.5258 25.1288 11.0349 25.3181L11.0039 23.7923C10.5973 23.6115 10.2049 23.4001 9.83018 23.16Z" fill="white"/>
<path d="M9.55835 15.6159C9.55835 12.7931 11.8548 10.4967 14.6776 10.4967C16.3566 10.4967 17.8454 11.3133 18.7796 12.5658L19.703 11.4586C18.5049 10.013 16.6974 9.09045 14.6776 9.09045C11.0794 9.09045 8.1521 12.0178 8.1521 15.6159C8.1521 18.0567 9.50116 20.1858 11.491 21.3051L12.4126 20.2003C10.7241 19.3622 9.55835 17.625 9.55835 15.6159Z" fill="white"/>
</svg>
