<svg width="30" height="30" viewBox="0 0 30 30" fill="none" xmlns="http://www.w3.org/2000/svg">
<g clip-path="url(#clip0_80_1533)">
<path d="M7.08951 9.72659C5.79721 9.72659 4.74574 10.7781 4.74574 12.0704C4.74574 13.3626 5.79721 14.4141 7.08951 14.4141C8.38204 14.4141 9.43328 13.3626 9.43328 12.0704C9.43328 10.7781 8.38204 9.72659 7.08951 9.72659ZM7.08951 13.2422C6.44339 13.2422 5.91763 12.7165 5.91763 12.0704C5.91763 11.4242 6.44339 10.8985 7.08951 10.8985C7.73586 10.8985 8.26139 11.4242 8.26139 12.0704C8.26139 12.7165 7.73586 13.2422 7.08951 13.2422ZM15.8786 9.14064C15.8786 7.84835 14.8274 6.79688 13.5349 6.79688C12.2426 6.79688 11.1911 7.84835 11.1911 9.14064C11.1911 10.4329 12.2426 11.4844 13.5349 11.4844C14.8274 11.4844 15.8786 10.4329 15.8786 9.14064ZM12.363 9.14064C12.363 8.49453 12.8888 7.96876 13.5349 7.96876C14.1812 7.96876 14.7068 8.49453 14.7068 9.14064C14.7068 9.78676 14.1812 10.3125 13.5349 10.3125C12.8888 10.3125 12.363 9.78676 12.363 9.14064ZM2.98792 19.1017C2.98792 20.394 4.03939 21.4454 5.33168 21.4454C6.62421 21.4454 7.67545 20.394 7.67545 19.1017C7.67545 17.8094 6.62421 16.7579 5.33168 16.7579C4.03939 16.7579 2.98792 17.8094 2.98792 19.1017ZM5.33168 17.9298C5.97804 17.9298 6.50357 18.4555 6.50357 19.1017C6.50357 19.7478 5.97804 20.2735 5.33168 20.2735C4.68557 20.2735 4.1598 19.7478 4.1598 19.1017C4.1598 18.4555 4.68557 17.9298 5.33168 17.9298ZM8.26139 23.7892C8.26139 25.0815 9.31287 26.133 10.6052 26.133C11.8977 26.133 12.9489 25.0815 12.9489 23.7892C12.9489 22.4969 11.8977 21.4454 10.6052 21.4454C9.31287 21.4454 8.26139 22.4969 8.26139 23.7892ZM11.777 23.7892C11.777 24.4353 11.2515 24.9611 10.6052 24.9611C9.95904 24.9611 9.43328 24.4353 9.43328 23.7892C9.43328 23.1431 9.95904 22.6173 10.6052 22.6173C11.2515 22.6173 11.777 23.1431 11.777 23.7892Z" fill="white"/>
<path d="M24.0991 5.57238C24.0991 4.17825 22.0707 0.912266 21.6639 0.27189C21.611 0.188617 21.538 0.120047 21.4515 0.0725392C21.3651 0.0250309 21.268 0.00012207 21.1693 0.00012207C21.0707 0.00012207 20.9736 0.0250309 20.8872 0.0725392C20.8007 0.120047 20.7276 0.188617 20.6747 0.27189C20.3193 0.831465 18.7265 3.39496 18.3293 4.96329C14.6466 3.45039 10.808 3.49158 7.43726 5.09806C4.08567 6.69552 1.38284 9.80282 0.425176 13.7149C0.348008 14.0294 0.540548 14.3464 0.854789 14.4233C0.901664 14.4348 0.948598 14.4402 0.994653 14.4402C1.25833 14.4402 1.49798 14.261 1.56343 13.9934C2.39582 10.5927 4.78037 7.6625 7.94147 6.15586C11.1378 4.63265 14.8105 4.66259 18.3152 6.23274C18.499 7.0281 19.0101 7.71107 19.7132 8.11437C19.3683 9.36981 19.0996 11.2753 18.9469 13.5724C18.8849 14.5048 18.843 15.4947 18.8224 16.5197C16.5974 17.7964 15.1321 20.2257 15.3157 23.1273C15.3852 24.2237 15.4903 25.8805 13.7641 27.3852C12.531 28.4603 10.7163 28.7558 9.02821 28.1566C4.83826 26.6695 1.80718 22.8588 1.30567 18.4483C1.26934 18.1267 0.978364 17.896 0.657502 17.9321C0.335879 17.9687 0.104959 18.259 0.141346 18.5805C0.703967 23.5302 4.07126 27.6407 8.63633 29.261C10.7233 30.0018 12.9831 29.6207 14.5343 28.2685C16.6963 26.3836 16.5589 24.2171 16.485 23.053C16.3484 20.8907 17.2907 19.0614 18.8084 17.9273V17.9297C18.8084 20.7048 19.021 26.1433 19.9155 28.6791C20.0428 29.0403 20.3813 30 21.1522 30C21.9233 30 22.2618 29.0403 22.3891 28.6791C23.278 26.1591 23.4959 20.7607 23.4959 17.9296C23.4959 17.5275 23.4925 17.1317 23.4859 16.7456C23.6667 16.7431 23.85 16.7428 24.0357 16.7458C25.1453 16.7621 26.1532 16.0869 26.5463 15.064C27.6232 12.2588 25.6216 9.46456 23.2606 7.62388C23.7981 7.07635 24.0992 6.33965 24.0991 5.57238ZM21.1694 1.70927C22.0146 3.14025 22.9272 4.92761 22.9272 5.57238C22.9272 6.58975 22.0819 7.35259 21.1325 7.33138C20.1881 7.31005 19.4116 6.53936 19.4116 5.57238C19.4116 4.92761 20.3239 3.14025 21.1694 1.70927ZM21.1694 8.50209C21.2728 8.50209 21.3758 8.49612 21.4776 8.48533C21.7647 9.55837 22.0023 11.1937 22.1503 13.126C21.4876 13.2106 20.8166 13.2091 20.1543 13.1216C20.3023 11.1896 20.5404 9.55497 20.8279 8.48194C20.9407 8.49518 21.0547 8.50209 21.1693 8.50209H21.1694ZM21.1522 28.6122C20.2055 26.5873 19.9803 20.4885 19.9803 17.9298C19.9803 17.6025 19.9879 16.8817 19.9881 16.8799C20.0016 15.9875 20.0318 15.1209 20.0773 14.2937C20.4396 14.3387 20.8043 14.3613 21.1693 14.3613C21.5237 14.3613 21.8777 14.34 22.2277 14.2976C22.2624 14.9353 22.2874 15.5734 22.3027 16.2118C22.317 16.7616 22.3241 17.3395 22.3241 17.9298C22.3241 20.5683 22.0858 26.6156 21.1522 28.6122ZM25.4522 14.6439C25.2348 15.2097 24.6722 15.5847 24.054 15.5744C23.8549 15.5712 23.6557 15.5711 23.4566 15.5741C23.434 14.8948 23.401 14.226 23.3581 13.5792C23.358 13.5753 23.3573 13.5714 23.3568 13.5674C23.2265 11.6066 23.0114 9.93144 22.737 8.70325C25.1085 10.6227 26.143 12.8447 25.4522 14.6439Z" fill="white"/>
<path d="M1.2301 16.172C1.2301 16.4956 0.967837 16.7579 0.644165 16.7579C0.320728 16.7579 0.0582275 16.4956 0.0582275 16.172C0.0582275 15.8484 0.320728 15.5861 0.644165 15.5861C0.967837 15.5861 1.2301 15.8484 1.2301 16.172Z" fill="white"/>
</g>
<defs>
<clipPath id="clip0_80_1533">
<rect width="30" height="30" fill="white"/>
</clipPath>
</defs>
</svg>
