<svg width="30" height="30" viewBox="0 0 30 30" fill="none" xmlns="http://www.w3.org/2000/svg">
<path d="M20.0943 5.37276L18.4841 4.83858L17.95 3.22836C17.9381 3.19228 17.9151 3.16087 17.8843 3.13861C17.8535 3.11635 17.8165 3.10437 17.7785 3.10437C17.7405 3.10437 17.7034 3.11635 17.6726 3.13861C17.6418 3.16087 17.6189 3.19228 17.6069 3.22836L17.0731 4.83858L15.4627 5.37276C15.4267 5.38475 15.3954 5.40776 15.3732 5.43853C15.351 5.4693 15.3391 5.50628 15.3391 5.54421C15.3391 5.58214 15.351 5.61911 15.3732 5.64988C15.3954 5.68065 15.4267 5.70366 15.4627 5.71566L17.0731 6.24978L17.6069 7.86006C17.6189 7.8961 17.642 7.92745 17.6728 7.94967C17.7036 7.97189 17.7406 7.98384 17.7786 7.98384C17.8166 7.98384 17.8535 7.97188 17.8843 7.94966C17.9151 7.92744 17.9381 7.89609 17.95 7.86006L18.4841 6.24978L20.0943 5.71566C20.1304 5.70368 20.1617 5.68066 20.184 5.64987C20.2062 5.61907 20.2182 5.58205 20.2183 5.54406C20.2183 5.50609 20.2063 5.46909 20.184 5.43834C20.1618 5.40758 20.1304 5.38463 20.0943 5.37276ZM25.1453 3.2793L24.1862 2.96112L23.868 2.00196C23.8609 1.98052 23.8471 1.96188 23.8288 1.94867C23.8105 1.93545 23.7885 1.92834 23.7659 1.92834C23.7433 1.92834 23.7213 1.93545 23.7029 1.94867C23.6846 1.96188 23.6709 1.98052 23.6638 2.00196L23.3456 2.96112L22.3863 3.2793C22.3648 3.28639 22.3462 3.30007 22.3329 3.3184C22.3197 3.33672 22.3126 3.35875 22.3126 3.38136C22.3126 3.42774 22.3422 3.46896 22.3863 3.48366L23.3456 3.80184L23.6638 4.76088C23.6708 4.78237 23.6845 4.80108 23.7029 4.81435C23.7212 4.82761 23.7432 4.83475 23.7659 4.83475C23.7885 4.83475 23.8106 4.82761 23.8289 4.81435C23.8472 4.80108 23.8609 4.78237 23.868 4.76088L24.1862 3.80184L25.1453 3.48366C25.1668 3.4765 25.1855 3.46277 25.1987 3.44441C25.212 3.42605 25.2191 3.40399 25.2191 3.38136C25.2191 3.33504 25.1894 3.29382 25.1453 3.2793ZM12.4213 16.9849L8.00526 12.5689L10.1353 10.4387L14.6224 14.9257L15.4991 14.1055L10.7275 9.33378C10.6974 9.25788 10.652 9.18895 10.5943 9.13121C10.5365 9.07347 10.4676 9.02814 10.3917 8.99802L9.00096 7.60728C8.51754 7.12386 7.87488 6.8577 7.19123 6.8577C6.50765 6.8577 5.865 7.12392 5.3817 7.60722L5.17373 7.81512C4.17593 8.8131 4.176 10.4367 5.1738 11.4345L11.5444 17.8051L12.4213 16.9849ZM6.02232 10.586C5.4924 10.0561 5.4924 9.19374 6.02232 8.66376L6.23021 8.45586C6.48695 8.19912 6.82824 8.05776 7.1913 8.05776C7.55436 8.05776 7.8957 8.19906 8.1525 8.45592L9.2868 9.59022L7.15674 11.7204L6.02232 10.586ZM24.9951 26.4622C24.7568 25.7462 23.5264 22.1328 22.7027 21.3091L22.6973 21.3037C22.6672 21.2277 22.6219 21.1588 22.5641 21.1011C22.5064 21.0433 22.4374 20.998 22.3615 20.9679L19.4432 18.0495L18.6602 18.9636L21.2566 21.56L19.1264 23.6902L16.6946 21.2584L15.9117 22.1725L18.8755 25.1362C19.6992 25.9599 23.3124 27.1902 24.0284 27.4285C24.1341 27.4636 24.2474 27.4687 24.3557 27.4431C24.4641 27.4175 24.5632 27.3623 24.6419 27.2836L24.8498 27.076C24.9287 26.9973 24.9841 26.8981 25.0097 26.7897C25.0354 26.6813 25.0303 26.5679 24.9951 26.4622ZM20.0152 24.4988L22.0652 22.4487C22.4784 23.1343 23.0929 24.6717 23.5661 25.9996C22.2383 25.5264 20.7009 24.912 20.0152 24.4988Z" fill="white"/>
<path d="M24.8469 7.46955L24.7294 7.35219C24.4105 7.03341 23.9835 6.85779 23.5272 6.85779C23.0677 6.85779 22.6364 7.03419 22.311 7.35483L9.16795 19.482C9.16201 19.4875 9.15631 19.4931 9.15055 19.4987C8.87857 19.7706 8.73277 20.1151 8.72737 20.4958C8.56237 20.461 8.39422 20.4432 8.22559 20.4427C7.53871 20.4427 6.91951 20.7374 6.38527 21.3186C5.70841 22.0549 5.42899 22.8678 5.18257 23.5849C4.81681 24.6493 4.52785 25.4901 3.10129 26.0989C3.01104 26.1375 2.93162 26.1975 2.86998 26.2739C2.80834 26.3502 2.76636 26.4405 2.74773 26.5369C2.7291 26.6332 2.73438 26.7326 2.76311 26.8265C2.79184 26.9203 2.84315 27.0056 2.91253 27.075C3.38245 27.545 4.63783 27.7118 5.56999 27.7118C6.78955 27.7118 9.09829 27.4489 10.8581 25.689C11.3602 25.1869 11.614 24.6004 11.6126 23.9457C11.6117 23.7834 11.5954 23.6215 11.564 23.4622C11.6041 23.4655 11.6444 23.4672 11.6846 23.4674C12.0754 23.4674 12.4288 23.3206 12.7065 23.043C12.7121 23.0373 12.7178 23.0315 12.7232 23.0256L24.8446 9.88821C25.5079 9.21501 25.5101 8.13291 24.8469 7.46955ZM10.0096 24.8405C8.55547 26.2947 6.60391 26.5119 5.57005 26.5119C5.28391 26.5119 5.02843 26.4961 4.80547 26.4715C5.71741 25.7208 6.03151 24.807 6.31741 23.9749C6.54589 23.3102 6.76165 22.6823 7.26871 22.1307C7.57051 21.8024 7.88347 21.6428 8.22553 21.6428C8.79223 21.6428 9.36223 22.0864 9.58609 22.3054C9.60883 22.3296 9.62605 22.347 9.63541 22.3563L9.65401 22.375C9.71641 22.4397 10.4109 23.1794 10.4126 23.9485C10.4134 24.2769 10.2815 24.5687 10.0096 24.8405ZM23.9867 9.04923C23.9811 9.0549 23.9755 9.0607 23.9701 9.06663L11.8513 22.2012C11.8007 22.2495 11.7547 22.2675 11.6846 22.2675C11.3867 22.2675 10.9234 21.9435 10.6916 21.7154L10.5074 21.5312L10.5046 21.5283C10.4841 21.5066 10.4633 21.4852 10.442 21.4641C10.2556 21.2635 9.92725 20.8207 9.92683 20.518C9.92677 20.4493 9.94471 20.4041 9.99241 20.3541L23.1328 8.22951C23.1387 8.22399 23.1445 8.21835 23.1502 8.21271C23.2501 8.11281 23.3839 8.05785 23.5272 8.05785C23.6631 8.05785 23.7887 8.10867 23.8812 8.20107L23.9985 8.31831C24.1935 8.51319 24.188 8.84799 23.9867 9.04923Z" fill="white"/>
</svg>
