<svg width="30" height="30" viewBox="0 0 30 30" fill="none" xmlns="http://www.w3.org/2000/svg">
<path d="M15 11.6263C15.323 11.6267 15.6327 11.7551 15.8611 11.9835C16.0895 12.2119 16.2179 12.5216 16.2183 12.8446C16.2183 13.0932 16.3171 13.3317 16.4929 13.5075C16.6687 13.6833 16.9072 13.7821 17.1558 13.7821C17.4044 13.7821 17.6429 13.6833 17.8187 13.5075C17.9945 13.3317 18.0933 13.0932 18.0933 12.8446C18.0933 11.466 17.1863 10.2955 15.9375 9.89753V9.06128C15.9375 8.81264 15.8387 8.57418 15.6629 8.39837C15.4871 8.22255 15.2487 8.12378 15 8.12378C14.7514 8.12378 14.5129 8.22255 14.3371 8.39837C14.1613 8.57418 14.0625 8.81264 14.0625 9.06128V9.89753C12.8142 10.2955 11.9067 11.4655 11.9067 12.8446C11.9076 13.6647 12.2338 14.451 12.8137 15.0309C13.3936 15.6108 14.1799 15.937 15 15.9378C15.6717 15.9378 16.2183 16.4844 16.2183 17.1561C16.2183 17.8278 15.6717 18.3744 15 18.3744C14.3283 18.3744 13.7817 17.8278 13.7817 17.1561C13.7817 16.9075 13.683 16.669 13.5072 16.4932C13.3313 16.3174 13.0929 16.2186 12.8442 16.2186C12.5956 16.2186 12.3571 16.3174 12.1813 16.4932C12.0055 16.669 11.9067 16.9075 11.9067 17.1561C11.9067 18.5347 12.8138 19.7052 14.0625 20.1032V20.9394C14.0625 21.188 14.1613 21.4265 14.3371 21.6023C14.5129 21.7781 14.7514 21.8769 15 21.8769C15.2487 21.8769 15.4871 21.7781 15.6629 21.6023C15.8387 21.4265 15.9375 21.188 15.9375 20.9394V20.1032C17.1858 19.7052 18.0933 18.5352 18.0933 17.1561C18.0924 16.336 17.7663 15.5497 17.1863 14.9698C16.6064 14.3899 15.8201 14.0637 15 14.0628C14.3283 14.0628 13.7817 13.5163 13.7817 12.8446C13.7817 12.1728 14.3283 11.6263 15 11.6263Z" fill="white"/>
<path d="M4.84549 16.6935L7.15315 14.3859C7.24269 14.2994 7.31411 14.196 7.36325 14.0816C7.41238 13.9672 7.43824 13.8442 7.43932 13.7197C7.4404 13.5952 7.41668 13.4718 7.36955 13.3565C7.32241 13.2413 7.2528 13.1367 7.16477 13.0486C7.07675 12.9606 6.97207 12.891 6.85686 12.8439C6.74164 12.7967 6.61819 12.773 6.49371 12.7741C6.36923 12.7752 6.24621 12.801 6.13183 12.8502C6.01746 12.8993 5.91401 12.9707 5.82753 13.0603L5.22096 13.6668C5.87534 8.84854 10.0055 5.1201 15 5.1201C19.2221 5.1201 22.9786 7.80135 24.3478 11.7918C24.3877 11.9084 24.4501 12.0159 24.5316 12.1083C24.613 12.2006 24.7119 12.276 24.8226 12.3301C24.9332 12.3842 25.0534 12.4159 25.1764 12.4234C25.2993 12.431 25.4225 12.4142 25.5389 12.374C25.6554 12.3341 25.7629 12.2716 25.8552 12.1901C25.9475 12.1086 26.0228 12.0097 26.0769 11.8991C26.1309 11.7885 26.1627 11.6683 26.1703 11.5454C26.1779 11.4225 26.1612 11.2993 26.1211 11.1829C25.3253 8.86607 23.8257 6.85565 21.8318 5.43246C19.8379 4.00927 17.4493 3.24438 14.9996 3.24463C8.91424 3.24463 3.8944 7.89369 3.30331 13.8262L2.53737 13.0603C2.45089 12.9707 2.34744 12.8993 2.23306 12.8502C2.11868 12.801 1.99566 12.7752 1.87118 12.7741C1.7467 12.773 1.62325 12.7967 1.50804 12.8439C1.39282 12.891 1.28815 12.9606 1.20012 13.0486C1.1121 13.1367 1.04249 13.2413 0.995349 13.3565C0.948211 13.4718 0.924491 13.5952 0.925573 13.7197C0.926654 13.8442 0.952516 13.9672 1.00165 14.0816C1.05078 14.196 1.1222 14.2994 1.21174 14.3859L3.5194 16.6935C3.70268 16.8768 3.94221 16.9682 4.18221 16.9682C4.42221 16.9682 4.66221 16.8768 4.84549 16.6935ZM28.7878 15.614L26.4802 13.3063C26.3044 13.1306 26.066 13.0319 25.8174 13.0319C25.5688 13.0319 25.3304 13.1306 25.1546 13.3063L22.8469 15.614C22.7574 15.7005 22.6859 15.8039 22.6368 15.9183C22.5877 16.0327 22.5618 16.1557 22.5607 16.2802C22.5596 16.4047 22.5834 16.5281 22.6305 16.6433C22.6776 16.7586 22.7473 16.8632 22.8353 16.9512C22.9233 17.0393 23.028 17.1089 23.1432 17.156C23.2584 17.2032 23.3819 17.2269 23.5063 17.2258C23.6308 17.2247 23.7538 17.1989 23.8682 17.1497C23.9826 17.1006 24.086 17.0292 24.1725 16.9396L24.7791 16.3331C24.1247 21.1514 19.9946 24.8798 15 24.8798C12.941 24.8801 10.9334 24.2373 9.25747 23.0412C7.58157 21.8451 6.32112 20.1554 5.65221 18.2081C5.61223 18.0916 5.54971 17.9842 5.46821 17.8919C5.38672 17.7997 5.28785 17.7244 5.17724 17.6703C5.06664 17.6162 4.94647 17.5845 4.8236 17.5769C4.70073 17.5692 4.57756 17.5859 4.46112 17.6259C4.34468 17.6659 4.23726 17.7284 4.14499 17.8099C4.05272 17.8914 3.9774 17.9902 3.92334 18.1009C3.86928 18.2115 3.83753 18.3316 3.82991 18.4545C3.82229 18.5774 3.83895 18.7005 3.87893 18.817C4.67477 21.1338 6.17436 23.1442 8.16826 24.5674C10.1622 25.9906 12.5508 26.7555 15.0005 26.7553C21.0858 26.7553 26.1057 22.1062 26.6967 16.1737L27.4627 16.9396C27.646 17.1229 27.8855 17.2143 28.1255 17.2143C28.3655 17.2143 28.605 17.1229 28.7883 16.9396C28.9641 16.7638 29.0628 16.5254 29.0628 16.2768C29.0628 16.0282 28.9636 15.7898 28.7878 15.614Z" fill="white"/>
</svg>
