<svg width="30" height="30" viewBox="0 0 30 30" fill="none" xmlns="http://www.w3.org/2000/svg">
<path d="M10.65 15.6001C10.23 15.6001 9.9 15.9301 9.9 16.3501V23.5801H7.47001C7.17 22.6501 6.27 21.9601 5.25 21.9601C3.96 21.9601 2.88 23.0101 2.88 24.3301C2.88 25.6201 3.93 26.7001 5.25 26.7001C6.3 26.7001 7.17 26.0401 7.47001 25.0801H10.65C11.07 25.0801 11.4 24.7501 11.4 24.3301V16.3501C11.4 15.9301 11.07 15.6001 10.65 15.6001ZM5.25 25.2001C4.77 25.2001 4.38 24.8101 4.38 24.3301C4.38 23.8501 4.77 23.4601 5.25 23.4601C5.73 23.4601 6.12 23.8501 6.12 24.3301C6.12 24.8101 5.73 25.2001 5.25 25.2001ZM15.75 22.1101V16.3501C15.75 15.9301 15.42 15.6001 15 15.6001C14.58 15.6001 14.25 15.9301 14.25 16.3501V22.1101C13.32 22.4101 12.63 23.3101 12.63 24.3301C12.63 25.6201 13.68 26.7001 15 26.7001C16.32 26.7001 17.37 25.6501 17.37 24.3301C17.37 23.3101 16.68 22.4101 15.75 22.1101ZM15 25.2001C14.52 25.2001 14.13 24.8101 14.13 24.3301C14.13 23.8501 14.52 23.4601 15 23.4601C15.48 23.4601 15.87 23.8501 15.87 24.3301C15.87 24.8101 15.48 25.2001 15 25.2001ZM24.75 21.9901C23.7 21.9901 22.83 22.6501 22.53 23.6101H20.1V16.3501C20.1 15.9301 19.77 15.6001 19.35 15.6001C18.93 15.6001 18.6 15.9301 18.6 16.3501V24.3301C18.6 24.7501 18.93 25.0801 19.35 25.0801H22.53C22.83 26.0101 23.73 26.7001 24.75 26.7001C26.04 26.7001 27.12 25.6501 27.12 24.3301C27.12 23.0401 26.07 21.9901 24.75 21.9901ZM24.75 25.2001C24.27 25.2001 23.88 24.8101 23.88 24.3301C23.88 23.8501 24.27 23.4601 24.75 23.4601C25.23 23.4601 25.62 23.8501 25.62 24.3301C25.62 24.8101 25.23 25.2001 24.75 25.2001Z" fill="white"/>
<path d="M23.43 9.93005C23.43 10.2 23.4 10.47 23.37 10.71C23.34 10.92 23.4 11.13 23.52 11.28C23.64 11.43 23.82 11.55 24.03 11.58C25.71 11.76 27 13.17 27 14.88C27 16.71 25.5 18.21 23.67 18.21H22.83C22.41 18.21 22.08 18.54 22.08 18.96C22.08 19.38 22.41 19.71 22.83 19.71H23.67C26.34 19.71 28.5 17.55 28.5 14.88C28.5 12.66 27 10.77 24.93 10.23V9.93005C24.93 6.27005 21.96 3.30005 18.3 3.30005C15.93 3.30005 13.74 4.59005 12.57 6.63005C12.24 6.57005 11.91 6.54005 11.58 6.54005C9.27 6.54005 7.23 7.95005 6.39 10.05H6.3C3.66 10.05 1.5 12.21 1.5 14.88C1.5 17.55 3.66 19.71 6.33 19.71H7.17C7.59 19.71 7.92 19.38 7.92 18.96C7.92 18.54 7.59 18.21 7.17 18.21H6.33C4.5 18.21 3 16.71 3 14.88C3 13.05 4.5 11.55 6.33 11.55C6.51 11.55 6.66 11.55 6.81 11.58C7.2 11.64 7.56 11.4 7.65 11.04C8.13 9.27005 9.75 8.04005 11.58 8.04005C12 8.04005 12.39 8.10005 12.75 8.22005C13.11 8.34005 13.5 8.16005 13.65 7.80005C14.49 5.97005 16.32 4.80005 18.3 4.80005C21.15 4.80005 23.43 7.11005 23.43 9.93005Z" fill="white"/>
</svg>
