<svg width="30" height="30" viewBox="0 0 30 30" fill="none" xmlns="http://www.w3.org/2000/svg">
<path d="M13.25 6.125C12.75 6.125 12.3125 6.5625 12.3125 7.0625C12.3125 7.5625 12.75 8 13.25 8C13.75 8 14.1875 7.5625 14.1875 7.0625C14.1875 6.5625 13.75 6.125 13.25 6.125ZM16.75 6.125C16.25 6.125 15.8125 6.5625 15.8125 7.0625C15.8125 7.5625 16.25 8 16.75 8C17.25 8 17.6875 7.5625 17.6875 7.0625C17.75 6.5625 17.3125 6.125 16.75 6.125Z" fill="white"/>
<path d="M2.5625 12.9375V18.8125C2.5625 20.75 4.125 22.25 6 22.25C6.5625 22.25 7.125 22.125 7.5625 21.875V26.4375C7.5625 28.1875 9 29.625 10.75 29.625C12.5 29.625 13.9375 28.1875 13.9375 26.4375V23.75H15.875V26.4375C15.875 28.1875 17.3125 29.625 19.0625 29.625C20.8125 29.625 22.25 28.1875 22.25 26.4375V21.875C22.75 22.125 23.25 22.25 23.8125 22.25C25.75 22.25 27.25 20.6875 27.25 18.8125V12.9375C27.25 11 25.6875 9.5 23.8125 9.5C23.25 9.5 22.6875 9.625 22.1875 9.875V9.6875C22.0625 7.5625 21.0625 5.75 19.5 4.4375L21.5625 1.8125C21.875 1.375 21.8125 0.8125 21.375 0.5C20.9375 0.1875 20.375 0.25 20.0625 0.6875L17.9375 3.5C17 3.0625 15.9375 2.8125 14.875 2.8125C13.8125 2.8125 12.75 3.0625 11.8125 3.5L9.6875 0.6875C9.375 0.25 8.75 0.1875 8.375 0.5C7.9375 0.8125 7.875 1.375 8.1875 1.8125L10.25 4.4375C8.75 5.6875 7.6875 7.5625 7.5625 9.6875V9.875C7.0625 9.625 6.5625 9.5 5.9375 9.5C4.0625 9.5 2.5625 11.0625 2.5625 12.9375ZM12.125 26.5C12.125 27.25 11.5 27.8125 10.8125 27.8125C10.0625 27.8125 9.5 27.1875 9.5 26.5V23.8125H12.1875V26.5H12.125ZM14 21.9375H9.4375V10.875H20.5V21.9375H15.9375H14ZM20.5625 26.5C20.5625 27.25 19.9375 27.8125 19.25 27.8125C18.5 27.8125 17.9375 27.1875 17.9375 26.5V23.8125H20.625V26.5H20.5625ZM24 11.375C24.875 11.375 25.5625 12.0625 25.5625 12.9375V18.8125C25.5625 19.6875 24.875 20.375 24 20.375C23.125 20.375 22.4375 19.6875 22.4375 18.8125V12.9375C22.4375 12.0625 23.125 11.375 24 11.375ZM12.0625 5.5C12.125 5.5 12.1875 5.4375 12.1875 5.4375L12.25 5.375C13.0625 4.9375 14 4.625 15 4.625C16 4.625 16.9375 4.875 17.75 5.375L17.8125 5.4375C17.875 5.5 17.9375 5.5 17.9375 5.5C19.1875 6.25 20.0625 7.5 20.4375 9H9.625C9.9375 7.5 10.875 6.25 12.0625 5.5ZM4.4375 12.9375C4.4375 12.0625 5.125 11.375 6 11.375C6.875 11.375 7.5625 12.0625 7.5625 12.9375V18.8125C7.5625 19.6875 6.875 20.375 6 20.375C5.125 20.375 4.4375 19.6875 4.4375 18.8125V12.9375Z" fill="white"/>
</svg>
