<svg width="30" height="30" viewBox="0 0 30 30" fill="none" xmlns="http://www.w3.org/2000/svg">
<g clip-path="url(#clip0_80_1512)">
<path d="M19.3418 9.54071C16.4242 5.24841 12.5275 2.96709 10.4868 4.36489C10.2621 4.52313 10.0669 4.7195 9.90993 4.94511C9.90993 4.96159 5.18575 14.522 5.18575 14.522L2.54839 16.3088C2.14352 16.5837 1.79676 16.9356 1.52793 17.3445C1.25909 17.7534 1.07345 18.2112 0.981608 18.6919C0.889764 19.1725 0.893517 19.6665 0.992652 20.1457C1.09179 20.6249 1.28436 21.0799 1.55938 21.4847L1.67806 21.6594C2.23395 22.4692 3.08668 23.0271 4.05129 23.2123C5.0159 23.3974 6.01461 23.1948 6.83081 22.6484L11.0671 28.8891C11.6901 29.6572 12.8868 30.422 14.3638 29.522C14.6254 29.3524 14.8486 29.1298 15.019 28.8686C15.1893 28.6074 15.303 28.3134 15.3528 28.0055C15.4125 27.6994 15.4108 27.3844 15.348 27.0788C15.2852 26.7732 15.1625 26.4832 14.9868 26.2253L11.255 20.7198C11.255 20.7198 20.077 20.0176 20.1099 20.0044C20.3854 19.9468 20.6465 19.8347 20.8781 19.6748C21.9264 18.9627 22.3022 17.4693 21.9396 15.4682C21.6132 13.6253 20.6868 11.5385 19.3418 9.54071ZM2.6374 21.0099L2.51872 20.8352C2.32897 20.5559 2.19618 20.2419 2.12795 19.9111C2.05972 19.5804 2.05738 19.2395 2.12107 18.9078C2.18476 18.5762 2.31324 18.2604 2.49913 17.9785C2.68503 17.6966 2.9247 17.4541 3.20443 17.2649L5.48245 15.7154L8.48905 20.1429L6.21103 21.6924C5.93162 21.8824 5.61751 22.0154 5.28665 22.0839C4.95579 22.1525 4.61467 22.1551 4.28279 22.0918C3.9509 22.0284 3.63476 21.9002 3.35244 21.7146C3.07011 21.529 2.82714 21.2895 2.6374 21.0099ZM14.0374 26.8748C14.2176 27.1429 14.2841 27.4715 14.2223 27.7886C14.1605 28.1056 13.9754 28.3852 13.7077 28.566C13.4391 28.7463 13.11 28.8129 12.7924 28.7511C12.4748 28.6893 12.1946 28.5042 12.0132 28.2363L7.79015 22.0154L9.48795 20.8616L9.9363 20.8253L14.0374 26.8748ZM9.58026 19.6946L6.30333 14.8682L9.42861 8.49566C9.7319 10.2858 10.6187 12.4121 12.0363 14.499C13.4539 16.5858 15.1022 18.1946 16.6517 19.1374L9.58026 19.6946ZM19.3055 18.9264C17.7297 18.8242 15.1649 17.0473 12.9923 13.8462C10.8198 10.6451 10.1143 7.61544 10.5989 6.10885C10.6865 5.82605 10.8611 5.57814 11.0979 5.40053C11.3347 5.22291 11.6216 5.12467 11.9176 5.11983C13.4803 5.11983 16.1407 6.90665 18.3759 10.2001C19.6352 12.0528 20.5517 13.9913 20.8022 15.6858C21.2934 18.9264 19.3055 18.9264 19.3055 18.9264Z" fill="white"/>
<path d="M15.2209 9.66266C14.8171 9.58336 14.4015 9.58538 13.9985 9.66859C13.5955 9.7518 13.2131 9.91453 12.8737 10.1473C12.8111 10.1906 12.7577 10.2458 12.7165 10.3097C12.6752 10.3736 12.647 10.4451 12.6334 10.5199C12.6198 10.5948 12.621 10.6716 12.6371 10.7459C12.6531 10.8203 12.6837 10.8908 12.727 10.9533C12.7703 11.0159 12.8255 11.0693 12.8894 11.1105C12.9533 11.1518 13.0248 11.18 13.0996 11.1936C13.1745 11.2072 13.2513 11.206 13.3256 11.1899C13.4 11.1739 13.4705 11.1433 13.533 11.1C13.748 10.9541 13.9895 10.852 14.244 10.7995C14.4984 10.7469 14.7607 10.745 15.0158 10.7938C15.271 10.8427 15.514 10.9413 15.7311 11.084C15.9481 11.2268 16.1349 11.4109 16.2808 11.6259C16.4267 11.8408 16.5288 12.0824 16.5814 12.3368C16.6339 12.5912 16.6358 12.8535 16.587 13.1087C16.5382 13.3638 16.4396 13.6069 16.2968 13.8239C16.1541 14.0409 15.9699 14.2278 15.755 14.3737C15.6536 14.4436 15.5773 14.5442 15.5373 14.6607C15.4972 14.7772 15.4955 14.9034 15.5323 15.021C15.5692 15.1385 15.6427 15.2411 15.742 15.3139C15.8414 15.3867 15.9615 15.4257 16.0847 15.4253C16.2022 15.4275 16.3174 15.3929 16.4143 15.3264C16.9271 14.979 17.3252 14.4873 17.5583 13.9135C17.7914 13.3397 17.8489 12.7096 17.7235 12.1031C17.5982 11.4966 17.2957 10.9409 16.8543 10.5064C16.4129 10.072 15.8524 9.77833 15.244 9.66266H15.2209ZM20.0539 5.5286H20.1099C20.2526 5.52854 20.3902 5.4756 20.4962 5.38001C20.6021 5.28442 20.6689 5.15295 20.6836 5.01102L21.1286 0.685741C21.1387 0.609259 21.1334 0.531522 21.113 0.45713C21.0925 0.382737 21.0574 0.313201 21.0096 0.252635C20.9618 0.192069 20.9024 0.141703 20.8348 0.104518C20.7672 0.0673321 20.6928 0.0440822 20.6161 0.0361435C20.5393 0.0282049 20.4618 0.0357387 20.388 0.0582992C20.3142 0.0808598 20.2457 0.117989 20.1865 0.16749C20.1274 0.21699 20.0787 0.277857 20.0435 0.346489C20.0082 0.415121 19.9871 0.490124 19.9814 0.56706L19.5396 4.89563C19.5239 5.04775 19.5693 5.19988 19.6657 5.31857C19.7622 5.43725 19.9018 5.5128 20.0539 5.5286ZM27.511 4.63849C27.4263 4.5108 27.2946 4.4218 27.1445 4.39092C26.9944 4.36004 26.8382 4.38978 26.7099 4.47365L22.6913 7.11102C22.5869 7.17992 22.5078 7.28086 22.4658 7.39864C22.4238 7.51642 22.4211 7.64466 22.4583 7.76405C22.4955 7.88344 22.5705 7.98751 22.672 8.06059C22.7734 8.13367 22.8959 8.17181 23.0209 8.16926C23.1376 8.17194 23.2523 8.1398 23.3506 8.07695L27.3693 5.43959C27.4939 5.35187 27.5788 5.21838 27.6054 5.06828C27.632 4.91817 27.598 4.76366 27.511 4.63849ZM28.7407 11.6802L24.066 10.8396C23.9152 10.8125 23.7597 10.8464 23.6339 10.9339C23.5081 11.0214 23.4222 11.1552 23.3951 11.3061C23.368 11.4569 23.4019 11.6123 23.4894 11.7381C23.5769 11.8639 23.7108 11.9498 23.8616 11.977L28.533 12.8176H28.6352C28.7822 12.8219 28.9253 12.7699 29.0352 12.6722C29.1452 12.5746 29.2137 12.4386 29.2267 12.2921C29.2398 12.1456 29.1964 11.9997 29.1054 11.8841C29.0145 11.7686 28.8829 11.6921 28.7374 11.6704L28.7407 11.6802Z" fill="white"/>
</g>
<defs>
<clipPath id="clip0_80_1512">
<rect width="30" height="30" fill="white"/>
</clipPath>
</defs>
</svg>
