<svg width="25" height="25" viewBox="0 0 25 25" fill="none" xmlns="http://www.w3.org/2000/svg">
<path fill-rule="evenodd" clip-rule="evenodd" d="M7.03129 4.16683C7.03129 3.44808 7.61462 2.86475 8.33337 2.86475H20.8334C21.5521 2.86475 22.1355 3.44808 22.1355 4.16683V10.4168C22.1355 11.1356 21.5521 11.7189 20.8334 11.7189H19.7917C19.5845 11.7189 19.3858 11.8012 19.2393 11.9477C19.0928 12.0942 19.0105 12.293 19.0105 12.5002C19.0105 12.7074 19.0928 12.9061 19.2393 13.0526C19.3858 13.1991 19.5845 13.2814 19.7917 13.2814H20.8334C21.5931 13.2814 22.3217 12.9796 22.8589 12.4424C23.3962 11.9052 23.698 11.1766 23.698 10.4168V4.16683C23.698 3.40709 23.3962 2.67848 22.8589 2.14126C22.3217 1.60405 21.5931 1.30225 20.8334 1.30225H8.33337C7.57364 1.30225 6.84502 1.60405 6.30781 2.14126C5.77059 2.67848 5.46879 3.40709 5.46879 4.16683V5.72933C5.46879 5.93653 5.5511 6.13524 5.69761 6.28176C5.84413 6.42827 6.04284 6.51058 6.25004 6.51058C6.45724 6.51058 6.65596 6.42827 6.80247 6.28176C6.94898 6.13524 7.03129 5.93653 7.03129 5.72933V4.16683ZM7.29171 10.4168C7.29171 10.9694 7.07221 11.4993 6.68151 11.89C6.29081 12.2807 5.76091 12.5002 5.20837 12.5002C4.65584 12.5002 4.12594 12.2807 3.73523 11.89C3.34453 11.4993 3.12504 10.9694 3.12504 10.4168C3.12504 9.8643 3.34453 9.33439 3.73523 8.94369C4.12594 8.55299 4.65584 8.3335 5.20837 8.3335C5.76091 8.3335 6.29081 8.55299 6.68151 8.94369C7.07221 9.33439 7.29171 9.8643 7.29171 10.4168ZM18.3646 9.79808C18.4258 9.71199 18.4688 9.61439 18.4912 9.51119C18.5135 9.40799 18.5148 9.30133 18.4947 9.19765C18.4747 9.09397 18.4339 8.99542 18.3747 8.90796C18.3156 8.8205 18.2393 8.74594 18.1505 8.68879C18.0617 8.63164 17.9622 8.59308 17.8581 8.57545C17.754 8.55781 17.6474 8.56147 17.5448 8.58619C17.4421 8.61091 17.3455 8.65619 17.2608 8.71928C17.1762 8.78238 17.1052 8.86198 17.0521 8.95329L12.998 15.2575C12.7852 15.1867 12.5593 15.1643 12.3367 15.1919C12.1142 15.2195 11.9006 15.2963 11.7115 15.4168L8.33337 17.1877V16.6668C8.33337 15.838 8.00413 15.0432 7.41808 14.4571C6.83203 13.8711 6.03718 13.5418 5.20837 13.5418C4.37957 13.5418 3.58472 13.8711 2.99867 14.4571C2.41261 15.0432 2.08337 15.838 2.08337 16.6668V22.9168H8.33337V20.5002C8.60733 20.4585 8.87817 20.3627 9.12921 20.2054L13.324 17.9741C13.8271 17.6606 14.0823 17.0991 14.0282 16.545L18.3646 9.79808ZM9.63546 6.25016C9.63546 6.04296 9.71777 5.84425 9.86428 5.69774C10.0108 5.55122 10.2095 5.46891 10.4167 5.46891H18.75C18.9572 5.46891 19.156 5.55122 19.3025 5.69774C19.449 5.84425 19.5313 6.04296 19.5313 6.25016C19.5313 6.45736 19.449 6.65608 19.3025 6.80259C19.156 6.9491 18.9572 7.03141 18.75 7.03141H10.4167C10.2095 7.03141 10.0108 6.9491 9.86428 6.80259C9.71777 6.65608 9.63546 6.45736 9.63546 6.25016ZM10.4167 8.59391C10.2095 8.59391 10.0108 8.67622 9.86428 8.82274C9.71777 8.96925 9.63546 9.16796 9.63546 9.37516C9.63546 9.58236 9.71777 9.78108 9.86428 9.92759C10.0108 10.0741 10.2095 10.1564 10.4167 10.1564H14.5834C14.7906 10.1564 14.9893 10.0741 15.1358 9.92759C15.2823 9.78108 15.3646 9.58236 15.3646 9.37516C15.3646 9.16796 15.2823 8.96925 15.1358 8.82274C14.9893 8.67622 14.7906 8.59391 14.5834 8.59391H10.4167Z" fill="#7A4DFC"/>
</svg>
