<svg width="407" height="286" viewBox="0 0 407 286" fill="none" xmlns="http://www.w3.org/2000/svg">
<g clip-path="url(#clip0_617_74)">
<path d="M174.124 164.975L173.374 169.56L172.575 174.488L165.242 219.415H153.255L160.58 174.488L161.387 169.56L162.137 164.975H174.124Z" fill="#EBEBEB"/>
<path d="M172.388 164.975C171.76 169.528 171.076 174.073 170.391 178.617L168.281 192.236L166.064 205.838L164.924 212.631L163.734 219.424L164.712 212.598L165.73 205.781L167.849 192.162L170.066 178.56C170.807 174.024 171.573 169.495 172.388 164.975Z" fill="#C7C7C7"/>
<path d="M173.374 169.56L172.575 174.488H160.58L161.387 169.56H173.374Z" fill="#C7C7C7"/>
<path d="M233.316 164.975L234.058 169.56L234.865 174.488L242.199 219.415H254.185L246.86 174.488L246.053 169.56L245.303 164.975H233.316Z" fill="#EBEBEB"/>
<path d="M235.093 164.975C235.72 169.528 236.405 174.073 237.089 178.617L239.2 192.236L241.416 205.838L242.557 212.631L243.747 219.424L242.769 212.598L241.75 205.781L239.632 192.162L237.415 178.56C236.665 174.024 235.9 169.495 235.093 164.975Z" fill="#C7C7C7"/>
<path d="M234.058 169.56H246.053L246.86 174.488H234.865L234.058 169.56Z" fill="#C7C7C7"/>
<path d="M173.684 152.334H164.182L165.364 143.472H172.502L173.684 152.334Z" fill="#C7C7C7"/>
<path d="M177.664 138.687C178.514 133.872 175.298 129.279 170.481 128.429C165.663 127.579 161.068 130.794 160.218 135.609C159.368 140.425 162.584 145.017 167.402 145.867C172.219 146.717 176.814 143.502 177.664 138.687Z" fill="#DBDBDB"/>
<path d="M175.504 138.696C176.363 135.076 174.122 131.446 170.501 130.588C166.879 129.73 163.247 131.969 162.389 135.589C161.53 139.209 163.771 142.839 167.392 143.697C171.014 144.555 174.646 142.316 175.504 138.696Z" fill="white"/>
<path d="M174.564 136.753C174.441 135.107 173.61 133.592 172.363 132.623C171.117 131.646 169.471 131.198 167.833 131.434C166.252 131.67 164.818 132.607 163.938 133.967C163.041 135.327 162.74 137.111 163.229 138.821C163.62 140.23 164.598 141.444 165.861 142.153C167.116 142.869 168.623 143.089 169.984 142.788C171.353 142.503 172.592 141.729 173.439 140.67C174.295 139.62 174.808 138.284 174.865 136.924C174.865 136.858 174.849 136.801 174.808 136.801C174.775 136.801 174.751 136.85 174.743 136.915C174.718 137.469 174.596 138.015 174.425 138.536C174.238 139.058 173.985 139.546 173.683 139.994C173.366 140.442 172.999 140.841 172.583 141.208C172.16 141.558 171.695 141.859 171.182 142.112C169.756 142.796 168.053 142.845 166.586 142.218C165.119 141.607 163.946 140.336 163.465 138.797C162.952 137.168 163.204 135.425 164.052 134.081C164.891 132.737 166.301 131.809 167.841 131.589C169.968 131.279 172.119 132.061 173.423 133.812C173.741 134.244 173.985 134.716 174.172 135.213C174.352 135.71 174.466 136.239 174.523 136.777C174.523 136.793 174.539 136.801 174.547 136.793C174.564 136.793 174.564 136.769 174.564 136.753Z" fill="#EBEBEB"/>
<path d="M173.773 136.761C173.651 135.344 172.926 134.065 171.866 133.234C170.799 132.403 169.397 132.012 167.996 132.208C166.643 132.395 165.396 133.185 164.63 134.358C163.848 135.523 163.571 137.07 163.978 138.561C164.304 139.791 165.16 140.858 166.26 141.468C167.36 142.087 168.672 142.275 169.853 142.006C171.043 141.745 172.111 141.078 172.844 140.149C173.586 139.229 174.026 138.088 174.075 136.899C174.075 136.842 174.058 136.793 174.018 136.793C173.985 136.793 173.96 136.834 173.952 136.891C173.855 138.83 172.616 140.532 170.88 141.379C169.658 141.982 168.175 142.03 166.904 141.493C165.632 140.963 164.606 139.856 164.206 138.528C163.774 137.119 164.011 135.612 164.744 134.464C165.478 133.315 166.7 132.533 168.012 132.362C169.829 132.126 171.638 132.77 172.771 134.252C173.04 134.619 173.252 135.018 173.423 135.441C173.586 135.865 173.683 136.313 173.74 136.777C173.74 136.793 173.757 136.793 173.765 136.793C173.773 136.793 173.781 136.777 173.773 136.761Z" fill="#EBEBEB"/>
<path d="M172.983 136.769C172.86 135.588 172.249 134.537 171.361 133.845C170.473 133.161 169.324 132.835 168.15 132.981C167.026 133.12 165.967 133.772 165.306 134.741C164.63 135.71 164.378 137.021 164.712 138.3C164.972 139.351 165.706 140.271 166.651 140.792C167.588 141.322 168.713 141.477 169.723 141.232C170.734 141.004 171.638 140.426 172.249 139.636C172.869 138.854 173.235 137.893 173.284 136.883C173.284 136.834 173.26 136.793 173.227 136.793C173.195 136.793 173.17 136.826 173.162 136.875C173.064 138.512 172.029 139.921 170.571 140.654C169.544 141.167 168.289 141.224 167.213 140.776C166.138 140.336 165.266 139.392 164.94 138.259C164.589 137.062 164.801 135.8 165.429 134.847C166.056 133.894 167.083 133.258 168.167 133.136C168.925 133.055 169.666 133.136 170.342 133.397C171.019 133.657 171.638 134.089 172.111 134.692C172.339 134.993 172.518 135.327 172.665 135.669C172.803 136.02 172.893 136.394 172.95 136.777C172.958 136.785 172.966 136.793 172.975 136.785C172.983 136.793 172.991 136.777 172.983 136.769Z" fill="#EBEBEB"/>
<path d="M172.2 136.769C172.078 135.816 171.581 135.001 170.872 134.456C170.163 133.918 169.267 133.657 168.321 133.747C167.425 133.837 166.561 134.342 165.999 135.124C165.437 135.897 165.209 136.972 165.461 138.031C165.665 138.903 166.268 139.677 167.05 140.1C167.824 140.532 168.762 140.654 169.593 140.442C170.424 140.247 171.157 139.758 171.654 139.106C172.151 138.455 172.453 137.681 172.502 136.858C172.502 136.818 172.477 136.785 172.445 136.785C172.412 136.785 172.388 136.818 172.38 136.85C172.29 138.178 171.442 139.302 170.277 139.913C169.454 140.344 168.419 140.41 167.539 140.043C166.659 139.685 165.942 138.903 165.689 137.982C165.421 137.005 165.608 135.971 166.129 135.221C166.651 134.464 167.49 133.975 168.346 133.894C168.949 133.845 169.528 133.918 170.057 134.114C170.587 134.309 171.084 134.643 171.467 135.115C171.654 135.352 171.793 135.612 171.923 135.889C172.037 136.166 172.119 136.459 172.176 136.777C172.176 136.785 172.192 136.793 172.2 136.785C172.2 136.793 172.2 136.785 172.2 136.769Z" fill="#EBEBEB"/>
<path d="M243.054 152.334H233.545L234.726 143.472H241.873L243.054 152.334Z" fill="#C7C7C7"/>
<path d="M247.075 138.472C247.813 133.638 244.491 129.122 239.654 128.384C234.818 127.646 230.299 130.966 229.561 135.8C228.823 140.634 232.145 145.151 236.981 145.889C241.817 146.627 246.336 143.306 247.075 138.472Z" fill="#DBDBDB"/>
<path d="M244.98 138.159C245.542 134.482 243.014 131.045 239.334 130.484C235.655 129.923 232.217 132.45 231.656 136.128C231.095 139.805 233.622 143.242 237.302 143.803C240.981 144.364 244.419 141.837 244.98 138.159Z" fill="white"/>
<path d="M243.934 136.753C243.812 135.107 242.981 133.592 241.734 132.623C240.487 131.646 238.841 131.198 237.203 131.434C235.623 131.67 234.188 132.607 233.308 133.967C232.412 135.327 232.11 137.111 232.599 138.821C232.991 140.23 233.968 141.444 235.231 142.153C236.486 142.869 237.994 143.089 239.355 142.788C240.724 142.503 241.962 141.729 242.818 140.67C243.674 139.62 244.187 138.284 244.244 136.924C244.244 136.858 244.228 136.801 244.187 136.801C244.154 136.801 244.13 136.85 244.122 136.915C244.097 137.469 243.975 138.015 243.804 138.536C243.617 139.058 243.364 139.546 243.062 139.994C242.745 140.442 242.378 140.841 241.962 141.208C241.539 141.558 241.074 141.859 240.561 142.112C239.135 142.796 237.432 142.845 235.965 142.218C234.498 141.607 233.325 140.336 232.844 138.797C232.331 137.168 232.583 135.425 233.431 134.081C234.27 132.737 235.68 131.809 237.22 131.589C239.347 131.279 241.498 132.061 242.802 133.812C243.12 134.244 243.364 134.716 243.551 135.213C243.731 135.71 243.845 136.239 243.902 136.777C243.902 136.793 243.918 136.801 243.926 136.793C243.934 136.793 243.934 136.769 243.934 136.753Z" fill="#EBEBEB"/>
<path d="M243.144 136.761C243.022 135.344 242.296 134.065 241.237 133.234C240.17 132.403 238.768 132.012 237.366 132.208C236.014 132.395 234.767 133.185 234.001 134.358C233.219 135.523 232.942 137.07 233.349 138.561C233.675 139.791 234.531 140.858 235.631 141.468C236.731 142.087 238.043 142.275 239.224 142.006C240.414 141.745 241.482 141.078 242.215 140.149C242.956 139.229 243.397 138.088 243.445 136.899C243.445 136.842 243.429 136.793 243.388 136.793C243.356 136.793 243.323 136.834 243.323 136.891C243.225 138.83 241.987 140.532 240.251 141.379C239.029 141.982 237.546 142.03 236.274 141.493C235.003 140.963 233.977 139.856 233.577 138.528C233.145 137.119 233.373 135.612 234.115 134.464C234.848 133.315 236.071 132.533 237.383 132.362C239.2 132.126 241.009 132.77 242.142 134.252C242.41 134.619 242.622 135.018 242.794 135.441C242.956 135.865 243.054 136.313 243.111 136.777C243.111 136.793 243.128 136.793 243.136 136.793C243.144 136.793 243.144 136.777 243.144 136.761Z" fill="#EBEBEB"/>
<path d="M242.354 136.769C242.231 135.588 241.62 134.537 240.732 133.845C239.844 133.161 238.695 132.835 237.521 132.981C236.397 133.12 235.346 133.772 234.677 134.741C234.001 135.71 233.748 137.021 234.082 138.3C234.343 139.351 235.077 140.271 236.014 140.792C236.951 141.322 238.075 141.477 239.086 141.232C240.096 141.004 241.001 140.426 241.612 139.636C242.231 138.854 242.598 137.893 242.647 136.883C242.647 136.834 242.622 136.793 242.59 136.793C242.557 136.793 242.533 136.826 242.525 136.875C242.427 138.512 241.392 139.921 239.933 140.654C238.907 141.167 237.652 141.224 236.576 140.776C235.5 140.336 234.628 139.392 234.302 138.259C233.952 137.062 234.164 135.8 234.791 134.847C235.419 133.894 236.446 133.258 237.529 133.136C238.287 133.055 239.029 133.136 239.705 133.397C240.382 133.657 241.001 134.089 241.473 134.692C241.702 134.993 241.881 135.327 242.028 135.669C242.166 136.02 242.256 136.394 242.313 136.777C242.321 136.785 242.329 136.793 242.337 136.785C242.354 136.793 242.354 136.777 242.354 136.769Z" fill="#EBEBEB"/>
<path d="M241.563 136.769C241.441 135.816 240.944 135.001 240.235 134.456C239.526 133.918 238.63 133.657 237.684 133.747C236.788 133.837 235.924 134.342 235.362 135.124C234.8 135.897 234.571 136.972 234.824 138.031C235.028 138.903 235.631 139.677 236.413 140.1C237.187 140.532 238.124 140.654 238.955 140.442C239.787 140.247 240.52 139.758 241.017 139.106C241.514 138.455 241.816 137.681 241.865 136.858C241.865 136.818 241.84 136.785 241.808 136.785C241.775 136.785 241.751 136.818 241.742 136.85C241.653 138.178 240.805 139.302 239.64 139.913C238.817 140.344 237.782 140.41 236.902 140.043C236.022 139.685 235.305 138.903 235.052 137.982C234.783 137.005 234.971 135.971 235.492 135.221C236.014 134.464 236.853 133.975 237.709 133.894C238.312 133.845 238.89 133.918 239.42 134.114C239.95 134.309 240.447 134.643 240.83 135.115C241.017 135.352 241.156 135.612 241.286 135.889C241.4 136.166 241.482 136.459 241.539 136.777C241.547 136.785 241.555 136.793 241.563 136.785C241.563 136.793 241.571 136.785 241.563 136.769Z" fill="#EBEBEB"/>
<path d="M263.451 147.813H143.981V170.652H263.451V147.813Z" fill="#DBDBDB"/>
<path d="M168.542 147.813L159.871 170.66H144.438L153.108 147.813H168.542Z" fill="#EBEBEB"/>
<path d="M200.167 147.813L191.497 170.66H176.063L184.733 147.813H200.167Z" fill="#EBEBEB"/>
<path d="M231.793 147.813L223.114 170.66H207.688L216.359 147.813H231.793Z" fill="#EBEBEB"/>
<path d="M263.418 147.813L254.748 170.66H239.314L247.984 147.813H263.418Z" fill="#EBEBEB"/>
<path d="M261.039 191.771H146.401V206.229H261.039V191.771Z" fill="#DBDBDB"/>
<path d="M169.959 191.771L161.648 206.229H146.841L155.161 191.771H169.959Z" fill="#EBEBEB"/>
<path d="M200.314 191.771L191.994 206.229H177.179L185.499 191.771H200.314Z" fill="#EBEBEB"/>
<path d="M230.652 191.771L222.332 206.229H207.525L215.845 191.771H230.652Z" fill="#EBEBEB"/>
<path d="M260.998 191.771L252.678 206.229H237.872L246.191 191.771H260.998Z" fill="#EBEBEB"/>
<path d="M29.2623 219.627L72.4673 219.423L115.672 219.358L202.09 219.22L288.508 219.358L331.713 219.423L374.918 219.627L331.713 219.823L288.508 219.896L202.09 220.034L115.672 219.896L72.4673 219.823L29.2623 219.627Z" fill="#263238"/>
<path d="M203.72 283.817C298.27 283.817 374.918 274.887 374.918 263.87C374.918 252.854 298.27 243.923 203.72 243.923C109.17 243.923 32.5219 252.854 32.5219 263.87C32.5219 274.887 109.17 283.817 203.72 283.817Z" fill="#3D3977"/>
<path d="M226.105 267.584C227.8 268.154 276.318 268.326 278.176 267.169C278.885 266.729 279.317 259.667 279.602 251.123C279.667 249.275 279.716 247.369 279.757 245.438L283.692 219.57L251.252 219.358L248.188 245.235L248.31 250.928C248.31 250.928 229.707 259.171 227.808 260.661C225.934 262.144 224.418 267.014 226.105 267.584Z" fill="#EB9481"/>
<path d="M226.105 267.584C227.8 268.155 276.318 268.326 278.176 267.169C279.031 266.631 279.504 256.32 279.765 245.43L248.204 245.227L248.327 250.92C248.327 250.92 229.723 259.163 227.824 260.653C225.934 262.144 224.418 267.014 226.105 267.584Z" fill="white"/>
<path d="M226.105 267.584C227.8 268.155 276.318 268.326 278.176 267.169C278.885 266.729 279.317 259.668 279.602 251.123L248.319 250.92C248.319 250.92 229.715 259.163 227.816 260.653C225.934 262.144 224.418 267.014 226.105 267.584Z" fill="#FFC727"/>
<path d="M226.814 265.646C234.946 265.475 267.77 265.548 275.829 266.004C275.894 266.004 275.894 266.053 275.829 266.053C267.77 266.395 234.946 266.053 226.814 265.776C226.635 265.776 226.643 265.654 226.814 265.646Z" fill="#263238"/>
<path d="M230.945 258.918C232.876 258.845 234.759 259.765 235.802 260.922C236.812 262.03 237.668 263.585 237.603 265.271C237.603 265.32 237.513 265.32 237.505 265.271C237.049 262.087 234.164 259.285 230.945 259.024C230.88 259.016 230.88 258.918 230.945 258.918Z" fill="#263238"/>
<path d="M245.165 251.718C248.424 251.685 252.189 252.85 254.202 255.514C254.283 255.619 254.129 255.725 254.039 255.676C251.097 254.153 248.31 253.013 245.108 252.117C244.88 252.052 244.929 251.718 245.165 251.718Z" fill="#263238"/>
<path d="M242.647 252.687C245.906 252.655 249.671 253.811 251.684 256.483C251.765 256.589 251.611 256.695 251.521 256.646C248.587 255.123 245.792 253.982 242.59 253.086C242.362 253.029 242.411 252.687 242.647 252.687Z" fill="#263238"/>
<path d="M240.129 253.657C243.388 253.624 247.153 254.781 249.166 257.452C249.247 257.558 249.093 257.664 249.003 257.615C246.069 256.092 243.274 254.952 240.072 254.056C239.852 253.999 239.901 253.665 240.129 253.657Z" fill="#263238"/>
<path d="M237.611 254.626C240.871 254.593 244.635 255.75 246.648 258.421C246.73 258.527 246.575 258.633 246.485 258.584C243.552 257.061 240.756 255.921 237.554 255.025C237.334 254.968 237.383 254.634 237.611 254.626Z" fill="#263238"/>
<path d="M273.775 258.275C277.426 258.299 277.401 263.968 273.743 263.952C270.092 263.927 270.116 258.25 273.775 258.275Z" fill="#263238"/>
<path d="M241.922 247.792C243.674 250.065 246.338 251.498 248.653 253.111C248.889 253.282 249.166 253.086 249.239 252.85C249.296 252.85 249.345 252.826 249.345 252.761C249.174 249.959 248.058 246.733 246.42 244.428C245.409 243.003 243.34 241.667 241.685 243.027C240.113 244.306 240.895 246.465 241.922 247.792ZM241.775 245.096C242.109 241.553 245.295 244.29 246.004 245.365C246.453 246.057 246.836 246.815 247.186 247.564C247.927 249.128 248.425 250.765 249.003 252.394C247.919 251.531 246.762 250.773 245.646 249.951C244.318 248.973 241.596 247.051 241.775 245.096Z" fill="#263238"/>
<path d="M260.908 250.724C260.664 248.599 258.236 248.134 256.524 248.452C253.746 248.973 250.706 250.521 248.636 252.427C248.587 252.476 248.604 252.533 248.645 252.565C248.53 252.785 248.596 253.111 248.889 253.16C251.676 253.6 254.593 254.422 257.429 253.991C259.083 253.746 261.145 252.736 260.908 250.724ZM253.24 252.964C251.863 252.777 250.511 252.533 249.125 252.394C250.665 251.62 252.165 250.79 253.786 250.171C254.561 249.877 255.359 249.592 256.166 249.405C257.421 249.12 261.609 249.356 259.401 252.142C258.179 253.681 254.878 253.184 253.24 252.964Z" fill="#263238"/>
<path d="M331.363 99.9945C331.363 99.9945 293.691 164.046 292.689 168.542C291.14 175.449 282.926 243.695 282.926 243.695L243.731 242.987C243.731 242.987 250.486 182.82 256.883 162.995C261.495 148.717 294.734 101.363 294.734 101.363L331.363 99.9945Z" fill="#5298BB"/>
<path d="M247.284 236.984C252.914 236.943 272.855 236.715 280.351 237.416C280.408 237.424 280.408 237.513 280.351 237.521C277.776 237.888 252.906 237.318 247.284 237.139C247.178 237.139 247.178 236.984 247.284 236.984Z" fill="#263238"/>
<path d="M324.933 105.875C322.464 109.744 319.857 113.531 317.339 117.368C314.813 121.204 312.295 125.048 309.817 128.917C304.855 136.639 300.023 144.449 295.28 152.301C293.055 155.983 290.937 159.705 289.405 163.72C287.889 167.703 286.862 171.841 286.096 176.011C285.33 180.214 284.825 184.457 284.344 188.701C283.839 193.221 283.334 197.742 282.829 202.254C281.794 211.498 280.767 220.751 279.732 229.996C279.602 231.128 279.479 232.268 279.365 233.4C279.349 233.563 279.651 233.596 279.667 233.433C280.816 224.245 281.777 215.025 282.829 205.83C283.35 201.252 283.872 196.667 284.393 192.089C284.882 187.829 285.338 183.57 285.999 179.326C286.65 175.164 287.49 171.018 288.761 166.995C290.081 162.784 291.963 158.833 294.18 155.005C298.719 147.178 303.527 139.481 308.334 131.8C313.183 124.055 318.072 116.333 323.149 108.734C323.776 107.797 324.404 106.861 325.056 105.94C325.105 105.867 324.982 105.794 324.933 105.875Z" fill="#263238"/>
<path d="M298.059 272.976C299.844 273.09 347.987 260.409 349.486 258.812C349.535 258.755 349.576 258.649 349.6 258.486C349.796 256.914 347.327 251.001 345.599 243.435C345.493 242.954 344.589 240.657 343.317 237.554C339.83 229.034 333.596 214.414 333.596 214.414L302.158 222.47L313.737 245.723L315.302 251.197C315.302 251.197 299.404 263.903 297.953 265.833C296.511 267.755 296.283 272.846 298.059 272.976Z" fill="#EB9481"/>
<path d="M298.059 272.976C299.843 273.09 347.986 260.409 349.486 258.812C349.535 258.755 349.575 258.649 349.6 258.486C349.796 256.914 347.326 251.001 345.599 243.435C345.493 242.954 344.588 240.657 343.317 237.554L313.737 245.723L315.302 251.197C315.302 251.197 299.403 263.903 297.953 265.833C296.511 267.755 296.282 272.846 298.059 272.976Z" fill="white"/>
<path d="M298.059 272.968C299.843 273.09 347.978 260.401 349.478 258.804C350.048 258.201 348.801 251.694 345.599 243.427L315.294 251.189C315.294 251.189 299.395 263.895 297.945 265.817C296.502 267.755 296.282 272.846 298.059 272.968Z" fill="#FFC727"/>
<path d="M298.246 270.916C306.069 268.684 337.833 260.401 345.738 258.788C345.803 258.772 345.811 258.82 345.754 258.837C338.045 261.223 306.216 269.238 298.287 271.046C298.116 271.087 298.083 270.964 298.246 270.916Z" fill="#263238"/>
<path d="M300.536 263.357C302.386 262.795 304.439 263.21 305.743 264.058C306.998 264.872 308.229 266.159 308.595 267.804C308.603 267.853 308.522 267.878 308.498 267.829C307.251 264.864 303.747 262.885 300.561 263.455C300.495 263.463 300.471 263.373 300.536 263.357Z" fill="#263238"/>
<path d="M312.45 252.777C315.587 251.913 319.531 252.076 322.155 254.145C322.261 254.227 322.139 254.365 322.033 254.341C318.806 253.616 315.815 253.217 312.49 253.168C312.262 253.176 312.222 252.834 312.45 252.777Z" fill="#263238"/>
<path d="M310.266 254.357C313.403 253.494 317.347 253.656 319.971 255.725C320.069 255.807 319.955 255.945 319.849 255.921C316.622 255.188 313.631 254.797 310.307 254.748C310.078 254.748 310.038 254.414 310.266 254.357Z" fill="#263238"/>
<path d="M308.074 255.929C311.211 255.066 315.155 255.229 317.779 257.297C317.885 257.379 317.763 257.517 317.657 257.501C314.43 256.768 311.439 256.377 308.115 256.328C307.886 256.328 307.854 255.994 308.074 255.929Z" fill="#263238"/>
<path d="M305.89 257.509C309.027 256.646 312.971 256.809 315.595 258.877C315.701 258.959 315.579 259.097 315.473 259.073C312.246 258.348 309.255 257.949 305.931 257.9C305.702 257.908 305.662 257.574 305.89 257.509Z" fill="#263238"/>
<path d="M341.793 251.832C345.33 250.928 346.748 256.418 343.203 257.33C339.659 258.234 338.249 252.744 341.793 251.832Z" fill="#263238"/>
<path d="M308.31 249.804C310.584 251.555 313.525 252.264 316.174 253.233C316.451 253.331 316.663 253.078 316.671 252.834C316.72 252.826 316.769 252.785 316.744 252.72C315.864 250.048 313.957 247.222 311.79 245.406C310.453 244.29 308.106 243.516 306.851 245.251C305.678 246.896 306.99 248.778 308.31 249.804ZM307.487 247.23C306.909 243.72 310.69 245.552 311.643 246.416C312.254 246.97 312.816 247.613 313.346 248.24C314.462 249.568 315.367 251.026 316.337 252.443C315.065 251.889 313.762 251.449 312.466 250.936C310.926 250.342 307.805 249.169 307.487 247.23Z" fill="#263238"/>
<path d="M327.419 247.809C326.637 245.813 324.176 245.984 322.603 246.733C320.052 247.947 317.502 250.219 315.986 252.581C315.945 252.638 315.978 252.687 316.027 252.712C315.978 252.948 316.125 253.257 316.41 253.225C319.213 252.94 322.245 252.989 324.885 251.857C326.425 251.197 328.161 249.69 327.419 247.809ZM320.574 251.93C319.197 252.101 317.82 252.207 316.451 252.427C317.746 251.286 318.985 250.097 320.395 249.095C321.063 248.615 321.764 248.134 322.497 247.752C323.638 247.149 327.753 246.318 326.319 249.576C325.537 251.36 322.22 251.718 320.574 251.93Z" fill="#263238"/>
<path d="M311.578 244.233L346.789 234.997C346.789 234.997 313.077 168.672 313.346 164.095C313.59 160.039 338.045 124.446 339.398 117.783C341.614 106.877 336.293 97.1357 331.143 91.1003L294.718 101.363C294.718 101.363 297.619 107.659 302.948 111.634C302.948 111.634 280.058 149.833 279.471 162.409C278.893 175.05 311.578 244.233 311.578 244.233Z" fill="#5298BB"/>
<path d="M310.909 237.676C316.019 236.21 314.527 236.56 319.653 235.159C322.163 234.475 338.648 229.971 341.093 229.735C341.15 229.727 341.166 229.816 341.117 229.841C338.868 230.851 322.31 235.062 319.792 235.705C314.642 237.008 316.108 236.577 310.942 237.831C310.852 237.847 310.812 237.701 310.909 237.676Z" fill="#263238"/>
<path d="M297.366 110.176C300.87 111.406 304.235 113.132 307.454 114.932C307.576 115.006 307.495 115.193 307.356 115.136C303.958 113.654 300.487 112.236 297.179 110.575C296.91 110.436 297.097 110.078 297.366 110.176Z" fill="#263238"/>
<path d="M301.644 109.28C301.905 109.915 302.117 110.575 302.296 111.243C302.435 111.756 302.622 112.318 302.549 112.847C302.532 112.953 302.394 112.961 302.337 112.888C301.986 112.44 301.848 111.837 301.652 111.316C301.432 110.705 301.196 110.102 300.992 109.492C300.862 109.084 301.481 108.881 301.644 109.28Z" fill="#263238"/>
<path d="M301.644 105.973C301.497 105.411 301.359 104.857 301.196 104.303C301.033 103.725 300.837 103.155 300.715 102.568C300.699 102.479 300.552 102.519 300.577 102.609C300.723 103.171 300.788 103.749 300.886 104.319C300.984 104.89 301.098 105.46 301.204 106.03C301.416 107.089 301.701 108.148 302.011 109.19C301.449 109.109 300.87 109.011 300.389 108.693C299.868 108.343 299.607 107.708 299.395 107.138C299.167 106.502 298.963 105.859 298.727 105.232C298.466 104.531 298.165 103.839 298.026 103.106C298.01 103.016 297.863 103.057 297.888 103.147C298.222 104.67 298.548 106.193 299.183 107.643C299.436 108.213 299.623 108.791 300.177 109.076C300.78 109.377 301.473 109.426 302.133 109.459C302.215 109.491 302.32 109.451 302.304 109.353C302.133 108.229 301.921 107.081 301.644 105.973Z" fill="#263238"/>
<path d="M302.247 112.888C300.862 115.388 299.273 117.783 297.798 120.235C296.356 122.621 294.979 125.048 293.626 127.5C290.904 132.444 288.378 137.502 286.072 142.649C284.931 145.199 283.855 147.773 282.845 150.379C281.835 152.985 280.832 155.624 280.197 158.361C279.561 161.106 279.414 163.875 279.838 166.653C280.278 169.479 281.126 172.216 281.981 174.936C283.937 181.142 286.105 187.292 288.859 193.197C288.948 193.392 289.274 193.246 289.209 193.042C287.286 187.618 285.29 182.209 283.562 176.72C281.883 171.393 279.903 165.871 280.824 160.21C281.272 157.481 282.177 154.851 283.138 152.269C284.116 149.63 285.176 147.023 286.3 144.441C288.508 139.351 290.994 134.407 293.528 129.479C294.946 126.718 296.445 123.998 297.88 121.237C299.33 118.459 300.74 115.633 302.37 112.953C302.418 112.88 302.296 112.815 302.247 112.888Z" fill="#263238"/>
<path d="M328.772 107.545C328.112 107.431 327.15 107.667 324.29 107.472C323.499 107.415 322.717 107.268 321.943 107.089C321.169 106.91 320.386 106.714 319.767 106.209C318.716 105.354 317.917 103.969 317.282 102.788C316.581 101.493 315.872 100.011 315.546 98.5692C315.53 98.4796 315.399 98.5203 315.416 98.6099C315.562 99.4407 315.652 100.28 315.872 101.102C316.076 101.876 316.377 102.633 316.703 103.367C317.314 104.735 318.023 106.201 319.254 107.129C320.541 108.099 322.342 108.278 323.899 108.392C324.803 108.457 328.34 108.359 328.82 107.854C328.902 107.765 328.894 107.569 328.772 107.545Z" fill="#263238"/>
<path d="M338.053 227.397C333.612 218.365 329.285 209.283 325.064 200.153C320.827 190.998 316.703 181.794 312.653 172.549C311.684 170.342 310.527 168.11 310.021 165.732C309.475 163.15 310.274 160.821 311.358 158.499C313.354 154.248 315.693 150.159 318.162 146.168C320.639 142.161 323.255 138.243 325.838 134.301C328.397 130.391 331.094 126.49 333.188 122.312C335.193 118.321 336.309 114.053 335.731 109.573C335.16 105.126 333.237 100.956 331.167 97.0216C330.621 95.9872 330.067 94.9528 329.513 93.9184C329.472 93.837 329.35 93.9103 329.391 93.9917C331.697 98.1049 333.905 102.43 334.973 107.056C335.503 109.337 335.731 111.707 335.486 114.036C335.234 116.407 334.492 118.695 333.506 120.854C331.591 125.056 328.926 128.933 326.4 132.786C323.825 136.728 321.201 140.638 318.692 144.629C316.174 148.644 313.77 152.733 311.675 156.993C310.747 158.89 309.728 160.862 309.5 162.995C309.255 165.325 310.095 167.565 310.991 169.674C314.911 178.854 319.026 187.943 323.222 197.001C327.427 206.09 331.746 215.123 336.163 224.115C336.717 225.247 337.279 226.379 337.833 227.511C337.915 227.666 338.118 227.536 338.053 227.397Z" fill="#263238"/>
<path d="M293.976 23.1554C294.758 19.4332 298.931 11.0032 307.104 12.6566C318.773 15.0105 320.46 37.4823 326.27 44.4869C336.79 57.1767 337.132 69.7362 328.511 71.748C318.846 73.996 309.443 63.6356 309.793 41.2045C310.013 27.179 306.053 20.9644 303.258 21.3798C300.463 21.7952 298.931 25.3382 298.931 25.3382L293.976 23.1554Z" fill="#263238"/>
<path d="M294.367 21.7545C294.938 20.0277 295.72 18.3743 296.706 16.8187C297.692 15.2711 298.947 13.8539 300.52 12.8114C302.076 11.7525 303.999 11.1824 305.914 11.2475C307.796 11.3127 309.679 11.8095 311.333 12.7462C312.987 13.6991 314.348 15.0594 315.432 16.5662C316.507 18.0893 317.355 19.7427 318.048 21.4368C319.392 24.8577 320.199 28.4252 320.745 32.0089C319.808 28.5066 318.74 25.0369 317.306 21.7463C316.54 20.1255 315.709 18.5454 314.641 17.1363C313.59 15.7191 312.319 14.4811 310.811 13.6258C309.32 12.7543 307.593 12.2901 305.865 12.2005C304.146 12.0865 302.426 12.567 300.943 13.4711C299.452 14.3752 298.173 15.6539 297.113 17.0874C296.559 17.796 296.087 18.5535 295.622 19.3354C295.174 20.1336 294.758 20.94 294.367 21.7545Z" fill="#263238"/>
<path d="M309.728 33.475C309.85 35.6985 309.72 37.9302 309.679 40.1538C309.605 42.3774 309.54 44.5928 309.54 46.8082C309.548 49.0236 309.605 51.2309 309.825 53.4219C310.037 55.6129 310.388 57.7875 311.015 59.8726C311.626 61.9577 312.531 63.9614 313.859 65.6555C315.196 67.3171 316.899 68.775 318.748 69.8828C320.615 70.9905 322.717 71.7072 324.901 71.8538C325.993 71.9353 327.093 71.8864 328.177 71.6746C328.714 71.5769 329.252 71.4384 329.774 71.2593C330.295 71.0801 330.817 70.8846 331.273 70.5588C330.401 71.2593 329.309 71.6502 328.234 71.9353C327.142 72.2204 326.017 72.3507 324.876 72.3507C323.744 72.3344 322.611 72.1633 321.511 71.8701C320.411 71.5688 319.351 71.1208 318.357 70.5751C317.355 70.0294 316.41 69.3859 315.538 68.661L314.894 68.1072L314.275 67.5207C313.859 67.1298 313.468 66.6981 313.109 66.2501C311.659 64.4501 310.706 62.3243 310.046 60.1577C308.782 55.7839 308.611 51.239 308.75 46.7919C308.823 44.5602 308.994 42.3366 309.19 40.1212C309.394 37.9058 309.614 35.6985 309.728 33.475Z" fill="#263238"/>
<path d="M293.308 23.2206C293.177 22.1862 293.805 20.7771 294.457 20.5246C295.109 20.2721 300.308 21.9418 300.854 23.1799C301.4 24.4179 299.289 25.7618 299.289 25.7618L293.308 23.2206Z" fill="#FFC727"/>
<path d="M299.534 59.9053C296.331 64.4746 273.164 83.3708 260.542 84.0712C254.846 84.3889 232.526 81.9617 227.555 79.9173C221.452 77.4005 233.512 62.2999 237.342 62.9433C242.125 63.7415 259.059 65.5415 262.424 65.6311C267.835 65.7777 284.41 56.6717 295.606 54.3016C301.367 53.088 302.011 56.3867 299.534 59.9053Z" fill="#EB9481"/>
<path d="M299.281 60.7686C295.744 66.9343 283.26 77.4983 283.26 77.4983L281.134 73.5806L274.085 60.622C274.085 60.622 285.917 55.9061 293.764 53.6174C294.824 53.3079 295.761 53.0961 296.584 52.9984C301.66 52.3549 302.329 55.4663 299.281 60.7686Z" fill="#DBDBDB"/>
<path d="M299.281 60.7687C295.744 66.9263 283.26 77.5065 283.26 77.5065L281.126 73.5807L279.675 70.9091L274.085 60.6302C274.085 60.6302 285.925 55.9143 293.772 53.6256C294.832 53.3242 295.769 53.1125 296.592 53.0066C296.698 52.9985 296.796 52.9822 296.893 52.9822C301.685 52.4853 302.272 55.5804 299.281 60.7687Z" fill="#DBDBDB"/>
<path d="M284.524 57.4374C284.678 58.0075 284.719 58.5777 284.727 59.1478C284.719 59.7179 284.687 60.2881 284.524 60.8582C284.361 60.2881 284.328 59.7179 284.32 59.1478C284.328 58.5777 284.361 58.0075 284.524 57.4374Z" fill="white"/>
<path d="M282.886 64.3524C282.315 64.5072 281.745 64.5479 281.174 64.556C280.604 64.5479 280.034 64.5153 279.463 64.3524C280.034 64.1895 280.604 64.1569 281.174 64.1488C281.745 64.1569 282.315 64.1895 282.886 64.3524Z" fill="white"/>
<path d="M300.185 54.7903C299.615 54.945 299.045 54.9858 298.474 54.9939C297.904 54.9858 297.333 54.9532 296.763 54.7903C297.333 54.6274 297.904 54.5948 298.474 54.5867C299.045 54.5948 299.615 54.6274 300.185 54.7903Z" fill="white"/>
<path d="M290.757 61.7297C291.271 62.023 291.703 62.3976 292.11 62.7967C292.509 63.204 292.884 63.6356 293.178 64.1488C292.664 63.8556 292.232 63.4809 291.825 63.0818C291.426 62.6745 291.043 62.251 290.757 61.7297Z" fill="white"/>
<path d="M284.181 69.8828C284.695 70.176 285.126 70.5507 285.534 70.9498C285.933 71.357 286.308 71.7887 286.601 72.3019C286.088 72.0086 285.656 71.634 285.249 71.2349C284.849 70.8276 284.466 70.3959 284.181 69.8828Z" fill="white"/>
<path d="M285.436 74.615C284.246 72.2285 279.039 62.6175 277.768 60.6139C277.678 60.4754 277.573 60.4917 277.646 60.6465C281.028 67.8873 284.059 72.367 285.338 74.6557C285.371 74.7128 285.469 74.6802 285.436 74.615Z" fill="#263238"/>
<path d="M299.281 60.7686C295.744 66.9262 283.261 77.5064 283.261 77.5064L281.126 73.5806L279.675 70.909C286.447 64.2302 294.612 56.012 296.893 52.9739C301.685 52.4852 302.272 55.5803 299.281 60.7686Z" fill="#A6A6A6"/>
<path d="M287.734 89.1618L289.584 109.516C289.584 109.516 292.102 109.475 297.024 108.775C301.498 108.131 307.951 106.95 316.312 104.759C322.611 103.106 329.994 100.882 338.428 97.885C338.428 97.885 319.343 63.4646 306.167 53.9676C305.865 53.7477 305.564 53.5441 305.27 53.3568C305.213 53.3079 305.156 53.2753 305.099 53.2427C299.11 49.4553 293.732 52.4119 290.684 56.6554C289.934 57.7061 282.6 74.3788 282.959 79.9581C283.301 84.8776 287.734 89.1618 287.734 89.1618Z" fill="#DBDBDB"/>
<path d="M298.327 67.366C298.482 67.9362 298.523 68.5063 298.531 69.0765C298.523 69.6466 298.49 70.2167 298.327 70.7869C298.165 70.2167 298.132 69.6466 298.124 69.0765C298.132 68.5063 298.173 67.9362 298.327 67.366Z" fill="white"/>
<path d="M302.973 86.9871C303.127 87.5573 303.168 88.1274 303.176 88.6975C303.168 89.2677 303.135 89.8378 302.973 90.408C302.81 89.8378 302.777 89.2677 302.769 88.6975C302.777 88.1274 302.818 87.5573 302.973 86.9871Z" fill="white"/>
<path d="M317.216 74.8512C317.371 75.4213 317.412 75.9915 317.42 76.5616C317.412 77.1318 317.379 77.7019 317.216 78.2721C317.053 77.7019 317.021 77.1318 317.013 76.5616C317.021 75.9915 317.053 75.4213 317.216 74.8512Z" fill="white"/>
<path d="M291.124 84.3889C291.279 84.9591 291.32 85.5292 291.328 86.0994C291.32 86.6695 291.287 87.2396 291.124 87.8098C290.961 87.2396 290.929 86.6695 290.92 86.0994C290.929 85.5292 290.961 84.9591 291.124 84.3889Z" fill="white"/>
<path d="M309.06 71.2919C308.489 71.4466 307.919 71.4874 307.348 71.4955C306.778 71.4874 306.208 71.4548 305.637 71.2919C306.208 71.129 306.778 71.0964 307.348 71.0883C307.919 71.0964 308.489 71.1371 309.06 71.2919Z" fill="white"/>
<path d="M321.185 86.474C320.615 86.6288 320.044 86.6695 319.474 86.6776C318.903 86.6695 318.333 86.6369 317.762 86.474C318.333 86.3111 318.903 86.2785 319.474 86.2704C320.044 86.2785 320.615 86.3193 321.185 86.474Z" fill="white"/>
<path d="M302.752 98.5203C302.182 98.6751 301.612 98.7158 301.041 98.724C300.471 98.7158 299.9 98.6832 299.33 98.5203C299.9 98.3574 300.471 98.3249 301.041 98.3167C301.612 98.3249 302.182 98.3574 302.752 98.5203Z" fill="white"/>
<path d="M324.216 96.199C323.646 96.3538 323.076 96.3945 322.505 96.4027C321.935 96.3945 321.364 96.3619 320.794 96.199C321.364 96.0361 321.935 96.0036 322.505 95.9954C323.076 96.0036 323.646 96.0443 324.216 96.199Z" fill="white"/>
<path d="M300.185 54.7903C299.615 54.945 299.045 54.9858 298.474 54.9939C297.904 54.9858 297.333 54.9532 296.763 54.7903C297.333 54.6274 297.904 54.5948 298.474 54.5867C299.045 54.5948 299.615 54.6274 300.185 54.7903Z" fill="white"/>
<path d="M306.142 57.0057C306.656 57.299 307.088 57.6736 307.495 58.0727C307.894 58.48 308.269 58.9116 308.563 59.4248C308.049 59.1316 307.617 58.7569 307.21 58.3578C306.811 57.9505 306.428 57.5189 306.142 57.0057Z" fill="white"/>
<path d="M323.948 76.0567C324.461 76.3499 324.893 76.7246 325.3 77.1237C325.7 77.5309 326.074 77.9626 326.368 78.4757C325.854 78.1825 325.422 77.8078 325.015 77.4087C324.616 76.9934 324.233 76.5698 323.948 76.0567Z" fill="white"/>
<path d="M295.467 78.0929C295.981 78.3861 296.413 78.7608 296.82 79.1599C297.219 79.5671 297.594 79.9988 297.887 80.5119C297.374 80.2187 296.942 79.844 296.535 79.4449C296.135 79.0377 295.761 78.606 295.467 78.0929Z" fill="white"/>
<path d="M311.806 91.8578C312.319 92.151 312.751 92.5257 313.158 92.9248C313.558 93.332 313.932 93.7637 314.226 94.2768C313.712 93.9836 313.281 93.6089 312.873 93.2098C312.474 92.8026 312.099 92.3709 311.806 91.8578Z" fill="white"/>
<path d="M290.757 61.7297C291.271 62.023 291.703 62.3976 292.11 62.7967C292.509 63.204 292.884 63.6356 293.178 64.1488C292.664 63.8556 292.232 63.4809 291.825 63.0818C291.426 62.6745 291.043 62.251 290.757 61.7297Z" fill="white"/>
<path d="M289.307 74.8512C289.6 74.3381 289.975 73.9064 290.374 73.4992C290.782 73.1001 291.214 72.7254 291.727 72.4322C291.434 72.9453 291.059 73.377 290.66 73.7842C290.252 74.1833 289.82 74.558 289.307 74.8512Z" fill="white"/>
<path d="M327.973 89.4062C328.266 88.893 328.641 88.4613 329.04 88.0541C329.448 87.655 329.88 87.2803 330.393 86.9871C330.1 87.5003 329.725 87.9319 329.326 88.3392C328.918 88.7383 328.486 89.1129 327.973 89.4062Z" fill="white"/>
<path d="M291.417 95.2298C291.711 94.7167 292.086 94.285 292.485 93.8778C292.892 93.4787 293.324 93.104 293.838 92.8108C293.544 93.3239 293.169 93.7556 292.77 94.1629C292.363 94.5701 291.931 94.9448 291.417 95.2298Z" fill="white"/>
<path d="M313.24 67.1624C313.533 66.6493 313.908 66.2176 314.307 65.8104C314.715 65.4113 315.147 65.0366 315.66 64.7434C315.367 65.2565 314.992 65.6882 314.593 66.0955C314.185 66.4946 313.753 66.8692 313.24 67.1624Z" fill="white"/>
<path d="M307.829 103.733C308.122 103.22 308.497 102.788 308.897 102.381C309.304 101.982 309.736 101.607 310.249 101.314C309.956 101.827 309.581 102.259 309.182 102.666C308.774 103.065 308.342 103.44 307.829 103.733Z" fill="white"/>
<path d="M307.845 81.7174C308.139 81.2043 308.514 80.7726 308.913 80.3653C309.32 79.9662 309.752 79.5916 310.266 79.2983C309.972 79.8115 309.597 80.2432 309.198 80.6504C308.791 81.0495 308.367 81.4242 307.845 81.7174Z" fill="white"/>
<path d="M301.359 52.9007C301.245 53.6907 298.002 59.0012 294.457 59.1397C293.308 59.1804 292.786 52.9088 292.786 52.9088L292.64 52.4527L290.627 46.0915L297.83 40.5448L298.874 39.8036C298.874 39.8036 299.305 41.5792 299.827 43.8028C299.851 43.9087 299.876 44.0064 299.9 44.1205C299.933 44.2426 299.965 44.3648 299.99 44.4788C300.071 44.8128 300.153 45.1467 300.226 45.4888C300.283 45.7494 300.34 45.9938 300.397 46.2707C300.454 46.5395 300.503 46.8083 300.569 47.0771C301.098 49.7567 301.408 52.5667 301.359 52.9007Z" fill="#EB9481"/>
<path d="M299.843 43.8029C298.425 49.1297 294.481 51.5895 292.648 52.461L290.635 46.0998L297.839 40.5531L298.882 39.8119C298.89 39.8038 299.322 41.5794 299.843 43.8029Z" fill="#263238"/>
<path d="M281.704 36.4886C281.647 48.201 288.663 49.5531 291.189 49.5694C293.479 49.5775 301.294 49.3169 302.565 37.6697C303.828 26.0224 298.401 22.3002 293.153 21.9988C287.905 21.6975 281.761 24.7763 281.704 36.4886Z" fill="#EB9481"/>
<path d="M301.921 38.4842C300.006 38.6796 299.46 34.6642 299.46 34.6642C299.46 34.6642 295.557 34.7701 294.131 29.1908C294.131 29.1908 294.278 31.8053 295.972 33.7927C295.972 33.7927 289.07 33.2307 286.031 27.5455C286.031 27.5455 287.261 30.4533 288.37 31.4632C288.37 31.4632 285.461 30.7302 283.994 28.417C283.994 28.417 282.869 31.7728 281.965 32.7094C281.965 32.7094 280.628 26.8043 283.081 23.7337C288.247 17.2667 296.73 22.8866 296.73 22.8866C296.73 22.8866 301.473 23.6034 303.168 27.1546C305.776 32.6443 301.921 38.4842 301.921 38.4842Z" fill="#263238"/>
<path d="M300.691 38.5575C300.691 38.5575 302.94 34.7049 304.667 35.4787C306.395 36.2524 304.912 41.6933 303.029 42.5729C301.147 43.4526 300.3 41.7258 300.3 41.7258L300.691 38.5575Z" fill="#EB9481"/>
<path d="M304.211 37.0262C304.244 37.018 304.252 37.0669 304.227 37.0751C302.907 37.7348 302.296 39.0624 301.905 40.4063C302.272 39.8688 302.801 39.5511 303.51 39.9746C303.551 39.9991 303.518 40.0561 303.478 40.0479C302.907 39.9746 302.516 40.105 302.174 40.5774C301.929 40.9113 301.783 41.3267 301.62 41.7095C301.563 41.8398 301.343 41.791 301.375 41.6443C301.375 41.6362 301.383 41.6199 301.383 41.6118C301.204 39.8932 302.361 37.352 304.211 37.0262Z" fill="#263238"/>
<path d="M283.171 34.1429C283.448 34.1022 283.692 34.0126 283.961 33.9474C284.263 33.866 284.516 33.8334 284.727 33.5891C284.841 33.4587 284.825 33.1981 284.703 33.0759C284.434 32.7827 284.035 32.7909 283.668 32.8723C283.269 32.9619 282.984 33.133 282.731 33.4506C282.495 33.7601 282.812 34.1999 283.171 34.1429Z" fill="#263238"/>
<path d="M290.815 35.0552C290.537 35.0307 290.285 34.9656 290.008 34.9167C289.698 34.8597 289.446 34.8515 289.217 34.6235C289.095 34.5013 289.095 34.2407 289.201 34.1103C289.454 33.8008 289.845 33.7764 290.22 33.8253C290.627 33.8823 290.92 34.0289 291.198 34.3303C291.466 34.6235 291.181 35.0877 290.815 35.0552Z" fill="#263238"/>
<path d="M289.258 37.4498C289.266 37.4172 289.323 37.4905 289.323 37.5231C289.307 38.3294 289.429 39.2498 290.162 39.5023C290.187 39.5104 290.187 39.5511 290.154 39.5511C289.258 39.4371 289.111 38.2072 289.258 37.4498Z" fill="#263238"/>
<path d="M289.959 36.6027C291.246 36.4805 291.393 39.0706 290.195 39.1846C289.022 39.2905 288.875 36.7004 289.959 36.6027Z" fill="#263238"/>
<path d="M290.472 36.7086C290.708 36.8389 290.945 37.0914 291.214 37.0995C291.531 37.1158 291.751 36.8307 291.947 36.5538C291.963 36.5294 291.988 36.5457 291.996 36.5783C292.029 37.0751 291.866 37.5964 291.336 37.6941C290.855 37.7918 290.48 37.3683 290.334 36.8796C290.309 36.7982 290.382 36.6516 290.472 36.7086Z" fill="#263238"/>
<path d="M284.793 37.4905C284.785 37.4579 284.736 37.5313 284.736 37.5638C284.809 38.362 284.76 39.2905 284.051 39.6082C284.027 39.6163 284.035 39.6571 284.059 39.6489C284.939 39.4697 284.988 38.2317 284.793 37.4905Z" fill="#263238"/>
<path d="M284.018 36.7005C282.723 36.6842 282.78 39.2742 283.986 39.2905C285.167 39.3068 285.11 36.7086 284.018 36.7005Z" fill="#263238"/>
<path d="M283.489 36.8797C283.285 37.0181 283.089 37.2788 282.845 37.2951C282.56 37.3195 282.348 37.0426 282.16 36.7819C282.144 36.7575 282.12 36.7738 282.12 36.8145C282.12 37.3113 282.291 37.8245 282.772 37.9059C283.212 37.9792 283.513 37.5475 283.627 37.0507C283.643 36.9611 283.57 36.8226 283.489 36.8797Z" fill="#263238"/>
<path d="M290.277 43.9983C290.105 44.2019 289.943 44.4788 289.649 44.5359C289.372 44.5847 289.038 44.4951 288.769 44.4218C288.745 44.4137 288.72 44.4463 288.736 44.4626C288.973 44.7476 289.429 44.8942 289.796 44.7965C290.154 44.6988 290.301 44.3648 290.35 44.0227C290.366 43.982 290.301 43.9739 290.277 43.9983Z" fill="#263238"/>
<path d="M286.137 41.0417C286.137 41.0417 286.023 42.2471 286.047 42.8091C286.047 42.8661 287.653 42.6544 289.339 43.1431C289.592 43.2164 289.584 43.0046 289.29 42.8499C288.72 42.5403 287.987 42.2308 286.512 42.296C286.463 42.1412 286.724 40.439 286.634 40.439C286.324 40.4227 285.721 40.6589 285.363 40.781C285.526 38.2643 286.096 35.7882 286.218 33.2796C286.218 33.19 286.088 33.1655 286.072 33.247C285.289 35.7964 285.037 38.6878 284.8 41.286C284.768 41.62 285.917 41.1476 286.137 41.0417Z" fill="#263238"/>
<path d="M287.351 42.801C287.351 42.801 288.141 43.8191 288.997 43.9087C289.983 44.0064 290.056 43.1268 288.948 42.6788C288.378 42.4508 287.351 42.801 287.351 42.801Z" fill="#263238"/>
<path d="M288.997 43.9087C288.63 43.8762 288.28 43.6725 287.987 43.4363C288.174 43.1187 288.622 42.7603 289.698 43.2734C289.877 43.6481 289.624 43.9739 288.997 43.9087Z" fill="#FF99BA"/>
<path d="M299.639 51.4997C301.074 51.4916 303.486 51.8581 306.737 54.3341C306.737 54.3341 299.949 59.7912 293.617 59.7994C291.36 59.7994 290.684 56.6473 290.684 56.6473C290.684 56.6473 293.731 51.5486 299.639 51.4997Z" fill="#EB9481"/>
<path d="M407 286H380.378C361.033 286 349.209 272.634 347.074 248.37C346.023 236.414 345.379 221.932 344.703 206.595C342.616 159.501 339.756 95.0017 321.413 95.0017H300.332V90.1147H321.413C344.425 90.1147 347.049 149.222 349.584 206.383C350.26 221.663 350.904 236.096 351.939 247.947C353.267 263.08 359.281 281.113 380.37 281.113H406.992V286H407Z" fill="#FFC727"/>
<path opacity="0.2" d="M315.815 90.1147L314.772 95.0017H300.332V90.1147H315.815Z" fill="black"/>
<path d="M260.599 63.3098H252.075V122.841H260.599V63.3098Z" fill="#FFC727"/>
<path d="M252.083 67.7081H219.675V117.832H252.083V67.7081Z" fill="#FFC727"/>
<path opacity="0.2" d="M252.075 67.7081V117.84H244.024L240.414 67.7081H252.075Z" fill="black"/>
<path d="M219.675 84.2016H194.813C193.037 84.2016 191.603 82.76 191.603 80.9925V79.9255C191.603 78.1499 193.045 76.7164 194.813 76.7164H219.675V84.2016Z" fill="#DBDBDB"/>
<path d="M219.667 76.7082H210.94V84.1934H219.667V76.7082Z" fill="#A6A6A6"/>
<path d="M219.675 108.832H194.813C193.037 108.832 191.603 107.39 191.603 105.623V104.556C191.603 102.78 193.045 101.347 194.813 101.347H219.675V108.832Z" fill="#DBDBDB"/>
<path d="M219.667 101.347H210.94V108.832H219.667V101.347Z" fill="#A6A6A6"/>
<path d="M310.966 87.9889H285.648V97.9827H310.966V87.9889Z" fill="#FFC727"/>
<path d="M310.966 87.9971H285.648V97.9909H310.966V87.9971Z" fill="#FFC727"/>
<path opacity="0.2" d="M294.539 87.9971L293.707 97.9828H285.648V87.9971H294.539Z" fill="black"/>
<path d="M280.637 115.942H260.599V69.5895H280.637C283.407 69.5895 285.648 71.8294 285.648 74.5987V110.933C285.648 113.702 283.399 115.942 280.637 115.942Z" fill="#FFC727"/>
<path opacity="0.2" d="M271.257 69.5978L267.655 115.951H260.599V69.5978H271.257Z" fill="black"/>
<g opacity="0.2">
<path d="M269.391 78.9644H267.794V106.576H269.391V78.9644Z" fill="black"/>
<path d="M273.922 78.9644H272.325V106.576H273.922V78.9644Z" fill="black"/>
<path d="M278.453 78.9644H276.855V106.576H278.453V78.9644Z" fill="black"/>
</g>
<path d="M308.62 60.0275C311.423 67.8873 307.414 96.704 302.663 102.78C295.598 111.813 281.664 120.137 276.326 122.727C274.004 123.859 263.557 107.178 265.839 105.615C270.72 102.267 286.3 94.2768 287.62 92.6886C288.94 91.1003 296.046 75.8449 298.89 67.2683C302.704 55.7595 307.194 56.0527 308.62 60.0275Z" fill="#EB9481"/>
<path d="M276.31 122.784C268.911 127.003 254.21 126.384 252.197 125.765C250.486 125.252 249.606 124.967 249.606 124.967C246.518 124.103 245.687 122.393 245.687 122.393C245.687 122.393 241.824 122.442 241.408 120.112C240.936 117.498 246.453 117.946 249.639 116.333C256.932 112.635 266.27 105.346 268.267 104.075L276.31 122.784Z" fill="#EB9481"/>
<path d="M260.012 117.832C257.845 118.874 255.742 119.958 253.444 120.707C250.918 121.522 248.359 121.888 245.752 122.328C245.67 122.344 245.678 122.458 245.76 122.458C250.592 122.417 256.084 120.691 260.11 118.027C260.208 117.954 260.118 117.783 260.012 117.832Z" fill="#263238"/>
<path d="M262.88 121.913C260.713 122.808 256.891 124.364 249.606 124.894C249.582 124.894 249.582 124.934 249.606 124.934C254.381 125.219 258.749 124.307 262.962 122.132C263.092 122.067 263.027 121.847 262.88 121.913Z" fill="#263238"/>
<path d="M258.154 111.324C258.912 110.469 258.472 110.062 256.467 110.428C254.438 110.795 246.844 113.93 245.972 111.186C245.092 108.425 255.921 104.157 259.303 103.806C262.685 103.448 268.463 104.075 268.463 104.075C266.515 105.329 261.919 108.815 258.154 111.324Z" fill="#EB9481"/>
<path d="M300.756 62.0067C305.686 51.6382 310.184 54.383 310.616 64.6375C311.015 74.224 309.671 85.9609 309.671 85.9609L291.801 80.8377C291.792 80.8377 297.602 68.6448 300.756 62.0067Z" fill="#DBDBDB"/>
<path d="M305.205 55.9631C305.719 56.2564 306.151 56.631 306.558 57.0301C306.957 57.4374 307.332 57.869 307.626 58.3822C307.112 58.089 306.68 57.7143 306.273 57.3152C305.874 56.9079 305.499 56.4763 305.205 55.9631Z" fill="white"/>
<path d="M298.328 67.366C298.483 67.9362 298.523 68.5063 298.531 69.0765C298.523 69.6466 298.491 70.2167 298.328 70.7869C298.165 70.2167 298.132 69.6466 298.124 69.0765C298.132 68.5063 298.173 67.9362 298.328 67.366Z" fill="white"/>
<path d="M309.06 71.2919C308.489 71.4466 307.919 71.4874 307.348 71.4955C306.778 71.4874 306.208 71.4548 305.637 71.2919C306.208 71.129 306.778 71.0964 307.348 71.0883C307.919 71.0964 308.489 71.1371 309.06 71.2919Z" fill="white"/>
<path d="M295.468 78.0929C295.981 78.3861 296.413 78.7608 296.82 79.1599C297.22 79.5671 297.594 79.9988 297.888 80.5119C297.374 80.2187 296.942 79.844 296.535 79.4449C296.136 79.0377 295.761 78.606 295.468 78.0929Z" fill="white"/>
<path d="M307.845 81.7174C308.139 81.2043 308.514 80.7726 308.913 80.3653C309.32 79.9662 309.752 79.5916 310.266 79.2983C309.972 79.8115 309.597 80.2432 309.198 80.6504C308.791 81.0495 308.367 81.4242 307.845 81.7174Z" fill="white"/>
<path d="M299.045 65.1669C298.377 66.5271 297.676 67.8628 296.975 69.2068C297.097 68.5633 297.195 67.928 297.268 67.2764C297.268 67.2438 297.228 67.2438 297.22 67.2683C297.122 67.7732 297 68.2782 296.902 68.7832C296.861 69.0276 296.812 69.2719 296.763 69.5163C296.755 69.5651 296.739 69.6221 296.731 69.671C296.185 70.7217 295.647 71.7643 295.133 72.8312C294.522 74.1018 293.936 75.3806 293.349 76.6593C292.746 77.9788 292.216 79.5019 291.556 80.797C291.499 80.911 293.137 81.2612 293.3 81.3182C293.463 81.3753 293.536 81.2124 293.373 81.1961C293.218 81.1798 291.882 80.6422 291.858 80.6259C292.444 79.339 293.17 78.1091 293.797 76.8467C294.416 75.5842 295.044 74.3218 295.639 73.043C296.845 70.4529 297.904 67.7895 299.102 65.1832C299.118 65.1506 299.061 65.1343 299.045 65.1669Z" fill="#263238"/>
<path d="M311.358 71.3407C311.195 71.8701 311.007 72.3996 310.869 72.9453C310.812 73.1652 310.763 73.3932 310.706 73.6132C310.771 71.7643 310.828 69.9154 310.885 68.0583C310.885 68.0339 310.853 68.0339 310.853 68.0502C310.6 71.0719 310.339 74.1018 310.144 77.1318C309.956 80.0232 309.638 82.9635 309.744 85.8631C309.5 85.8305 308.131 85.521 308.106 85.6106C308.082 85.7002 309.94 86.2133 309.948 86.14C310.404 83.216 310.437 79.9743 310.576 77.0177C310.616 76.1869 310.641 75.3562 310.673 74.5172C310.779 74.0041 310.918 73.4991 311.056 72.986C311.203 72.4484 311.301 71.8946 311.415 71.3489C311.423 71.3244 311.366 71.3081 311.358 71.3407Z" fill="#263238"/>
<path d="M308.929 83.2486C306.411 82.3527 295.989 79.0621 293.683 78.5001C293.52 78.4594 293.455 78.549 293.618 78.6141C301.082 81.473 306.371 82.5889 308.889 83.3463C308.954 83.3626 308.995 83.273 308.929 83.2486Z" fill="#263238"/>
<path d="M221.321 80.4467C223.791 81.1961 223.261 77.8648 223.261 77.8648C223.261 77.8648 225.176 82.4911 228.02 82.2793C230.758 82.0757 229.984 78.0603 229.935 77.7752C230.041 78.0195 231.907 82.2223 234.742 81.7173C237.692 81.1961 236.217 77.3028 236.128 77.0503C236.299 77.2458 238.589 79.8521 240.659 78.9806C244.211 77.482 238.54 70.6728 238.955 67.5777L243.951 67.7244C244.114 67.6999 244.285 67.6836 244.44 67.6511L244.635 65.1017C243.209 64.5967 241.596 63.66 240.023 62.7804C238.141 61.7216 236.323 60.7605 234.971 60.736C232.746 60.6953 232.159 62.6012 232.159 62.6012C232.159 62.6012 230.693 60.288 228.452 60.6138C227.303 60.7849 226.545 62.7804 226.545 62.7804C226.545 62.7804 225.298 60.9804 223.318 61.3958C221.737 61.7216 221.224 63.6682 221.224 63.6682C221.224 63.6682 219.219 62.4953 217.712 63.3505C214.656 65.0691 216.041 78.834 221.321 80.4467Z" fill="#EB9481"/>
<path d="M239.599 67.3253L243.951 67.7244C244.114 67.6999 244.285 67.6836 244.44 67.6511C249.94 66.6574 253.354 60.3695 249.378 59.9215C246.346 59.5713 243.079 63.5868 240.023 62.7804V62.7885L239.599 67.3253Z" fill="#EB9481"/>
<path d="M221.085 63.9614C221.085 63.9125 221.02 63.9044 221.012 63.9532C220.36 68.5877 221.069 73.89 223.277 78.0521C223.351 78.1906 223.603 78.1335 223.554 77.9625C222.096 73.2384 221.183 68.9216 221.085 63.9614Z" fill="#263238"/>
<path d="M226.496 62.7071C226.496 62.6501 226.406 62.6501 226.398 62.7152C225.754 67.4963 226.716 73.4421 229.821 77.9381C229.927 78.0928 230.179 78.1254 230.065 77.9381C228.232 74.786 226.561 67.1786 226.496 62.7071Z" fill="#263238"/>
<path d="M236.454 77.2946C233.634 72.8638 232.526 67.9768 232.102 62.7967C232.094 62.7315 232.005 62.7478 231.988 62.8048C231.499 65.3949 232.119 68.6691 232.811 71.1778C233.471 73.5805 234.555 75.6168 236.299 77.3923C236.372 77.4575 236.519 77.3842 236.454 77.2946Z" fill="#263238"/>
<path d="M167.621 262.974C165.926 263.536 117.636 263.398 115.794 262.225C115.102 261.785 114.711 254.748 114.482 246.245C114.433 244.404 114.393 242.514 114.36 240.576C114.319 238.295 114.295 235.982 114.279 233.734C114.222 223.651 114.36 214.773 114.36 214.773H145.798L145.782 233.734L145.774 240.576L145.611 246.245C145.611 246.245 164.076 254.569 165.95 256.067C167.833 257.558 169.308 262.42 167.621 262.974Z" fill="#AD6359"/>
<path d="M167.621 262.974C165.926 263.536 117.636 263.398 115.794 262.225C115.102 261.785 114.711 254.748 114.483 246.245C114.434 244.404 114.393 242.514 114.36 240.576C114.32 238.295 114.295 235.982 114.279 233.734H145.79L145.782 240.576L145.619 246.245C145.619 246.245 164.084 254.569 165.959 256.067C167.833 257.558 169.308 262.42 167.621 262.974Z" fill="white"/>
<path d="M167.767 263.048C166.667 263.406 146.092 263.487 131.114 263.17C127.651 263.097 124.481 262.999 121.922 262.893C118.394 262.73 116.031 262.535 115.648 262.298C114.8 261.753 114.393 251.425 114.197 240.535H145.79L145.627 246.228C145.627 246.228 164.198 254.593 166.089 256.1C167.979 257.607 169.462 262.478 167.767 263.048Z" fill="#FFC727"/>
<path d="M167.075 261.101C158.934 260.881 126.078 260.743 118.019 261.142C117.954 261.142 117.954 261.191 118.019 261.191C126.086 261.59 158.934 261.451 167.075 261.231C167.246 261.231 167.254 261.109 167.075 261.101Z" fill="#263238"/>
<path d="M146.792 244.42C143.59 243.809 139.67 244.29 137.218 246.57C137.12 246.66 137.25 246.79 137.356 246.758C140.518 245.772 143.476 245.137 146.784 244.827C147.012 244.803 147.021 244.461 146.792 244.42Z" fill="#263238"/>
<path d="M149.107 245.821C145.904 245.21 141.985 245.691 139.532 247.971C139.434 248.061 139.564 248.191 139.67 248.159C142.832 247.173 145.79 246.538 149.099 246.228C149.319 246.204 149.335 245.862 149.107 245.821Z" fill="#263238"/>
<path d="M151.413 247.214C148.21 246.603 144.291 247.084 141.838 249.364C141.74 249.454 141.871 249.584 141.977 249.552C145.138 248.566 148.096 247.931 151.405 247.621C151.633 247.597 151.641 247.263 151.413 247.214Z" fill="#263238"/>
<path d="M153.719 248.615C150.516 248.004 146.597 248.485 144.144 250.765C144.046 250.855 144.177 250.985 144.283 250.952C147.444 249.967 150.402 249.332 153.711 249.022C153.939 248.998 153.947 248.664 153.719 248.615Z" fill="#263238"/>
<path d="M152.733 237.033C151.478 235.298 149.131 236.072 147.795 237.188C145.627 239.004 143.721 241.838 142.84 244.51C142.816 244.575 142.865 244.616 142.914 244.624C142.922 244.868 143.142 245.129 143.419 245.023C146.067 244.054 149.017 243.337 151.291 241.586C152.611 240.56 153.923 238.67 152.733 237.033ZM147.127 242.734C145.839 243.247 144.527 243.687 143.256 244.241C144.226 242.816 145.13 241.358 146.247 240.03C146.776 239.395 147.339 238.759 147.95 238.197C148.903 237.334 152.684 235.502 152.106 239.012C151.788 240.95 148.667 242.123 147.127 242.734Z" fill="#263238"/>
<path d="M134.7 243.646C137.34 244.779 140.371 244.73 143.183 245.015C143.476 245.047 143.623 244.738 143.566 244.502C143.615 244.477 143.647 244.428 143.606 244.371C142.091 242.001 139.532 239.729 136.981 238.515C135.401 237.766 132.94 237.603 132.157 239.598C131.416 241.48 133.16 242.987 134.7 243.646ZM133.257 241.358C131.823 238.1 135.938 238.931 137.079 239.533C137.813 239.916 138.513 240.397 139.182 240.877C140.591 241.887 141.83 243.068 143.126 244.208C141.757 243.989 140.38 243.883 139.002 243.712C137.364 243.516 134.048 243.158 133.257 241.358Z" fill="#263238"/>
<path d="M150.272 238.312L111.304 239.012C111.304 239.012 105.999 204.551 102.504 183.105C101.184 175.05 100.14 168.835 99.7168 166.954C98.7063 162.482 78.9536 91.5076 78.9536 91.5076L107.287 91.4668L116.96 91.4587C116.96 91.4587 116.34 103.326 116.707 104.572C121.759 121.75 132.084 152.212 135.311 162.824C140.273 179.163 150.272 238.312 150.272 238.312Z" fill="#7C7C7C"/>
<path d="M146.727 232.341C141.129 232.301 121.303 232.081 113.847 232.773C113.79 232.781 113.79 232.871 113.847 232.879C116.414 233.245 141.129 232.675 146.727 232.496C146.841 232.488 146.833 232.341 146.727 232.341Z" fill="#263238"/>
<path d="M111.94 202.971C110.595 194.06 109.096 185.166 107.434 176.304C106.611 171.947 105.722 167.589 104.59 163.305C103.441 158.964 101.998 154.704 100.532 150.46C97.6226 142.022 94.8194 133.543 92.2199 125.008C89.6204 116.472 87.1676 107.895 84.8941 99.2615C84.6089 98.1701 84.3156 97.0787 84.0059 95.9873C83.9815 95.8977 83.8511 95.9384 83.8674 96.028C84.7556 100.377 85.8964 104.686 87.0047 108.978C88.1129 113.279 89.2863 117.563 90.5168 121.831C92.994 130.408 95.6668 138.919 98.5678 147.357C100.01 151.56 101.51 155.755 102.789 160.014C104.068 164.266 105.071 168.591 105.951 172.94C107.752 181.761 109.275 190.647 110.701 199.542C112.136 208.477 113.333 217.444 114.523 226.412C114.678 227.552 114.825 228.684 114.971 229.825C115.012 230.142 115.517 230.142 115.485 229.808C114.531 220.849 113.293 211.898 111.94 202.971Z" fill="#263238"/>
<path d="M107.295 91.4669L102.504 183.097C101.184 175.042 100.14 168.827 99.7168 166.946C98.7063 162.474 78.9536 91.4995 78.9536 91.4995L107.295 91.4669Z" fill="#263238"/>
<path d="M119.29 270.663C117.595 271.225 69.3054 271.087 67.4638 269.914C66.7711 269.482 66.38 262.437 66.1518 253.934C66.1029 252.093 66.0622 250.203 66.0296 248.265C65.9888 245.984 65.9644 243.671 65.9481 241.423C65.8911 231.34 66.0296 222.462 66.0296 222.462H97.4677L97.4514 241.423L97.4432 248.265L97.2802 253.934C97.2802 253.934 115.745 262.258 117.62 263.756C119.502 265.247 120.977 270.109 119.29 270.663Z" fill="#AD6359"/>
<path d="M119.29 270.663C117.595 271.225 69.3055 271.087 67.4639 269.914C66.7713 269.482 66.3801 262.437 66.152 253.934C66.1031 252.093 66.0623 250.203 66.0297 248.265C65.989 245.984 65.9645 243.671 65.9482 241.423H97.4597L97.4515 248.265L97.2885 253.934C97.2885 253.934 115.754 262.258 117.628 263.756C119.502 265.247 120.977 270.109 119.29 270.663Z" fill="white"/>
<path d="M119.437 270.736C118.337 271.095 97.7611 271.168 82.7836 270.859C79.3204 270.785 76.1505 270.688 73.5918 270.582C70.0633 270.419 67.7002 270.223 67.3172 269.987C66.4697 269.441 66.0623 259.114 65.8667 248.224H97.4596L97.2966 253.917C97.2966 253.917 115.868 262.282 117.758 263.789C119.641 265.288 121.132 270.166 119.437 270.736Z" fill="#FFC727"/>
<path d="M118.744 268.79C110.604 268.57 77.7477 268.431 69.6885 268.831C69.6234 268.831 69.6234 268.879 69.6885 268.879C77.7559 269.279 110.604 269.14 118.744 268.92C118.915 268.92 118.915 268.798 118.744 268.79Z" fill="#263238"/>
<path d="M98.4619 252.101C95.2594 251.49 91.3398 251.971 88.887 254.251C88.7893 254.341 88.9196 254.471 89.0256 254.439C92.1873 253.453 95.1453 252.818 98.4537 252.508C98.6819 252.484 98.6901 252.15 98.4619 252.101Z" fill="#263238"/>
<path d="M100.768 253.502C97.5656 252.891 93.646 253.372 91.1932 255.652C91.0954 255.742 91.2258 255.872 91.3317 255.839C94.4935 254.854 97.4515 254.219 100.76 253.909C100.988 253.885 100.996 253.551 100.768 253.502Z" fill="#263238"/>
<path d="M103.082 254.903C99.8798 254.292 95.9602 254.772 93.5074 257.053C93.4096 257.143 93.54 257.273 93.6459 257.24C96.8077 256.255 99.7657 255.62 103.074 255.31C103.294 255.286 103.31 254.952 103.082 254.903Z" fill="#263238"/>
<path d="M105.388 256.304C102.186 255.693 98.2663 256.173 95.8136 258.454C95.7158 258.544 95.8462 258.674 95.9521 258.641C99.1138 257.656 102.072 257.02 105.38 256.711C105.608 256.686 105.617 256.344 105.388 256.304Z" fill="#263238"/>
<path d="M104.403 244.713C103.148 242.979 100.801 243.752 99.4644 244.868C97.2968 246.685 95.39 249.519 94.5099 252.19C94.4855 252.256 94.5344 252.296 94.5833 252.305C94.5914 252.549 94.8114 252.809 95.0885 252.704C97.7368 251.734 100.687 251.018 102.96 249.266C104.28 248.248 105.584 246.359 104.403 244.713ZM98.7962 250.415C97.5087 250.928 96.1967 251.368 94.9255 251.922C95.8952 250.496 96.7997 249.038 97.9161 247.711C98.4458 247.075 99.0081 246.44 99.6192 245.886C100.573 245.023 104.354 243.19 103.775 246.701C103.457 248.631 100.336 249.812 98.7962 250.415Z" fill="#263238"/>
<path d="M86.3611 251.335C89.0013 252.467 92.0326 252.419 94.844 252.704C95.1373 252.736 95.284 252.427 95.2269 252.191C95.2758 252.166 95.3084 252.117 95.2677 252.06C93.752 249.69 91.1933 247.418 88.6427 246.204C87.0618 245.455 84.6009 245.292 83.8186 247.287C83.0852 249.169 84.8209 250.676 86.3611 251.335ZM84.9269 249.047C83.4927 245.789 87.6078 246.619 88.7487 247.222C89.482 247.605 90.1828 248.085 90.851 248.566C92.2608 249.576 93.4994 250.757 94.7951 251.897C93.4261 251.677 92.0489 251.571 90.6718 251.4C89.0339 251.197 85.7173 250.838 84.9269 249.047Z" fill="#263238"/>
<path d="M101.884 245.528H63.7317C63.7317 245.528 72.0109 127.37 70.6745 120.74C68.4824 109.899 69.9492 97.4452 75.0748 91.4506H108.998C108.998 91.4506 109.675 100.964 106.171 106.649C106.171 106.649 102.993 108.661 101.444 109.549L101.884 245.528Z" fill="#7C7C7C"/>
<path d="M98.3071 239.37C93.0267 239.232 94.5424 239.199 89.262 239.118C86.6788 239.077 69.6886 238.841 67.2684 239.232C67.2113 239.24 67.2113 239.33 67.2684 239.338C69.6804 239.753 86.6707 239.696 89.2538 239.68C94.5343 239.655 93.0186 239.607 98.299 239.525C98.4049 239.525 98.4131 239.379 98.3071 239.37Z" fill="#263238"/>
<path d="M108.298 105.134C104.948 106.682 101.778 108.701 98.7634 110.778C98.6412 110.86 98.7471 111.039 98.8775 110.966C102.104 109.182 105.405 107.447 108.526 105.501C108.762 105.346 108.55 105.012 108.298 105.134Z" fill="#263238"/>
<path d="M103.97 104.645C103.767 105.297 103.62 105.973 103.506 106.649C103.416 107.17 103.286 107.74 103.4 108.262C103.425 108.359 103.563 108.359 103.612 108.278C103.913 107.806 104.003 107.195 104.142 106.657C104.305 106.038 104.476 105.419 104.622 104.792C104.728 104.377 104.101 104.238 103.97 104.645Z" fill="#263238"/>
<path d="M103.669 101.379C103.759 100.809 103.848 100.247 103.954 99.685C104.06 99.0986 104.207 98.5203 104.264 97.9257C104.272 97.8362 104.427 97.8606 104.41 97.9583C104.321 98.5285 104.313 99.1068 104.264 99.685C104.215 100.263 104.166 100.833 104.109 101.404C104.003 102.471 103.816 103.546 103.604 104.605C104.158 104.474 104.72 104.32 105.16 103.961C105.641 103.57 105.845 102.91 105.991 102.332C106.154 101.681 106.301 101.029 106.472 100.386C106.668 99.6688 106.904 98.9601 106.969 98.219C106.977 98.1294 107.124 98.1538 107.116 98.2515C106.928 99.7909 106.749 101.33 106.252 102.821C106.057 103.407 105.926 104.002 105.396 104.328C104.826 104.686 104.15 104.792 103.498 104.89C103.424 104.93 103.31 104.898 103.319 104.8C103.392 103.652 103.49 102.495 103.669 101.379Z" fill="#263238"/>
<path d="M76.1913 120.308C75.9468 117.816 75.5394 115.34 75.2705 112.855C74.7245 107.846 75.0994 102.845 76.175 97.9339C76.1913 97.8443 76.0528 97.8036 76.0365 97.9013C75.2053 102.243 74.4882 106.567 74.7001 111.006C74.9119 115.397 75.6942 119.73 75.7676 124.136C75.8409 128.599 75.4905 133.055 75.2053 137.502C74.9201 141.982 74.6267 146.453 74.3415 150.933C73.1844 168.925 72.1169 186.917 71.0168 204.917C70.7072 209.943 70.4301 214.96 70.1367 219.985C69.8434 225.1 69.4848 230.215 69.2974 235.331C69.2811 235.77 69.9412 235.738 69.9738 235.314C70.7398 226.29 71.1798 217.224 71.7584 208.183C72.3288 199.232 72.8503 190.281 73.3963 181.33C73.9422 172.378 74.4801 163.427 75.0097 154.476C75.2786 150.004 75.5312 145.525 75.7839 141.053C76.0446 136.598 76.3706 132.134 76.4358 127.671C76.4765 125.211 76.4276 122.751 76.1913 120.308Z" fill="#263238"/>
<path d="M88.2027 97.6244C88.1782 97.5674 88.1049 97.5511 88.0723 97.6081C87.7952 98.0887 87.8441 98.8869 87.7545 99.4326C87.6404 100.1 87.5019 100.76 87.29 101.404C86.8581 102.707 86.2714 103.872 85.2528 104.825C83.1178 106.82 80.2576 107.561 77.5033 108.237C77.3974 108.262 77.4381 108.4 77.5277 108.408C79.1493 108.522 80.7954 108.18 82.3355 107.659C83.6882 107.203 84.992 106.568 86.0514 105.582C87.0944 104.605 87.7463 103.35 88.056 101.958C88.2108 101.249 88.2597 100.491 88.2841 99.7665C88.3004 99.4163 88.3004 99.0579 88.3004 98.7077C88.2841 98.3493 88.3412 97.9421 88.2027 97.6244Z" fill="#263238"/>
<path d="M104.174 51.8907C104.875 57.4292 115.729 78.0114 127.284 87.1419C131.522 90.4894 153.988 92.4686 159.602 92.037C166.187 91.532 167.173 75.8774 163.481 74.6557C158.877 73.1326 137.584 71.2511 133.396 69.7362C128.311 67.8954 119.054 56.0772 110.261 48.763C105.739 45.0001 103.636 47.6309 104.174 51.8907Z" fill="#AD6359"/>
<path d="M159.611 92.037C161.688 91.9799 171.206 90.8885 173.781 89.9926C176.364 89.0966 183.592 85.9771 183.112 83.9328C182.623 81.8884 180.431 82.6296 180.431 82.6296C180.431 82.6296 183.275 80.8296 182.598 78.8178C181.922 76.806 178.548 78.0766 178.548 78.0766C178.548 78.0766 181.335 76.0159 180.52 74.053C179.705 72.0901 176.527 73.939 176.527 73.939C176.527 73.939 179.168 72.1715 177.807 70.8439C176.177 69.2393 171.687 73.0512 168.762 73.8249C168.102 74.0041 155.063 76.4394 155.063 76.4394L159.611 92.037Z" fill="#AD6359"/>
<path d="M176.804 73.7923C173.496 76.5779 171.565 77.2295 167.336 77.8159C167.254 77.8241 167.254 77.9544 167.336 77.9462C171.524 77.7508 174.066 77.2865 176.943 73.9471C177.09 73.776 176.959 73.6539 176.804 73.7923Z" fill="#263238"/>
<path d="M178.809 77.8567C175.118 80.4549 173.023 81.1716 168.647 82.1083C168.582 82.1246 168.599 82.2305 168.664 82.2223C173.04 81.6603 175.558 81.1472 178.907 78.0684C179.062 77.9218 178.98 77.7345 178.809 77.8567Z" fill="#263238"/>
<path d="M180.202 82.6784C176.446 84.9345 174.189 85.8223 169.821 86.1889C169.715 86.197 169.723 86.3518 169.821 86.3518C174.311 86.4169 177.13 85.3255 180.251 82.8006C180.471 82.6295 180.439 82.5318 180.202 82.6784Z" fill="#263238"/>
<path d="M152.016 74.729C152.016 74.729 156.595 71.8131 158.885 70.9742C161.175 70.1353 170.872 70.1597 170.986 72.253C171.133 74.9571 165.535 76.0403 162.723 76.2195C162.723 76.2195 163.066 82.4748 159.219 84.1201C155.373 85.7654 152.016 74.729 152.016 74.729Z" fill="#AD6359"/>
<path d="M170.791 73.0105C169.145 75.568 165.437 75.5598 162.723 75.9345C162.52 75.9589 162.471 76.1381 162.52 76.2929C162.487 78.9237 161.68 82.6215 159.382 84.1853C159.317 84.2342 159.374 84.3319 159.447 84.2993C162.137 82.9636 163.229 79.3879 163.082 76.5046C165.869 76.1626 169.593 76.0078 170.823 73.0268C170.823 73.0105 170.799 72.9942 170.791 73.0105Z" fill="#263238"/>
<path d="M140.2 91.7356C140.2 91.7356 128.694 88.5917 127.292 87.4921C125.769 86.2948 124.31 84.9998 122.925 83.6314C112.462 73.3444 106.13 59.3352 104.419 54.4075C102.618 49.2029 104.28 44.2263 109.129 47.582C109.487 47.8345 109.862 48.1277 110.253 48.4698C115.966 53.4382 131.212 68.547 133.054 69.329C134.895 70.0946 143.875 71.2675 143.875 71.2675L140.2 91.7356Z" fill="#455A64"/>
<path d="M122.925 83.6314C112.462 73.3444 106.13 59.3352 104.419 54.4075C102.618 49.2029 104.28 44.2263 109.129 47.582L122.925 83.6314Z" fill="#263238"/>
<path d="M140.151 70.9254C139.573 72.4648 139.214 74.1182 138.823 75.7146C138.424 77.3273 138.024 78.94 137.674 80.5608C136.981 83.7536 136.338 86.9953 136.012 90.2533C136.003 90.3347 136.134 90.3591 136.158 90.2777C137.038 87.0849 137.69 83.8188 138.367 80.5771C138.701 78.9807 139.002 77.3761 139.336 75.7797C139.67 74.1833 140.07 72.5625 140.249 70.9417C140.241 70.8928 140.167 70.8846 140.151 70.9254Z" fill="#263238"/>
<path d="M115.338 63.1714C115.615 64.385 115.827 65.6312 115.982 66.8855C115.99 66.8366 115.99 66.7878 115.998 66.7389C116.063 66.0466 116.112 65.338 116.234 64.6538C116.243 64.6212 116.3 64.6131 116.3 64.6538C116.357 65.3461 116.3 66.0792 116.218 66.7715C116.177 67.1054 116.137 67.4312 116.088 67.7652C116.145 68.3272 116.194 68.8892 116.226 69.443C116.291 70.5019 116.495 75.0223 116.471 75.7961C116.463 75.9589 116.275 75.9752 116.243 75.8042C116.08 75.006 115.68 70.3552 115.566 69.3046C115.354 67.2928 115.248 65.2077 115.257 63.1796C115.257 63.1226 115.322 63.1307 115.338 63.1714Z" fill="#263238"/>
<path d="M116.634 96.9973C115.02 98.4633 113.016 100.605 101.575 101.404C100.858 101.453 100.132 101.469 99.3909 101.444C88.3737 101.135 72.9154 92.4605 71.9946 91.8008C71.9946 91.8008 83.8674 59.6935 99.5702 47.3703C101.811 45.611 106.619 46.4825 109.626 48.2907C110.701 48.9423 114.254 54.8799 114.963 60.2881C115.672 65.6882 118.255 95.5393 116.634 96.9973Z" fill="#455A64"/>
<path d="M107.711 56.3053C104.94 56.5252 100.98 51.736 99.6761 48.1522C99.5864 47.9078 100.304 45.5703 101.037 42.687C101.477 40.9358 101.925 38.9729 102.202 37.1566C102.259 36.7819 103.425 37.6615 103.425 37.6615L105.69 38.5901L113.187 41.6688C113.187 41.6688 111.484 45.3096 111.011 48.478C110.978 48.7468 110.962 48.9911 110.978 49.2355C110.978 49.268 110.978 49.3169 110.978 49.3576C110.978 50.8237 110.384 56.0935 107.711 56.3053Z" fill="#AD6359"/>
<path d="M110.97 49.2436C110.97 49.2762 110.97 49.3251 110.97 49.3658C110.604 49.3658 110.213 49.3251 109.789 49.2518C102.137 47.8997 102.675 37.9955 102.675 37.9955L105.69 38.5901L113.187 41.6688C113.187 41.6688 111.484 45.3096 111.011 48.478C110.97 48.7549 110.954 49.0074 110.97 49.2436Z" fill="#263238"/>
<path d="M101.42 25.2405C99.9612 29.2641 101.518 41.172 104.288 43.9494C108.306 47.9812 115.183 48.6979 118.687 43.7947C122.077 39.0462 119.779 23.5627 116.658 21.0052C112.054 17.2422 103.571 19.3029 101.42 25.2405Z" fill="#AD6359"/>
<path d="M112.274 33.4832C112.266 33.4506 112.217 33.5321 112.225 33.5646C112.348 34.3628 112.364 35.2995 111.671 35.6579C111.647 35.666 111.655 35.7068 111.687 35.6986C112.551 35.4624 112.527 34.2162 112.274 33.4832Z" fill="#263238"/>
<path d="M111.451 32.7339C110.147 32.7991 110.367 35.3973 111.582 35.3403C112.771 35.2832 112.543 32.6769 111.451 32.7339Z" fill="#263238"/>
<path d="M117.212 32.9456C117.212 32.913 117.277 32.9782 117.277 33.0107C117.318 33.8171 117.506 34.7375 118.263 34.9411C118.288 34.9492 118.288 34.99 118.263 34.99C117.359 34.9411 117.123 33.7194 117.212 32.9456Z" fill="#263238"/>
<path d="M117.864 32.0415C119.152 31.8298 119.478 34.4198 118.288 34.6153C117.106 34.8108 116.78 32.2207 117.864 32.0415Z" fill="#263238"/>
<path d="M110.441 30.8361C110.791 30.7139 111.084 30.551 111.419 30.3963C111.793 30.2252 112.103 30.1193 112.331 29.7528C112.453 29.5573 112.364 29.2315 112.185 29.0931C111.761 28.7836 111.256 28.8813 110.799 29.0687C110.302 29.2723 109.976 29.5655 109.715 30.0379C109.463 30.5022 109.984 30.999 110.441 30.8361Z" fill="#263238"/>
<path d="M118.679 31.1619C118.312 31.1375 117.978 31.0479 117.62 30.9827C117.212 30.9094 116.886 30.8931 116.577 30.5917C116.414 30.4288 116.414 30.0949 116.552 29.9157C116.878 29.5085 117.4 29.4759 117.889 29.5411C118.418 29.6144 118.818 29.8098 119.176 30.2008C119.535 30.5836 119.16 31.1945 118.679 31.1619Z" fill="#263238"/>
<path d="M112.217 40.7566C112.429 40.9276 112.641 41.172 112.934 41.172C113.219 41.172 113.537 41.0172 113.782 40.8951C113.806 40.8869 113.831 40.9113 113.822 40.9358C113.643 41.2616 113.219 41.4978 112.836 41.4652C112.47 41.4326 112.258 41.1313 112.144 40.8055C112.119 40.7566 112.185 40.7322 112.217 40.7566Z" fill="#263238"/>
<path d="M116.08 37.3195C116.08 37.3195 116.235 38.5168 116.235 39.0869C116.235 39.1439 114.621 38.9892 112.959 39.543C112.706 39.6245 112.714 39.4127 112.991 39.2498C113.554 38.9159 114.271 38.5901 115.746 38.5982C115.786 38.4435 115.469 36.7575 115.558 36.7493C115.868 36.7249 116.479 36.9367 116.846 37.0507C116.593 34.542 115.933 32.0904 115.721 29.5899C115.713 29.5003 115.843 29.4759 115.868 29.5574C116.74 32.0741 117.09 34.9574 117.424 37.5475C117.473 37.8489 116.308 37.4172 116.08 37.3195Z" fill="#263238"/>
<path d="M102.284 35.1692C104.337 35.0226 104.076 30.0053 104.076 30.0053C104.076 30.0053 107.206 29.4026 108.68 25.0939C108.68 25.0939 112.739 27.57 116.112 26.9184C121.401 25.8921 121.173 19.0178 119.176 17.6332C116.34 15.6784 111.37 18.635 111.37 18.635C111.37 18.635 103.767 16.6151 101.575 21.7627C101.575 21.7627 98.2011 21.95 98.0137 25.6804C97.8263 29.4107 100.76 35.2751 102.284 35.1692Z" fill="#263238"/>
<path d="M103.351 30.5999C104.85 30.2822 106.277 29.5736 107.279 28.3926C108.314 27.1709 108.9 25.3138 108.428 23.7418C108.403 23.6604 108.542 23.6197 108.566 23.7093C108.966 25.4523 108.884 27.2523 107.784 28.7428C106.782 30.1112 105.07 30.9664 103.359 30.7465C103.286 30.7465 103.261 30.6243 103.351 30.5999Z" fill="#263238"/>
<path d="M97.7203 23.5056C98.7471 22.1699 100.336 21.9418 101.909 21.9825C101.998 21.9825 101.99 22.1291 101.901 22.121C100.352 21.9662 98.8041 23.0169 98.0055 24.2957C97.2314 25.55 97.427 27.1138 97.7611 28.4822C98.4048 31.1048 99.9857 33.4669 102.235 34.9818C102.275 35.0062 102.235 35.0633 102.194 35.0388C99.6434 33.4587 97.7692 30.8768 97.1743 27.9283C96.9054 26.4785 96.7751 24.7355 97.7203 23.5056Z" fill="#263238"/>
<path d="M111.166 18.8875C111.867 17.7961 112.812 16.9979 114.051 16.6232C115.477 16.1915 117.114 16.3626 118.451 17.0142C119.584 17.568 120.219 18.7083 120.317 19.9626C120.431 21.3961 119.771 22.7563 118.981 23.8885C118.956 23.921 118.907 23.8885 118.932 23.8559C119.575 22.7808 120.064 21.5753 119.975 20.2966C119.885 19.0259 119.201 17.9671 118.043 17.4784C115.86 16.5417 112.682 16.7372 111.288 18.9689C111.239 19.0341 111.117 18.9608 111.166 18.8875Z" fill="#263238"/>
<path d="M103.449 34.9818C103.449 34.9818 100.898 31.0804 99.1299 31.9764C97.3698 32.8723 99.2033 38.476 101.216 39.2905C103.229 40.1131 104.027 38.2643 104.027 38.2643L103.449 34.9818Z" fill="#AD6359"/>
<path d="M99.7004 33.5728C99.6678 33.5728 99.6597 33.6135 99.6841 33.6298C101.094 34.2488 101.803 35.6008 102.284 36.9855C101.876 36.4479 101.306 36.1384 100.581 36.619C100.54 36.6434 100.572 36.7004 100.613 36.7004C101.2 36.5945 101.624 36.7085 101.998 37.1891C102.267 37.5312 102.447 37.9547 102.634 38.3457C102.699 38.476 102.927 38.4108 102.887 38.2642C102.887 38.2561 102.878 38.2398 102.878 38.2316C102.984 36.4072 101.648 33.8171 99.7004 33.5728Z" fill="#263238"/>
<path d="M26.6221 286H0V281.113H26.6221C47.7194 281.113 53.725 263.072 55.0533 247.947C56.0963 236.096 56.7319 221.655 57.4083 206.375C59.9426 149.214 62.5665 90.1066 85.5787 90.1066H106.66V94.9936H85.5787C67.2439 94.9936 64.3837 159.493 62.2894 206.587C61.6131 221.924 60.9693 236.406 59.9181 248.362C57.7913 272.642 45.9674 286 26.6221 286Z" fill="#FFC727"/>
<path opacity="0.2" d="M106.668 90.1147V95.0017H89.8487L88.8057 90.1147H106.668Z" fill="black"/>
<path d="M179.832 124.122H188.812V61.4229H179.832V124.122Z" fill="#FFC727"/>
<path d="M179.828 64.4012H145.7V120.503H179.828V64.4012Z" fill="#FFC727"/>
<path opacity="0.2" d="M179.828 64.4012V120.503H171.353L167.547 64.4012H179.828Z" fill="black"/>
<path d="M94.0044 97.5577H119.323V87.5639H94.0044V97.5577Z" fill="#FFC727"/>
<path d="M119.323 87.5573H94.0046V97.5511H119.323V87.5573Z" fill="#FFC727"/>
<path opacity="0.2" d="M110.433 97.5511L111.264 87.5573H119.323V97.5511H110.433Z" fill="black"/>
<path d="M124.335 68.3679H145.701V117.189H124.335C121.564 117.189 119.323 114.949 119.323 112.179V73.377C119.323 70.6078 121.564 68.3679 124.335 68.3679Z" fill="#FFC727"/>
<path opacity="0.2" d="M134.472 117.18L138.277 68.3597H145.701V117.18H134.472Z" fill="black"/>
<g opacity="0.2">
<path d="M136.438 107.316H138.125V78.2388H136.438V107.316Z" fill="black"/>
<path d="M131.671 107.316H133.357V78.2388H131.671V107.316Z" fill="black"/>
<path d="M126.895 107.316H128.582V78.2388H126.895V107.316Z" fill="black"/>
</g>
<path d="M92.4482 58.6184C91.5925 70.3797 90.7043 94.342 95.9033 101.363C102.724 110.583 121.963 116.179 127.651 117.856C130.128 118.589 135.955 102.405 134.504 100.052C133.054 97.7058 113.179 92.6967 111.614 91.3528C110.05 90.0089 105.128 70.8928 102.74 61.1678C99.725 48.9097 92.7823 53.9839 92.4482 58.6184Z" fill="#AD6359"/>
<path d="M149.221 106.274C152.366 107.024 157.125 105.419 157.28 107.814C157.418 109.948 154.012 110.746 154.012 110.746C154.012 110.746 158.136 111.088 157.63 113.426C157.125 115.763 153.214 115.877 153.214 115.877C153.214 115.877 156.995 116.39 156.318 118.695C155.642 120.992 152.008 121.31 152.008 121.31C152.008 121.31 152.969 122.027 151.763 123.436C150.036 125.456 144.307 125.219 141.341 124.38C138.375 123.55 128.14 118.304 126.592 117.474L131.782 98.4145C131.782 98.4145 137.739 97.4697 140.819 97.3556C143.9 97.2416 154.143 99.6851 153.711 102.267C153.279 104.849 146.067 103 144.209 102.935C142.343 102.87 142.017 103.285 142.832 103.969C143.354 104.409 147.827 105.949 149.221 106.274Z" fill="#AD6359"/>
<path d="M153.825 110.705C149.001 111.479 146.76 110.982 142.335 109.092C142.245 109.052 142.172 109.174 142.262 109.223C146.418 111.471 149.147 112.497 153.874 110.941C154.11 110.86 154.061 110.664 153.825 110.705Z" fill="#263238"/>
<path d="M153.401 115.796C148.325 116.162 145.888 115.641 141.113 114.004C141.048 113.979 140.999 114.093 141.064 114.118C145.611 116.122 148.357 117.083 153.385 116.048C153.613 116.007 153.638 115.779 153.401 115.796Z" fill="#263238"/>
<path d="M151.951 121.269C147.004 121.269 144.307 120.813 139.882 118.63C139.776 118.581 139.695 118.728 139.793 118.785C144.095 121.456 147.453 122.043 151.934 121.416C152.236 121.375 152.26 121.269 151.951 121.269Z" fill="#263238"/>
<path d="M112.649 114.045C112.649 114.045 97.1093 106.25 94.7543 100.263C91.8208 92.8026 90.6229 71.0476 91.7637 59.889C92.9046 48.7305 100.679 50.0825 103.213 59.9868C105.674 69.6059 111.174 88.8442 111.745 89.7402C112.478 90.9049 121.336 93.0959 121.336 93.0959" fill="#455A64"/>
<path d="M111.093 87.2478C110.824 86.3274 110.351 84.2504 110.082 83.3545C109.536 81.5545 108.99 79.7626 108.428 77.9707C107.866 76.1788 107.312 74.3788 106.709 72.5951C106.611 72.2937 106.513 71.9842 106.415 71.6828C106.464 71.4874 106.236 69.1253 106.26 68.547C106.26 68.4575 106.114 68.4493 106.122 68.5389C106.163 69.1172 106.106 69.6955 106.065 70.2738C106.057 70.3796 106.065 70.4855 106.065 70.5996C105.69 69.4267 105.315 68.262 104.924 67.1217C104.891 67.0321 104.761 67.0647 104.786 67.1543C105.519 69.5977 105.877 71.1371 106.407 73.1163C106.92 75.0385 107.499 76.9363 108.061 78.8422C108.624 80.7481 109.227 82.6459 109.821 84.5437C110.074 85.3419 110.644 87.1582 110.995 87.8668C111.353 88.5591 111.37 88.2089 111.093 87.2478Z" fill="#263238"/>
<path d="M93.5645 93.8207C93.2467 91.8089 92.9289 89.789 92.6844 87.769C92.1874 83.721 91.894 79.6811 91.6984 75.6087C91.5844 73.2874 91.4132 70.9661 91.2828 68.6448C91.2747 68.5307 91.1036 68.5307 91.1036 68.6529C91.0954 70.7217 91.0302 72.7824 91.0873 74.8512C91.0954 75.1526 91.1117 75.4539 91.1199 75.7471C91.0873 75.6087 91.0547 75.4702 91.0221 75.3318C90.7206 74.1507 90.2968 72.9942 90.0361 71.7969C90.0198 71.7154 89.8975 71.7561 89.9138 71.8376C90.2154 73.0267 90.362 74.2566 90.6472 75.4458C90.7858 76.0404 90.9325 76.6349 91.1036 77.2214C91.128 77.311 91.1606 77.3924 91.1851 77.482C91.234 78.6712 91.291 79.8603 91.3643 81.0495C91.6251 85.1382 92.0244 89.1863 92.7741 93.218C93.5319 97.2986 94.2164 98.7402 94.9009 100.948C94.9254 101.029 95.0476 100.988 95.0231 100.907C94.4935 98.9276 93.8905 95.8325 93.5645 93.8207Z" fill="#263238"/>
<path d="M118.378 93.0877C117.489 94.513 116.805 96.0932 116.088 97.6163C115.371 99.1475 114.645 100.679 113.977 102.234C112.649 105.289 111.362 108.4 110.384 111.585C110.359 111.666 110.49 111.715 110.522 111.642C112.038 108.628 113.342 105.492 114.662 102.381C115.314 100.85 115.933 99.3104 116.585 97.771C117.237 96.2398 117.962 94.7004 118.459 93.1203C118.475 93.0633 118.402 93.047 118.378 93.0877Z" fill="#263238"/>
<path d="M203.851 50.9377C203.622 50.9377 203.443 50.7585 203.443 50.5304V39.0705C203.443 38.8425 203.622 38.6633 203.851 38.6633C204.079 38.6633 204.258 38.8425 204.258 39.0705V50.5304C204.258 50.7503 204.079 50.9377 203.851 50.9377Z" fill="#3D3977"/>
<path d="M183.104 56.4192C182.965 56.4192 182.827 56.3459 182.753 56.2156L177.017 46.2951C176.903 46.0996 176.968 45.8553 177.163 45.7412C177.359 45.6272 177.603 45.6924 177.717 45.8878L183.454 55.8083C183.568 56.0038 183.503 56.2482 183.307 56.3622C183.242 56.4029 183.169 56.4192 183.104 56.4192Z" fill="#3D3977"/>
<path d="M177.139 138.137C177.074 138.137 177 138.121 176.935 138.08C176.739 137.966 176.674 137.722 176.788 137.526L182.525 127.606C182.639 127.41 182.884 127.345 183.079 127.459C183.275 127.573 183.34 127.817 183.226 128.013L177.489 137.933C177.416 138.064 177.277 138.137 177.139 138.137Z" fill="#3D3977"/>
<path d="M203.59 145.288C203.362 145.288 203.182 145.109 203.182 144.881V133.421C203.182 133.193 203.362 133.014 203.59 133.014C203.818 133.014 203.997 133.193 203.997 133.421V144.881C203.997 145.109 203.81 145.288 203.59 145.288Z" fill="#3D3977"/>
<path d="M230.073 138.267C229.935 138.267 229.796 138.194 229.723 138.064L223.994 128.143C223.88 127.948 223.945 127.703 224.141 127.589C224.337 127.475 224.581 127.541 224.695 127.736L230.424 137.657C230.538 137.852 230.473 138.096 230.277 138.21C230.212 138.251 230.139 138.267 230.073 138.267Z" fill="#3D3977"/>
<path d="M224.565 56.5576C224.491 56.5576 224.426 56.5413 224.361 56.5006C224.165 56.3866 224.1 56.1423 224.214 55.9468L229.951 46.0263C230.065 45.8308 230.31 45.7656 230.505 45.8797C230.701 45.9937 230.766 46.238 230.652 46.4335L224.915 56.354C224.842 56.4843 224.703 56.5576 224.565 56.5576Z" fill="#3D3977"/>
</g>
<defs>
<clipPath id="clip0_617_74">
<rect width="407" height="286" fill="white"/>
</clipPath>
</defs>
</svg>
