<svg width="30" height="30" viewBox="0 0 30 30" fill="none" xmlns="http://www.w3.org/2000/svg">
<g clip-path="url(#clip0_112_1026)">
<path d="M19.3419 9.54047C16.4243 5.24816 12.5276 2.96684 10.487 4.36464C10.2623 4.52289 10.067 4.71926 9.91005 4.94486C9.91005 4.96135 5.18587 14.5218 5.18587 14.5218L2.54851 16.3086C2.14364 16.5834 1.79688 16.9354 1.52805 17.3442C1.25921 17.7531 1.07357 18.211 0.98173 18.6916C0.889886 19.1723 0.893639 19.6663 0.992774 20.1455C1.09191 20.6247 1.28449 21.0797 1.5595 21.4844L1.67818 21.6591C2.23407 22.4689 3.0868 23.0269 4.05141 23.212C5.01602 23.3972 6.01473 23.1946 6.83093 22.6482L11.0672 28.8888C11.6903 29.657 12.887 30.4218 14.3639 29.5218C14.6255 29.3521 14.8487 29.1295 15.0191 28.8683C15.1894 28.6071 15.3031 28.3131 15.3529 28.0053C15.4126 27.6991 15.411 27.3841 15.3481 27.0786C15.2853 26.773 15.1626 26.4829 14.987 26.2251L11.2551 20.7196C11.2551 20.7196 20.0771 20.0174 20.11 20.0042C20.3855 19.9466 20.6466 19.8345 20.8782 19.6745C21.9265 18.9624 22.3024 17.469 21.9397 15.4679C21.6133 13.6251 20.687 11.5383 19.3419 9.54047ZM2.63752 21.0097L2.51884 20.835C2.32909 20.5556 2.1963 20.2416 2.12807 19.9109C2.05984 19.5802 2.0575 19.2392 2.12119 18.9076C2.18489 18.576 2.31336 18.2601 2.49925 17.9782C2.68515 17.6963 2.92483 17.4538 3.20455 17.2646L5.48258 15.7152L8.48917 20.1427L6.21115 21.6921C5.93174 21.8821 5.61763 22.0152 5.28677 22.0837C4.95592 22.1522 4.61479 22.1549 4.28291 22.0915C3.95103 22.0281 3.63489 21.9 3.35256 21.7143C3.07023 21.5287 2.82726 21.2893 2.63752 21.0097ZM14.0375 26.8745C14.2177 27.1426 14.2842 27.4713 14.2224 27.7883C14.1606 28.1054 13.9755 28.385 13.7079 28.5657C13.4392 28.7461 13.1101 28.8127 12.7925 28.7509C12.4749 28.6891 12.1948 28.504 12.0133 28.2361L7.79027 22.0152L9.48807 20.8613L9.93642 20.8251L14.0375 26.8745ZM9.58038 19.6943L6.30346 14.8679L9.42873 8.49541C9.73203 10.2855 10.6188 12.4119 12.0364 14.4987C13.454 16.5855 15.1024 18.1943 16.6518 19.1372L9.58038 19.6943ZM19.3057 18.9262C17.7298 18.824 15.165 17.0471 12.9925 13.846C10.8199 10.6449 10.1144 7.61519 10.5991 6.1086C10.6866 5.82581 10.8612 5.5779 11.098 5.40028C11.3349 5.22267 11.6218 5.12442 11.9177 5.11959C13.4804 5.11959 16.1408 6.9064 18.376 10.1998C19.6353 12.0526 20.5518 13.991 20.8024 15.6855C21.2936 18.9262 19.3057 18.9262 19.3057 18.9262Z" fill="white"/>
<path d="M15.2209 9.66254C14.8171 9.58324 14.4015 9.58525 13.9985 9.66847C13.5955 9.75168 13.2131 9.91441 12.8737 10.1472C12.8111 10.1905 12.7577 10.2456 12.7165 10.3096C12.6752 10.3735 12.647 10.4449 12.6334 10.5198C12.6198 10.5946 12.621 10.6714 12.6371 10.7458C12.6531 10.8202 12.6837 10.8906 12.727 10.9532C12.7703 11.0158 12.8255 11.0692 12.8894 11.1104C12.9533 11.1516 13.0248 11.1799 13.0996 11.1935C13.1745 11.2071 13.2513 11.2059 13.3256 11.1898C13.4 11.1737 13.4705 11.1432 13.533 11.0999C13.748 10.954 13.9895 10.8519 14.244 10.7993C14.4984 10.7468 14.7607 10.7449 15.0158 10.7937C15.271 10.8426 15.514 10.9412 15.7311 11.0839C15.9481 11.2267 16.1349 11.4108 16.2808 11.6257C16.4267 11.8407 16.5288 12.0823 16.5814 12.3367C16.6339 12.5911 16.6358 12.8534 16.587 13.1085C16.5382 13.3637 16.4396 13.6067 16.2968 13.8238C16.1541 14.0408 15.9699 14.2276 15.755 14.3735C15.6536 14.4435 15.5773 14.5441 15.5373 14.6606C15.4972 14.7771 15.4955 14.9033 15.5323 15.0208C15.5692 15.1384 15.6427 15.241 15.742 15.3138C15.8414 15.3865 15.9615 15.4256 16.0847 15.4252C16.2022 15.4274 16.3174 15.3928 16.4143 15.3263C16.9271 14.9789 17.3252 14.4872 17.5583 13.9134C17.7914 13.3396 17.8489 12.7095 17.7235 12.103C17.5982 11.4964 17.2957 10.9408 16.8543 10.5063C16.4129 10.0719 15.8524 9.77821 15.244 9.66254H15.2209ZM20.0539 5.52848H20.1099C20.2526 5.52842 20.3902 5.47548 20.4962 5.37989C20.6021 5.28429 20.6689 5.15283 20.6836 5.01089L21.1286 0.685619C21.1387 0.609136 21.1334 0.5314 21.113 0.457007C21.0925 0.382615 21.0574 0.313079 21.0096 0.252513C20.9618 0.191947 20.9024 0.141581 20.8348 0.104396C20.7672 0.06721 20.6928 0.0439601 20.6161 0.0360215C20.5393 0.0280828 20.4618 0.0356166 20.388 0.0581772C20.3142 0.0807377 20.2457 0.117867 20.1865 0.167367C20.1274 0.216868 20.0787 0.277735 20.0435 0.346367C20.0082 0.414999 19.9871 0.490002 19.9814 0.566938L19.5396 4.89551C19.5239 5.04763 19.5693 5.19975 19.6657 5.31844C19.7622 5.43713 19.9018 5.51268 20.0539 5.52848ZM27.511 4.63837C27.4263 4.51068 27.2946 4.42168 27.1445 4.3908C26.9944 4.35992 26.8382 4.38966 26.7099 4.47353L22.6913 7.11089C22.5869 7.1798 22.5078 7.28074 22.4658 7.39852C22.4238 7.5163 22.4211 7.64454 22.4583 7.76393C22.4955 7.88331 22.5705 7.98739 22.672 8.06047C22.7734 8.13355 22.8959 8.17169 23.0209 8.16914C23.1376 8.17182 23.2523 8.13968 23.3506 8.07683L27.3693 5.43947C27.4939 5.35175 27.5788 5.21826 27.6054 5.06816C27.632 4.91805 27.598 4.76354 27.511 4.63837ZM28.7407 11.6801L24.066 10.8395C23.9152 10.8124 23.7597 10.8463 23.6339 10.9338C23.5081 11.0212 23.4222 11.1551 23.3951 11.3059C23.368 11.4568 23.4019 11.6122 23.4894 11.738C23.5769 11.8638 23.7108 11.9497 23.8616 11.9768L28.533 12.8175H28.6352C28.7822 12.8218 28.9253 12.7698 29.0352 12.6721C29.1452 12.5744 29.2137 12.4385 29.2267 12.292C29.2398 12.1455 29.1964 11.9996 29.1054 11.884C29.0145 11.7685 28.8829 11.692 28.7374 11.6702L28.7407 11.6801Z" fill="white"/>
</g>
<defs>
<clipPath id="clip0_112_1026">
<rect width="30" height="30" fill="white"/>
</clipPath>
</defs>
</svg>
