<svg width="30" height="30" viewBox="0 0 30 30" fill="none" xmlns="http://www.w3.org/2000/svg">
<path d="M20.0942 5.37288L18.484 4.8387L17.9499 3.22848C17.938 3.1924 17.915 3.161 17.8842 3.13874C17.8534 3.11648 17.8164 3.10449 17.7784 3.10449C17.7404 3.10449 17.7033 3.11648 17.6725 3.13874C17.6417 3.161 17.6187 3.1924 17.6068 3.22848L17.0729 4.8387L15.4625 5.37288C15.4265 5.38487 15.3952 5.40788 15.3731 5.43866C15.3509 5.46943 15.339 5.5064 15.339 5.54433C15.339 5.58226 15.3509 5.61923 15.3731 5.65C15.3952 5.68077 15.4265 5.70379 15.4625 5.71578L17.0729 6.2499L17.6068 7.86018C17.6188 7.89622 17.6418 7.92757 17.6727 7.94979C17.7035 7.97201 17.7405 7.98396 17.7785 7.98396C17.8164 7.98396 17.8534 7.972 17.8842 7.94978C17.915 7.92756 17.938 7.89621 17.9499 7.86018L18.484 6.2499L20.0942 5.71578C20.1302 5.7038 20.1616 5.68079 20.1839 5.64999C20.2061 5.61919 20.2181 5.58217 20.2181 5.54418C20.2181 5.50621 20.2061 5.46922 20.1839 5.43846C20.1616 5.4077 20.1302 5.38475 20.0942 5.37288ZM25.1452 3.27942L24.1861 2.96124L23.8679 2.00208C23.8607 1.98064 23.847 1.962 23.8287 1.94879C23.8104 1.93558 23.7883 1.92847 23.7658 1.92847C23.7432 1.92847 23.7211 1.93558 23.7028 1.94879C23.6845 1.962 23.6708 1.98064 23.6636 2.00208L23.3455 2.96124L22.3862 3.27942C22.3647 3.28651 22.346 3.30019 22.3328 3.31852C22.3196 3.33684 22.3124 3.35887 22.3124 3.38148C22.3124 3.42786 22.3421 3.46908 22.3862 3.48378L23.3455 3.80196L23.6636 4.761C23.6707 4.78249 23.6844 4.8012 23.7027 4.81447C23.7211 4.82773 23.7431 4.83487 23.7658 4.83487C23.7884 4.83487 23.8104 4.82773 23.8288 4.81447C23.8471 4.8012 23.8608 4.78249 23.8679 4.761L24.1861 3.80196L25.1452 3.48378C25.1667 3.47662 25.1854 3.46289 25.1986 3.44453C25.2119 3.42617 25.219 3.40412 25.219 3.38148C25.219 3.33516 25.1893 3.29394 25.1452 3.27942ZM12.4211 16.985L8.00513 12.569L10.1352 10.4389L14.6222 14.9258L15.499 14.1056L10.7274 9.3339C10.6973 9.258 10.6519 9.18907 10.5942 9.13133C10.5364 9.07359 10.4675 9.02827 10.3916 8.99814L9.00083 7.6074C8.51741 7.12398 7.87475 6.85782 7.19111 6.85782C6.50753 6.85782 5.86487 7.12404 5.38157 7.60734L5.17361 7.81524C4.17581 8.81322 4.17587 10.4368 5.17367 11.4346L11.5442 17.8052L12.4211 16.985ZM6.02219 10.5862C5.49227 10.0562 5.49227 9.19386 6.02219 8.66388L6.23009 8.45598C6.48683 8.19924 6.82811 8.05788 7.19117 8.05788C7.55423 8.05788 7.89557 8.19918 8.15237 8.45604L9.28667 9.59034L7.15661 11.7205L6.02219 10.5862ZM24.995 26.4623C24.7567 25.7463 23.5262 22.1329 22.7026 21.3092L22.6972 21.3038C22.6671 21.2279 22.6217 21.1589 22.564 21.1012C22.5062 21.0435 22.4373 20.9981 22.3614 20.968L19.4431 18.0496L18.6601 18.9637L21.2564 21.5601L19.1263 23.6903L16.6945 21.2585L15.9116 22.1726L18.8753 25.1363C19.6991 25.96 23.3123 27.1903 24.0283 27.4286C24.1339 27.4637 24.2473 27.4688 24.3556 27.4432C24.464 27.4177 24.5631 27.3624 24.6418 27.2837L24.8497 27.0761C24.9285 26.9974 24.9839 26.8983 25.0096 26.7898C25.0353 26.6814 25.0302 26.568 24.995 26.4623ZM20.015 24.4989L22.0651 22.4488C22.4783 23.1344 23.0927 24.6718 23.566 25.9997C22.2382 25.5265 20.7008 24.9121 20.015 24.4989Z" fill="white"/>
<path d="M24.8469 7.46967L24.7294 7.35231C24.4105 7.03353 23.9835 6.85791 23.5272 6.85791C23.0677 6.85791 22.6364 7.03431 22.311 7.35495L9.16795 19.4822C9.16201 19.4876 9.15631 19.4932 9.15055 19.4988C8.87857 19.7708 8.73277 20.1152 8.72737 20.4959C8.56237 20.4611 8.39422 20.4433 8.22559 20.4429C7.53871 20.4429 6.91951 20.7375 6.38527 21.3187C5.70841 22.055 5.42899 22.8679 5.18257 23.585C4.81681 24.6494 4.52785 25.4902 3.10129 26.0991C3.01104 26.1376 2.93162 26.1977 2.86998 26.274C2.80834 26.3503 2.76636 26.4406 2.74773 26.537C2.7291 26.6333 2.73438 26.7328 2.76311 26.8266C2.79184 26.9204 2.84315 27.0058 2.91253 27.0751C3.38245 27.5451 4.63783 27.7119 5.56999 27.7119C6.78955 27.7119 9.09829 27.449 10.8581 25.6891C11.3602 25.1871 11.614 24.6006 11.6126 23.9459C11.6117 23.7835 11.5954 23.6216 11.564 23.4623C11.6041 23.4656 11.6444 23.4673 11.6846 23.4675C12.0754 23.4675 12.4288 23.3208 12.7065 23.0431C12.7121 23.0374 12.7178 23.0316 12.7232 23.0257L24.8446 9.88833C25.5079 9.21513 25.5101 8.13303 24.8469 7.46967ZM10.0096 24.8406C8.55547 26.2948 6.60391 26.512 5.57005 26.512C5.28391 26.512 5.02843 26.4962 4.80547 26.4716C5.71741 25.7209 6.03151 24.8071 6.31741 23.9751C6.54589 23.3103 6.76165 22.6824 7.26871 22.1309C7.57051 21.8025 7.88347 21.6429 8.22553 21.6429C8.79223 21.6429 9.36223 22.0866 9.58609 22.3056C9.60883 22.3297 9.62605 22.3471 9.63541 22.3565L9.65401 22.3751C9.71641 22.4398 10.4109 23.1795 10.4126 23.9486C10.4134 24.277 10.2815 24.5688 10.0096 24.8406ZM23.9867 9.04935C23.9811 9.05502 23.9755 9.06082 23.9701 9.06675L11.8513 22.2013C11.8007 22.2496 11.7547 22.2677 11.6846 22.2677C11.3867 22.2677 10.9234 21.9436 10.6916 21.7155L10.5074 21.5313L10.5046 21.5285C10.4841 21.5067 10.4633 21.4853 10.442 21.4642C10.2556 21.2636 9.92725 20.8208 9.92683 20.5182C9.92677 20.4495 9.94471 20.4042 9.99241 20.3542L23.1328 8.22963C23.1387 8.22411 23.1445 8.21847 23.1502 8.21283C23.2501 8.11293 23.3839 8.05797 23.5272 8.05797C23.6631 8.05797 23.7887 8.10879 23.8812 8.20119L23.9985 8.31843C24.1935 8.51331 24.188 8.84811 23.9867 9.04935Z" fill="white"/>
</svg>
