<svg width="30" height="30" viewBox="0 0 30 30" fill="none" xmlns="http://www.w3.org/2000/svg">
<path d="M10.6499 15.6001C10.2299 15.6001 9.89988 15.9301 9.89988 16.3501V23.5801H7.46988C7.16988 22.6501 6.26988 21.9601 5.24988 21.9601C3.95988 21.9601 2.87988 23.0101 2.87988 24.3301C2.87988 25.6201 3.92988 26.7001 5.24988 26.7001C6.29988 26.7001 7.16988 26.0401 7.46988 25.0801H10.6499C11.0699 25.0801 11.3999 24.7501 11.3999 24.3301V16.3501C11.3999 15.9301 11.0699 15.6001 10.6499 15.6001ZM5.24988 25.2001C4.76988 25.2001 4.37988 24.8101 4.37988 24.3301C4.37988 23.8501 4.76988 23.4601 5.24988 23.4601C5.72988 23.4601 6.11988 23.8501 6.11988 24.3301C6.11988 24.8101 5.72988 25.2001 5.24988 25.2001ZM15.7499 22.1101V16.3501C15.7499 15.9301 15.4199 15.6001 14.9999 15.6001C14.5799 15.6001 14.2499 15.9301 14.2499 16.3501V22.1101C13.3199 22.4101 12.6299 23.3101 12.6299 24.3301C12.6299 25.6201 13.6799 26.7001 14.9999 26.7001C16.3199 26.7001 17.3699 25.6501 17.3699 24.3301C17.3699 23.3101 16.6799 22.4101 15.7499 22.1101ZM14.9999 25.2001C14.5199 25.2001 14.1299 24.8101 14.1299 24.3301C14.1299 23.8501 14.5199 23.4601 14.9999 23.4601C15.4799 23.4601 15.8699 23.8501 15.8699 24.3301C15.8699 24.8101 15.4799 25.2001 14.9999 25.2001ZM24.7499 21.9901C23.6999 21.9901 22.8299 22.6501 22.5299 23.6101H20.0999V16.3501C20.0999 15.9301 19.7699 15.6001 19.3499 15.6001C18.9299 15.6001 18.5999 15.9301 18.5999 16.3501V24.3301C18.5999 24.7501 18.9299 25.0801 19.3499 25.0801H22.5299C22.8299 26.0101 23.7299 26.7001 24.7499 26.7001C26.0399 26.7001 27.1199 25.6501 27.1199 24.3301C27.1199 23.0401 26.0699 21.9901 24.7499 21.9901ZM24.7499 25.2001C24.2699 25.2001 23.8799 24.8101 23.8799 24.3301C23.8799 23.8501 24.2699 23.4601 24.7499 23.4601C25.2299 23.4601 25.6199 23.8501 25.6199 24.3301C25.6199 24.8101 25.2299 25.2001 24.7499 25.2001Z" fill="white"/>
<path d="M23.43 9.93005C23.43 10.2 23.4 10.47 23.37 10.71C23.34 10.92 23.4 11.13 23.52 11.28C23.64 11.43 23.82 11.55 24.03 11.58C25.71 11.76 27 13.17 27 14.88C27 16.71 25.5 18.21 23.67 18.21H22.83C22.41 18.21 22.08 18.54 22.08 18.96C22.08 19.38 22.41 19.71 22.83 19.71H23.67C26.34 19.71 28.5 17.55 28.5 14.88C28.5 12.66 27 10.77 24.93 10.23V9.93005C24.93 6.27005 21.96 3.30005 18.3 3.30005C15.93 3.30005 13.74 4.59005 12.57 6.63005C12.24 6.57005 11.91 6.54005 11.58 6.54005C9.27 6.54005 7.23 7.95005 6.39 10.05H6.3C3.66 10.05 1.5 12.21 1.5 14.88C1.5 17.55 3.66 19.71 6.33 19.71H7.17C7.59 19.71 7.92 19.38 7.92 18.96C7.92 18.54 7.59 18.21 7.17 18.21H6.33C4.5 18.21 3 16.71 3 14.88C3 13.05 4.5 11.55 6.33 11.55C6.51 11.55 6.66 11.55 6.81 11.58C7.2 11.64 7.56 11.4 7.65 11.04C8.13 9.27005 9.75 8.04005 11.58 8.04005C12 8.04005 12.39 8.10005 12.75 8.22005C13.11 8.34005 13.5 8.16005 13.65 7.80005C14.49 5.97005 16.32 4.80005 18.3 4.80005C21.15 4.80005 23.43 7.11005 23.43 9.93005Z" fill="white"/>
</svg>
