<svg width="30" height="30" viewBox="0 0 30 30" fill="none" xmlns="http://www.w3.org/2000/svg">
<path d="M26.2018 3.90131H25.8459C26.5244 2.79667 26.2738 1.31363 25.1849 0.505695C24.0116 -0.364757 22.3442 -0.0845673 21.5254 1.13908L19.677 3.90137H3.79861C2.49346 3.90137 1.43164 4.96319 1.43164 6.26834V21.4013C1.43164 22.7064 2.49346 23.7682 3.79861 23.7682H12.9926L12.2979 26.686H10.7986C9.82146 26.686 9.02647 27.4809 9.02647 28.4581V28.8281H7.17817C6.85456 28.8281 6.59224 29.0905 6.59224 29.414C6.59224 29.7375 6.85456 29.9999 7.17817 29.9999H22.8223C23.1459 29.9999 23.4083 29.7375 23.4083 29.414C23.4083 29.0905 23.1459 28.8281 22.8223 28.8281H20.974V28.4581C20.974 27.4809 20.179 26.686 19.2019 26.686H17.7026L17.0079 23.7682H26.2019C27.507 23.7682 28.5689 22.7064 28.5689 21.4013V6.26828C28.5689 4.96313 27.507 3.90131 26.2018 3.90131ZM17.8066 14.2018C16.8905 14.8431 15.1742 13.9714 13.5353 14.846C13.1354 12.7686 13.3875 10.8148 15.469 10.3836C15.738 10.3275 16.0276 10.3021 16.2742 10.3071L18.3938 11.8798C18.7014 12.7743 18.586 13.6563 17.8066 14.2018ZM18.3971 7.92141L20.0557 9.15197L18.7801 10.7071L17.2785 9.59294L18.3971 7.92141ZM22.4994 1.79081C22.9432 1.12748 23.8482 0.973146 24.4867 1.44687C25.1253 1.92065 25.2397 2.83153 24.7336 3.44857L20.7996 8.2449L19.0494 6.94637L22.4994 1.79081ZM19.8021 28.4581V28.8281H10.1983V28.4581C10.1983 28.1271 10.4676 27.8578 10.7986 27.8578H19.2018C19.5328 27.8578 19.8021 28.1271 19.8021 28.4581ZM16.4979 26.686H13.5025L14.1972 23.7682H15.8032L16.4979 26.686ZM27.397 21.4013C27.397 22.0603 26.8609 22.5964 26.2019 22.5964H3.79866C3.13967 22.5964 2.60355 22.0603 2.60355 21.4013V18.6574H4.27789C4.6015 18.6574 4.86382 18.395 4.86382 18.0715C4.86382 17.7479 4.6015 17.4855 4.27789 17.4855H2.60343V6.26828C2.60343 5.60929 3.13956 5.07316 3.79855 5.07316H18.8929L16.1752 9.13445C15.027 9.14482 13.8806 9.54484 13.1302 10.4209C12.109 11.613 11.9296 13.4861 12.5969 15.9881C12.711 16.4159 13.2448 16.5692 13.5679 16.2607C15.0829 14.813 16.9698 16.3921 18.6596 15.0244C19.691 14.1895 19.9351 12.8621 19.5462 11.6209L24.9167 5.07316H26.2018C26.8608 5.07316 27.3969 5.60929 27.3969 6.26828V17.4855H8.96519C8.64158 17.4855 8.37926 17.7479 8.37926 18.0714C8.37926 18.395 8.64158 18.6573 8.96519 18.6573H27.397V21.4013Z" fill="white"/>
<path d="M6.5082 17.4968C6.37526 17.5233 6.25562 17.595 6.1697 17.6999C6.08378 17.8047 6.03692 17.9361 6.03711 18.0717C6.03711 18.4382 6.37221 18.7189 6.73731 18.6459C6.88966 18.6155 7.0237 18.5258 7.10995 18.3966C7.19621 18.2674 7.22761 18.1092 7.19727 17.9568C7.13205 17.6363 6.82115 17.4338 6.5082 17.4968Z" fill="white"/>
</svg>
