<svg width="30" height="30" viewBox="0 0 30 30" fill="none" xmlns="http://www.w3.org/2000/svg">
<g clip-path="url(#clip0_112_1010)">
<path d="M7.08939 9.72683C5.79709 9.72683 4.74562 10.7783 4.74562 12.0706C4.74562 13.3629 5.79709 14.4144 7.08939 14.4144C8.38192 14.4144 9.43316 13.3629 9.43316 12.0706C9.43316 10.7783 8.38192 9.72683 7.08939 9.72683ZM7.08939 13.2425C6.44327 13.2425 5.9175 12.7167 5.9175 12.0706C5.9175 11.4245 6.44327 10.8987 7.08939 10.8987C7.73574 10.8987 8.26127 11.4245 8.26127 12.0706C8.26127 12.7167 7.73574 13.2425 7.08939 13.2425ZM15.8785 9.14089C15.8785 7.84859 14.8273 6.79712 13.5347 6.79712C12.2425 6.79712 11.191 7.84859 11.191 9.14089C11.191 10.4332 12.2425 11.4847 13.5347 11.4847C14.8273 11.4847 15.8785 10.4332 15.8785 9.14089ZM12.3629 9.14089C12.3629 8.49477 12.8886 7.969 13.5347 7.969C14.1811 7.969 14.7066 8.49477 14.7066 9.14089C14.7066 9.78701 14.1811 10.3128 13.5347 10.3128C12.8886 10.3128 12.3629 9.78701 12.3629 9.14089ZM2.98779 19.1019C2.98779 20.3942 4.03927 21.4457 5.33156 21.4457C6.62409 21.4457 7.67533 20.3942 7.67533 19.1019C7.67533 17.8096 6.62409 16.7581 5.33156 16.7581C4.03927 16.7581 2.98779 17.8096 2.98779 19.1019ZM5.33156 17.93C5.97791 17.93 6.50345 18.4558 6.50345 19.1019C6.50345 19.748 5.97791 20.2738 5.33156 20.2738C4.68544 20.2738 4.15968 19.748 4.15968 19.1019C4.15968 18.4558 4.68544 17.93 5.33156 17.93ZM8.26127 23.7894C8.26127 25.0817 9.31274 26.1332 10.605 26.1332C11.8976 26.1332 12.9488 25.0817 12.9488 23.7894C12.9488 22.4971 11.8976 21.4457 10.605 21.4457C9.31274 21.4457 8.26127 22.4971 8.26127 23.7894ZM11.7769 23.7894C11.7769 24.4356 11.2514 24.9613 10.605 24.9613C9.95892 24.9613 9.43316 24.4356 9.43316 23.7894C9.43316 23.1433 9.95892 22.6176 10.605 22.6176C11.2514 22.6176 11.7769 23.1433 11.7769 23.7894Z" fill="white"/>
<path d="M24.0987 5.5725C24.0987 4.17837 22.0703 0.912389 21.6636 0.272012C21.6107 0.188739 21.5376 0.12017 21.4511 0.0726613C21.3647 0.025153 21.2676 0.000244141 21.169 0.000244141C21.0703 0.000244141 20.9733 0.025153 20.8868 0.0726613C20.8003 0.12017 20.7273 0.188739 20.6744 0.272012C20.3189 0.831587 18.7261 3.39508 18.329 4.96342C14.6463 3.45051 10.8076 3.49171 7.4369 5.09818C4.08531 6.69564 1.38247 9.80295 0.42481 13.715C0.347641 14.0295 0.540182 14.3465 0.854423 14.4235C0.901298 14.4349 0.948232 14.4403 0.994287 14.4403C1.25796 14.4403 1.49761 14.2611 1.56306 13.9935C2.39545 10.5928 4.78 7.66262 7.9411 6.15598C11.1374 4.63277 14.8101 4.66271 18.3148 6.23286C18.4986 7.02822 19.0097 7.71119 19.7129 8.1145C19.3679 9.36994 19.0992 11.2754 18.9465 13.5725C18.8845 14.505 18.8426 15.4948 18.822 16.5198C16.597 17.7965 15.1317 20.2259 15.3153 23.1274C15.3848 24.2238 15.4899 25.8807 13.7637 27.3854C12.5307 28.4605 10.7159 28.7559 9.02785 28.1567C4.83789 26.6696 1.80681 22.859 1.30531 18.4484C1.26898 18.1268 0.977998 17.8961 0.657136 17.9322C0.335512 17.9689 0.104593 18.2591 0.14098 18.5807C0.703601 23.5303 4.07089 27.6408 8.63597 29.2611C10.723 30.002 12.9827 29.6209 14.5339 28.2686C16.6959 26.3838 16.5585 24.2172 16.4847 23.0531C16.348 20.8908 17.2903 19.0615 18.808 17.9274V17.9298C18.808 20.7049 19.0207 26.1435 19.9152 28.6792C20.0424 29.0404 20.3809 30.0001 21.1518 30.0001C21.9229 30.0001 22.2615 29.0404 22.3887 28.6792C23.2777 26.1592 23.4956 20.7608 23.4956 17.9297C23.4956 17.5276 23.4921 17.1319 23.4855 16.7457C23.6663 16.7432 23.8497 16.743 24.0353 16.746C25.1449 16.7622 26.1529 16.087 26.5459 15.0641C27.6228 12.2589 25.6212 9.46468 23.2603 7.624C23.7978 7.07648 24.0989 6.33977 24.0987 5.5725ZM21.169 1.70939C22.0143 3.14038 22.9269 4.92773 22.9269 5.5725C22.9269 6.58987 22.0815 7.35271 21.1321 7.3315C20.1878 7.31017 19.4112 6.53948 19.4112 5.5725C19.4112 4.92773 20.3235 3.14038 21.169 1.70939ZM21.169 8.50221C21.2725 8.50221 21.3754 8.49624 21.4772 8.48546C21.7644 9.55849 22.0019 11.1939 22.15 13.1261C21.4872 13.2107 20.8163 13.2092 20.1539 13.1217C20.302 11.1898 20.54 9.55509 20.8275 8.48206C20.9403 8.4953 21.0543 8.50221 21.169 8.50221H21.169ZM21.1518 28.6123C20.2052 26.5874 19.9799 20.4886 19.9799 17.9299C19.9799 17.6026 19.9875 16.8818 19.9877 16.88C20.0012 15.9876 20.0314 15.121 20.077 14.2938C20.4392 14.3388 20.8039 14.3614 21.169 14.3614C21.5233 14.3614 21.8774 14.3401 22.2274 14.2978C22.262 14.9354 22.287 15.5735 22.3024 16.2119C22.3166 16.7617 22.3237 17.3396 22.3237 17.9299C22.3237 20.5685 22.0854 26.6157 21.1518 28.6123ZM25.4519 14.6441C25.2344 15.2098 24.6718 15.5848 24.0536 15.5745C23.8545 15.5713 23.6553 15.5712 23.4562 15.5742C23.4336 14.8949 23.4006 14.2261 23.3578 13.5793C23.3576 13.5754 23.3569 13.5715 23.3564 13.5676C23.2262 11.6068 23.0111 9.93156 22.7366 8.70337C25.1081 10.6228 26.1426 12.8448 25.4519 14.6441Z" fill="white"/>
<path d="M1.22998 16.1721C1.22998 16.4957 0.967715 16.7581 0.644043 16.7581C0.320605 16.7581 0.0581055 16.4957 0.0581055 16.1721C0.0581055 15.8485 0.320605 15.5862 0.644043 15.5862C0.967715 15.5862 1.22998 15.8485 1.22998 16.1721Z" fill="white"/>
</g>
<defs>
<clipPath id="clip0_112_1010">
<rect width="30" height="30" fill="white"/>
</clipPath>
</defs>
</svg>
