<svg width="68" height="68" viewBox="0 0 68 68" fill="none" xmlns="http://www.w3.org/2000/svg">
<rect width="68" height="68" rx="10" fill="#7A4DFC" fill-opacity="0.08"/>
<path d="M68 39.6752C68 57.9474 52.7777 68 34 68C15.2223 68 0 57.9474 0 39.6752C0 21.403 8.08319 1.51693e-06 26.8609 1.51693e-06C45.6386 1.51693e-06 68 21.403 68 39.6752Z" fill="#7A4DFC"/>
<path d="M34 28.9609C36.7506 28.9609 38.9805 26.7311 38.9805 23.9805C38.9805 21.2298 36.7506 19 34 19C31.2494 19 29.0195 21.2298 29.0195 23.9805C29.0195 26.7311 31.2494 28.9609 34 28.9609Z" fill="white"/>
<path d="M37.6597 29.6357C36.6052 30.3205 35.3483 30.7188 34 30.7188C32.6517 30.7188 31.3948 30.3205 30.3403 29.6357C29.1679 30.0838 28.0879 30.7435 27.154 31.582L34 34.1493L40.846 31.582C39.9121 30.7435 38.8321 30.0838 37.6597 29.6357ZM44.5469 37.1642H43.9609C43.4755 37.1642 43.082 37.5577 43.082 38.0431V40.3868C43.082 40.8722 43.4755 41.2657 43.9609 41.2657H44.5469C45.6795 41.2657 46.5977 40.3476 46.5977 39.2149C46.5977 38.0823 45.6795 37.1642 44.5469 37.1642ZM24.1244 32.7272C24.0076 32.8081 23.9123 32.9161 23.8464 33.0419C23.7805 33.1677 23.7461 33.3076 23.7461 33.4496V35.4063H24.0391C25.4929 35.4063 26.6758 36.5892 26.6758 38.0431V40.3868C26.6758 41.8407 25.4929 43.0235 24.0391 43.0235H23.7461V44.8754C23.7461 45.0543 23.8007 45.229 23.9026 45.376C24.0045 45.5231 24.1489 45.6355 24.3164 45.6983L33.1211 49.0001V35.697L24.9336 32.6267C24.8006 32.5767 24.6576 32.5598 24.5166 32.5773C24.3757 32.5948 24.2411 32.6463 24.1244 32.7272Z" fill="white"/>
<path d="M41.3242 40.3869V38.0432C41.3242 36.5893 42.5071 35.4065 43.9609 35.4065H44.2539V33.4497C44.2539 33.3077 44.2195 33.1678 44.1536 33.042C44.0877 32.9162 43.9923 32.8082 43.8756 32.7273C43.7589 32.6464 43.6243 32.595 43.4834 32.5775C43.3424 32.56 43.1994 32.5769 43.0664 32.6268L34.8789 35.6971V49.0002L43.6836 45.6984C43.8511 45.6356 43.9955 45.5232 44.0974 45.3761C44.1993 45.2291 44.2539 45.0544 44.2539 44.8755V43.0236H43.9609C42.5071 43.0236 41.3242 41.8408 41.3242 40.3869ZM24.918 40.3869V38.0432C24.918 37.5578 24.5245 37.1643 24.0391 37.1643H23.4531C22.3205 37.1643 21.4023 38.0824 21.4023 39.215C21.4023 40.3477 22.3205 41.2658 23.4531 41.2658H24.0391C24.5245 41.2658 24.918 40.8723 24.918 40.3869Z" fill="white"/>
</svg>
