<svg width="68" height="68" viewBox="0 0 68 68" fill="none" xmlns="http://www.w3.org/2000/svg">
<rect width="68" height="68" rx="10" fill="#7A4DFC" fill-opacity="0.08"/>
<path d="M68 39.6752C68 57.9474 52.7777 68 34 68C15.2223 68 0 57.9474 0 39.6752C0 21.403 8.08319 1.51693e-06 26.8609 1.51693e-06C45.6386 1.51693e-06 68 21.403 68 39.6752Z" fill="#7A4DFC"/>
<path d="M39.0001 27.75C38.8702 27.7501 38.7417 27.7233 38.6226 27.6713L30.8101 24.2338C30.6441 24.1599 30.5031 24.0394 30.4041 23.887C30.3051 23.7346 30.2524 23.5568 30.2524 23.375C30.2524 23.1933 30.3051 23.0155 30.4041 22.8631C30.5031 22.7106 30.6441 22.5902 30.8101 22.5163L38.6226 19.0788C38.7417 19.0268 38.8702 19 39.0001 19C39.1301 19 39.2586 19.0268 39.3776 19.0788L47.1901 22.5163C47.3562 22.5902 47.4972 22.7106 47.5962 22.8631C47.6952 23.0155 47.7479 23.1933 47.7479 23.375C47.7479 23.5568 47.6952 23.7346 47.5962 23.887C47.4972 24.0394 47.3562 24.1599 47.1901 24.2338L39.3776 27.6713C39.2586 27.7233 39.1301 27.7501 39.0001 27.75Z" fill="white"/>
<path d="M40.1325 29.3878C39.7765 29.5448 39.3918 29.6261 39.0028 29.6266C38.6137 29.627 38.2288 29.5465 37.8725 29.3903L32.75 27.1353V27.9953C32.75 28.7578 33.1487 29.4753 33.79 29.864C35.5912 30.9565 37.2963 31.504 39 31.504C40.7038 31.504 42.4087 30.9565 44.21 29.864C44.8513 29.4753 45.25 28.759 45.25 27.9953V27.1353L40.1325 29.3878Z" fill="white"/>
<path d="M42.75 33.325C41.4875 33.7875 40.25 34 39 34C36.8375 34 34.7125 33.35 32.4875 32C31.1125 31.1625 30.25 29.625 30.25 28V26.725L29.8 26.525C28.55 25.975 27.75 24.7375 27.75 23.375C27.75 22.0125 28.55 20.775 29.8 20.225L32.5875 19H24C21.9375 19 20.25 20.6875 20.25 22.75V40.875C20.25 42.1 21.9237 44 24 44H27.75V48.0625C27.75 48.8775 28.7225 49.2987 29.3125 48.7625L31.5 46.8125L33.6875 48.7625C34.2575 49.2913 35.25 48.8913 35.25 48.0625V44H41.5C42.1875 44 42.75 43.4375 42.75 42.75V33.325ZM27.75 41.5H24C23.3125 41.5 22.75 40.9375 22.75 40.25C22.75 39.5625 23.3125 39 24 39H27.75V41.5ZM40.25 41.5H35.25V39H40.25V41.5Z" fill="white"/>
</svg>
