<svg width="68" height="68" viewBox="0 0 68 68" fill="none" xmlns="http://www.w3.org/2000/svg">
<rect width="68" height="68" rx="10" fill="#7A4DFC" fill-opacity="0.08"/>
<path d="M68 39.6752C68 57.9474 52.7777 68 34 68C15.2223 68 0 57.9474 0 39.6752C0 21.403 8.08319 1.51693e-06 26.8609 1.51693e-06C45.6386 1.51693e-06 68 21.403 68 39.6752Z" fill="#7A4DFC"/>
<path fill-rule="evenodd" clip-rule="evenodd" d="M36.2732 44L35.7862 39.464L36.0662 40.097C36.8242 41.809 38.3782 42.007 39.5362 40.535L44.3462 34.415C44.6862 33.984 44.7962 33.219 44.5892 32.71L44.3462 32.108L48.3592 27.478C48.4022 27.4285 48.4349 27.371 48.4555 27.3088C48.4761 27.2467 48.4843 27.181 48.4794 27.1157C48.4746 27.0504 48.4569 26.9866 48.4273 26.9282C48.3978 26.8697 48.357 26.8176 48.3072 26.775C48.2074 26.6894 48.0781 26.6463 47.9469 26.6549C47.8156 26.6635 47.693 26.7231 47.6052 26.821L43.6152 31.425L42.7972 31.309C42.2472 31.232 41.5322 31.526 41.1892 31.965L38.5092 35.395L37.1552 31.872C36.7602 30.843 35.5422 30 34.4402 30H25.5612C24.4692 30 23.2432 30.834 22.8482 31.862L19.4702 40.662C19.2722 41.179 19.3932 41.936 19.7382 42.362L19.9422 42.613C20.2862 43.038 21.0052 43.315 21.5472 43.229L21.8672 43.179C22.4072 43.093 23.0082 42.604 23.2072 42.088L24.2142 39.464L23.7272 44H36.2732ZM37.1902 45H38.4952C38.7742 45 39.0002 45.216 39.0002 45.495V46.505C38.9989 46.6367 38.9457 46.7626 38.852 46.8553C38.7584 46.948 38.632 47 38.5002 47H21.5002C21.4348 47.0008 21.3698 46.9886 21.3091 46.964C21.2484 46.9395 21.1932 46.9032 21.1467 46.8571C21.1002 46.811 21.0632 46.7562 21.0381 46.6957C21.013 46.6353 21.0001 46.5705 21.0002 46.505V45.495C21.0002 45.222 21.2232 45 21.5052 45H23.3102H37.1902ZM30.0002 28.5C31.0611 28.5 32.0785 28.0786 32.8287 27.3284C33.5788 26.5783 34.0002 25.5609 34.0002 24.5C34.0002 23.4391 33.5788 22.4217 32.8287 21.6716C32.0785 20.9214 31.0611 20.5 30.0002 20.5C28.9394 20.5 27.9219 20.9214 27.1718 21.6716C26.4217 22.4217 26.0002 23.4391 26.0002 24.5C26.0002 25.5609 26.4217 26.5783 27.1718 27.3284C27.9219 28.0786 28.9394 28.5 30.0002 28.5Z" fill="white"/>
</svg>
