<svg width="68" height="68" viewBox="0 0 68 68" fill="none" xmlns="http://www.w3.org/2000/svg">
<rect width="68" height="68" rx="10" fill="#7A4DFC" fill-opacity="0.08"/>
<path d="M68 39.6752C68 57.9474 52.7777 68 34 68C15.2223 68 0 57.9474 0 39.6752C0 21.403 8.08319 1.51693e-06 26.8609 1.51693e-06C45.6386 1.51693e-06 68 21.403 68 39.6752Z" fill="#7A4DFC"/>
<path fill-rule="evenodd" clip-rule="evenodd" d="M35.7766 20.7074L37.5629 22.0445C38.0515 22.4102 38.5657 22.5974 39.175 22.6313L41.4028 22.7552C42.7368 22.8294 43.8203 23.7385 44.125 25.0394L44.6339 27.2119C44.7731 27.806 45.0467 28.2799 45.4917 28.6975L47.1186 30.2245C48.0928 31.1388 48.3384 32.5316 47.7357 33.724L46.7291 35.7153C46.4538 36.26 46.3588 36.7988 46.4312 37.4048L46.6961 39.6203C46.8546 40.9469 46.1474 42.1717 44.9193 42.6977L42.8682 43.5761C42.3072 43.8164 41.888 44.1681 41.554 44.6788L40.3328 46.5462C39.6015 47.6643 38.2725 48.148 36.9936 47.7616L34.8578 47.1161C34.2737 46.9395 33.7264 46.9395 33.1423 47.1161L31.0064 47.7616C29.7275 48.148 28.3985 47.6643 27.6673 46.5462L26.446 44.6788C26.112 44.1681 25.6928 43.8164 25.1319 43.5761L23.0806 42.6976C21.8525 42.1716 21.1453 40.9468 21.3039 39.6202L21.5687 37.4046C21.6411 36.7987 21.5461 36.2598 21.2708 35.7152L20.2642 33.7239C19.6615 32.5316 19.9071 31.1387 20.8813 30.2244L22.5083 28.6974C22.9532 28.2798 23.2268 27.8059 23.366 27.2117L23.8749 25.0393C24.1796 23.7384 25.263 22.8293 26.5971 22.7551L28.8248 22.6312C29.4342 22.5973 29.9484 22.4101 30.4369 22.0444L32.2232 20.7073C33.2927 19.9068 34.7071 19.9068 35.7766 20.7074ZM32.8604 34.7652L30.9219 32.8267C30.4195 32.3242 29.6045 32.3242 29.1021 32.8267C28.5997 33.3291 28.5997 34.144 29.1021 34.6465L31.9533 37.4976C32.4558 38 33.2708 38.0001 33.7731 37.4976C35.4917 35.779 37.1908 34.0411 38.9014 32.3147C39.4003 31.8112 39.3987 30.9989 38.8959 30.4989C38.393 29.9988 37.5783 30.0002 37.079 30.5045L32.8604 34.7652ZM33.9999 24.4172C31.3538 24.4172 28.958 25.4898 27.2239 27.2239C25.4897 28.9581 24.4171 31.3538 24.4171 33.9999C24.4171 36.6461 25.4897 39.0418 27.2239 40.776C28.958 42.5101 31.3538 43.5827 33.9999 43.5827C36.6461 43.5827 39.0418 42.5101 40.7759 40.776C42.5101 39.0418 43.5827 36.6461 43.5827 33.9999C43.5827 31.3538 42.5101 28.9581 40.7759 27.2239C39.0418 25.4898 36.6461 24.4172 33.9999 24.4172ZM40.113 27.8868C38.5486 26.3223 36.3872 25.3547 33.9999 25.3547C31.6126 25.3547 29.4512 26.3223 27.8868 27.8868C26.3223 29.4512 25.3546 31.6126 25.3546 33.9999C25.3546 36.3873 26.3223 38.5486 27.8868 40.1131C29.4512 41.6775 31.6126 42.6452 33.9999 42.6452C36.3872 42.6452 38.5486 41.6775 40.113 40.1131C41.6775 38.5487 42.6451 36.3873 42.6451 34C42.6452 31.6126 41.6775 29.4512 40.113 27.8868Z" fill="white"/>
</svg>
