<svg width="160" height="98" viewBox="0 0 160 98" fill="none" xmlns="http://www.w3.org/2000/svg">
<path fill-rule="evenodd" clip-rule="evenodd" d="M87.2793 42.5986C87.0344 42.8782 86.7865 43.1548 86.5355 43.4293L86.4923 43.2803C86.4792 43.2418 86.4716 43.214 86.4627 43.1813C86.45 43.1352 86.4347 43.0794 86.3978 42.9705C86.3034 42.6606 86.209 42.3818 86.083 42.0719L85.9886 41.855C85.9729 41.8395 85.9571 41.8008 85.9335 41.7427C85.9099 41.6846 85.8784 41.6071 85.8312 41.5142C85.6738 41.2043 85.5164 40.8944 85.3275 40.6156C85.2331 40.4762 85.1308 40.3367 85.0285 40.1973C84.9262 40.0579 84.8239 39.9184 84.7294 39.779C84.572 39.5621 84.2572 39.2522 84.0054 39.0044C83.7221 38.7565 83.4388 38.5086 83.124 38.2917C82.8092 38.0748 82.4944 37.8579 82.1796 37.672C81.8648 37.4861 81.55 37.3312 81.0463 37.1453C80.102 36.7734 79.0631 36.5875 78.0243 36.5566C77.5207 36.5566 76.9855 36.5875 76.7337 36.6185C76.4189 36.6495 76.0726 36.7115 75.7578 36.8044C75.0967 36.9594 74.4672 37.2072 73.869 37.4861C73.7589 37.5481 73.6802 37.5868 73.6093 37.6217C73.5385 37.6565 73.4755 37.6875 73.3969 37.734C73.3339 37.7805 73.2631 37.8192 73.1922 37.8579C73.1214 37.8966 73.0506 37.9354 72.9876 37.9819C72.9037 38.0438 72.8163 38.1023 72.7289 38.1608C72.5541 38.2778 72.379 38.395 72.2321 38.5396C72.1797 38.5809 72.1377 38.6153 72.1028 38.644C72.0328 38.7014 71.9908 38.7358 71.9488 38.7565L71.7914 38.9114C71.7285 38.9579 71.6734 39.0121 71.6183 39.0663C71.5632 39.1206 71.5081 39.1748 71.4451 39.2213C71.3979 39.2832 71.3428 39.3375 71.2878 39.3917C71.2327 39.4459 71.1776 39.5001 71.1303 39.5621L70.973 39.748C70.9397 39.7917 70.9025 39.8354 70.8642 39.8804C70.7937 39.9631 70.7193 40.0505 70.6582 40.1508L70.4693 40.4297L70.2804 40.6776L70.0601 41.0184C69.896 41.2808 69.7987 41.4644 69.716 41.6204C69.6718 41.7038 69.6317 41.7794 69.5879 41.855L69.336 42.3508L69.0527 42.9705C69.037 42.986 69.0291 43.0015 69.0212 43.017C69.0134 43.0324 69.0055 43.0479 68.9898 43.0634C68.9777 43.0753 68.9703 43.0871 68.964 43.0972C68.9537 43.1136 68.9463 43.1254 68.9268 43.1254L68.8953 43.1564L68.8324 43.2493L68.8015 43.3101C68.7547 43.2794 68.7502 43.277 68.8009 43.3113L68.8015 43.3101C69.2203 43.584 73.0273 46.1146 71.1303 44.8606H71.0989L70.8785 44.7986L68.9898 44.2409L68.5176 44.0859L68.2972 44.024L68.2657 44.0859C68.0454 44.3648 67.8329 44.6514 67.6204 44.938C67.5836 44.9877 67.5468 45.0373 67.5099 45.087C67.4891 45.0734 67.4682 45.0599 67.4473 45.0465C66.6918 44.5817 65.8418 44.2409 64.9289 43.993C64.016 43.7761 63.1031 43.7141 62.2847 43.7451C62.1116 43.7601 61.9723 43.7727 61.859 43.7836C61.3014 42.8695 60.4877 41.8642 59.3571 40.9874C58.8676 40.5623 58.2465 40.2006 57.5936 39.904C57.6148 39.7875 57.636 39.6632 57.6572 39.5311C57.6887 39.3762 57.7201 39.1283 57.7201 38.9424C57.7516 38.7565 57.7516 38.5396 57.7516 38.1678C57.7516 37.796 57.7516 37.672 57.7201 37.0833C57.7113 37.0001 57.7036 36.9243 57.6964 36.8531C57.6528 36.4203 57.626 36.1551 57.4368 35.4101C57.2165 34.6045 57.0276 33.9848 56.3036 32.7764C55.7684 31.8468 54.6981 30.6074 53.4075 29.7398C52.3057 28.9342 50.5429 28.3145 49.63 28.1906C48.4023 27.9737 47.5523 27.9737 46.9227 28.0357C46.2725 28.0831 45.9539 28.1486 45.6146 28.2184C45.5104 28.2398 45.4042 28.2617 45.2858 28.2835C44.7507 28.4075 44.5933 28.4694 44.2785 28.5934C44.1797 28.6323 44.0933 28.6651 44.0155 28.6946C43.8451 28.7593 43.7155 28.8085 43.5859 28.8723C43.397 28.9342 43.1767 29.0582 43.0823 29.1201L42.7045 29.306L42.4212 29.461C42.2743 29.5436 42.1834 29.5987 42.0924 29.6537C42.047 29.6813 42.0015 29.7088 41.949 29.7398C41.4453 30.0807 41.162 30.2976 40.9417 30.4835C40.7213 30.6694 40.5324 30.8243 40.375 30.9482C40.0603 31.227 39.84 31.4439 39.6197 31.6607C39.5424 31.7368 39.4726 31.8093 39.4067 31.8778C39.2848 32.0045 39.1755 32.1181 39.0529 32.2186C38.812 32.4558 38.6015 32.6929 38.4003 32.9196L38.4001 32.9199C38.3122 33.0189 38.2261 33.116 38.14 33.2102L37.3845 34.0468L37.0697 34.3876L36.9123 34.5425C35.118 36.3087 33.3866 38.0748 31.6867 39.81L31.6862 39.8105C30.8365 40.6779 29.9867 41.5453 29.1684 42.4437C28.9638 42.6761 28.7513 42.9008 28.5388 43.1254L28.5384 43.1258C28.3261 43.3503 28.1137 43.5748 27.9092 43.8071C27.753 43.9845 27.5875 44.1665 27.4164 44.3547C27.1395 44.6594 26.8474 44.9806 26.5556 45.3253C25.6742 46.3478 24.8872 47.3704 24.1632 48.3309C24.032 48.5106 23.9018 48.6882 23.7729 48.8642C23.3949 49.38 23.0273 49.8817 22.675 50.3781C22.6167 50.181 22.5566 49.9738 22.4947 49.7562C22.4005 49.5177 22.3351 49.3133 22.2689 49.1065C22.1802 48.8296 22.0903 48.5484 21.9281 48.1759C21.9281 48.0648 22.0273 48.2711 22.0987 48.4194C22.1665 48.5603 22.209 48.6488 22.117 48.3618C22.0185 48.1957 21.9074 47.8871 21.7809 47.5358C21.6245 47.1011 21.4444 46.6008 21.2355 46.2239L21.267 46.069C21.2151 45.9028 21.2167 45.9528 21.2189 46.0189C21.2218 46.1082 21.2256 46.2268 21.0997 45.8812L21.4559 46.8746C21.3692 46.7679 21.2974 46.6319 21.1995 46.4463C21.1552 46.3623 21.1055 46.2681 21.0467 46.1619C21.0797 46.3136 21.1705 46.5828 21.2584 46.8436C21.4219 47.3285 21.5756 47.7841 21.33 47.4013V47.3393C21.288 47.3806 21.1481 47.0777 21.0315 46.8253C20.9732 46.6991 20.9207 46.5854 20.8893 46.5337H20.9207L20.6059 46.038C20.8263 46.3788 20.5745 45.4802 20.543 45.5732C20.4062 45.4535 20.4382 45.5072 20.5008 45.6122C20.5679 45.7246 20.67 45.8959 20.6374 45.976C20.6059 46.038 20.3541 45.4802 20.2282 45.1704L20.1338 45.2324C20.0236 45 20.0472 45 20.0629 45C20.0787 45 20.0865 45 19.9449 44.7676L20.0393 45.3253C19.7334 44.7381 19.7545 44.8679 19.7812 45.0321C19.8095 45.2058 19.844 45.418 19.5042 44.8605C19.4856 44.6776 19.4121 44.5702 19.3162 44.4301C19.2496 44.3329 19.1723 44.2199 19.0949 44.0549L18.8116 44.2408C18.72 44.1281 18.6951 43.9663 18.6883 43.9222C18.6871 43.9148 18.6865 43.9107 18.6861 43.9107C18.6857 43.9107 18.6857 43.917 18.6857 43.931C18.5164 43.7226 18.6032 43.9486 18.6687 44.119C18.7006 44.2019 18.7275 44.2718 18.7172 44.2718C18.6339 44.1546 18.582 44.1438 18.526 44.1321C18.4338 44.1128 18.3302 44.0911 18.0561 43.5901C17.7744 43.3781 17.9289 43.6728 18.0741 43.9496C18.2047 44.1986 18.3278 44.4332 18.1191 44.2718C17.9685 44.0495 17.9836 43.9973 17.9955 43.9559C18.0085 43.9108 18.0178 43.8785 17.8043 43.6521L17.7098 43.931C17.6801 43.8725 17.6399 43.7984 17.5974 43.7202C17.4681 43.4823 17.318 43.2062 17.3805 43.2134C17.3854 43.2151 17.3902 43.2167 17.395 43.2183C17.3925 43.2171 17.3902 43.2161 17.3881 43.2153C17.3853 43.2143 17.3827 43.2137 17.3805 43.2134C17.0798 43.11 16.6684 42.8254 16.2405 42.5293C15.9953 42.3596 15.7447 42.1861 15.5063 42.0409C14.8452 41.6071 14.2471 41.3592 14.2156 41.886C13.9036 41.6172 13.8936 41.5388 13.8788 41.4222C13.8697 41.3506 13.8588 41.2646 13.7749 41.1113C13.8379 41.6071 13.4601 41.4522 12.9879 41.2353L12.9182 41.2009C12.4924 40.9905 12.0039 40.7492 11.8547 40.9254L12.2324 41.3282C11.3825 40.9564 10.9733 41.1423 10.627 41.4212C10.5586 41.4818 10.4931 41.5468 10.4274 41.612C10.1908 41.847 9.9509 42.0853 9.55669 42.1338L9.90297 42.2888C10.1508 42.577 10.189 42.7542 10.2253 42.9225C10.2397 42.9894 10.2539 43.0549 10.2807 43.1254C10.2268 43.0875 10.1484 43.0217 10.0612 42.9486C9.79188 42.7229 9.43848 42.4266 9.46226 42.6606C9.52018 42.6891 9.58104 42.7118 9.64307 42.7349C9.78331 42.7871 9.9294 42.8415 10.0604 42.9704C9.27338 42.7845 8.76971 43.0634 8.29752 43.4042C8.07717 43.5901 7.85681 43.7761 7.63645 43.9929C7.4161 44.1789 7.19574 44.3648 6.88095 44.4887C6.69207 45.2014 6.25136 45.7281 5.77917 46.2549C5.30698 46.7816 4.86627 47.3084 4.80331 47.9281C4.83479 47.7421 6.03101 48.3309 5.71622 48.3309C4.58296 48.083 4.61444 48.2689 4.70887 48.4858C4.71548 48.4972 4.72227 48.5086 4.72907 48.5201C4.85184 48.7278 4.98071 48.9457 4.2052 48.8576C4.38761 49.2423 4.13862 49.436 3.88674 49.6319C3.83433 49.6726 3.78181 49.7135 3.73301 49.7562C3.4497 50.004 3.2923 50.2829 4.01632 50.8406L3.38674 50.6547C3.19582 50.6547 3.27123 50.7117 3.36715 50.7842C3.42939 50.8313 3.50027 50.8848 3.51266 50.9336L3.35527 50.8716C3.19563 50.9502 3.26266 51.1084 3.32236 51.2494C3.38039 51.3864 3.4315 51.507 3.26082 51.5223L3.95337 51.7392C3.96798 51.8111 3.84702 51.7963 3.7509 51.7845C3.63989 51.7708 3.56203 51.7613 3.76449 51.8941L3.41822 51.8012L4.04781 52.142C3.33558 51.9263 3.38616 52.0756 3.43741 52.2269C3.47451 52.3364 3.51195 52.4469 3.26082 52.4209C3.2832 52.4517 3.3113 52.4876 3.34214 52.5269C3.52825 52.7643 3.81417 53.129 3.54413 53.2885C3.11674 53.2043 2.93596 53.3201 2.74576 53.4419C2.65577 53.4995 2.56367 53.5585 2.44236 53.5983C2.50532 54.0321 2.56828 54.6208 2.22201 55.0546L3.04047 55.2096L3.07194 55.3335C3.03302 55.3271 2.9981 55.322 2.96665 55.3175C2.84548 55.2999 2.77565 55.2897 2.72568 55.2405C2.21247 55.19 2.32212 55.2951 2.43324 55.4015C2.5266 55.4909 2.62099 55.5814 2.34792 55.5814C2.8386 55.6417 2.74503 55.5976 2.62776 55.5422C2.56447 55.5123 2.49428 55.4792 2.50532 55.4574C2.91455 55.4264 3.67006 55.7053 3.22934 55.7673L3.04047 55.7363L3.4497 55.9222C3.13491 55.8602 2.89881 55.837 2.66272 55.8138C2.42662 55.7905 2.19053 55.7673 1.87573 55.7053C1.90204 55.8865 2.09314 56.0786 2.28153 56.2679C2.5441 56.5317 2.80137 56.7902 2.59975 57.0067C2.30226 56.9268 2.2836 56.9785 2.26178 57.0388C2.23282 57.1189 2.1983 57.2144 1.49798 57.0377C1.7209 57.2233 1.99986 57.2435 2.34505 57.2684C2.63355 57.2893 2.96831 57.3135 3.35527 57.4405C3.34478 57.4611 3.37276 57.4887 3.39841 57.5139C3.4497 57.5644 3.49167 57.6057 3.19787 57.5644C3.06449 57.5207 2.88924 57.5044 2.73126 57.4897C2.55367 57.4732 2.3979 57.4587 2.34792 57.4095L2.41089 57.5954C2.33401 57.5954 2.21545 57.5543 2.12306 57.5224C2.10193 57.515 2.08218 57.5082 2.06461 57.5024C2.39845 57.7372 2.1623 57.8533 1.93185 57.9667C1.70595 58.0779 1.48555 58.1863 1.81277 58.401C2.03313 58.4475 2.07248 58.4243 2.11183 58.401C2.15118 58.3778 2.19053 58.3545 2.41089 58.401C2.86165 58.6475 2.59522 58.6761 2.33476 58.7041C2.10411 58.7289 1.87814 58.7531 2.15905 58.9278L1.56094 58.7728C1.63468 58.8008 1.71251 58.8277 1.78744 58.8536C2.12828 58.9714 2.40888 59.0684 1.97017 59.1446C1.50166 59.0845 1.40223 59.0114 1.29656 58.9337C1.23894 58.8913 1.17947 58.8476 1.05727 58.8038C1.02579 58.8968 1.15171 59.2066 1.84425 59.2066C2.00521 59.3198 1.69589 59.3338 1.44382 59.3451C1.3508 59.3493 1.26558 59.3532 1.21466 59.3615C1.28092 59.3724 1.36267 59.368 1.45447 59.3631C1.62438 59.354 1.82876 59.3431 2.03313 59.4235C1.67115 59.5253 1.60649 59.7107 1.5426 59.8939C1.52871 59.9338 1.51485 59.9735 1.49798 60.0122C1.30911 59.9813 1.05727 59.9503 0.962834 59.9503C1.39397 60.0564 1.2301 60.0587 0.968579 60.0623C0.69544 60.0662 0.315792 60.0715 0.3962 60.1981C0.462794 60.4385 0.611554 60.7058 0.762476 60.9769C1.03962 61.4749 1.32404 61.9859 1.12023 62.3671C1.94174 62.5558 2.07245 62.721 2.21687 62.9036C2.23847 62.9309 2.26039 62.9586 2.28496 62.9868L0.994315 62.8939L1.40354 63.0798C1.23631 63.0935 1.17396 63.0647 1.1127 63.0364C1.03559 63.0008 0.960211 62.966 0.679522 63.0178L1.46651 63.1417C1.28992 63.1301 1.19699 63.1836 1.10374 63.2371C0.947617 63.3269 0.790614 63.4171 0.238803 63.2037L0.17585 63.8544C0.144907 63.9305 0.402963 63.9693 0.632276 64.0037C0.869485 64.0393 1.07594 64.0702 0.899871 64.1333C0.707756 64.1333 0.645917 64.1172 0.569409 64.0974C0.495495 64.0782 0.407891 64.0555 0.17585 64.0403C-0.337053 64.2683 0.367485 64.4449 1.06456 64.6197C1.69375 64.7775 2.31687 64.9337 2.03313 65.1248L1.87573 65.0938C2.06869 65.1456 2.13458 65.207 2.18777 65.2566C2.23004 65.296 2.2643 65.3279 2.34792 65.3417C2.99468 65.3417 2.81934 65.3105 2.57849 65.2678C2.3387 65.2252 2.03397 65.1712 2.41089 65.1248C2.98957 65.1573 3.11668 65.207 3.2301 65.2513C3.33261 65.2913 3.42393 65.327 3.82746 65.3417C3.56954 65.4003 3.72426 65.4465 3.8897 65.496C3.98675 65.5251 4.08749 65.5552 4.11077 65.5896C3.78841 65.6473 3.7184 65.7251 3.64995 65.8012C3.57134 65.8886 3.49479 65.9737 3.04047 66.0233C3.15676 66.0546 3.35472 66.0858 3.56757 66.1194C3.98848 66.1857 4.46761 66.2613 4.48851 66.3642C4.08459 66.4084 3.87974 66.3966 3.74218 66.3886C3.59029 66.3799 3.52045 66.3758 3.35527 66.4571L3.98485 66.4881C3.90713 66.5901 3.76548 66.5872 3.55989 66.583C3.51563 66.582 3.4684 66.5811 3.41822 66.5811C3.40488 66.6336 3.5612 66.6639 3.71219 66.6931C3.91743 66.7328 4.11284 66.7707 3.85893 66.8599L3.26082 66.767C3.45745 66.8638 3.4238 66.9227 3.36963 67.0177C3.35444 67.0443 3.33757 67.0739 3.32379 67.1078C2.94603 67.1078 2.97751 67.0149 3.10343 66.9839C2.51793 67.0223 2.81571 67.0726 3.0966 67.1201C3.26877 67.1492 3.43459 67.1772 3.38674 67.2008C3.48673 67.2008 3.56712 67.1853 3.65697 67.1681C3.82168 67.1365 4.01818 67.0987 4.42556 67.1388C4.37468 67.1764 4.50369 67.2139 4.62568 67.2495C4.80559 67.3018 4.97023 67.3498 4.52 67.3867L3.92189 67.2937C4.10287 67.3605 4.2554 67.3913 4.36488 67.4134C4.56008 67.4529 4.61839 67.4646 4.45704 67.6036H4.11077C4.65083 67.6854 4.50559 67.7806 4.3262 67.8983C4.23373 67.959 4.13218 68.0256 4.11077 68.0993L3.95337 68.0684C4.04999 68.0955 4.21317 68.1227 4.36066 68.1473C4.54957 68.1787 4.71275 68.2059 4.67739 68.2233C5.05515 68.1303 5.21255 68.1303 5.84213 68.1303C5.31924 68.2083 5.63379 68.2627 5.99493 68.3252C6.35125 68.3869 6.75293 68.4564 6.44024 68.5641C6.09396 68.5641 5.65325 68.5021 6.03101 68.4402C5.7742 68.4253 5.52646 68.414 5.29126 68.4033C4.54619 68.3693 3.92695 68.3411 3.54413 68.2233C3.79598 68.3163 3.95337 68.4092 3.48118 68.4092L4.48851 68.4402C4.50896 68.4804 4.48959 68.5076 4.47349 68.5302C4.46479 68.5424 4.45704 68.5533 4.45704 68.5641C4.72424 68.5773 4.95173 68.5569 5.15639 68.5386C5.43397 68.5138 5.66953 68.4928 5.90509 68.5641C6.11896 68.6483 5.57723 68.661 5.34612 68.6605L5.33846 68.6571C5.19717 68.6571 5.23706 68.6603 5.34612 68.6605C5.53238 68.7428 5.7685 68.7626 5.94125 68.7771C6.14852 68.7945 6.26459 68.8042 6.09396 68.905C6.06431 68.8952 6.02845 68.8855 5.99612 68.8767C5.95733 68.8662 5.92363 68.8571 5.91188 68.851C5.91967 68.8483 5.92789 68.8456 5.93657 68.843C5.90738 68.843 5.90224 68.846 5.91188 68.851C5.78763 68.8937 5.77157 68.943 5.75568 68.9918C5.72553 69.0844 5.69601 69.1751 4.92923 69.2148C4.64596 69.2148 4.29967 69.2148 4.39408 69.1529H4.58296C4.17891 69.096 4.19822 69.1174 4.23152 69.1541C4.26378 69.1898 4.30921 69.2399 3.99509 69.2475C3.9276 69.2416 3.84153 69.2405 3.73301 69.2458C3.84023 69.2488 3.92629 69.2492 3.99509 69.2475C4.31919 69.2761 4.21498 69.4167 4.11077 69.4937L4.83479 69.4627C5.94307 69.5718 5.57023 69.579 4.96183 69.5907C4.36056 69.6023 3.52923 69.6183 3.67006 69.7416C3.93017 69.8216 3.97199 69.8024 4.02533 69.778C4.07526 69.7551 4.1353 69.7276 4.39408 69.7726C4.34879 69.8171 4.23429 69.8537 4.12233 69.8894C3.92296 69.9531 3.73163 70.0142 3.95337 70.1134C3.91203 70.1224 3.86802 70.1328 3.82044 70.144C3.54193 70.2095 3.1414 70.3038 2.44236 70.3303C2.58508 70.3686 2.55133 70.4332 2.51743 70.4981C2.46909 70.5907 2.42044 70.6839 2.88308 70.7021C3.20551 70.6011 3.03664 70.5606 2.87208 70.5211C2.68318 70.4757 2.49996 70.4318 3.07194 70.2993L3.89041 70.3303C3.87784 70.3921 3.93547 70.4539 3.99125 70.5138C4.07526 70.6039 4.1551 70.6896 3.98485 70.7641C4.14225 70.7331 4.3626 70.7021 4.52 70.7331C4.64041 70.8042 4.8345 70.8526 5.01421 70.8975C5.30433 70.9699 5.55693 71.033 5.40142 71.1669C4.83056 71.2157 4.78807 71.149 4.74936 71.0882C4.73897 71.0719 4.72886 71.056 4.70887 71.0429C4.39321 71.1292 4.41949 71.1579 4.46659 71.2091C4.50404 71.2499 4.55464 71.305 4.45704 71.4148C4.14297 71.4457 4.15008 71.4072 4.15793 71.3647C4.16582 71.322 4.17444 71.2753 3.85893 71.2908L4.07663 71.5051C4.03929 71.5055 3.9983 71.5064 3.95337 71.5077H4.07929L4.07663 71.5051C4.54635 71.4994 4.43632 71.5589 4.29868 71.6333C4.18667 71.6939 4.05638 71.7643 4.2052 71.8176C4.22793 72.0637 4.97288 72.0998 5.71704 72.1358C6.00344 72.1497 6.28972 72.1636 6.53467 72.1894C6.28252 72.2445 6.03038 72.2751 5.80041 72.3031L5.71622 72.3133C6.03101 72.2307 5.96806 72.2307 5.80716 72.2307C5.72672 72.2307 5.62178 72.2307 5.52734 72.2204C5.65325 72.3133 4.48851 72.5612 4.04781 72.5302C4.21514 72.6126 4.36467 72.5724 4.52006 72.5306C4.65701 72.4937 4.7985 72.4557 4.96071 72.4992L4.89775 72.7471C5.03612 72.7231 5.14712 72.699 5.24329 72.6782C5.51906 72.6185 5.67277 72.5852 5.99953 72.6542C6.11703 72.7236 6.09418 72.7757 6.06195 72.8492C6.05101 72.8742 6.03898 72.9016 6.03101 72.933C5.92299 72.933 5.77836 72.951 5.64074 72.9682C5.41741 72.996 5.21255 73.0215 5.21255 72.964C5.02367 73.057 4.99219 73.1499 5.52734 73.1499C5.74778 73.0631 5.87216 73.0979 6.02541 73.1407C6.20043 73.1896 6.41309 73.249 6.84947 73.1499L6.37728 73.3358C6.37728 73.3232 6.31995 73.3209 6.25831 73.3184C6.16845 73.3147 6.06944 73.3106 6.12544 73.2739C5.55406 73.3604 5.90319 73.3714 6.19819 73.3807C6.32575 73.3847 6.44321 73.3884 6.47172 73.3978C6.41764 73.4191 6.37471 73.4513 6.32889 73.4858C6.24133 73.5516 6.14321 73.6254 5.93657 73.6457C6.15693 73.6767 5.99953 73.8006 5.59029 73.8626C5.68165 73.8985 5.84726 73.8719 6.02554 73.8432C6.15441 73.8224 6.28989 73.8006 6.40876 73.8006L6.37728 74.0485C6.24582 74.0657 6.05336 74.0926 5.83997 74.1224L5.83963 74.1224C5.28663 74.1996 4.59331 74.2964 4.45704 74.2964C4.63569 74.3089 4.89193 74.2858 5.13141 74.2643C5.48269 74.2326 5.79789 74.2042 5.77917 74.2964C5.36184 74.311 5.19151 74.3743 5.01422 74.4402C4.81708 74.5135 4.61135 74.5899 4.04781 74.6062C3.41822 74.7611 3.4497 75.009 3.70153 75.102C4.07932 75.0858 4.1657 75.0359 4.26478 74.9787C4.3556 74.9262 4.45707 74.8676 4.80331 74.8231C4.95946 74.9768 5.52612 74.9857 6.01919 74.9934C6.26338 74.9972 6.48951 75.0007 6.63881 75.0214C6.67359 75.1335 6.68285 75.2661 6.69161 75.4037C6.11048 75.5858 5.64922 75.8107 5.77917 75.9386C5.95872 75.9133 6.12782 75.8572 6.31414 75.7954C6.43351 75.7558 6.56007 75.7138 6.70088 75.6761C6.71364 75.8017 6.745 75.9212 6.82207 76.0257C6.66873 76.102 6.59005 76.1537 6.90528 76.116C6.91386 76.1234 6.92274 76.1306 6.93193 76.1376L6.41855 76.3018C6.39518 76.304 6.37095 76.3069 6.3458 76.3104L5.81065 76.4963L6.41855 76.3018C6.66068 76.2791 6.81001 76.3248 6.93163 76.3621C7.00391 76.3842 7.06641 76.4034 7.13279 76.4034C7.6241 76.4887 7.34594 76.6002 6.88296 76.7857C6.85633 76.7964 6.82908 76.8073 6.80134 76.8184C6.78604 76.8246 6.7706 76.8308 6.75503 76.8372C6.91494 76.7799 7.17555 76.6962 7.42525 76.635L7.35319 76.6823L6.59769 77.116C6.5471 77.3401 6.86226 77.1441 7.23299 76.8817C7.20709 76.9125 7.2028 76.9404 7.19877 76.9666C7.1891 77.0293 7.18085 77.0828 6.88095 77.147C6.89114 77.1671 6.85511 77.2001 6.82098 77.2315C6.75428 77.2927 6.6948 77.3473 7.00158 77.2853L6.48192 77.3949C6.39272 77.4121 6.29522 77.4326 6.18841 77.4569L6.48192 77.3949C7.24822 77.2477 7.40062 77.3487 7.55683 77.4523C7.59143 77.4752 7.62623 77.4983 7.66793 77.5188C6.83043 77.7055 6.88133 77.7438 6.94864 77.7944C7.01541 77.8447 7.09833 77.9071 6.3458 78.1385C6.93199 77.9943 7.05493 78.049 7.17209 78.1011C7.28142 78.1498 7.38571 78.1962 7.85681 78.0766C7.92918 78.1478 7.31758 78.3464 6.87195 78.4911C6.73605 78.5352 6.61559 78.5743 6.53467 78.6033L6.97539 78.5413C6.66341 78.6757 6.54467 78.8338 6.42468 78.9936C6.35094 79.0918 6.27673 79.1906 6.15693 79.285L7.19574 79.0991L6.75503 79.285C6.83964 79.2641 6.91714 79.2573 6.99588 79.2504C7.15154 79.2367 7.31208 79.2225 7.54202 79.0991L7.51053 79.192C8.13775 78.9923 8.13795 79.0266 8.13832 79.0893C8.13859 79.1336 8.13894 79.192 8.36048 79.192C8.20308 79.285 7.95124 79.3779 7.79385 79.3779C7.79385 79.4195 7.55313 79.5168 7.29013 79.6231C7.19577 79.6613 7.09854 79.7006 7.00853 79.7389C6.96662 79.7535 6.93399 79.7675 6.91243 79.7807C6.94314 79.767 6.97535 79.753 7.00853 79.7389C7.14828 79.69 7.39117 79.6334 7.67056 79.5683C8.28614 79.4248 9.07896 79.24 9.33634 79.0061C9.77705 78.8512 10.1233 78.8202 9.93445 78.9751L8.99007 79.3779L10.0289 79.0991C10.138 79.117 9.98444 79.2176 9.82315 79.3233C9.70528 79.4006 9.58327 79.4805 9.55669 79.5329C9.46226 79.4709 7.66793 80.0286 7.76237 80.2765C7.63975 80.2161 7.3712 80.2603 7.13757 80.2987C7.01133 80.3194 6.89529 80.3385 6.81799 80.3385C6.78651 80.4004 6.72355 80.4624 6.28284 80.5244C6.46585 80.5694 6.61191 80.5344 6.73893 80.504C6.8741 80.4717 6.9877 80.4445 7.10131 80.5244C6.25136 80.8342 5.99953 81.0201 5.77917 81.33L6.3458 80.9272C6.44024 80.8962 6.53467 80.8652 6.59763 80.8652C6.6606 80.7723 6.78651 80.7103 7.10131 80.5863C7.10131 80.6106 7.27514 80.5874 7.45638 80.5631C7.65609 80.5364 7.86478 80.5085 7.85984 80.5416C7.81851 80.5651 7.77556 80.5903 7.73089 80.6173C7.81994 80.579 7.85782 80.5552 7.85984 80.5416C8.45408 80.2041 8.71615 80.2228 8.94301 80.239C9.13427 80.2526 9.30051 80.2645 9.61965 80.0596C9.87148 79.9666 9.96593 80.0596 9.55669 80.2765C9.14964 80.3493 8.91658 80.5185 8.67216 80.696L8.67181 80.6962C8.62284 80.7318 8.5734 80.7677 8.52202 80.8032C8.49604 80.8201 8.47037 80.837 8.44507 80.8538C8.42898 80.8645 8.41297 80.8751 8.39716 80.8854C8.30219 80.9446 8.19803 81.001 8.07717 81.0511C8.17496 81.0271 8.28221 80.961 8.39716 80.8854C8.44045 80.8585 8.48183 80.8309 8.52202 80.8032C8.66871 80.7078 8.82584 80.6157 8.99007 80.5863C9.05903 80.6316 8.82582 80.809 8.60917 80.9739C8.5292 81.0347 8.45136 81.094 8.39196 81.1441L8.20308 81.1751L7.91977 81.5159C8.0752 81.4453 8.20338 81.3568 8.31811 81.2776C8.50547 81.1483 8.65696 81.0437 8.83267 81.0821C8.76585 81.1347 8.77846 81.1706 8.79102 81.2063C8.80803 81.2547 8.82495 81.3028 8.64379 81.392C8.42653 81.4708 8.19264 81.5741 7.97383 81.6707C7.59028 81.8402 7.25304 81.9892 7.13279 81.9497C7.14162 81.9562 7.15106 81.9636 7.16123 81.9716C7.29618 82.0778 7.55908 82.2846 8.20308 81.7948L8.23456 81.9187C8.25293 81.9026 8.27236 81.8854 8.29269 81.8672C8.30689 81.8546 8.32153 81.8414 8.33657 81.828C8.63192 81.5634 9.07729 81.1646 9.27338 81.33L9.11598 81.4229L9.80853 81.268L9.43078 81.5779C9.61965 81.4539 9.84 81.3919 9.84 81.4539C9.75823 81.5114 9.69813 81.5604 9.63879 81.6087C9.53826 81.6906 9.43983 81.7708 9.2419 81.8877C9.38249 82.0261 9.69892 81.8431 9.92192 81.7141C9.94857 81.6987 9.97388 81.684 9.9974 81.6708C10.0918 81.7328 9.96593 81.8567 9.49374 82.1046C9.48357 82.1746 9.50621 82.2382 9.52988 82.3046C9.57956 82.4441 9.63381 82.5964 9.39929 82.8482C9.63938 82.8325 9.66787 82.7927 9.7165 82.7248C9.7635 82.6592 9.82932 82.5673 10.1233 82.4454C9.52521 82.9722 9.52521 83.2511 9.74557 83.375C9.8546 83.4465 10.037 83.4871 10.2142 83.5265C10.344 83.5554 10.4709 83.5836 10.564 83.6229C11.0549 83.0914 11.0865 83.1041 11.1407 83.1256C11.1871 83.1441 11.2499 83.1692 11.6311 82.8656C11.5375 82.9564 11.4579 83.0765 11.3763 83.1997C11.3374 83.2584 11.2981 83.3178 11.2566 83.375C11.1307 83.5919 10.9733 83.8088 10.6899 83.8088L10.9733 83.8708C10.8016 84.1806 10.6299 84.2344 10.4582 84.2882C10.447 84.2917 10.4359 84.2951 10.4247 84.2987C10.4187 84.3006 10.4127 84.3026 10.4066 84.3046C10.2178 84.3665 9.9974 84.4595 9.74557 84.9243C9.87148 85.0172 10.2492 84.8313 10.564 84.6764C10.8788 84.5215 11.1307 84.4285 11.0992 84.7383C10.7491 85.068 10.8406 85.0643 10.9431 85.0602C11.0526 85.0558 11.1746 85.051 10.7844 85.451C10.583 85.6052 10.5089 85.5715 10.4376 85.5391C10.4086 85.5259 10.3801 85.513 10.3437 85.513L10.2807 85.6989C10.5011 86.0707 10.7529 85.8538 11.0047 85.544C11.0555 85.4816 11.1075 85.4141 11.161 85.3447C11.3732 85.0694 11.6096 84.7629 11.8862 84.6144C12.2055 84.7192 11.8725 85.2446 11.6287 85.6292C11.5842 85.6996 11.5425 85.7653 11.5084 85.8228C11.4769 86.0087 11.7917 86.0397 12.0121 85.8538C11.7288 86.0397 11.6658 85.8228 11.7602 85.544C11.8547 85.2341 12.075 84.8623 12.2954 84.6144C12.075 85.1411 12.2324 85.2341 12.4528 85.1721C12.6731 85.1102 12.9565 84.8313 13.1139 84.6454C13.1139 84.0097 13.0838 83.9655 13.0237 83.8771L13.0194 83.8708C12.9701 83.8222 12.9207 83.7736 12.9926 83.4417C13.0509 83.5706 13.1126 83.6949 13.1769 83.8088C13.4917 84.3975 13.9009 84.9553 14.3416 85.451C14.7823 85.9158 15.3489 86.4116 15.9785 86.8144C16.6081 87.2172 17.3007 87.527 17.9617 87.7129C18.4524 87.855 18.7049 87.8928 19.0589 87.9459C19.091 87.9507 19.1239 87.9557 19.1579 87.9608C19.5357 88.0228 19.9135 88.0538 20.2912 88.0228C20.7004 88.0228 21.0782 87.9918 21.1411 87.9608C21.2198 87.9453 21.2985 87.9376 21.3772 87.9298C21.4559 87.9221 21.5346 87.9144 21.6133 87.8989L22.0855 87.8059C22.2429 87.7749 22.4318 87.713 22.5262 87.682C22.6049 87.6665 22.6758 87.6432 22.7466 87.62C22.8174 87.5967 22.8883 87.5735 22.967 87.558C23.029 87.5336 23.0861 87.514 23.1403 87.4954C23.2236 87.4668 23.2999 87.4406 23.3762 87.4031L23.628 87.2792C23.7854 87.2172 23.9428 87.1242 24.0373 87.0623L24.2891 86.9383C24.478 86.8144 24.5409 86.7834 24.6668 86.7214L24.9187 86.5665L25.1075 86.4426L25.2335 86.3496L25.3279 86.2566L25.8542 85.8729C26.3307 86.3546 26.8946 86.8268 27.5 87.2172C27.6074 87.2933 27.7271 87.3683 27.8547 87.4411C27.8622 87.4699 27.8699 87.4985 27.8777 87.527C25.5797 90.8424 39.9028 97.5662 40.4695 94.2818L40.6583 94.1888L40.9102 94.0959L41.4138 93.879C41.5869 93.8016 41.7521 93.7319 41.9173 93.6622C42.0825 93.5925 42.248 93.5227 42.4212 93.4452C42.5578 93.378 42.7003 93.3166 42.841 93.256C43.0246 93.1769 43.2052 93.0991 43.3656 93.0114C43.5714 92.8989 43.7772 92.7873 43.9811 92.6768C44.9001 92.1789 45.7807 91.7017 46.4505 91.2453C46.5055 91.2105 46.56 91.1762 46.614 91.1424C46.9132 91.4769 47.2381 91.7931 47.5838 92.0818C48.6226 92.9494 49.7559 93.5381 50.7317 93.879C51.581 94.1507 51.7715 94.1827 51.9505 94.2128C52.0368 94.2274 52.1205 94.2414 52.2742 94.2818C52.6205 94.3438 52.9668 94.3747 53.313 94.4057C54.0056 94.4367 54.7296 94.4057 55.4222 94.3128L55.4226 94.3127C55.7687 94.2507 56.1148 94.1888 56.4295 94.0959C56.8072 94.0029 57.0591 93.91 57.0276 93.91C57.4998 93.755 57.972 93.5691 58.4442 93.3213L58.6645 93.1973L59.3256 92.7635C59.3727 92.7326 59.4276 92.694 59.4826 92.6554L59.4834 92.6548C59.5384 92.6161 59.5933 92.5775 59.6404 92.5466L59.7033 92.5156C59.9237 92.2677 60.0496 92.1128 60.0811 91.9889C60.1755 91.772 59.9237 91.772 59.6089 91.803C59.5806 91.803 59.5459 91.8092 59.5078 91.8161C59.4611 91.8246 59.4091 91.834 59.3571 91.834L59.2312 91.865H59.1997L59.0738 91.9579L58.7904 92.1128C58.6016 92.2368 58.3812 92.3607 58.1609 92.4537L57.7201 92.6706C57.6414 92.7015 57.5549 92.7403 57.4683 92.779C57.3818 92.8177 57.2951 92.8565 57.2165 92.8875C57.1221 92.9184 57.0355 92.9494 56.949 92.9804C56.8624 93.0114 56.7757 93.0424 56.6813 93.0734L56.4925 93.1353C56.4295 93.1508 56.3744 93.1663 56.3193 93.1818C56.2642 93.1973 56.2091 93.2128 56.1462 93.2283C56.0263 93.262 55.8971 93.2865 55.7637 93.3119C55.6518 93.3331 55.537 93.3549 55.4222 93.3832C54.9185 93.4762 54.4148 93.5072 53.9111 93.5072C53.4075 93.5072 52.9038 93.4452 52.4316 93.3832C52.3726 93.3687 52.3135 93.361 52.2577 93.3537C52.1945 93.3454 52.1355 93.3377 52.0853 93.3213C52.0476 93.3151 52.0211 93.3113 52 93.3084C51.982 93.3058 51.9678 93.3038 51.9537 93.3013C51.9016 93.292 51.851 93.2753 51.6134 93.1974C50.9523 93.0115 50.1966 92.7325 49.4096 92.2678C48.714 91.8684 47.9918 91.3114 47.3902 90.6694C47.4882 90.6115 47.5842 90.5556 47.6782 90.5016C47.7913 90.4459 47.9045 90.3792 48.0108 90.3146C48.3365 90.6484 48.6932 90.9511 49.0633 91.2143C49.63 91.6171 50.2281 91.9269 50.7632 92.1748C51.2354 92.3917 52.0539 92.5776 52.0539 92.5776C52.3857 92.6667 52.7465 92.6989 53.0808 92.7287L53.1242 92.7325C53.8797 92.7945 54.6666 92.7635 55.3907 92.6086C55.5795 92.5776 55.7685 92.5466 55.9258 92.4846C56.0517 92.4537 56.3665 92.3607 56.3665 92.3607L56.5554 92.2987C56.6317 92.2612 56.7079 92.235 56.7912 92.2065C56.8454 92.1879 56.9026 92.1683 56.9646 92.1438C57.1148 92.0884 57.2761 92.011 57.4286 91.9378C57.5319 91.8882 57.6312 91.8405 57.7201 91.803L58.1923 91.5241L58.3812 91.4312L58.5701 91.3072L58.633 91.2762L58.6645 91.2453V91.2143L58.696 91.1523C59.0663 90.889 59.4199 90.5927 59.7445 90.3206C59.8743 90.2117 59.9995 90.1068 60.1193 90.0094C60.1963 90.1528 60.277 90.2962 60.3644 90.4396C60.4205 90.5225 60.4739 90.6054 60.5277 90.689C60.6552 90.887 60.7855 91.0894 60.9625 91.3072C61.8439 92.4847 63.1346 93.6001 64.5197 94.3128C64.8345 94.4987 65.2437 94.6536 65.527 94.7466L65.9992 94.9325C66.314 95.0564 66.6603 95.1494 67.0066 95.2113C67.6991 95.3663 68.3916 95.4592 69.0842 95.4592H69.9341C70.186 95.4592 70.4693 95.4282 70.7211 95.3972C70.788 95.3808 70.8549 95.3731 70.9265 95.3648C70.9897 95.3575 71.0565 95.3498 71.1303 95.3353L71.3192 95.3043L71.6655 95.2423C71.8858 95.1803 72.1377 95.1184 72.3266 95.0874C72.4367 95.0564 72.5547 95.0177 72.6727 94.979C72.7907 94.9403 72.9089 94.9015 73.0191 94.8705C73.0812 94.8461 73.1384 94.8264 73.1926 94.8078C73.2758 94.7793 73.3521 94.7531 73.4283 94.7156L73.7431 94.5916L73.995 94.4677L74.3412 94.3128L74.9708 94.0029L75.4745 93.7241C75.527 93.6931 75.5829 93.6621 75.6389 93.6311C75.7508 93.5691 75.8628 93.5071 75.9467 93.4452C76.4818 93.1043 77.0485 92.7635 77.5207 92.4846C77.6069 92.4252 77.6884 92.3705 77.7658 92.3184C77.9711 92.1806 78.1477 92.0619 78.3076 91.9269C78.4965 91.772 78.6539 91.6171 78.7484 91.4931C78.9687 91.2143 79.0946 90.9974 79.2205 90.7805L79.2239 90.7738C79.6086 90.9424 80.0127 91.0686 80.4168 91.1523C81.0149 91.2762 81.5815 91.3382 82.1796 91.3072C82.2583 91.3072 82.3291 91.2995 82.3999 91.2917C82.4708 91.284 82.5416 91.2762 82.6203 91.2762L82.8092 91.2453C82.8682 91.2307 82.9272 91.223 82.983 91.2157C83.0462 91.2075 83.1053 91.1997 83.1555 91.1833C83.3121 91.1612 83.4846 91.1079 83.6505 91.0567C83.7179 91.0358 83.7843 91.0153 83.848 90.9974C83.9835 90.9593 84.1189 90.9095 84.2471 90.8623C84.3274 90.8328 84.4048 90.8043 84.4776 90.7805L84.5406 90.7495H84.6035L84.6979 90.7185C84.8238 90.6875 84.9419 90.6488 85.0599 90.6101C85.1779 90.5713 85.2961 90.5326 85.422 90.5016C85.9256 90.3467 86.4293 90.1608 87.0274 89.8819C87.5916 89.6189 88.1838 89.2455 88.9097 88.7879L89.0421 88.7045C89.2939 88.6425 89.6402 88.5495 89.9865 88.4566C90.1019 88.4256 90.2172 88.3912 90.3326 88.3568C90.5634 88.2879 90.7945 88.219 91.0253 88.1777C91.7178 88.0228 92.3474 87.9608 92.6622 88.2707C93.1029 87.8988 93.6381 87.4961 94.2677 87.0623C94.4994 86.9026 94.7397 86.7471 94.9807 86.5912C95.3943 86.3235 95.81 86.0545 96.1879 85.7609C96.8175 85.3271 97.3841 84.8933 97.8563 84.4595C98.297 84.0567 98.6118 83.6539 98.7377 83.3131C98.3285 83.5299 97.9822 83.7468 97.6989 83.9328C97.4156 84.1187 97.1323 84.3046 96.9119 84.5215C96.5796 84.8019 96.3009 85.0823 96.0355 85.3494L96.0351 85.3498C95.9487 85.4367 95.8637 85.5223 95.7787 85.606C95.4324 85.9778 95.0546 86.3186 94.488 86.6904C94.2047 86.8764 93.8899 87.0623 93.4807 87.2482C93.2918 87.3411 93.0715 87.4341 92.8511 87.527C92.6307 87.62 92.3789 87.7129 92.0956 87.8059C92.3159 87.3721 92.5048 86.9383 92.6937 86.4735C94.1119 85.5883 95.549 84.3945 96.8381 83.3237C97.8954 82.4454 98.8532 81.6498 99.6192 81.1751C99.2099 81.299 98.9581 81.268 99.021 80.9892C99.7451 80.2765 100.312 79.6568 100.815 79.0991C101.1 78.7625 101.362 78.4371 101.615 78.1231C101.782 77.9169 101.944 77.7153 102.106 77.5189C102.515 77.0231 102.925 76.5273 103.428 76.0316C103.932 75.5358 104.53 74.9781 105.254 74.3894C105.695 74.4823 105.474 74.8851 105.002 75.4119C104.614 75.845 104.055 76.362 103.536 76.8422C103.424 76.9459 103.314 77.048 103.208 77.147C104.178 76.6162 104.664 76.2219 105.159 75.7691C105.092 75.8722 105.028 75.9786 104.964 76.084C104.864 76.2508 104.765 76.4149 104.656 76.5583C104.593 76.6513 104.53 76.7442 104.498 76.8372L104.498 76.8376C104.435 76.9614 104.372 77.0852 104.31 77.178L104.215 77.3949C104.184 77.4414 104.16 77.4879 104.136 77.5343C104.113 77.5808 104.089 77.6273 104.058 77.6738L103.995 77.8287L103.9 78.0146C103.877 78.0834 103.849 78.1479 103.822 78.2113C103.776 78.3194 103.731 78.4242 103.711 78.5414L103.649 78.6963C103.642 78.7157 103.635 78.7337 103.629 78.751C103.605 78.8165 103.586 78.8706 103.586 78.9442C103.574 79.0104 103.559 79.0727 103.544 79.1339C103.517 79.2444 103.491 79.3512 103.491 79.4709C103.491 79.5221 103.482 79.5733 103.473 79.6193C103.466 79.6568 103.46 79.6909 103.46 79.7188V80.1216C103.46 80.4624 103.46 80.8343 103.523 81.1751C103.554 81.361 103.586 81.5159 103.649 81.6708C103.68 81.7328 103.711 81.8566 103.743 81.9804C103.774 82.1044 103.837 82.2286 103.9 82.3525C104.121 82.8173 104.404 83.2821 104.75 83.6539C104.845 83.7468 104.939 83.8398 105.002 83.9328C105.034 83.9637 105.073 83.9947 105.112 84.0257C105.152 84.0567 105.191 84.0877 105.222 84.1187C105.38 84.2426 105.537 84.3666 105.695 84.4595C106.009 84.6764 106.387 84.8623 106.733 84.9863L106.922 85.0792L107.048 85.1102C107.143 85.1412 107.237 85.1722 107.332 85.1722L107.898 85.2651C107.945 85.2651 107.993 85.2729 108.04 85.2806C108.087 85.2884 108.134 85.2961 108.182 85.2961H108.622C108.721 85.2961 108.82 85.2876 108.914 85.2796C109 85.2722 109.082 85.2651 109.157 85.2651L109.724 85.1412C109.761 85.1412 109.765 85.1306 109.769 85.1217C109.772 85.1155 109.774 85.1102 109.787 85.1102L109.818 85.0792L109.976 84.9863L110.291 84.8313C110.401 84.7849 110.503 84.7306 110.605 84.6764C110.708 84.6222 110.81 84.568 110.92 84.5215C111.141 84.4285 111.329 84.3356 111.55 84.2116C111.611 84.1817 111.675 84.1486 111.741 84.1143C111.881 84.0421 112.03 83.9648 112.179 83.9018C112.431 83.7683 112.719 83.6465 113.013 83.522C113.197 83.4442 113.383 83.3654 113.565 83.2821C114.068 83.0652 114.603 82.8483 115.233 82.6004L113.848 82.9722C114.603 82.5384 115.138 82.2286 115.516 81.9807C115.894 81.7328 116.177 81.5469 116.398 81.361C116.548 81.2446 116.677 81.1319 116.807 81.0042C116.717 81.5314 116.636 82.0503 116.555 82.5692L116.146 82.7863L115.925 82.8793C115.904 82.8896 115.88 82.8999 115.855 82.9103C115.807 82.9309 115.758 82.9516 115.737 82.9722C115.768 83.1272 115.705 83.437 115.642 83.6539C115.579 83.8708 115.611 84.0567 115.988 83.9328L115.705 84.1807L115.201 84.6764C115.359 84.8933 115.39 85.1102 115.17 85.513C115.144 85.5515 115.118 85.6007 115.087 85.6582C115.044 85.7396 114.992 85.8379 114.918 85.9468C114.887 86.0087 114.855 86.0708 114.792 86.1327L114.729 86.2257L114.635 86.3806C114.572 86.5045 114.54 86.5665 114.446 86.8144C114.43 86.8609 114.414 86.9151 114.399 86.9693C114.383 87.0235 114.367 87.0778 114.351 87.1242C114.351 87.1552 114.32 87.2792 114.289 87.3721C114.271 87.4224 114.264 87.4728 114.255 87.528C114.248 87.5748 114.24 87.6251 114.226 87.682C114.194 87.8059 114.194 87.8989 114.194 87.9918V88.4566C114.194 88.6425 114.226 88.8284 114.257 89.0143C114.289 89.2002 114.32 89.3552 114.446 89.603C114.54 89.8508 114.666 90.0677 114.792 90.2845C114.824 90.3309 114.863 90.3853 114.902 90.4395C114.942 90.4937 114.981 90.5481 115.013 90.5946C115.107 90.6875 115.17 90.7804 115.233 90.8733C115.516 91.1832 115.894 91.4312 116.272 91.6171L116.398 91.679L116.681 91.772C116.76 91.7915 116.839 91.8231 116.91 91.8517C116.953 91.8686 116.992 91.8844 117.027 91.8959L117.028 91.8961C117.154 91.927 117.279 91.9579 117.374 91.9889L117.562 92.0199C117.688 92.0509 117.846 92.0509 117.972 92.0509H118.633C118.664 92.0509 118.727 92.0509 118.759 92.0199C118.806 92.0199 118.845 92.0121 118.885 92.0044C118.924 91.9966 118.963 91.9889 119.01 91.9889C119.073 91.9889 119.136 91.9579 119.199 91.9269C119.224 91.921 119.249 91.915 119.275 91.9088C119.386 91.8829 119.513 91.853 119.64 91.803C119.955 91.679 120.301 91.4931 120.679 91.2143C120.994 91.2452 120.836 91.5861 120.521 91.8959C120.962 91.699 120.957 91.94 120.951 92.2135C120.948 92.3526 120.946 92.5001 121.001 92.6027C121.002 92.6212 121.01 92.6337 121.025 92.6396C121.016 92.6281 121.008 92.6157 121.001 92.6027C120.989 92.4515 121.4 91.8975 121.89 91.236C121.978 91.118 122.068 90.9966 122.158 90.8734C122.186 90.8355 122.214 90.7975 122.241 90.7596L122.242 90.7584C122.846 89.9288 123.435 89.1196 122.442 89.3861C122.442 89.3548 122.45 89.3196 122.464 89.2811L122.945 89.3241C123.04 89.3551 123.134 89.3861 123.166 89.4171C123.292 89.3861 123.418 89.4171 123.764 89.541C123.753 89.5516 123.862 89.6229 123.99 89.7065C124.186 89.8343 124.426 89.9907 124.346 90.0014C124.301 89.9923 124.254 89.9835 124.205 89.9748C124.28 89.9966 124.324 90.0043 124.346 90.0014C124.597 90.0521 124.78 90.1091 124.92 90.169C124.78 90.3083 124.645 90.4443 124.517 90.5734C124.506 90.584 124.496 90.5947 124.485 90.6052C124.385 90.5889 124.282 90.5664 124.173 90.5326C124.25 90.5758 124.357 90.5964 124.478 90.6128C124.428 90.6636 124.378 90.7133 124.33 90.7616L124.205 90.6875L123.764 90.7495C123.943 90.8124 124.106 90.8293 124.25 90.8417C124.198 90.8937 124.147 90.9439 124.098 90.992C123.978 90.955 123.857 90.9196 123.738 90.8852C123.319 90.7635 122.944 90.6547 122.882 90.5326C122.885 90.5429 122.887 90.5552 122.89 90.569C122.92 90.7212 122.987 91.0645 123.795 91.1213L123.732 91.2452C123.764 91.2452 123.797 91.2449 123.831 91.2443C123.819 91.2552 123.807 91.2658 123.795 91.2762C123.816 91.2638 123.836 91.253 123.855 91.2439C123.879 91.2435 123.903 91.243 123.928 91.2425C123.952 91.2421 123.977 91.2416 124.002 91.2411C123.999 91.2508 123.993 91.2625 123.984 91.2762C123.924 91.3949 123.719 91.6272 123.343 92.0547L123.292 92.1128C123.77 91.7241 124.056 91.457 124.258 91.24C124.476 91.2436 124.686 91.2627 124.812 91.3286C124.796 91.3683 124.784 91.4043 124.774 91.4368L124.74 91.4311L124.772 91.4469C124.715 91.6651 124.816 91.7266 124.992 91.741C124.993 91.7367 124.995 91.7325 124.997 91.7282C125.179 91.7687 125.333 91.8434 125.306 91.8959C125.193 91.8835 125.11 91.881 125.027 91.8786C124.902 91.8748 124.777 91.8711 124.551 91.8339C124.551 92.0169 124.887 92.0896 125.143 92.1451C125.191 92.1554 125.235 92.1651 125.275 92.1748C125.306 92.2987 125.117 92.2987 124.614 92.1748C124.566 92.2222 124.541 92.2812 124.516 92.342C124.458 92.48 124.397 92.6275 124.047 92.6705C124.241 92.8134 124.285 92.8018 124.364 92.7814C124.438 92.762 124.542 92.7348 124.834 92.8255C124.016 92.8255 123.858 93.0424 123.921 93.2902C123.96 93.4229 124.081 93.5788 124.198 93.7295C124.272 93.8252 124.345 93.9187 124.393 94.0029C125.111 93.9226 125.127 93.9588 125.151 94.0123C125.172 94.0569 125.197 94.1136 125.639 94.1248C125.482 94.1402 125.311 94.197 125.125 94.2584C125.102 94.2661 125.078 94.2739 125.054 94.2818C124.803 94.3747 124.551 94.4057 124.33 94.2508L124.488 94.4677C124.127 94.5859 123.968 94.5067 123.79 94.4184C123.781 94.4142 123.772 94.41 123.764 94.4057C123.754 94.4025 123.744 94.3992 123.734 94.3958C123.551 94.3348 123.328 94.2604 122.851 94.4367C122.879 94.5772 123.219 94.6667 123.54 94.7515C123.573 94.7602 123.606 94.7688 123.638 94.7775C123.984 94.8705 124.236 94.9634 124.016 95.1803C123.533 95.1952 123.6 95.2457 123.682 95.3079C123.772 95.3754 123.88 95.4567 123.323 95.5212C123.053 95.5212 123.024 95.4421 122.995 95.3631C122.984 95.3315 122.972 95.2999 122.945 95.2733L122.757 95.3662C122.694 95.8 123.008 95.8 123.386 95.7071C123.406 95.7026 123.425 95.6981 123.445 95.6936C123.843 95.6028 124.317 95.4946 124.677 95.5831C124.858 95.8642 124.291 96.0399 123.839 96.1798C123.743 96.2095 123.652 96.2377 123.575 96.2648C123.451 96.3625 123.561 96.5179 123.753 96.5945C123.789 96.6151 123.844 96.6297 123.921 96.6366C123.861 96.6301 123.804 96.6151 123.753 96.5945C123.626 96.5228 123.733 96.3783 123.953 96.2338C124.205 96.0789 124.645 95.924 124.96 95.893C124.456 96.1409 124.488 96.3268 124.708 96.3887C124.927 96.4812 125.302 96.4511 125.523 96.4202C125.546 96.4459 125.568 96.4716 125.59 96.4972C125.629 96.5437 125.668 96.5902 125.716 96.6366C125.904 96.8225 126.093 97.0085 126.251 97.1014C126.293 97.1293 126.334 97.1572 126.375 97.1848C126.514 97.2796 126.647 97.3702 126.817 97.4423C126.975 97.5352 127.132 97.5972 127.29 97.6592C127.636 97.7831 127.825 97.8451 128.076 97.907L128.265 97.938L128.391 97.969C128.439 97.969 128.486 97.9768 128.533 97.9845C128.58 97.9922 128.627 98 128.675 98H129.462C129.619 98 130.06 97.969 130.374 97.876C130.516 97.8528 130.605 97.8296 130.693 97.8063C130.723 97.7986 130.752 97.7908 130.784 97.7831C130.847 97.7676 130.902 97.7521 130.957 97.7366C131.012 97.7211 131.067 97.7056 131.13 97.6901C131.508 97.5662 131.823 97.4423 132.043 97.3183L132.232 97.2254L132.389 97.1324C132.484 97.0704 132.61 97.0085 132.704 96.9775C133.082 96.7606 133.428 96.5437 133.743 96.3268C134.372 95.893 134.939 95.4282 135.506 94.9635C136.878 93.7688 138.188 92.4504 139.404 91.2273C140.111 90.5152 140.787 89.8355 141.424 89.2312C140.448 89.1511 140.716 88.8973 141.177 88.461C141.57 88.0891 142.103 87.5847 142.125 86.9424C142.136 86.9474 142.148 86.9508 142.163 86.9529L142.305 87.0932C142.249 87.0281 142.218 86.9835 142.204 86.955C142.233 86.9544 142.266 86.9503 142.302 86.9432C142.441 87.0097 142.678 87.1721 142.783 87.2436C142.859 87.2951 142.865 87.2993 142.714 87.1862C142.652 87.1076 142.59 87.0241 142.526 86.9378C142.515 86.9225 142.503 86.9071 142.492 86.8917C142.688 86.8279 142.932 86.7245 143.178 86.6205C144.122 86.222 145.082 85.8166 143.344 87.62L145.17 85.8848C145.954 85.6454 145.531 86.1826 145.037 86.81C144.955 86.9133 144.872 87.0191 144.792 87.1242C144.194 87.8679 143.722 88.5495 145.044 88.0848C145.91 87.3097 146.492 86.4701 147.081 85.6197C147.198 85.4501 147.316 85.2802 147.436 85.1102C148.16 84.1187 149.01 83.0962 150.427 82.3525C150.307 83.0335 150.704 82.6677 151.151 82.2553L151.214 82.1976C151.686 81.7638 152.221 81.33 152.221 81.9807C151.999 82.4402 151.557 82.7916 151.072 83.1766C150.871 83.3368 150.662 83.5028 150.458 83.6849L151.025 83.499C152.253 82.6624 152.882 82.1666 153.197 81.8258C153.512 81.4849 153.512 81.2681 153.449 81.0821C153.422 81.0189 153.384 80.9584 153.346 80.896C153.178 80.6272 152.989 80.3236 153.557 79.6202C153.578 79.6818 153.605 79.7555 153.638 79.8427C153.611 79.7639 153.584 79.6892 153.558 79.6187C153.576 79.5961 153.595 79.5732 153.615 79.5498C153.712 79.73 153.827 79.9666 153.827 79.9666L154.33 80.2145C154.582 80.3384 154.834 80.4624 154.802 80.4314C154.771 80.4314 154.771 80.3385 154.771 80.1835C154.778 80.1487 154.785 80.1108 154.793 80.069C154.82 79.9249 154.855 79.7351 154.928 79.4709C154.993 79.2047 155.105 78.8815 155.262 78.4927C155.771 78.2793 156.08 78.2703 156.282 78.3245C156.501 78.4029 156.607 78.5682 156.703 78.7183C156.758 78.8054 156.811 78.8873 156.88 78.9442C157.132 78.9132 157.573 78.7273 158.013 78.4794C158.417 78.2808 158.768 78.0562 158.993 77.877C159.013 77.8613 159.033 77.8452 159.052 77.8287C159.034 77.8444 159.014 77.8605 158.993 77.877C157.992 78.6589 155.915 78.4914 156.439 77.5498C156.88 77.6428 157.352 77.5808 157.824 77.4569C158.265 77.3329 158.706 77.178 159.052 77.0231C159.398 76.8682 159.619 76.7132 159.745 76.5893C159.841 76.4946 159.9 76.3999 159.951 76.3191C159.967 76.2941 159.982 76.2704 159.997 76.2485C160.028 76.0935 159.839 75.9386 159.619 75.8457C159.398 75.7527 159.115 75.7527 158.895 75.7527C158.484 75.7527 158.144 75.8467 157.835 75.9323C157.789 75.9451 157.743 75.9576 157.699 75.9696C157.371 76.0868 157.043 76.1763 156.529 76.3168L156.439 76.3414C156.364 76.3619 156.286 76.383 156.204 76.4049C156.209 76.3941 156.214 76.3832 156.219 76.3724C156.301 76.1656 156.378 75.993 156.454 75.8228C156.584 75.5339 156.71 75.2521 156.849 74.8231C156.913 74.7288 156.855 74.9458 156.811 75.1094C156.769 75.2681 156.74 75.3766 156.849 75.102C156.878 74.8985 157.012 74.5724 157.161 74.2068C157.33 73.7946 157.519 73.3321 157.603 72.9383L157.605 72.9321L157.73 72.8401C157.798 72.6662 157.76 72.7175 157.718 72.7746C157.67 72.8411 157.615 72.9156 157.714 72.6522L157.762 72.5302C157.743 72.5772 157.727 72.6176 157.714 72.6522L157.605 72.9321L157.604 72.933C157.604 72.9348 157.603 72.9366 157.603 72.9383L157.352 73.5837C157.352 73.3978 157.415 73.1499 157.541 72.7781C157.484 72.8905 157.395 73.099 157.303 73.3166C157.089 73.8189 156.855 74.3693 156.943 73.8936L157.006 73.8316C156.919 73.8316 157.126 73.2251 157.209 72.9852C157.215 72.965 157.222 72.9474 157.226 72.933L157.258 72.964L157.352 72.3753C157.289 72.7781 157.699 71.9415 157.604 71.9725C157.588 71.7841 157.572 71.8582 157.544 71.9892C157.517 72.1168 157.477 72.2984 157.415 72.3443C157.37 72.3666 157.455 72.0845 157.541 71.7975C157.575 71.6853 157.609 71.5725 157.636 71.4767H157.51C157.588 71.2289 157.604 71.2444 157.616 71.256C157.628 71.2676 157.636 71.2753 157.699 71.012C157.651 71.0894 157.596 71.1669 157.541 71.2444C157.486 71.3218 157.431 71.3993 157.384 71.4767C157.552 70.8452 157.483 70.958 157.396 71.0997C157.303 71.2501 157.191 71.433 157.321 70.7951C157.432 70.6494 157.445 70.5251 157.463 70.3593C157.475 70.243 157.489 70.1063 157.541 69.9275L157.226 69.8965C157.226 69.7808 157.299 69.6652 157.34 69.6018C157.364 69.5632 157.376 69.5439 157.352 69.5557C157.373 69.2909 157.298 69.4947 157.236 69.6654C157.203 69.7545 157.174 69.8345 157.163 69.8345C157.188 69.6896 157.155 69.6482 157.117 69.6003C157.057 69.5253 156.985 69.4344 157.1 68.905C157.034 68.5627 156.951 68.8806 156.872 69.1777C156.802 69.4453 156.736 69.696 156.691 69.4317C156.722 69.1622 156.767 69.1314 156.805 69.1052C156.846 69.0772 156.88 69.0543 156.88 68.75C156.843 68.7745 156.806 68.7941 156.77 68.8127C156.716 68.8413 156.666 68.8674 156.628 68.905C156.64 68.8602 156.653 68.8034 156.668 68.741C156.732 68.4668 156.822 68.0853 156.875 68.153C156.877 68.1558 156.878 68.1586 156.88 68.1613C156.878 68.1581 156.877 68.1553 156.875 68.153C156.71 67.8827 156.585 67.3727 156.456 66.8444C156.391 66.5761 156.324 66.3031 156.251 66.0543C156.03 65.3107 155.747 64.722 155.369 65.0938C155.311 64.6917 155.361 64.6209 155.429 64.5231C155.472 64.4627 155.522 64.3919 155.558 64.2262C155.275 64.66 155.086 64.2882 154.897 63.8234C154.708 63.3586 154.488 62.8319 154.236 62.8629V63.3896C153.858 62.553 153.386 62.4291 152.977 62.4291C152.882 62.4291 152.785 62.4358 152.687 62.4425C152.363 62.4649 152.024 62.4883 151.686 62.2742L151.843 62.615C151.823 62.9651 151.746 63.1235 151.678 63.2632C151.644 63.3337 151.613 63.3994 151.592 63.4826C151.576 63.4209 151.56 63.319 151.543 63.2046C151.49 62.8587 151.419 62.3978 151.277 62.584C151.295 62.6207 151.315 62.6574 151.335 62.6946C151.417 62.8457 151.503 63.0048 151.529 63.2037C151.056 62.584 150.49 62.4291 149.892 62.3981H149.01C148.695 62.3981 148.412 62.3671 148.129 62.3051C147.574 62.6785 146.939 62.7857 146.272 62.898C146.22 62.9069 146.167 62.9158 146.114 62.9248C145.422 63.0178 144.729 63.1417 144.257 63.5445C144.414 63.4206 144.918 64.66 144.666 64.4431C143.974 63.5136 143.879 63.6685 143.816 63.9164C143.812 63.9314 143.809 63.9466 143.805 63.9619C143.748 64.1985 143.689 64.4385 143.187 63.8854C143.084 64.2892 142.773 64.2819 142.456 64.2652C142.71 63.8881 142.964 63.5065 143.218 63.1108C143.391 62.8164 143.572 62.5298 143.753 62.2432C143.934 61.9566 144.115 61.67 144.288 61.3756L144.792 60.4771L145.044 60.0433C145.044 60.0433 145.138 59.8264 145.201 59.7024L145.296 59.5165C145.311 59.47 145.327 59.4313 145.343 59.3926C145.359 59.3538 145.374 59.3151 145.39 59.2686L145.422 59.1447L145.453 59.0517L145.485 58.8968C145.548 58.68 145.579 58.4632 145.61 58.2463L145.642 58.0912V57.5954C145.642 57.1926 145.548 56.7898 145.422 56.418C145.359 56.2321 145.296 56.0461 145.201 55.8912L145.138 55.7673C145.129 55.7486 145.116 55.727 145.103 55.7034C145.072 55.6491 145.034 55.5843 145.012 55.5194C144.965 55.442 144.91 55.3645 144.855 55.287C144.8 55.2096 144.745 55.1321 144.698 55.0547C144.194 54.404 143.438 53.8772 142.714 53.6293C142.557 53.5674 142.337 53.5054 142.274 53.5054C142.226 53.4899 142.187 53.4822 142.148 53.4744C142.108 53.4667 142.069 53.4589 142.022 53.4434C141.864 53.4124 141.676 53.3815 141.487 53.3815C141.14 53.3505 140.763 53.3815 140.416 53.4124L140.29 53.4434L140.102 53.5054L139.944 53.5364C139.897 53.5519 139.842 53.5674 139.787 53.5829C139.732 53.5984 139.677 53.6138 139.629 53.6293C139.611 53.6353 139.592 53.6413 139.572 53.6474C139.488 53.6734 139.391 53.7032 139.315 53.7533L139.157 53.8153C139.063 53.8462 139 53.8772 138.905 53.9392L138.465 54.1561L138.37 54.2181L138.213 54.311L138.087 54.4659L137.3 55.0856L136.544 55.7363L137.3 55.3955C137.419 55.337 137.545 55.2784 137.678 55.2167C137.826 55.1476 137.984 55.0745 138.15 54.9927C137.835 55.2406 137.646 55.4575 137.457 55.6743C137.268 55.8912 137.111 56.0772 136.985 56.2631C136.922 56.356 136.851 56.4412 136.781 56.5264C136.71 56.6117 136.639 56.6969 136.576 56.7898C136.544 56.8208 136.513 56.8595 136.481 56.8983C136.45 56.937 136.419 56.9757 136.387 57.0067L136.198 57.1926C135.883 57.4715 135.443 57.7504 134.908 57.9982C135.852 56.6969 135.317 57.0687 134.467 57.7503L134.431 57.7791C133.583 58.4595 132.383 59.4218 131.948 59.2996C132.326 58.8968 132.735 58.463 133.145 58.0602C131.365 59.5357 131.381 59.5474 131.904 59.9105L131.917 59.9193C130.887 60.8884 130.323 60.9895 129.827 61.0785C129.72 61.0976 129.617 61.1161 129.513 61.1425C129.897 60.3917 130.293 59.6159 130.689 58.8039C130.784 58.618 130.878 58.432 130.973 58.2151C131.02 58.1067 131.067 58.006 131.114 57.9053C131.161 57.8046 131.209 57.7039 131.256 57.5954C131.445 57.1926 131.634 56.7898 131.791 56.356C131.87 56.1391 131.956 55.9222 132.043 55.7053C132.129 55.4884 132.216 55.2716 132.295 55.0547C132.372 54.8766 132.429 54.6777 132.481 54.4921C132.493 54.4517 132.504 54.4118 132.515 54.373L132.956 52.9477L133.113 52.204L133.271 51.4294L133.334 51.0576L133.365 50.6548L133.459 49.8491L133.491 49.4463L133.522 49.2294V48.8266C133.522 48.5428 133.47 48.2849 133.412 48.0054L133.396 47.9281C133.365 47.7732 133.334 47.6182 133.302 47.4943L133.239 47.2774C133.225 47.2505 133.218 47.2236 133.206 47.1814C133.19 47.1265 133.167 47.0458 133.113 46.9056C132.83 46.1309 132.326 45.3563 131.728 44.7366C131.571 44.5817 131.413 44.4268 131.256 44.3028C131.221 44.2755 131.186 44.2466 131.151 44.2169C131.024 44.112 130.886 43.9966 130.689 43.9C130.249 43.6212 129.776 43.3733 129.241 43.1874C128.706 43.0014 128.171 42.8775 127.667 42.8465C127.415 42.8155 127.101 42.8155 127.038 42.8155H126.691C126.219 42.8465 125.747 42.9395 125.275 43.0634C125.212 43.0789 125.157 43.0944 125.102 43.1099C125.047 43.1254 124.991 43.1409 124.929 43.1564L124.74 43.2184L124.488 43.3113C124.33 43.3733 124.142 43.4662 123.984 43.5592L123.606 43.7451C123.449 43.8381 123.323 43.931 123.197 44.024L122.945 44.2099C122.885 44.2572 122.839 44.2955 122.799 44.3282C122.735 44.3811 122.689 44.4195 122.631 44.4578L122.505 44.5507C122.489 44.5662 122.481 44.5662 122.477 44.5662C122.476 44.5662 122.475 44.5662 122.475 44.5665C122.473 44.5674 122.473 44.5706 122.473 44.5817L122.41 44.6127C122.347 44.6437 122.284 44.6747 122.221 44.7366C122.205 44.7366 122.108 44.7977 121.988 44.8736C121.882 44.9407 121.758 45.0193 121.655 45.0775L120.992 45.5224C120.927 44.8467 120.739 44.1419 120.458 43.5282C120.396 43.3733 120.333 43.2184 120.238 43.0634L120.112 42.8465C120.049 42.7536 120.049 42.7536 119.955 42.5678C119.577 41.9481 119.042 41.2663 118.318 40.6776C117.625 40.0889 116.775 39.6241 115.925 39.3452C115.516 39.1903 115.107 39.0973 114.729 39.0354C114.572 39.0044 114.289 38.9734 114.226 38.9734L114.005 38.9424C113.376 38.9114 112.746 38.9424 112.116 39.0354C111.802 39.0973 111.487 39.1593 111.204 39.2523C111.125 39.2832 111.054 39.3065 110.983 39.3297C110.912 39.353 110.842 39.3762 110.763 39.4072L110.542 39.5001C110.228 39.6241 109.944 39.779 109.661 39.9339L109.441 40.0579L109.283 40.1818L109.126 40.2748C109.079 40.3054 109.033 40.3436 108.986 40.3819C108.98 40.3462 108.975 40.3105 108.969 40.2748C108.942 40.0096 108.892 39.7671 108.838 39.5085L108.838 39.5081C108.829 39.4647 108.82 39.4208 108.811 39.3762C108.685 38.8494 108.528 38.3537 108.339 37.8579L108.276 37.734L108.213 37.5481C108.182 37.4861 108.158 37.4319 108.134 37.3777C108.111 37.3234 108.087 37.2692 108.056 37.2072C107.993 37.0988 107.93 36.9827 107.867 36.8665C107.804 36.7503 107.741 36.634 107.678 36.5256C107.615 36.4171 107.544 36.3087 107.473 36.2002C107.402 36.0918 107.332 35.9833 107.269 35.8749L107.143 35.72L106.985 35.5031C106.859 35.3481 106.702 35.1622 106.545 35.0073C105.947 34.3566 105.222 33.7679 104.436 33.3341C103.523 32.8074 102.452 32.4046 101.382 32.2186C100.784 32.1257 100.469 32.0947 100.06 32.0947C99.6506 32.0947 99.2414 32.0947 98.8322 32.1567C98.7377 32.1722 98.6354 32.1877 98.5331 32.2031C98.4308 32.2186 98.3285 32.2341 98.2341 32.2496L97.9508 32.3116L97.6989 32.3736L97.0378 32.5595C96.5971 32.7144 96.1564 32.8693 95.7472 33.0862C95.4954 33.2101 95.2751 33.3341 95.0547 33.458C94.9288 33.52 94.8343 33.582 94.7084 33.6749C94.6769 33.6956 94.6384 33.7197 94.5999 33.7438C94.5229 33.792 94.446 33.8402 94.4251 33.8608L94.0473 34.1397C93.9214 34.2326 93.7954 34.3257 93.6696 34.4496L93.1344 34.9763L93.0715 35.0693L92.7567 35.4101L92.5363 35.689C92.4733 35.7819 92.3789 35.8749 92.3159 35.9369C91.8438 36.5566 91.5604 36.9903 91.2771 37.4241C90.742 38.2297 90.3013 38.8804 89.892 39.3762L89.9865 39.0973C89.9235 39.2058 89.8527 39.322 89.7819 39.4382C89.711 39.5544 89.6402 39.6705 89.5772 39.779C89.5704 39.7993 89.565 39.8167 89.5601 39.8324C89.5428 39.8884 89.532 39.9233 89.4828 39.9959V40.0269C89.4828 40.0269 89.4513 40.0888 89.4198 40.0888L89.2939 40.2438L89.0106 40.5846C88.8217 40.8015 88.6329 41.0184 88.444 41.2663C88.2551 41.4832 88.0584 41.7078 87.8616 41.9325C87.6649 42.1571 87.4681 42.3818 87.2793 42.5986ZM141.935 64.3059C141.911 64.0821 141.885 63.8959 141.676 63.9474L141.33 64.6696C141.346 64.6794 141.366 64.6964 141.392 64.722L141.739 65.2487C141.606 64.638 141.722 64.3958 141.935 64.3059ZM141.291 64.7526L141.232 64.876C141.233 64.8763 141.234 64.8766 141.235 64.8769L141.329 65.0318C141.341 64.9862 141.323 64.9028 141.306 64.8265C141.3 64.8004 141.295 64.7752 141.291 64.7526ZM141.163 64.8696L141.172 64.8459C141.16 64.8561 141.147 64.8662 141.135 64.8763C141.144 64.8731 141.153 64.8708 141.163 64.8696ZM141.055 64.9431C140.432 65.4669 139.935 66.0082 139.509 66.5585C139.586 66.6143 139.667 66.691 139.755 66.798C140.044 66.8496 140.07 66.4282 140.089 66.1248C140.093 66.064 140.096 66.0079 140.102 65.9614C140.274 66.144 140.323 66.041 140.372 65.9392C140.44 65.7991 140.506 65.6614 140.889 66.2712L140.668 65.6205L140.857 65.9304C140.806 65.6944 140.857 65.7519 140.929 65.8334C140.99 65.9017 141.066 65.9869 141.109 65.9304L140.731 65.3107C140.873 65.4038 140.92 65.2716 140.971 65.1281C140.995 65.0619 141.02 64.9932 141.055 64.9431ZM131.073 77.1216C131.098 77.174 131.109 77.215 131.099 77.24C131.07 77.2199 131.044 77.2005 131.018 77.1818C131.037 77.1616 131.055 77.1415 131.073 77.1216ZM130.527 77.7308C130.525 77.7328 130.524 77.7349 130.522 77.7369C130.525 77.7361 130.528 77.7357 130.532 77.7357C130.53 77.7341 130.529 77.7324 130.527 77.7308ZM130.507 77.7532C130.468 77.7972 130.429 77.8416 130.39 77.8862L130.469 77.9836C130.793 78.2314 130.716 78.1152 130.62 77.97C130.564 77.8856 130.501 77.7914 130.507 77.7532ZM130.361 77.9182C130.353 77.928 130.344 77.9378 130.335 77.9477C130.305 77.9819 130.275 78.0163 130.244 78.0508C130.245 78.0511 130.245 78.0514 130.245 78.0516C130.276 78.0766 130.3 78.0962 130.312 78.1075C130.504 78.1075 130.473 78.061 130.361 77.9182ZM130.211 78.0883C130.159 78.1477 130.106 78.2073 130.053 78.2671C130.207 78.2853 130.332 78.2824 130.211 78.0883ZM129.894 78.4453C129.847 78.4987 129.799 78.5521 129.751 78.6054C129.855 78.7098 129.969 78.8196 130.09 78.9346L130.269 78.8172C130.215 78.7862 130.157 78.7567 130.091 78.7272C130.127 78.7272 130.018 78.5939 129.894 78.4453ZM131.272 91.687C131.287 91.6698 131.303 91.6521 131.32 91.6339C131.348 91.6338 131.389 91.6381 131.445 91.648C131.515 91.7399 131.931 91.8999 132.064 91.9513C132.067 91.9522 132.069 91.953 132.071 91.9538C132.072 91.9549 132.073 91.956 132.074 91.9571C131.961 91.9916 131.837 92.0363 131.712 92.0813C131.659 92.1006 131.605 92.12 131.552 92.1386L131.224 92.0199C131.76 92.1128 131.634 91.9889 131.476 91.8649C131.465 91.8557 131.452 91.8463 131.44 91.8368C131.371 91.7828 131.299 91.7266 131.272 91.687ZM130.959 92.087C130.972 92.0654 130.987 92.0418 131.005 92.0159C131.074 92.0368 131.16 92.0667 131.252 92.0981C131.321 92.1221 131.394 92.1471 131.462 92.1695C131.428 92.1813 131.393 92.1925 131.36 92.2029L130.959 92.087ZM132.077 91.9562C132.075 91.9554 132.073 91.9546 132.071 91.9538C132.026 91.8987 132.01 91.8517 131.994 91.8019C131.956 91.6861 131.913 91.5558 131.476 91.2762C131.713 91.3594 131.904 91.4292 132.065 91.488C132.373 91.6004 132.571 91.6726 132.765 91.7213C132.693 91.8208 132.62 91.9204 132.547 92.0199C132.547 91.852 132.343 91.8751 132.077 91.9562ZM132.856 91.5972C133.022 91.3665 133.187 91.1357 133.35 90.905C133.336 90.8972 133.323 90.8896 133.31 90.882C133.192 90.8131 133.093 90.7549 132.956 90.6875L133.145 90.8734L133.019 90.7804C132.452 90.5636 132.641 90.7494 132.798 90.9044C132.987 91.0593 133.145 91.2142 132.452 90.9664L132.767 91.1213C132.949 91.2257 132.904 91.2296 132.862 91.2332C132.817 91.2371 132.774 91.2407 133.019 91.3692C132.652 91.2066 132.638 91.2546 132.621 91.3106C132.61 91.3508 132.597 91.395 132.452 91.3692C132.648 91.472 132.774 91.5429 132.856 91.5972ZM133.487 90.7101C133.513 90.6729 133.54 90.6356 133.566 90.5983C133.508 90.5612 133.432 90.5097 133.334 90.4396C133.095 90.3615 133.208 90.4557 133.331 90.5594C133.398 90.6155 133.468 90.6744 133.487 90.7101ZM134.174 90.6559C134.368 90.7452 134.491 90.7925 134.246 90.5945L134.184 90.6565C134.181 90.6552 134.178 90.654 134.175 90.6527C134.222 90.5266 134.262 90.4065 134.298 90.2908C134.357 90.3262 134.414 90.3612 134.465 90.3924C134.515 90.4234 134.559 90.4506 134.593 90.4706C134.407 90.2572 134.442 90.2538 134.481 90.25C134.52 90.2462 134.563 90.242 134.379 90.014C134.379 90.0128 134.38 90.0116 134.38 90.0103L134.687 90.1917L134.395 89.9564C134.397 89.9503 134.398 89.9442 134.4 89.9381L135.065 90.2227L134.656 90.0058C134.647 89.9789 134.624 89.9467 134.602 89.9154C134.549 89.8387 134.499 89.7669 134.656 89.7889L135.096 90.0988C135.026 89.9604 135.194 90.0074 135.355 90.0522C135.375 90.058 135.396 90.0638 135.416 90.0692C134.886 90.7452 134.339 91.305 133.9 91.2762C133.989 91.1014 134.062 90.9382 134.124 90.7839L134.246 90.9044C134.246 90.8882 134.246 90.8748 134.243 90.8621C134.236 90.8324 134.213 90.8065 134.135 90.7571C134.148 90.723 134.161 90.6892 134.174 90.6559ZM135.52 89.9356C135.526 89.9281 135.531 89.9205 135.537 89.9129H135.552C135.514 89.885 135.477 89.862 135.443 89.8509C135.473 89.8829 135.499 89.911 135.52 89.9356ZM135.58 89.9129C135.543 89.8554 135.597 89.8656 135.68 89.8979L135.663 89.9129H135.58ZM135.892 89.7092L135.904 89.6986L135.789 89.634L135.892 89.7092ZM136.28 89.364L136.41 89.2485C136.305 89.2492 136.249 89.28 136.28 89.364ZM137.893 88.5516C137.956 88.4597 138.02 88.3669 138.079 88.2769C138.197 88.3809 138.221 88.4099 138.244 88.4566C138.257 88.4566 138.276 88.4603 138.296 88.4643C138.377 88.4801 138.477 88.4999 138.276 88.3016L138.593 88.5725C138.579 88.5862 138.565 88.6 138.551 88.6137C138.389 88.7733 138.23 88.9285 138.087 89.0763C138.027 89.1163 137.971 89.1519 137.92 89.1834C137.844 89.0443 137.769 88.8968 137.735 88.7821C137.779 88.7178 137.824 88.6513 137.871 88.584C137.897 88.5895 137.927 88.5985 137.961 88.6115C137.942 88.5932 137.918 88.5721 137.893 88.5516ZM137.591 89.0044C137.614 88.967 137.639 88.9278 137.665 88.8872C137.724 88.9415 137.761 88.9921 137.8 89.0444C137.833 89.0894 137.866 89.1356 137.916 89.1862C137.891 89.2015 137.868 89.2157 137.845 89.229C137.818 89.2055 137.791 89.182 137.765 89.1589C137.704 89.1061 137.645 89.0545 137.591 89.0044ZM137.526 89.1132C137.532 89.1032 137.538 89.093 137.544 89.0825C137.654 89.1493 137.732 89.2066 137.795 89.2584C137.767 89.2742 137.741 89.2883 137.717 89.3008L137.526 89.1132ZM137.466 89.2363C137.47 89.227 137.474 89.2173 137.478 89.2072L137.652 89.3331C137.557 89.377 137.498 89.3888 137.468 89.375C137.497 89.3492 137.5 89.3052 137.466 89.2363ZM138.782 88.3862C138.643 88.2683 138.54 88.1633 138.591 88.1467C138.709 88.2313 138.793 88.2861 138.851 88.3179C138.828 88.3407 138.805 88.3635 138.782 88.3862ZM138.922 88.2467C138.963 88.2055 139.004 88.1642 139.044 88.1227C139.015 88.0803 138.972 88.0263 138.905 87.9608C138.66 87.8329 138.765 87.9983 138.864 88.1521C138.885 88.1852 138.905 88.2177 138.922 88.2467ZM139.091 88.0742C139.238 87.9226 139.379 87.7699 139.506 87.6183C139.505 87.6188 139.504 87.6194 139.504 87.62C139.237 87.3849 139.252 87.446 139.272 87.5279C139.297 87.6296 139.331 87.7634 138.842 87.4031L139.126 88.0228L138.779 87.7439C138.839 87.8097 138.905 87.879 138.968 87.9448C139.012 87.9904 139.054 88.0343 139.091 88.0742ZM139.513 87.6096C139.563 87.5495 139.611 87.4897 139.657 87.4301L139.598 87.3721L139.566 87.465L139.504 87.4031C139.214 87.1516 139.219 87.1904 139.225 87.2348C139.231 87.2724 139.236 87.3142 139.063 87.1862C139.063 87.289 139.227 87.3919 139.357 87.4737C139.45 87.5323 139.526 87.5802 139.513 87.6096ZM139.748 87.5201C139.741 87.5325 139.733 87.5451 139.724 87.558C139.733 87.5467 139.743 87.5353 139.752 87.524L139.748 87.5201ZM139.785 87.4841C139.782 87.4806 139.778 87.477 139.775 87.4735C139.823 87.3827 139.843 87.3043 139.86 87.2271L139.934 87.2999C139.885 87.3615 139.836 87.4229 139.785 87.4841ZM139.943 87.2887C139.951 87.2781 139.96 87.2674 139.968 87.2567C139.953 87.2612 139.944 87.2715 139.943 87.2887ZM146.551 82.7879C146.216 82.3558 146.101 82.0583 146.303 82.2285C146.419 82.428 146.548 82.5948 146.684 82.7498C146.635 82.7686 146.591 82.7809 146.551 82.7879ZM146.708 82.7407C146.756 82.7209 146.81 82.6952 146.87 82.6624L146.791 82.3943C146.711 82.3313 146.662 82.3108 146.681 82.3835L146.555 82.1666C146.335 81.9807 146.366 82.2286 146.586 82.6004C146.628 82.6528 146.668 82.6987 146.708 82.7407ZM148.202 81.6636C148.255 81.7038 148.332 81.7202 148.444 81.7018C148.452 81.6906 148.461 81.6792 148.471 81.6676C148.391 81.6803 148.304 81.6832 148.202 81.6636ZM149.647 80.6515C149.693 80.6167 149.738 80.5822 149.783 80.548C149.724 80.5095 149.665 80.47 149.608 80.4314C149.569 80.4314 149.603 80.5273 149.642 80.637C149.644 80.6418 149.645 80.6466 149.647 80.6515ZM150.807 79.4188C150.812 79.4159 150.818 79.413 150.824 79.41C150.808 79.3803 150.791 79.349 150.773 79.316C150.785 79.3512 150.796 79.3855 150.807 79.4188ZM139.824 87.1922C139.783 87.2568 139.738 87.3219 139.689 87.3875C139.515 87.216 139.311 87.0303 139.126 86.8763C139.266 86.9518 139.324 86.9507 139.376 86.9496C139.453 86.9482 139.519 86.9469 139.818 87.1862L139.824 87.1922ZM133.923 90.0882C133.903 90.0801 133.885 90.0732 133.869 90.0678C133.887 90.0826 133.9 90.0957 133.909 90.1074C133.914 90.101 133.918 90.0946 133.923 90.0882ZM133.769 90.3084C133.751 90.3343 133.732 90.3603 133.714 90.3863C133.554 90.2753 133.442 90.1775 133.459 90.1607C133.525 90.1823 133.667 90.249 133.769 90.3084ZM129.918 79.0477C129.833 78.9803 129.744 78.9057 129.65 78.8202C129.662 78.8091 129.681 78.8019 129.701 78.7945C129.738 78.7812 129.776 78.767 129.776 78.7272L129.702 78.6601C129.547 78.8321 129.391 79.0027 129.235 79.1685C129.27 79.2052 129.313 79.2535 129.367 79.316L129.241 79.192C129.157 79.192 129.256 79.2895 129.388 79.4097C129.566 79.2856 129.744 79.164 129.918 79.0477ZM129.177 79.5578L128.993 79.4242C128.969 79.4485 128.946 79.4726 128.922 79.4966C128.975 79.5376 129.029 79.5803 129.083 79.6237C129.114 79.6017 129.146 79.5797 129.177 79.5578ZM128.147 80.2902C128.134 80.2818 128.121 80.2735 128.109 80.2653C128.066 80.3012 128.024 80.3359 127.982 80.3695L127.979 80.4098C128.035 80.37 128.091 80.3301 128.147 80.2902ZM128.755 79.6653C128.797 79.679 128.834 79.6878 128.864 79.6878C128.842 79.6611 128.822 79.6374 128.804 79.6164C128.788 79.6328 128.772 79.6491 128.755 79.6653ZM127.123 87.0832C127.11 87.0983 127.097 87.1134 127.084 87.1285C126.432 86.7949 126.349 86.8579 126.279 86.9116C126.233 86.9462 126.193 86.9769 126.009 86.8959C126.091 86.7996 126.173 86.7026 126.255 86.6051C126.56 86.7432 126.961 86.9343 127.123 87.0832ZM127.961 85.8711C127.978 85.8853 127.995 85.9002 128.014 85.9158C127.991 85.9012 127.968 85.8865 127.945 85.8717C127.95 85.8715 127.956 85.8713 127.961 85.8711ZM127.308 85.9805C127.281 85.9903 127.254 86.001 127.226 86.0127C127.263 86.0377 127.297 86.0588 127.321 86.0707L127.308 85.9805ZM126.562 86.3715C126.484 86.4211 126.401 86.4756 126.314 86.5355C126.299 86.5525 126.285 86.5695 126.271 86.5864C126.667 86.7165 126.888 86.7505 126.597 86.4115C126.584 86.3991 126.573 86.3857 126.562 86.3715ZM125.882 87.0459C125.805 87.1355 125.729 87.2245 125.654 87.313C125.752 87.3479 125.938 87.4365 126.282 87.62C126.259 87.5752 126.246 87.5335 126.232 87.4918C126.193 87.3696 126.153 87.2468 125.882 87.0459ZM125.425 87.58C125.341 87.6793 125.256 87.7779 125.173 87.8758C125.182 87.8795 125.191 87.8833 125.2 87.887C125.6 88.0517 126.03 88.229 126.03 88.1467C125.609 87.9246 125.562 87.8228 125.514 87.7195C125.494 87.6762 125.473 87.6327 125.425 87.58ZM124.7 87.8689C124.549 87.8635 124.427 87.8881 124.303 87.9132C124.187 87.9368 124.068 87.9608 123.921 87.9608L124.619 88.3777C124.616 88.3963 124.612 88.4147 124.609 88.4331L124.362 88.3636C124.427 88.4004 124.482 88.4398 124.536 88.4796C124.555 88.4933 124.574 88.507 124.593 88.5207C124.59 88.5407 124.586 88.5607 124.582 88.5805C124.594 88.5662 124.606 88.5519 124.618 88.5376C124.727 88.6121 124.857 88.6834 125.086 88.7354L124.992 88.7974C125.609 89.0552 125.581 89.0832 125.537 89.1285C125.506 89.1594 125.468 89.1985 125.621 89.3241C125.432 89.2932 125.18 89.1693 125.055 89.1073C125.037 89.1424 124.857 89.0778 124.635 88.9984C124.471 88.9396 124.285 88.8727 124.125 88.832C124.119 88.8306 124.115 88.8294 124.11 88.8284C124.115 88.8296 124.12 88.8308 124.125 88.832C124.234 88.8623 124.481 88.9893 124.779 89.1427C125.032 89.2729 125.321 89.4219 125.595 89.547C125.477 89.653 125.361 89.7589 125.247 89.8631C124.85 89.7202 124.485 89.6325 124.456 89.7579C124.417 89.6429 124.198 89.5042 123.999 89.3784C123.876 89.3009 123.761 89.2283 123.701 89.1692C123.638 89.2002 123.543 89.2002 123.166 88.9833C123.271 89.1315 123.405 89.2018 123.52 89.2618C123.645 89.3273 123.747 89.3807 123.764 89.51C123.109 89.2712 122.772 89.1981 122.493 89.2197C122.611 88.9947 122.923 88.6852 123.292 88.3946C123.764 88.0228 124.362 87.651 124.74 87.527C124.735 87.583 124.728 87.6399 124.722 87.6973C124.706 87.6917 124.691 87.6866 124.677 87.6819L124.72 87.7105C124.714 87.7629 124.707 87.8158 124.7 87.8689ZM125.176 90.3098C125.013 90.4391 124.894 90.5448 124.795 90.642C124.811 90.6434 124.826 90.6448 124.842 90.6462C124.954 90.6562 125.064 90.6662 125.176 90.6842C125.225 90.6098 125.278 90.5303 125.336 90.4453C125.291 90.4011 125.24 90.3555 125.176 90.3098ZM125.64 90.0171C125.625 90.0108 125.61 90.0044 125.594 89.9981C125.633 89.9706 125.673 89.9422 125.716 89.9129C125.69 89.9483 125.664 89.983 125.64 90.0171ZM125.792 90.083C125.846 89.9932 125.915 89.8856 125.999 89.758C126.009 89.753 126.023 89.7437 126.041 89.7304C126.199 89.7859 126.337 89.8199 126.44 89.8199C126.88 89.9748 127.132 90.1917 126.943 90.1917L125.967 89.8819L126.943 90.3157C126.998 90.4048 126.812 90.3811 126.621 90.3568C126.48 90.3387 126.336 90.3203 126.282 90.3466C126.271 90.315 126.064 90.2043 125.792 90.083ZM125.566 90.6417C125.539 90.6723 125.51 90.7037 125.479 90.7363C125.475 90.7415 125.47 90.7467 125.465 90.7519C125.575 90.7872 125.689 90.8357 125.81 90.9044C126.251 91.0283 126.251 90.8734 125.999 90.7804C125.792 90.7502 125.663 90.7016 125.566 90.6417ZM125.056 91.5869C125.04 91.6295 125.022 91.6728 125.002 91.7169L125.369 91.741L125.056 91.5869ZM125.131 90.7537C125.025 90.7017 124.904 90.6731 124.784 90.6534C124.728 90.7082 124.679 90.7604 124.63 90.8129C124.794 90.8325 124.968 90.8497 125.076 90.8406C125.093 90.8125 125.112 90.7836 125.131 90.7537ZM124.563 90.8869C124.555 90.8964 124.546 90.9059 124.537 90.9155L124.519 90.9354C124.48 90.9854 124.438 91.0365 124.392 91.0899C124.393 91.0901 124.393 91.0902 124.393 91.0903C124.597 91.145 124.616 91.1031 124.635 91.0594C124.648 91.0288 124.662 90.9973 124.74 90.9973C124.691 90.9414 124.632 90.9081 124.563 90.8869ZM124.686 88.4548L124.803 88.4875L124.707 88.4301C124.7 88.4384 124.693 88.4466 124.686 88.4548ZM76.883 45.5027C76.9224 45.4967 76.9454 45.4932 76.9533 45.4921L76.9496 45.493C76.935 45.4955 76.8971 45.5017 76.8382 45.5112H76.8281C76.8491 45.508 76.8673 45.5051 76.883 45.5027ZM45.6636 37.4241C45.6959 37.4348 45.6978 37.436 45.6751 37.4298L45.6636 37.4241ZM43.8692 36.8664L43.8563 36.8791C43.4287 36.7466 43.255 36.6886 43.8692 36.8664ZM23.8516 62.5072C24.1315 62.0666 24.4489 61.6707 24.8484 61.4043C24.6515 61.6171 24.4545 61.8336 24.2576 62.0573C24.1191 62.2041 23.9842 62.3545 23.8516 62.5072ZM21.5504 65.1558C21.5858 65.163 21.6205 65.1681 21.6547 65.1709C21.5366 65.3186 21.4187 65.4668 21.3011 65.6155C21.3848 65.4624 21.4679 65.3091 21.5504 65.1558ZM17.1405 68.8189C17.1136 68.8373 17.0867 68.8557 17.0598 68.874C17.0781 68.8937 17.0895 68.9138 16.9805 68.9278L16.9314 68.961C16.9633 68.9739 17.0045 68.9793 17.0504 68.9801C17.107 68.9233 17.1641 68.868 17.2218 68.8145C17.1895 68.8156 17.1627 68.8171 17.1405 68.8189ZM7.51059 76.6823C7.55916 76.6494 7.60743 76.6168 7.65505 76.5852C7.85189 76.5493 8.01542 76.5406 8.07717 76.5893C7.67381 76.6756 7.45852 76.7451 7.34219 76.8037C7.38256 76.7747 7.42324 76.7454 7.46382 76.716L7.51059 76.6823ZM17.3232 69.0824C17.3935 69.1374 17.4345 69.1988 17.0583 69.2337C17.036 69.2508 17.0129 69.2692 16.9893 69.2892L17.3256 69.4381C17.4453 69.3406 17.5648 69.2426 17.6842 69.1441C17.593 69.0667 17.4798 69.0289 17.3232 69.0824ZM12.201 81.9807C12.248 81.865 12.3345 81.7882 12.4376 81.7244C12.4517 81.7934 12.4667 81.8623 12.4824 81.9313C12.392 81.9787 12.3424 81.9765 12.2937 81.9743C12.2651 81.9731 12.2369 81.9718 12.201 81.9807ZM12.3584 82.0426C12.3875 82.0283 12.4369 81.994 12.4879 81.9552L12.4942 81.9828C12.4444 82.0074 12.3985 82.0278 12.3584 82.0426ZM12.5864 82.4421C12.5954 82.4341 12.6044 82.4262 12.6132 82.4183L12.6251 82.4569C12.6084 82.4574 12.583 82.4636 12.5472 82.4764C12.5605 82.4649 12.5736 82.4535 12.5864 82.4421ZM12.4754 82.7004C12.5487 82.62 12.6144 82.548 12.6396 82.5035C12.6462 82.5243 12.6529 82.5454 12.6598 82.5667L12.201 83.0651C12.2282 82.9715 12.3611 82.8257 12.4754 82.7004ZM12.6107 82.792C12.6414 82.7595 12.672 82.7271 12.7022 82.6949C12.7649 82.8806 12.8386 83.0809 12.9207 83.2765C12.8954 83.3064 12.8693 83.3377 12.8428 83.3696C12.5799 83.6847 12.272 84.0538 12.2954 83.6848C12.622 83.4552 12.6374 83.3107 12.6491 83.2008C12.6532 83.1624 12.6569 83.1282 12.6731 83.0961C12.478 83.4035 12.4159 83.3655 12.3444 83.3217C12.3006 83.2949 12.2532 83.2659 12.1695 83.313C12.2699 83.1523 12.4405 82.9719 12.6093 82.7934L12.6107 82.792ZM17.2191 69.5247L17.1958 69.5436C17.1562 69.5376 17.1173 69.5313 17.0803 69.5247H17.2191ZM17.3859 68.6496L17.4064 68.651C17.4549 68.6102 17.5036 68.5708 17.5525 68.5332C17.497 68.5722 17.4415 68.611 17.3859 68.6496ZM130.656 53.2596L130.658 53.2575C131.422 54.0938 131.195 53.8476 130.656 53.2596ZM128.454 50.8407C128.423 50.8082 128.412 50.7971 128.418 50.8046L128.423 50.8097L128.454 50.8407ZM121.592 49.1806C120.74 49.191 121.166 49.1822 121.592 49.1736V49.1806ZM129.556 61.8714C129.357 62.2359 129.003 62.6765 128.541 63.0554C128.82 62.4945 129.112 61.9242 129.412 61.3391L129.473 61.2198C129.807 61.1966 129.774 61.5037 129.556 61.8714ZM127.919 62.9868C127.855 63.0506 127.79 63.1148 127.724 63.1793C127.77 63.1274 127.834 63.0638 127.919 62.9868ZM107.587 75.5642C107.644 75.8561 107.575 75.517 107.526 75.2744C107.478 75.0318 107.45 74.8857 107.587 75.5642ZM117.67 85.3298C117.654 85.1831 117.649 85.1236 117.704 85.591C117.713 85.7102 117.686 85.4765 117.67 85.3298ZM120.71 45.4493C120.723 45.5339 120.73 45.6186 120.737 45.7033L120.684 45.741C120.676 45.6424 120.664 45.5448 120.647 45.4493C120.521 44.6747 120.27 43.869 119.892 43.1874C119.874 43.1612 119.851 43.1203 119.821 43.0654C119.743 42.9251 119.614 42.6934 119.388 42.3818C119.136 42.0099 118.79 41.6381 118.412 41.2973C117.657 40.6156 116.681 40.0579 115.737 39.748C115.264 39.5931 114.824 39.5001 114.383 39.4691C114.163 39.4382 114.005 39.4382 113.816 39.4382H113.816C113.47 39.4382 113.092 39.4382 112.715 39.4691C112.337 39.5001 111.991 39.5931 111.644 39.686C111.566 39.7119 111.492 39.7324 111.422 39.7519C111.324 39.7793 111.232 39.8049 111.141 39.841C110.952 39.9029 110.826 39.9649 110.826 39.9649C110.637 40.0269 110.48 40.1198 110.322 40.2128C110.243 40.2592 110.157 40.3057 110.07 40.3522L110.07 40.3523C109.984 40.3988 109.897 40.4452 109.818 40.4917L109.535 40.6776C109.472 40.724 109.417 40.7627 109.362 40.8014L109.362 40.8016C109.307 40.8403 109.252 40.879 109.189 40.9254L109.072 41.0242C109.068 40.9924 109.064 40.9606 109.06 40.9289L109.157 40.8325C109.189 40.8015 109.228 40.7705 109.268 40.7395C109.307 40.7086 109.346 40.6776 109.378 40.6466C109.393 40.6311 109.417 40.6156 109.441 40.6001C109.464 40.5846 109.488 40.5691 109.504 40.5536L109.567 40.4917C109.63 40.4607 109.693 40.4297 109.724 40.3677C109.976 40.2128 110.259 40.0579 110.574 39.9029C110.605 39.8874 110.645 39.872 110.684 39.8565C110.723 39.841 110.763 39.8255 110.794 39.81L110.983 39.717L111.204 39.6241C111.282 39.5931 111.361 39.5698 111.44 39.5466C111.518 39.5234 111.597 39.5001 111.676 39.4691C112.337 39.2832 113.061 39.2213 113.785 39.2213H114.163L114.32 39.2523C114.358 39.258 114.396 39.2637 114.434 39.2694C114.816 39.3264 115.245 39.3904 115.674 39.5311C116.618 39.81 117.625 40.3677 118.412 41.0804C118.79 41.4212 119.136 41.824 119.42 42.1958L119.797 42.7536C119.829 42.8001 119.853 42.8465 119.876 42.893C119.9 42.9395 119.923 42.986 119.955 43.0324C120.144 43.3733 120.301 43.7761 120.427 44.1789C120.553 44.5817 120.647 45.0155 120.71 45.4493ZM109.213 41.9238C109.2 41.8167 109.185 41.7087 109.167 41.6028C109.232 41.5583 109.289 41.5208 109.346 41.4832C109.374 41.4647 109.4 41.4462 109.424 41.4285C109.481 41.387 109.532 41.35 109.598 41.3282C109.692 41.2663 109.755 41.2353 109.818 41.2044C109.892 41.1681 109.955 41.1317 110.007 41.1017C110.044 41.0804 110.076 41.0622 110.102 41.0494L110.417 40.8945C110.574 40.8325 110.668 40.8015 110.605 40.8325C110.581 40.8567 110.48 40.9187 110.316 41.0184L110.315 41.0194C110.269 41.0471 110.219 41.0778 110.165 41.1114C110.102 41.1423 110.039 41.2042 109.976 41.2662C109.96 41.2817 109.944 41.2895 109.929 41.2973C109.913 41.305 109.897 41.3128 109.881 41.3282C109.819 41.3902 109.755 41.4522 109.661 41.5142C109.551 41.6071 109.488 41.6691 109.437 41.7194C109.386 41.7698 109.346 41.8085 109.283 41.855L109.213 41.9238ZM119.42 52.1111C119.435 52.126 119.432 52.1247 119.417 52.1133L119.42 52.1111ZM105.943 43.3456C105.942 43.3471 105.94 43.3491 105.938 43.3515L105.915 43.3423H105.947C105.947 43.3423 105.945 43.3435 105.943 43.3456Z" fill="#FF9F87"/>
<path d="M27.9624 34.2491C28.2964 29.8203 29.4988 25.4576 30.2336 21.0948C30.5008 19.5084 30.6344 17.922 30.768 16.3355C30.8348 15.6084 30.3004 13.8898 31.0352 14.0881C31.6364 14.2203 32.4379 16.0711 32.7719 16.5999C34.2415 19.1779 35.3102 21.9542 36.5126 24.6643C36.713 25.1271 37.2474 27.2423 37.5814 27.3745C38.1826 27.6389 39.8526 26.0525 40.2534 25.6559C41.7229 24.0694 44.4617 17.7898 45.5304 17.1948C45.8644 16.9965 46.9332 18.4508 47.1336 18.7152C48.2692 20.4999 48.7368 22.8796 49.0708 24.9288C49.2044 25.722 49.2712 26.5152 49.2044 27.3745C49.2044 27.4406 49.2044 28.0355 49.2044 28.0355C53.4127 28.366 55.6839 21.8881 57.4206 21.4253C57.955 21.2931 58.7566 23.9372 58.8234 24.3338C59.0906 25.5237 59.625 33.6542 59.0906 34.4474C58.0218 36.0338 53.8803 35.0423 52.2771 34.9762C45.7977 34.5135 39.2514 34.6457 32.7719 34.7779" stroke="#03010D" stroke-width="2" stroke-miterlimit="1.5" stroke-linecap="round"/>
<path d="M29.8326 34.7119C29.365 34.7119 28.9642 34.6458 28.4966 34.5797" stroke="#03010D" stroke-width="2" stroke-miterlimit="1.5" stroke-linecap="round"/>
<path d="M34.9097 2.38806C35.8448 3.57789 36.8468 4.70162 37.448 6.08976" stroke="#03010D" stroke-width="2" stroke-miterlimit="1.5" stroke-linecap="round"/>
<path d="M45.2637 1C45.4641 1.92542 45.7312 2.85085 45.8648 3.77628" stroke="#03010D" stroke-width="2" stroke-miterlimit="1.5" stroke-linecap="round"/>
<path d="M56.8195 2.38806C55.8843 3.7101 55.0827 4.89993 54.5483 6.35416" stroke="#03010D" stroke-width="2" stroke-miterlimit="1.5" stroke-linecap="round"/>
<path d="M63.9002 5.56079C63.0986 6.75062 63.1654 6.61842 62.4307 7.94046" stroke="#03010D" stroke-width="2" stroke-miterlimit="1.5" stroke-linecap="round"/>
</svg>
