<svg width="16" height="16" viewBox="0 0 16 16" fill="none" xmlns="http://www.w3.org/2000/svg">
<path d="M9.33716 9.80304C8.93909 10.0684 8.47672 10.2087 8 10.2087C7.52331 10.2087 7.06094 10.0684 6.66287 9.80304L0.106531 5.43201C0.0703376 5.40781 0.0348139 5.38262 0 5.35648L0 12.5189C0 13.3401 0.666406 13.9918 1.47291 13.9918H14.5271C15.3482 13.9918 16 13.3254 16 12.5189V5.35645C15.9651 5.38266 15.9295 5.4079 15.8932 5.43213L9.33716 9.80304Z" fill="#7A4DFC"/>
<path d="M0.626563 4.65229L7.18291 9.02335C7.43109 9.18882 7.71553 9.27154 7.99997 9.27154C8.28444 9.27154 8.56891 9.18879 8.81709 9.02335L15.3734 4.65229C15.7658 4.39088 16 3.95338 16 3.4812C16 2.66929 15.3395 2.00879 14.5276 2.00879H1.47241C0.660532 2.00882 7.75033e-07 2.66932 7.75033e-07 3.48198C-0.000242619 3.7136 0.0568447 3.94169 0.166171 4.14589C0.275497 4.3501 0.433664 4.52407 0.626563 4.65229Z" fill="#7A4DFC"/>
</svg>
