<svg width="20" height="20" viewBox="0 0 20 20" fill="none" xmlns="http://www.w3.org/2000/svg">
<g clip-path="url(#clip0_192_5390)">
<path d="M10 0C4.48645 0 0 4.48566 0 10C0 15.5143 4.48645 20 10 20C15.5143 20 20 15.5143 20 10C20 4.48566 15.5136 0 10 0ZM10 18.4508C5.34004 18.4508 1.54918 14.66 1.54918 10C1.54918 5.34004 5.34004 1.54918 10 1.54918C14.66 1.54918 18.4508 5.34004 18.4508 10C18.4508 14.66 14.66 18.4508 10 18.4508Z" fill="#03010D"/>
<path d="M13.8721 9.15576H6.12617C5.69859 9.15576 5.35156 9.50279 5.35156 9.93037C5.35156 10.3579 5.69859 10.705 6.12617 10.705H13.8721C14.2997 10.705 14.6467 10.3579 14.6467 9.93037C14.6467 9.50279 14.2997 9.15576 13.8721 9.15576Z" fill="#03010D"/>
</g>
<defs>
<clipPath id="clip0_192_5390">
<rect width="20" height="20" fill="white"/>
</clipPath>
</defs>
</svg>
