<svg width="40" height="40" viewBox="0 0 40 40" fill="none" xmlns="http://www.w3.org/2000/svg">
<g clip-path="url(#clip0_38_132)">
<path d="M39.8559 31.3941L37.5327 24.6329C38.6526 22.3437 39.2444 19.7978 39.2484 17.2361C39.2552 12.782 37.532 8.57051 34.3959 5.37754C31.2591 2.18394 27.0793 0.386209 22.6262 0.315662C18.0086 0.242693 13.6683 1.9991 10.4052 5.26207C7.25884 8.4084 5.51368 12.5563 5.45845 16.9888C2.35735 19.3236 0.526963 22.9639 0.532979 26.8521C0.535869 28.6716 0.945401 30.4803 1.72142 32.1158L0.121182 36.7727C-0.153896 37.5732 0.0470412 38.4425 0.645635 39.0411C1.06688 39.4624 1.62228 39.6867 2.19345 39.6867C2.43376 39.6867 2.67688 39.647 2.91399 39.5655L7.57095 37.9653C9.20649 38.7413 11.0152 39.1508 12.8347 39.1537H12.8541C16.8002 39.1536 20.4681 37.276 22.7945 34.0989C25.2153 34.0351 27.6106 33.4491 29.7759 32.3898L36.5372 34.7131C36.8127 34.8081 37.102 34.8568 37.3934 34.8571C38.0721 34.8571 38.7321 34.5905 39.2328 34.0897C39.9441 33.3784 40.1828 32.3455 39.8559 31.3941ZM12.8539 36.7728H12.8384C11.2279 36.7704 9.6286 36.3733 8.21368 35.6247C8.06978 35.5486 7.9118 35.5028 7.74951 35.4902C7.58722 35.4775 7.42405 35.4983 7.27009 35.5511L2.49485 37.192L4.13571 32.4168C4.1886 32.2629 4.20936 32.0997 4.1967 31.9374C4.18405 31.7751 4.13824 31.6171 4.06212 31.4732C3.31353 30.0582 2.91649 28.459 2.91399 26.8485C2.91001 24.2579 3.91774 21.8025 5.68001 19.9639C6.25564 23.473 7.92806 26.7066 10.5204 29.2528C13.0936 31.7803 16.3281 33.3895 19.8181 33.9156C17.9753 35.7319 15.4913 36.7728 12.8539 36.7728ZM37.5491 32.4061C37.4813 32.4739 37.401 32.4923 37.3107 32.4612L30.0726 29.974C29.9186 29.9211 29.7555 29.9003 29.5932 29.913C29.4309 29.9256 29.2729 29.9715 29.1291 30.0476C27.0624 31.1409 24.7271 31.7207 22.3754 31.7243H22.3529C14.473 31.7243 7.96415 25.3232 7.83931 17.4452C7.77642 13.4776 9.28563 9.74879 12.0888 6.94558C14.892 4.14238 18.6215 2.63371 22.5885 2.69621C30.4741 2.82129 36.8796 9.34215 36.8674 17.2324C36.8638 19.5841 36.284 21.9195 35.1908 23.986C35.1147 24.1299 35.0689 24.2878 35.0562 24.4501C35.0435 24.6124 35.0643 24.7756 35.1172 24.9296L37.6043 32.1677C37.6353 32.2583 37.6167 32.3386 37.5491 32.4061Z" fill="black"/>
<path d="M29.4447 10.8994H15.2604C14.6029 10.8994 14.0699 11.4325 14.0699 12.0899C14.0699 12.7474 14.6029 13.2804 15.2604 13.2804H29.4447C30.1022 13.2804 30.6352 12.7473 30.6352 12.0899C30.6352 11.4325 30.1022 10.8994 29.4447 10.8994ZM29.4447 15.7956H15.2604C14.6029 15.7956 14.0699 16.3286 14.0699 16.9861C14.0699 17.6435 14.6029 18.1765 15.2604 18.1765H29.4447C30.1022 18.1765 30.6352 17.6435 30.6352 16.9861C30.6352 16.3286 30.1022 15.7956 29.4447 15.7956ZM23.9847 20.6916H15.2603C14.6028 20.6916 14.0698 21.2246 14.0698 21.8821C14.0698 22.5396 14.6029 23.0725 15.2603 23.0725H23.9847C24.6422 23.0725 25.1751 22.5395 25.1751 21.8821C25.1751 21.2246 24.6422 20.6916 23.9847 20.6916Z" fill="black"/>
</g>
<defs>
<clipPath id="clip0_38_132">
<rect width="40" height="40" fill="white"/>
</clipPath>
</defs>
</svg>
