<svg width="16" height="16" viewBox="0 0 16 16" fill="none" xmlns="http://www.w3.org/2000/svg">
<path d="M12.1643 10.5843C11.6416 10.0683 10.989 10.0683 10.4696 10.5843C10.0734 10.9772 9.67723 11.3701 9.28769 11.7696C9.18114 11.8795 9.09125 11.9028 8.9614 11.8295C8.70503 11.6897 8.43202 11.5765 8.18564 11.4233C7.03698 10.7008 6.07477 9.77193 5.22243 8.72649C4.79959 8.20709 4.42336 7.65107 4.16033 7.02514C4.10706 6.89862 4.11705 6.81538 4.22026 6.71217C4.61647 6.32928 5.00268 5.93641 5.39223 5.54353C5.93493 4.9975 5.93493 4.35825 5.3889 3.80889C5.07926 3.49592 4.76962 3.18961 4.45998 2.87664C4.14036 2.55702 3.82406 2.23406 3.5011 1.91776C2.97838 1.40836 2.32581 1.40836 1.80641 1.92109C1.40688 2.31397 1.02399 2.71683 0.617799 3.10305C0.241571 3.4593 0.0517928 3.89546 0.0118394 4.40486C-0.0514202 5.23389 0.151676 6.01631 0.438009 6.77876C1.02399 8.35692 1.91628 9.75862 2.99836 11.0438C4.45998 12.7818 6.20462 14.1568 8.24557 15.149C9.1645 15.5951 10.1167 15.9381 11.1522 15.9947C11.8647 16.0346 12.484 15.8548 12.98 15.2988C13.3196 14.9193 13.7025 14.573 14.0621 14.2101C14.5948 13.6707 14.5982 13.0181 14.0688 12.4854C13.4362 11.8495 12.8003 11.2169 12.1643 10.5843ZM11.5284 7.93075L12.757 7.72099C12.5639 6.59231 12.0311 5.57017 11.2221 4.75778C10.3664 3.90211 9.28436 3.36274 8.09241 3.19627L7.91928 4.4315C8.84154 4.56135 9.68056 4.97753 10.3431 5.64009C10.9691 6.26602 11.3786 7.05843 11.5284 7.93075ZM13.4495 2.59031C12.0312 1.17197 10.2366 0.276344 8.25556 0L8.08242 1.23523C9.79376 1.47495 11.3453 2.25071 12.5705 3.47262C13.7325 4.63459 14.4949 6.10288 14.7713 7.71766L15.9999 7.50791C15.6769 5.63676 14.7946 3.93874 13.4495 2.59031Z" fill="#7A4DFC"/>
</svg>
