<svg width="20" height="20" viewBox="0 0 20 20" fill="none" xmlns="http://www.w3.org/2000/svg">
<g clip-path="url(#clip0_192_5382)">
<path d="M10 0C4.48566 0 0 4.48566 0 10C0 15.5143 4.48566 20 10 20C15.5143 20 20 15.5136 20 10C20 4.48645 15.5143 0 10 0ZM10 18.4508C5.34082 18.4508 1.54918 14.66 1.54918 10C1.54918 5.34004 5.34082 1.54918 10 1.54918C14.6592 1.54918 18.4508 5.34004 18.4508 10C18.4508 14.66 14.66 18.4508 10 18.4508Z" fill="#03010D"/>
<path d="M13.8721 9.15568H10.7737V6.05732C10.7737 5.62975 10.4275 5.28271 9.99914 5.28271C9.57078 5.28271 9.22453 5.62975 9.22453 6.05732V9.15568H6.12617C5.69781 9.15568 5.35156 9.50272 5.35156 9.93029C5.35156 10.3579 5.69781 10.7049 6.12617 10.7049H9.22453V13.8033C9.22453 14.2308 9.57078 14.5779 9.99914 14.5779C10.4275 14.5779 10.7737 14.2308 10.7737 13.8033V10.7049H13.8721C14.3005 10.7049 14.6467 10.3579 14.6467 9.93029C14.6467 9.50272 14.3005 9.15568 13.8721 9.15568Z" fill="#03010D"/>
</g>
<defs>
<clipPath id="clip0_192_5382">
<rect width="20" height="20" fill="white"/>
</clipPath>
</defs>
</svg>
