<svg width="27" height="27" viewBox="0 0 27 27" fill="none" xmlns="http://www.w3.org/2000/svg">
<path d="M13.5 19.9685C12.0487 19.9685 10.6762 19.7998 9.64125 19.4848C7.785 18.9335 7.4025 18.011 7.4025 17.3473C7.4025 14.5235 10.1362 12.2173 13.5 12.2173C16.8637 12.2173 19.5975 14.5123 19.5975 17.3473C19.5975 19.7773 14.9287 19.9685 13.5 19.9685ZM9.09 17.336C9.25875 17.6735 10.8562 18.281 13.5 18.281C16.1437 18.281 17.7637 17.6735 17.91 17.3248C17.91 15.446 15.93 13.9048 13.5 13.9048C11.07 13.9048 9.10125 15.4348 9.09 17.3248V17.336Z" fill="#03010D"/>
<path d="M13.4662 13.6013C11.3512 13.6013 9.61874 11.88 9.61874 9.75375C9.61874 7.6275 11.34 5.90625 13.4662 5.90625C15.5925 5.90625 17.3137 7.6275 17.3137 9.75375C17.3137 11.88 15.5925 13.6013 13.4662 13.6013ZM13.4662 7.59375C12.8932 7.5939 12.3437 7.82167 11.9387 8.22696C11.5336 8.63225 11.3061 9.18186 11.3062 9.75487C11.3064 10.3279 11.5342 10.8774 11.9395 11.2825C12.3447 11.6875 12.8944 11.915 13.4674 11.9149C14.0404 11.9147 14.5899 11.687 14.995 11.2817C15.4 10.8764 15.6275 10.3268 15.6274 9.75375C15.6272 9.18073 15.3994 8.63125 14.9942 8.22617C14.5889 7.82109 14.0393 7.5936 13.4662 7.59375Z" fill="#03010D"/>
<path d="M21.375 22.3763C21.1613 22.3763 20.9363 22.2863 20.7675 22.1175C20.4413 21.78 20.4413 21.2513 20.7788 20.925C21.7708 19.9582 22.5581 18.8015 23.0934 17.5239C23.6288 16.2463 23.9014 14.874 23.895 13.4888C23.895 7.75127 19.2263 3.08252 13.4888 3.08252C12.42 3.08252 11.3738 3.24002 10.3725 3.55502C9.9225 3.69002 9.45 3.44252 9.315 3.00377C9.18 2.55377 9.4275 2.08127 9.86625 1.94627C11.0363 1.57502 12.2513 1.39502 13.5 1.39502C20.1713 1.39502 25.5938 6.81752 25.5938 13.4888C25.5938 16.7625 24.3 19.8338 21.9713 22.1288C21.8025 22.2863 21.5888 22.365 21.3863 22.365L21.375 22.3763ZM13.5 25.5938C6.82875 25.5938 1.40625 20.1713 1.40625 13.5C1.40625 10.3163 2.6325 7.31252 4.86 5.02877C5.18625 4.69127 5.715 4.69127 6.0525 5.01752C6.39 5.34377 6.39 5.88377 6.06375 6.21002C4.15006 8.15257 3.0824 10.7732 3.09375 13.5C3.09375 19.2375 7.7625 23.9063 13.5 23.9063C14.5688 23.9063 15.615 23.7488 16.6163 23.4338C17.0663 23.2988 17.5388 23.5463 17.6738 23.985C17.8088 24.435 17.5613 24.9075 17.1225 25.0425C15.9525 25.4138 14.7375 25.5938 13.4888 25.5938H13.5Z" fill="#03010D"/>
<path d="M22.5 23.3438H20.25C19.7887 23.3438 19.4062 22.9613 19.4062 22.5V20.25C19.4062 19.7887 19.7887 19.4062 20.25 19.4062C20.7113 19.4062 21.0938 19.7887 21.0938 20.25V21.6562H22.5C22.9613 21.6562 23.3438 22.0387 23.3438 22.5C23.3438 22.9613 22.9613 23.3438 22.5 23.3438ZM6.75 7.59375C6.28875 7.59375 5.90625 7.21125 5.90625 6.75V5.34375H4.5C4.03875 5.34375 3.65625 4.96125 3.65625 4.5C3.65625 4.03875 4.03875 3.65625 4.5 3.65625H6.75C7.21125 3.65625 7.59375 4.03875 7.59375 4.5V6.75C7.59375 7.21125 7.21125 7.59375 6.75 7.59375Z" fill="#03010D"/>
</svg>
