<svg width="27" height="27" viewBox="0 0 27 27" fill="none" xmlns="http://www.w3.org/2000/svg">
<path fill-rule="evenodd" clip-rule="evenodd" d="M14.9265 16.0875C15.1355 16.1674 15.3042 16.3269 15.3955 16.5311C15.4869 16.7354 15.4934 16.9675 15.4136 17.1765C14.6948 19.0575 13.6013 20.0947 12.2738 20.6145C11.0453 21.0938 9.68401 21.0938 8.51063 21.0938H8.43751C7.17751 21.0938 6.12001 21.105 5.21551 21.4583C4.38413 21.7822 3.60901 22.4325 3.03863 23.9265C2.95867 24.1355 2.79895 24.3042 2.59462 24.3954C2.39029 24.4867 2.15807 24.493 1.94907 24.4131C1.74006 24.3331 1.57138 24.1734 1.48013 23.9691C1.38888 23.7647 1.38254 23.5325 1.46251 23.3235C2.18026 21.4425 3.27376 20.4053 4.60126 19.8855C5.83088 19.4062 7.19213 19.4062 8.36438 19.4062H8.43751C9.6975 19.4062 10.755 19.395 11.6595 19.0417C12.492 18.7178 13.2671 18.0675 13.8375 16.5735C13.9174 16.3645 14.0769 16.1958 14.2811 16.1045C14.4854 16.0131 14.7175 16.0066 14.9265 16.0864V16.0875ZM14.5665 2.53125H19.1869C20.4615 2.53125 21.5033 2.53125 22.3256 2.6415C23.1851 2.75738 23.9299 3.00712 24.525 3.60225C25.119 4.19737 25.3688 4.941 25.4846 5.80163C25.5949 6.62288 25.5949 7.66463 25.5949 8.94037V11.3108C25.5949 12.5854 25.5949 13.626 25.4846 14.4495C25.3699 15.3079 25.119 16.0526 24.525 16.6478C23.931 17.2429 23.1851 17.4926 22.3256 17.6085C21.5033 17.7188 20.4615 17.7188 19.1869 17.7188H17.4375C17.2137 17.7188 16.9991 17.6299 16.8409 17.4716C16.6827 17.3134 16.5938 17.0988 16.5938 16.875C16.5938 16.6512 16.6827 16.4366 16.8409 16.2784C16.9991 16.1201 17.2137 16.0312 17.4375 16.0312H19.1261C20.4761 16.0312 21.4043 16.029 22.1006 15.9356C22.7723 15.8456 23.1019 15.6836 23.3314 15.4541C23.5609 15.2258 23.7218 14.8961 23.8129 14.2234C23.9063 13.527 23.9085 12.6 23.9085 11.25V9C23.9085 7.65 23.9063 6.723 23.8129 6.02662C23.7229 5.35387 23.5609 5.02537 23.3314 4.79588C23.1019 4.56638 22.7723 4.40438 22.1006 4.31438C21.4031 4.221 20.4761 4.21875 19.1273 4.21875H14.6273C13.2773 4.21875 12.3491 4.221 11.6528 4.31438C10.9811 4.40438 10.6515 4.56638 10.422 4.79588C10.2263 4.99163 10.0823 5.25825 9.98776 5.74088C9.88876 6.24713 9.85613 6.91875 9.84826 7.88175C9.84737 7.99255 9.82467 8.1021 9.78145 8.20413C9.73822 8.30615 9.67533 8.39867 9.59635 8.47639C9.51738 8.55412 9.42387 8.61552 9.32116 8.65711C9.21845 8.69869 9.10856 8.71964 8.99776 8.71875C8.88695 8.71786 8.77741 8.69516 8.67538 8.65194C8.57335 8.60872 8.48083 8.54582 8.40311 8.46685C8.32539 8.38787 8.26398 8.29436 8.2224 8.19165C8.18082 8.08895 8.15987 7.97905 8.16076 7.86825C8.16863 6.91087 8.19901 6.09413 8.33176 5.41575C8.46901 4.71488 8.72663 4.104 9.22838 3.60225C9.82463 3.00712 10.5683 2.75738 11.4278 2.6415C12.2501 2.53125 13.2919 2.53125 14.5665 2.53125Z" fill="#03010D"/>
<path fill-rule="evenodd" clip-rule="evenodd" d="M8.4375 12.0938C7.91535 12.0938 7.4146 12.3012 7.04538 12.6704C6.67617 13.0396 6.46875 13.5404 6.46875 14.0625C6.46875 14.5846 6.67617 15.0854 7.04538 15.4546C7.4146 15.8238 7.91535 16.0312 8.4375 16.0312C8.95964 16.0312 9.4604 15.8238 9.82962 15.4546C10.1988 15.0854 10.4062 14.5846 10.4062 14.0625C10.4062 13.5404 10.1988 13.0396 9.82962 12.6704C9.4604 12.3012 8.95964 12.0938 8.4375 12.0938ZM4.78125 14.0625C4.78125 13.0928 5.16646 12.1628 5.85214 11.4771C6.53782 10.7915 7.4678 10.4062 8.4375 10.4062C9.4072 10.4062 10.3372 10.7915 11.0229 11.4771C11.7085 12.1628 12.0938 13.0928 12.0938 14.0625C12.0938 15.0322 11.7085 15.9622 11.0229 16.6479C10.3372 17.3335 9.4072 17.7188 8.4375 17.7188C7.4678 17.7188 6.53782 17.3335 5.85214 16.6479C5.16646 15.9622 4.78125 15.0322 4.78125 14.0625ZM12.6562 7.875C12.6562 7.65122 12.7451 7.43661 12.9034 7.27838C13.0616 7.12014 13.2762 7.03125 13.5 7.03125H20.25C20.4738 7.03125 20.6884 7.12014 20.8466 7.27838C21.0049 7.43661 21.0938 7.65122 21.0938 7.875C21.0938 8.09878 21.0049 8.31339 20.8466 8.47162C20.6884 8.62986 20.4738 8.71875 20.25 8.71875H13.5C13.2762 8.71875 13.0616 8.62986 12.9034 8.47162C12.7451 8.31339 12.6562 8.09878 12.6562 7.875ZM16.0312 12.375C16.0312 12.1512 16.1201 11.9366 16.2784 11.7784C16.4366 11.6201 16.6512 11.5312 16.875 11.5312H20.25C20.4738 11.5312 20.6884 11.6201 20.8466 11.7784C21.0049 11.9366 21.0938 12.1512 21.0938 12.375C21.0938 12.5988 21.0049 12.8134 20.8466 12.9716C20.6884 13.1299 20.4738 13.2188 20.25 13.2188H16.875C16.6512 13.2188 16.4366 13.1299 16.2784 12.9716C16.1201 12.8134 16.0312 12.5988 16.0312 12.375Z" fill="#03010D"/>
</svg>
