<svg width="50" height="50" viewBox="0 0 50 50" fill="none" xmlns="http://www.w3.org/2000/svg">
<path d="M31.25 43.75H45.3125C47.8969 43.75 50 41.6469 50 39.0625V25C50 22.4156 47.8969 20.3125 45.3125 20.3125H39.0047L41.3766 8.10938C41.4203 7.88332 41.4136 7.65038 41.3568 7.42724C41.3 7.2041 41.1946 6.99627 41.0482 6.8186C40.9017 6.64094 40.7178 6.49784 40.5096 6.39954C40.3014 6.30124 40.074 6.25018 39.8438 6.25H34.7812C33.4219 6.25 32.2156 7.13906 31.8031 8.42656L27.2563 19.2156C27.2297 19.2781 27.2078 19.3406 27.1891 19.4031C26.7734 20.9016 26.5625 22.45 26.5625 24.0047V39.0625C26.5625 41.6469 28.6656 43.75 31.25 43.75ZM4.6875 43.75H18.75C21.3344 43.75 23.4375 41.6469 23.4375 39.0625V25C23.4375 22.4156 21.3344 20.3125 18.75 20.3125H12.4422L14.8141 8.10938C14.8587 7.88321 14.8526 7.64997 14.7961 7.42646C14.7397 7.20296 14.6344 6.99476 14.4877 6.81689C14.3411 6.63902 14.1568 6.4959 13.9482 6.39787C13.7396 6.29984 13.5118 6.24934 13.2812 6.25H8.21875C6.85938 6.25 5.65156 7.13906 5.24219 8.42656L0.692188 19.2156C0.667191 19.2781 0.645309 19.3406 0.62656 19.4047C0.210938 20.9031 0 22.4516 0 24.0047V39.0625C0 41.6469 2.10313 43.75 4.6875 43.75Z" fill="#7A4DFC" fill-opacity="0.15"/>
</svg>
