<svg width="40" height="40" viewBox="0 0 40 40" fill="none" xmlns="http://www.w3.org/2000/svg">
<path d="M4.16748 7.475V29.86C4.16914 31.5105 4.82551 33.0929 5.99257 34.2599C7.15962 35.427 8.74202 36.0833 10.3925 36.085H17.9812C18.3128 36.085 18.6307 35.9533 18.8651 35.7189C19.0995 35.4845 19.2312 35.1665 19.2312 34.835C19.2312 34.5035 19.0995 34.1855 18.8651 33.9511C18.6307 33.7167 18.3128 33.585 17.9812 33.585H10.3925C9.40485 33.584 8.45796 33.1912 7.7596 32.4929C7.06125 31.7945 6.66847 30.8476 6.66748 29.86V7.47375C6.6688 6.48634 7.06172 5.53977 7.76005 4.84168C8.45837 4.14359 9.40507 3.75099 10.3925 3.75H26.2375C27.2251 3.75099 28.172 4.14377 28.8704 4.84212C29.5687 5.54048 29.9615 6.48737 29.9625 7.475V17.2238C29.9625 17.5553 30.0942 17.8732 30.3286 18.1076C30.563 18.3421 30.881 18.4738 31.2125 18.4738C31.544 18.4738 31.8619 18.3421 32.0964 18.1076C32.3308 17.8732 32.4625 17.5553 32.4625 17.2238V7.47375C32.4605 5.8235 31.804 4.24143 30.637 3.07465C29.4699 1.90786 27.8877 1.25165 26.2375 1.25H10.3925C8.74202 1.25165 7.15962 1.90803 5.99257 3.07509C4.82551 4.24214 4.16914 5.82454 4.16748 7.475Z" fill="black"/>
<path d="M11.7163 9.95361H24.9138C25.2453 9.95361 25.5633 9.82192 25.7977 9.5875C26.0321 9.35308 26.1638 9.03513 26.1638 8.70361C26.1638 8.37209 26.0321 8.05415 25.7977 7.81973C25.5633 7.58531 25.2453 7.45361 24.9138 7.45361H11.7163C11.3848 7.45361 11.0668 7.58531 10.8324 7.81973C10.598 8.05415 10.4663 8.37209 10.4663 8.70361C10.4663 9.03513 10.598 9.35308 10.8324 9.5875C11.0668 9.82192 11.3848 9.95361 11.7163 9.95361ZM26.1626 15.3449C26.1626 15.0133 26.0309 14.6954 25.7964 14.461C25.562 14.2266 25.2441 14.0949 24.9126 14.0949H11.7176C11.386 14.0949 11.0681 14.2266 10.8337 14.461C10.5993 14.6954 10.4676 15.0133 10.4676 15.3449C10.4676 15.6764 10.5993 15.9943 10.8337 16.2287C11.0681 16.4632 11.386 16.5949 11.7176 16.5949H24.9151C25.2466 16.5949 25.5645 16.4632 25.7989 16.2287C26.0334 15.9943 26.1651 15.6764 26.1651 15.3449H26.1626ZM11.7163 20.7374C11.3848 20.7374 11.0668 20.8691 10.8324 21.1035C10.598 21.3379 10.4663 21.6558 10.4663 21.9874C10.4663 22.3189 10.598 22.6368 10.8324 22.8712C11.0668 23.1057 11.3848 23.2374 11.7163 23.2374H17.7163C18.0478 23.2374 18.3658 23.1057 18.6002 22.8712C18.8346 22.6368 18.9663 22.3189 18.9663 21.9874C18.9663 21.6558 18.8346 21.3379 18.6002 21.1035C18.3658 20.8691 18.0478 20.7374 17.7163 20.7374H11.7163ZM28.2026 19.3274C27.3497 19.3274 26.516 19.5803 25.8068 20.0541C25.0976 20.5279 24.5449 21.2013 24.2184 21.9893C23.892 22.7772 23.8065 23.6442 23.9728 24.4807C24.1391 25.3172 24.5497 26.0857 25.1527 26.6888C25.7557 27.292 26.524 27.7028 27.3605 27.8693C28.1969 28.0359 29.064 27.9507 29.852 27.6245C30.64 27.2982 31.3136 26.7457 31.7877 26.0367C32.2617 25.3276 32.5148 24.494 32.5151 23.6411C32.5134 22.4979 32.0585 21.4019 31.2501 20.5935C30.4417 19.7852 29.3458 19.329 28.2026 19.3274ZM28.2026 25.4536C27.8441 25.4536 27.4937 25.3473 27.1956 25.1482C26.8975 24.949 26.6652 24.6659 26.528 24.3347C26.3908 24.0035 26.3549 23.6391 26.4249 23.2875C26.4948 22.9359 26.6674 22.613 26.9209 22.3595C27.1744 22.106 27.4974 21.9334 27.849 21.8634C28.2005 21.7935 28.565 21.8294 28.8962 21.9666C29.2274 22.1038 29.5104 22.3361 29.7096 22.6341C29.9088 22.9322 30.0151 23.2826 30.0151 23.6411C30.0144 24.1216 29.8232 24.5822 29.4835 24.922C29.1437 25.2618 28.6831 25.453 28.2026 25.4536ZM21.8226 38.7499C22.1541 38.7499 22.472 38.6182 22.7064 38.3837C22.9409 38.1493 23.0726 37.8314 23.0726 37.4999C23.0726 36.1393 23.613 34.8345 24.5751 33.8724C25.5372 32.9103 26.842 32.3699 28.2026 32.3699C29.5631 32.3699 30.868 32.9103 31.83 33.8724C32.7921 34.8345 33.3326 36.1393 33.3326 37.4999C33.3326 37.8314 33.4643 38.1493 33.6987 38.3837C33.9331 38.6182 34.251 38.7499 34.5826 38.7499C34.9141 38.7499 35.232 38.6182 35.4664 38.3837C35.7009 38.1493 35.8326 37.8314 35.8326 37.4999C35.8326 35.4763 35.0287 33.5355 33.5978 32.1046C32.1669 30.6737 30.2262 29.8699 28.2026 29.8699C26.179 29.8699 24.2382 30.6737 22.8073 32.1046C21.3764 33.5355 20.5726 35.4763 20.5726 37.4999C20.5726 37.8314 20.7043 38.1493 20.9387 38.3837C21.1731 38.6182 21.491 38.7499 21.8226 38.7499Z" fill="black"/>
</svg>
