<svg width="40" height="40" viewBox="0 0 40 40" fill="none" xmlns="http://www.w3.org/2000/svg">
<g clip-path="url(#clip0_38_147)">
<path d="M37.1912 17.4393C37.0488 13.0915 35.2524 8.96203 32.1687 5.89371C28.9169 2.64121 24.595 0.850586 20 0.850586C10.7194 0.850586 3.13623 8.23746 2.80936 17.4393C2.09375 17.7563 1.48544 18.274 1.05813 18.9298C0.630823 19.5855 0.402856 20.351 0.401855 21.1337V25.6725C0.403014 26.7442 0.82929 27.7718 1.58716 28.5297C2.34502 29.2875 3.37257 29.7138 4.44436 29.715C5.13781 29.7141 5.80262 29.4383 6.29297 28.9479C6.78331 28.4576 7.05915 27.7928 7.05998 27.0993V19.7062C7.05998 18.3518 6.02123 17.2475 4.70061 17.1162C5.18811 9.09934 11.8619 2.72559 20 2.72559C24.095 2.72559 27.9456 4.32184 30.8437 7.21996C33.505 9.88121 35.0625 13.35 35.2969 17.1168C33.9775 17.2493 32.9406 18.3531 32.9406 19.7062V27.0987C32.9406 28.4643 33.9956 29.5756 35.3319 29.6912V31.5593C35.3307 32.5709 34.9283 33.5407 34.213 34.2559C33.4976 34.9711 32.5278 35.3733 31.5162 35.3743H28.6906C28.5001 34.8189 28.1405 34.3371 27.6621 33.9966C27.1838 33.6561 26.6109 33.4739 26.0237 33.4756H23.1112C22.6931 33.4756 22.2919 33.5643 21.9244 33.7356C21.4323 33.9629 21.0155 34.3263 20.7231 34.7827C20.4307 35.2392 20.275 35.7698 20.2744 36.3118C20.2744 37.0706 20.57 37.7831 21.1056 38.3162C21.3681 38.5809 21.6806 38.7907 22.0249 38.9336C22.3692 39.0766 22.7385 39.1497 23.1112 39.1487H26.0237C27.2312 39.1487 28.2956 38.3681 28.6925 37.2493H31.5162C34.6544 37.2493 37.2069 34.6968 37.2069 31.5593V29.3575C37.9182 29.0387 38.5223 28.5212 38.9465 27.8673C39.3708 27.2133 39.597 26.4507 39.5981 25.6712V21.1325C39.5981 19.4862 38.6069 18.0687 37.1912 17.4393ZM5.18436 19.7062V27.0987C5.18436 27.5068 4.85248 27.8393 4.44373 27.8393C3.86908 27.8387 3.31815 27.6101 2.91181 27.2038C2.50547 26.7974 2.27689 26.2465 2.27623 25.6718V21.1331C2.27689 20.5584 2.50547 20.0075 2.91181 19.6012C3.31815 19.1948 3.86908 18.9662 4.44373 18.9656C4.85248 18.9656 5.18436 19.2981 5.18436 19.7062ZM26.9644 36.5131C26.9178 36.7283 26.7991 36.9212 26.6279 37.0598C26.4567 37.1983 26.2433 37.2742 26.0231 37.275H23.1106C22.8544 37.275 22.6137 37.175 22.43 36.9912C22.3405 36.9024 22.2696 36.7968 22.2213 36.6804C22.1731 36.5639 22.1484 36.4391 22.1487 36.3131C22.1494 36.0582 22.251 35.814 22.4312 35.6339C22.6115 35.4537 22.8558 35.3523 23.1106 35.3518H26.0231C26.2794 35.3518 26.52 35.4512 26.7031 35.635C26.8844 35.8156 26.9844 36.0568 26.9844 36.3131C26.985 36.3818 26.9775 36.4506 26.9644 36.5131ZM37.7231 25.6718C37.7224 26.2465 37.4939 26.7974 37.0875 27.2038C36.6812 27.6101 36.1303 27.8387 35.5556 27.8393C35.3592 27.8392 35.1709 27.7611 35.0321 27.6222C34.8932 27.4834 34.8151 27.2951 34.815 27.0987V19.7062C34.815 19.2981 35.1469 18.9656 35.5556 18.9656C36.1303 18.9662 36.6812 19.1948 37.0875 19.6012C37.4939 20.0075 37.7224 20.5584 37.7231 21.1331V25.6718Z" fill="black"/>
<path d="M26.0705 25.9949C27.1238 25.9938 28.1335 25.5749 28.8782 24.8301C29.623 24.0854 30.0419 23.0757 30.043 22.0224V13.9281C30.043 12.8693 29.6293 11.8718 28.878 11.1206C28.1268 10.3693 27.1299 9.95557 26.0705 9.95557H13.9293C12.8761 9.95672 11.8663 10.3756 11.1216 11.1204C10.3768 11.8651 9.95795 12.8748 9.95679 13.9281V22.0224C9.95795 23.0757 10.3768 24.0854 11.1216 24.8301C11.8663 25.5749 12.8761 25.9938 13.9293 25.9949H14.0037V28.0924C14.0024 28.3486 14.0518 28.6024 14.1491 28.8394C14.2463 29.0763 14.3894 29.2917 14.5701 29.4732C14.7509 29.6546 14.9657 29.7986 15.2023 29.8967C15.4389 29.9948 15.6925 30.0452 15.9487 30.0449C16.2046 30.0455 16.4581 29.9944 16.6939 29.8949C16.9297 29.7953 17.143 29.6493 17.3212 29.4656L20.8105 25.9949H26.0705ZM19.7637 24.3924L15.9874 28.1481C15.9705 28.1656 15.958 28.1787 15.9224 28.1631C15.8793 28.1456 15.8793 28.1174 15.8793 28.0924V25.0574C15.8793 24.8088 15.7805 24.5703 15.6047 24.3945C15.4289 24.2187 15.1904 24.1199 14.9418 24.1199H13.9299C13.3738 24.1193 12.8407 23.8981 12.4475 23.5049C12.0543 23.1117 11.8331 22.5785 11.8324 22.0224V13.9281C11.8331 13.372 12.0543 12.8389 12.4475 12.4456C12.8407 12.0524 13.3738 11.8312 13.9299 11.8306H26.0712C26.6299 11.8306 27.1555 12.0493 27.553 12.4462C27.9505 12.8437 28.1687 13.3699 28.1687 13.9281V22.0224C28.168 22.5785 27.9468 23.1117 27.5536 23.5049C27.1604 23.8981 26.6273 24.1193 26.0712 24.1199H20.4249C20.1768 24.1199 19.9393 24.2181 19.7637 24.3924Z" fill="black"/>
<path d="M15.4456 16.7417C14.6831 16.7417 14.0625 17.3629 14.0625 18.1248C14.0625 18.8867 14.6837 19.5079 15.4456 19.5079C16.2087 19.5079 16.83 18.8867 16.83 18.1248C16.83 17.3629 16.2094 16.7417 15.4456 16.7417ZM19.9994 16.7417C19.2369 16.7417 18.6162 17.3629 18.6162 18.1248C18.6162 18.8867 19.2375 19.5079 19.9994 19.5079C20.7631 19.5079 21.3838 18.8867 21.3838 18.1248C21.3838 17.3629 20.7631 16.7417 19.9994 16.7417ZM24.5531 16.7417C23.7906 16.7417 23.17 17.3629 23.17 18.1248C23.17 18.8867 23.7913 19.5079 24.5531 19.5079C25.3162 19.5079 25.9375 18.8867 25.9375 18.1248C25.9375 17.3629 25.3162 16.7417 24.5531 16.7417Z" fill="black"/>
</g>
<defs>
<clipPath id="clip0_38_147">
<rect width="40" height="40" fill="white"/>
</clipPath>
</defs>
</svg>
