<svg width="40" height="40" viewBox="0 0 40 40" fill="none" xmlns="http://www.w3.org/2000/svg">
<g clip-path="url(#clip0_38_113)">
<path d="M29.1471 8.89655L29.1858 9.19352L28.7407 9.28565L28.6815 9.91825H29.2146L29.9237 9.84997L30.2897 9.4148L29.9006 9.26344L29.6876 9.0183L29.3676 8.50005L29.2146 7.76709L28.6132 7.88966L28.4446 8.14796V8.43917L28.7341 8.63742L29.1471 8.89655Z" fill="black"/>
<path d="M28.6347 9.14L28.6667 8.74349L28.3138 8.59131L27.8203 8.70565L27.4542 9.293V9.67388H27.8811L28.6347 9.14ZM18.4753 10.8239L18.3667 11.1036H17.841V11.3751H17.9661L17.9842 11.5083L18.3066 11.4812L18.5082 11.3561L18.5608 11.1036L18.8216 11.0814L18.9244 10.8691L18.685 10.8198L18.4753 10.8239ZM17.1204 11.3167L17.0999 11.5824L17.4807 11.5503L17.5202 11.2838L17.2915 11.1036L17.1204 11.3167Z" fill="black"/>
<path d="M39.9951 19.7931C39.9899 19.213 39.9597 18.6333 39.9046 18.0557C39.7228 16.1871 39.2771 14.3536 38.581 12.61C38.53 12.4825 38.4831 12.3533 38.4288 12.2275C37.4636 9.95397 36.0861 7.87866 34.3659 6.10633C34.0711 5.79885 33.7666 5.5009 33.4528 5.21296C29.7771 1.85564 24.9778 -0.00405731 19.9996 6.64662e-06C14.7801 6.64662e-06 10.0245 2.01132 6.45924 5.29769C5.62854 6.06457 4.86356 6.89971 4.17235 7.79435C1.46444 11.2864 -0.00356497 15.5807 6.50134e-06 19.9996C6.50134e-06 31.0285 8.97235 40 20.0004 40C27.7577 40 34.4925 35.5578 37.8077 29.0855C38.7097 27.3264 39.3433 25.4423 39.6874 23.4957C39.889 22.3597 39.9992 21.1916 39.9992 19.9996C40 19.9305 39.9959 19.8622 39.9951 19.7931ZM36.2308 11.7997L36.3467 11.6697C36.4989 11.965 36.6412 12.2653 36.777 12.5697L36.5878 12.5623L36.2308 12.6116V11.7997ZM33.3409 8.31013L33.3442 7.41677C33.6584 7.74993 33.9611 8.09296 34.2507 8.44834L33.8904 8.98468L32.631 8.97317L32.552 8.71075L33.3409 8.31013ZM9.21502 6.08988V6.05615H9.61564L9.65019 5.91877H10.3058V6.20505L10.1174 6.45677H9.2142L9.21502 6.08988ZM9.85502 6.98242C9.85502 6.98242 10.2556 6.91414 10.2902 6.91414C10.3247 6.91414 10.2902 7.31394 10.2902 7.31394L9.38695 7.3707L9.21502 7.16504L9.85502 6.98242ZM37.505 14.9215H36.0415L35.1498 14.2577L34.2112 14.349V14.9215H33.9142L33.5934 14.6929L31.9679 14.2807V13.2278L29.9081 13.3882L29.2697 13.7312H28.452L28.0514 13.6909L27.0585 14.2421V15.2794L25.0291 16.7437L25.1977 17.3688H25.6091L25.5013 17.9644L25.2117 18.0705L25.1961 19.6269L26.9499 21.6243H27.7133L27.7594 21.5025H29.1315L29.5272 21.1365H30.3054L30.7323 21.5642L31.8922 21.6843L31.7384 23.2267L33.0258 25.4996L32.348 26.7953L32.394 27.4057L32.9279 27.9379V29.4055L33.6288 30.3482V31.5673H34.2342C30.8648 35.7043 25.7366 38.3539 19.9988 38.3539C9.87888 38.3548 1.64525 30.1203 1.64525 19.9996C1.64525 17.4519 2.16844 15.0236 3.11034 12.8165V12.2439L3.76679 11.4468C3.99466 11.0166 4.23898 10.597 4.49975 10.1882L4.52936 10.5213L3.76679 11.4468C3.52903 11.894 3.31084 12.351 3.11116 12.8165V13.8612L3.87373 14.2281V15.68L4.60505 16.9279L5.1998 17.0192L5.27631 16.5915L4.57461 15.5089L4.43723 14.4568H4.84854L5.02211 15.5393L6.03641 17.0192L5.77481 17.4972L6.41975 18.4835L8.02139 18.88V18.6209L8.66222 18.7122L8.60134 19.1696L9.10479 19.2617L9.88216 19.4739L10.9804 20.7251L12.3829 20.8313L12.5203 21.9755L11.5603 22.6468L11.5151 23.6685L11.3777 24.2937L12.7663 26.0319L12.8724 26.6275C12.8724 26.6275 13.3758 26.764 13.4375 26.764C13.4984 26.764 14.5662 27.5727 14.5662 27.5727V30.7142L14.9471 30.8212L14.6879 32.2706L15.3287 33.1254L15.2103 34.5616L16.0568 36.0498L17.1435 36.9991L18.2359 37.0188L18.3428 36.6676L17.54 35.9914L17.586 35.6557L17.73 35.2444L17.7604 34.8249L17.2175 34.8084L16.9436 34.4646L17.3944 34.0311L17.4552 33.7037L16.9518 33.5597L16.9814 33.2553L17.6987 33.1467L18.7895 32.6227L19.1556 31.9515L20.2999 30.4872L20.0399 29.3421L20.3912 28.7326L21.4433 28.7646L22.1516 28.2036L22.3803 25.994L23.1659 24.9962L23.3032 24.3554L22.5867 24.1259L22.1137 23.3501L20.4973 23.3337L19.2156 22.845L19.1548 21.9311L18.727 21.1833L17.5679 21.1661L16.8983 20.1148L16.3036 19.8244L16.2731 20.1452L15.1905 20.2094L14.794 19.6574L13.6646 19.4279L12.7342 20.503L11.2699 20.2546L11.1638 18.6044L10.0952 18.4218L10.5238 17.6123L10.4012 17.1476L8.99702 18.0862L8.11353 17.9784L7.79846 17.2882L7.99096 16.5767L8.47795 15.6792L9.59918 15.1116L11.7643 15.1108L11.7586 15.7713L12.5368 16.1333L12.4751 15.0046L13.0361 14.4403L14.168 13.6967L14.2454 13.1735L15.374 11.9988L16.5742 11.3341L16.4681 11.2469L17.2808 10.4819L17.5786 10.5608L17.7152 10.7319L18.0237 10.3897L18.0993 10.356L17.7612 10.3083L17.4182 10.1939V9.86489L17.6 9.716H18.0006L18.1841 9.79661L18.3428 10.1174L18.537 10.0878V10.0599L18.5929 10.0788L19.1556 9.9924L19.2354 9.71764L19.5562 9.79826V10.096L19.2584 10.3009H19.2592L19.3028 10.6275L20.3221 10.9417L20.3245 10.954L20.559 10.9343L20.5746 10.4926L19.7668 10.1248L19.7207 9.9126L20.3912 9.68391L20.4208 9.04227L19.7199 8.61533L19.6738 7.53358L18.713 8.00576H18.3626L18.4547 7.18232L17.1467 6.87384L16.6055 7.28268V8.52977L15.6323 8.83826L15.2424 9.65101L14.8195 9.71929V8.67949L13.9048 8.55281L13.4474 8.25502L13.2631 7.58129L14.8993 6.62376L15.6997 6.38026L15.7804 6.91826L16.2262 6.89522L16.2608 6.62458L16.7272 6.55795L16.7354 6.46335L16.5347 6.38026L16.4886 6.09399L17.062 6.04546L17.4083 5.68515L17.4273 5.65882L17.4314 5.66047L17.5367 5.55188L18.7418 5.3997L19.2749 5.85214L17.8772 6.59661L19.6557 7.01615L19.8861 6.42139H20.6635L20.9382 5.90314L20.3887 5.76576V5.11013L18.6653 4.34674L17.4758 4.48412L16.8045 4.83538L16.8506 5.68926L16.1489 5.58232L16.0411 5.11013L16.7132 4.49975L15.4933 4.43888L15.1428 4.54499L14.9906 4.9563L15.448 5.03363L15.3567 5.49101L14.5793 5.53708L14.4576 5.84145L13.3298 5.87271C13.3298 5.87271 13.2985 5.23271 13.2533 5.23271L14.1376 5.21708L14.8097 4.56062L14.4428 4.37718L13.955 4.85101L13.1455 4.80494L12.6577 4.13368H11.6204L10.5378 4.94232H11.5299L11.6204 5.23271L11.3629 5.47209L12.4611 5.50253L12.6289 5.89903L11.3925 5.85296L11.3324 5.54777L10.5551 5.37995L10.1429 5.15127L9.21749 5.15867C12.3473 2.87244 16.1237 1.64189 19.9996 1.64525C24.6408 1.64525 28.8814 3.38016 32.1168 6.23055L31.8988 6.62047L31.0523 6.95199L30.6953 7.33944L30.7776 7.79106L31.2144 7.85193L31.4776 8.51003L32.2312 8.20648L32.3554 9.08669H32.1283L31.5097 8.99538L30.8237 9.11055L30.1598 10.0483L29.2105 10.1972L29.0731 11.01L29.4737 11.1046L29.3577 11.6269L28.415 11.4377L27.5504 11.6269L27.367 12.1082L27.5167 13.1184L28.0243 13.3561L28.8757 13.3512L29.4507 13.2993L29.6259 12.842L30.5242 11.6747L31.1157 11.7956L31.6981 11.2691L31.8067 11.6804L33.2397 12.647L33.0645 12.8823L32.4187 12.8477L32.6672 13.1998L33.0645 13.287L33.5301 13.0929L33.5202 12.5318L33.7267 12.4282L33.5605 12.2521L32.6046 11.7191L32.3529 11.0108H33.1476L33.4018 11.2625L34.0862 11.8523L34.115 12.5656L34.8241 13.3207L35.0881 12.2859L35.5792 12.0177L35.6714 12.8642L36.151 13.3906L37.1077 13.3742C37.2928 13.8505 37.4589 14.335 37.6045 14.8294L37.505 14.9215ZM10.9088 9.08669L11.3892 8.858L11.8236 8.96165L11.6738 9.54489L11.2049 9.69378L10.9088 9.08669ZM13.4581 10.4596V10.8372H12.3607L11.9494 10.7229L12.0522 10.4596L12.5795 10.2417H13.3002V10.4596H13.4581ZM13.9632 10.9861V11.3522L13.6884 11.5291L13.3462 11.5924V10.9861H13.9632ZM13.6539 10.8372V10.4021L14.0315 10.7459L13.6539 10.8372ZM13.8258 11.7174V12.0736L13.5634 12.3369H12.9802L13.0715 11.9371L13.3471 11.9132L13.4038 11.7758L13.8258 11.7174ZM12.3731 10.9861H12.9793L12.202 12.0728L11.8811 11.9009L11.9502 11.4435L12.3731 10.9861ZM14.8557 11.5924V11.9478H14.2725L14.1129 11.7174V11.3867H14.159L14.8557 11.5924ZM14.3169 11.1038L14.4831 10.9294L14.7636 11.1038L14.539 11.2888L14.3169 11.1038ZM37.8028 15.8478L37.8604 15.7804C37.8842 15.884 37.9097 15.9877 37.9328 16.093L37.8028 15.8478Z" fill="black"/>
<path d="M3.11108 12.2439V12.8164C3.31098 12.3492 3.53144 11.8935 3.76754 11.4468L3.11108 12.2439Z" fill="black"/>
</g>
<defs>
<clipPath id="clip0_38_113">
<rect width="40" height="40" fill="white"/>
</clipPath>
</defs>
</svg>
