<svg width="640" height="482" viewBox="0 0 640 482" fill="none" xmlns="http://www.w3.org/2000/svg">
<g clip-path="url(#clip0_6_259)">
<path d="M269.046 482C267.288 473.741 266.852 465.602 270.893 457.77C273.416 452.887 277.344 449.319 281.918 446.686C293.368 440.095 298.426 429.767 300.542 417.214C301.409 412.068 303.053 406.916 305.229 402.177C306.449 399.514 309.247 397.361 311.74 395.55C315.674 392.695 317.313 388.857 318.359 383.525C315.471 385.462 313.396 387.147 311.071 388.359C304.111 391.981 297.212 395.778 289.995 398.819C283.18 401.692 277.829 406.37 272.615 411.264C267.079 416.458 260.789 418.563 253.459 417.076C249.483 416.272 246.177 413.825 244.987 409.878C243.929 406.358 245.812 403.413 248.58 401.044C254.009 396.396 260.042 392.779 266.666 390.146C279.885 384.886 293.098 379.62 306.353 374.444C308.189 373.725 310.234 373.563 312.147 373.011C313.074 372.747 313.923 372.189 314.329 371.991C306.963 371.344 299.412 370.51 291.843 370.096C288.411 369.91 284.937 370.666 281.476 370.804C278.391 370.93 275.3 370.744 272.209 370.786C266.708 370.864 261.817 369.316 256.909 366.665C253.686 364.926 249.477 365.046 245.728 364.248C242.147 363.493 238.345 363.181 235.074 361.705C225.413 357.339 221.162 348.972 220.038 338.878C219.679 335.664 220.038 332.281 220.576 329.066C221.574 323.111 226.525 320.166 232.581 320.933C241.268 322.037 248.634 326.085 255.743 330.728C262.188 334.938 269.243 337.553 276.603 339.394C285.051 341.505 292.417 345.728 299.753 350.226C305.337 353.651 311.316 356.427 317.115 359.492C321.145 356.991 325.575 361.232 329.641 358.731C331.865 357.363 333.844 358.551 335.757 359.66C335.996 359.798 336.247 360.086 336.313 360.35C337.108 363.409 339.237 362.695 340.971 361.723C349.987 356.673 358.949 351.533 367.857 346.297C370.075 344.996 371.875 342.963 374.111 341.709C378.236 339.4 382.41 337.055 386.816 335.382C396.292 331.777 405.882 328.455 415.508 325.264C423.311 322.679 431.298 321.881 439.238 324.718C449.743 328.472 452.714 336.869 446.592 346.285C440.972 354.934 433.343 360.866 422.934 363.193C416.387 364.656 410.05 367.127 403.694 369.37C390.953 373.869 378.075 376.634 364.521 373.623C362.674 373.215 360.707 373.359 358.793 373.245C358.734 373.551 358.668 373.857 358.608 374.162C362.249 375.596 365.854 377.143 369.543 378.451C382.978 383.213 395.503 389.588 406.427 398.903C410.295 402.201 412.985 406.118 411.538 411.414C409.828 417.669 404.202 420.872 397.727 418.755C392.789 417.142 388.03 414.647 383.594 411.894C379.068 409.087 375.038 405.464 370.769 402.237C368.551 400.564 366.219 399.029 364.019 397.325C357.974 392.635 351.99 387.873 345.957 383.177C344.235 381.839 342.424 380.61 340.642 379.35C339.045 378.223 337.658 377.725 335.99 379.584C334.46 381.294 334.789 382.391 335.805 384.25C337.419 387.189 338.603 390.416 339.613 393.631C341.036 398.141 343.386 401.614 347.834 403.665C354.788 406.868 357.968 412.595 358.184 420.176C358.375 426.858 358.662 433.533 358.973 440.208C359.314 447.616 362.1 454.165 366.058 460.301C370.344 466.946 371.893 474.635 374.255 482.018H364.091C363.618 478.257 363.373 474.455 362.626 470.754C359.941 457.362 357.09 444.005 354.291 430.636C352.659 422.821 349.335 416.26 341.957 412.181C335.823 408.793 333.318 403.095 333.234 396.204C333.198 393.613 333.204 390.992 332.851 388.437C332.612 386.704 331.997 384.928 331.13 383.417C330.46 382.253 329.288 381.414 327.752 382.883C326.675 383.915 325.199 384.514 323.901 385.312C323.662 385.03 323.423 384.748 323.184 384.466C321.641 391.874 317.588 397.859 312.583 403.203C308.799 407.245 306.288 411.948 304.739 417.142C301.654 427.475 297.098 436.826 290.001 445.174C281.105 455.646 278.223 468.439 278.6 482.024H269.034L269.046 482ZM345.772 368.075C345.814 368.297 345.849 368.525 345.891 368.747C346.949 368.747 348.008 368.723 349.066 368.747C360.701 369.023 372.377 368.783 383.946 369.802C390.2 370.354 395.276 368.747 400.274 365.706C403.162 363.949 405.745 361.651 408.734 360.122C414.468 357.189 420.471 354.796 426.21 351.875C431.824 349.014 437.217 345.716 440.015 339.628C441.558 336.269 440.637 334.02 437.45 332.119C433.57 329.798 429.266 329.09 425.05 329.948C414.055 332.173 403.108 334.674 392.251 337.481C389.758 338.129 387.001 339.964 385.543 342.075C380.018 350.07 372.575 355.48 364.013 359.576C357.962 362.473 351.852 365.25 345.766 368.075H345.772ZM310.527 366.024L310.688 365.298C303.167 363.439 297.493 358.617 291.933 353.723C285.589 348.133 278.175 344.804 270.271 342.117C261.536 339.148 253.011 335.586 244.341 332.425C240.527 331.033 236.653 329.678 232.695 328.868C227.224 327.747 226.393 328.52 225.448 333.948C223.786 343.491 228.103 354.976 241.274 356.278C243.648 356.511 246.099 356.667 248.335 357.405C250.9 358.257 253.615 359.3 255.653 360.998C259.994 364.614 264.4 367.553 270.367 366.857C273.524 366.491 276.681 365.892 279.843 365.862C288.471 365.784 297.104 365.964 305.732 366.03C307.334 366.042 308.936 366.03 310.533 366.03L310.527 366.024ZM347.798 379.015C347.637 379.23 347.476 379.446 347.314 379.662C347.99 380.292 348.635 380.958 349.347 381.546C357.269 388.029 365.322 394.351 373.089 401.014C378.201 405.398 383.701 409.069 389.829 411.756C391.772 412.607 394.056 413.171 396.143 413.063C399.234 412.901 402.75 412.697 404.161 409.105C405.619 405.392 404.776 401.932 401.811 399.305C399.521 397.271 397.064 395.334 394.409 393.829C379.917 385.594 363.236 384.257 347.787 379.015H347.798ZM313.265 381.096C312.823 381.246 312.344 381.324 311.95 381.552C306.64 384.598 300.787 385.33 294.844 386.17C287.096 387.267 279.371 388.809 271.802 390.8C264.801 392.647 258.673 396.486 253.573 401.71C251.875 403.449 249.932 405.536 251.014 408.265C252.09 410.988 254.81 410.784 257.196 410.784C263.581 410.784 269.297 408.565 274.498 405.05C281.757 400.144 289.123 395.502 297.302 392.233C303.418 389.786 308.685 385.954 313.265 381.096Z" fill="#8D0E0E"/>
<path d="M622.99 482C619.977 476.206 617.514 470.023 613.813 464.709C608.3 456.792 601.694 449.661 595.954 441.894C587.106 429.923 583.716 415.99 583.219 401.398C582.831 389.936 583.058 378.439 583.47 366.971C584.015 351.773 581.462 336.935 579.04 322.061C578.466 318.528 577.994 314.972 577.539 311.421C577.462 310.803 577.701 310.144 577.797 309.502C578.101 309.406 578.412 309.316 578.717 309.22C579.1 310.258 579.668 311.259 579.841 312.327C580.9 318.924 581.151 325.75 583.04 332.089C585.467 340.246 585.115 348.421 585.396 356.673C585.97 373.413 586.573 390.17 587.727 406.874C588.845 423.085 595.715 436.91 606.525 448.947C614.333 457.644 621.46 466.868 625.167 478.227C625.561 479.445 625.717 480.74 625.986 481.994H622.996L622.99 482Z" fill="#8D0E0E"/>
<path d="M39.46 482C40.9667 474.173 41.7678 466.124 44.1295 458.567C48.1651 445.642 50.748 432.484 52.99 419.187C54.9451 407.581 57.5578 396.084 59.6863 384.502C60.906 377.839 61.8745 371.122 62.6996 364.392C63.716 356.086 64.1225 347.689 65.414 339.43C67.5424 325.822 67.5723 312.183 67.0581 298.49C66.9864 296.577 67.4946 294.64 67.7278 292.709C68.0566 292.727 68.3794 292.745 68.7083 292.757C68.9056 293.068 69.2703 293.386 69.2643 293.698C69.2344 305.466 69.6111 317.257 69.0072 329C68.1642 345.422 68.0925 361.963 63.9432 378.055C62.1495 385.006 60.2782 391.934 58.5085 398.891C56.0512 408.535 55.2141 418.377 55.256 428.291C55.3038 439.585 52.0693 450.111 48.3565 460.606C45.8753 467.624 43.9979 474.857 41.8515 481.994H39.46V482Z" fill="#8D0E0E"/>
<path d="M0 482C3.82643 473.147 3.39595 463.749 4.01775 454.387C4.5379 446.602 6.54678 438.853 8.51978 431.248C12.119 417.357 16.621 403.701 18.2772 389.342C20.7285 368.033 23.3233 346.735 25.8822 325.438C25.9838 324.598 26.3665 323.794 26.6176 322.967C26.9703 322.985 27.3291 323.009 27.6818 323.027C27.8373 324.4 28.2199 325.792 28.1063 327.141C27.4606 334.896 26.9943 342.687 25.9181 350.382C23.5325 367.469 20.7225 384.496 18.2951 401.584C17.482 407.305 17.8766 413.231 16.7107 418.857C15.1802 426.246 13.0457 433.575 10.4509 440.658C6.95932 450.189 6.14022 460.061 5.26134 470.005C4.90261 474.035 3.77262 478 2.99538 482H0Z" fill="#8D0E0E"/>
<path d="M512.981 482C511.587 474.767 510.224 467.528 508.801 460.307C505.334 442.685 501.095 425.178 498.619 407.419C496.945 395.436 497.561 383.105 497.478 370.93C497.376 356.152 498.04 341.355 495.768 326.661C495.732 326.415 495.923 326.133 496.772 325.588C497.214 326.829 497.944 328.053 498.057 329.324C498.757 337.175 499.558 345.026 499.875 352.895C500.365 365.07 500.503 377.257 500.766 389.438C501.131 406.406 504.263 422.941 507.899 439.459C510.852 452.881 512.969 466.49 515.462 480.015C515.587 480.687 515.797 481.34 515.97 482.006H512.981V482Z" fill="#8D0E0E"/>
<path d="M115.989 482C117.262 476.38 117.944 470.539 119.923 465.183C124.455 452.899 126.386 440.095 128.448 427.302C130.607 413.897 132.598 400.468 134.66 387.051C134.678 386.955 134.66 386.83 134.714 386.758C135.635 385.51 136.562 384.275 137.494 383.033C137.572 384.388 137.793 385.756 137.692 387.105C137.494 389.792 137.237 392.479 136.801 395.136C135.898 400.636 134.929 406.124 133.859 411.588C132.215 419.99 130.409 428.363 128.759 436.766C125.854 451.538 123.014 466.322 120.156 481.106C120.102 481.394 120.162 481.7 120.168 482H115.983H115.989Z" fill="#8D0E0E"/>
<path d="M634.948 482C634.141 476.008 633.597 469.963 632.467 464.037C630.942 456.054 630.027 448.071 630.314 439.933C630.416 436.97 629.902 433.983 629.711 431.008C629.591 429.089 629.394 427.11 631.971 425.85C631.971 427.278 632.024 428.705 631.965 430.126C631.564 439.519 632.951 448.647 636.024 457.506C638.476 464.589 641.124 471.6 639.51 479.343C639.336 480.177 639.647 481.112 639.731 482H634.948Z" fill="#8D0E0E"/>
<path d="M201.485 482C202.322 478.515 203.064 475.001 204.014 471.546C206.113 463.935 206.436 456.168 205.802 448.389C205.001 438.481 205.617 428.693 207.034 418.881C207.638 414.671 207.297 410.334 207.554 406.064C207.632 404.81 208.295 403.593 208.696 402.363C209.078 402.441 209.461 402.513 209.844 402.585C209.892 403.599 210.065 404.625 209.975 405.626C209.144 414.958 208.068 424.267 207.494 433.617C207.207 438.259 207.578 442.985 208.062 447.628C209.24 458.849 208.863 469.921 205.694 480.818C205.587 481.184 205.676 481.604 205.671 482H201.485Z" fill="#8D0E0E"/>
<path d="M427.484 482C428.739 466.952 427.872 451.928 427.095 436.898C426.952 434.133 427.406 431.338 427.585 428.555C428.064 428.531 428.548 428.507 429.026 428.477C429.236 429.713 429.594 430.948 429.636 432.19C430.156 448.029 430.623 463.869 431.137 479.715C431.161 480.483 431.484 481.238 431.669 481.994H427.484V482Z" fill="#8D0E0E"/>
<path d="M302.001 94.4568C301.469 93.803 301.026 93.4851 300.901 93.0653C299.597 88.705 297.188 87.4575 293.487 89.8086C291.275 91.212 290.079 92.2256 287.556 89.7966C286.396 88.681 282.588 89.5927 280.394 90.5463C278.534 91.356 278.415 93.6891 279.174 95.8482C280.388 99.3088 279.772 100.203 276.053 101.252C274.182 101.78 272.561 102.674 273.243 105.007C273.912 107.298 275.503 107.226 277.53 106.614C279.144 106.122 280.956 106.302 282.139 106.224C285.356 103.675 288.208 100.958 291.49 98.943C294.749 96.9458 298.264 97.5935 300.016 99.7227C301.971 102.098 301.804 105.402 299.023 108.407C296.692 110.926 294.199 113.547 291.257 115.173C287.12 117.452 283.108 114.717 282.707 109.979C282.659 109.415 282.516 108.857 282.384 108.101C277.835 109.091 273.614 110.177 271.395 115.82C273.321 115.508 274.69 115.377 276.011 115.047C278.648 114.399 279.586 115.329 278.935 117.985C278.474 119.863 278.086 121.752 277.667 123.635C277.954 123.935 278.247 124.229 278.534 124.529C280.202 123.773 282.044 123.257 283.497 122.202C285.368 120.84 286.791 120.139 288.979 121.824C292.16 124.271 295.406 122.85 298.39 121.068C302.001 118.921 307.633 120.996 308.643 125.525C307.519 124.955 306.796 124.415 305.983 124.223C304.811 123.947 303.34 123.467 302.449 123.935C301.576 124.397 300.703 126.01 300.823 126.994C301.182 129.999 299.514 130.215 297.296 130.365C295.771 130.467 294.007 130.593 292.823 131.408C290.623 132.92 290.797 135.529 292.853 137.568C295.054 139.751 297.852 139.673 299.807 137.304C304.111 132.08 309.486 129.195 316.374 129.339C319.172 129.399 321.133 130.617 322.287 133.106C323.483 135.679 322.418 137.856 320.661 139.619C316.864 143.427 312.53 146.27 306.981 146.936C301.774 147.56 299.287 145.982 298.061 140.597C295.586 142.126 293.039 143.29 292.584 146.648C293.122 146.81 293.403 146.978 293.672 146.96C298.019 146.666 298.055 146.666 297.11 151.05C296.716 152.874 297.409 153.701 299.173 153.821C302.27 154.025 305.188 153.611 307.292 151.014C308.853 149.089 310.461 148.813 312.733 149.947C316.362 151.764 320.583 149.737 321.886 145.761C322.52 143.835 323.471 142.606 325.665 142.084C327.291 141.7 329.103 140.639 330.071 139.313C331.07 137.952 331.769 135.762 331.411 134.209C331.159 133.118 329.007 132.056 327.542 131.762C325.719 131.39 324.894 130.652 324.798 128.895C324.774 128.397 324.702 127.9 324.708 127.402C324.726 124.505 324.039 121.956 320.948 120.99C317.606 119.947 314.801 121.122 312.715 124.199C312.278 124.841 311.991 125.614 311.465 126.16C311.286 126.346 310.252 126.124 310.18 125.908C309.959 125.225 309.797 124.385 310.001 123.725C311.041 120.313 315.112 117.985 319.327 118.273C323.65 118.567 326.394 120.726 326.873 124.943C327.172 127.582 327.787 129.033 330.699 129.549C333.641 130.071 335.076 133.381 334.412 136.758C333.712 140.285 331.5 142.702 328.361 144.075C326.06 145.083 324.463 146.342 323.333 148.717C321.282 153.042 316.326 154.577 311.991 152.412C309.301 151.068 308.578 153.306 306.515 154.961C307.98 155.165 308.769 155.381 309.552 155.363C316.32 155.225 323.094 155.207 329.844 154.769C331.811 154.643 333.7 153.258 335.626 152.466C336.229 152.214 337.186 151.65 337.407 151.86C338.083 152.478 338.962 153.438 338.914 154.211C338.155 165.991 337.198 177.746 325.916 185.057C324.206 186.167 322.556 187.942 319.662 186.437C323.16 181.758 328.941 179.335 330.603 173.53C332.152 168.126 333.784 162.746 335.398 157.27H298.82C300.937 167.178 301.839 177.128 312.392 181.92C313.558 182.448 314.784 183.054 315.674 183.935C316.302 184.559 316.906 185.945 316.619 186.562C316.308 187.216 314.742 187.9 314.054 187.654C306.515 184.967 299.914 180.985 297.158 172.894C295.717 168.66 294.486 164.263 293.924 159.843C293.493 156.484 294.264 152.97 294.503 149.539C289.416 148.681 289.35 148.399 292.716 141.232C292.261 140.83 291.783 140.375 291.269 139.949C286.307 135.822 286.869 131.162 292.74 128.271C293.888 127.708 295.209 127.492 296.399 127.006C296.979 126.772 297.457 126.28 297.983 125.902C297.87 125.668 297.75 125.435 297.636 125.201C297.033 125.315 296.363 125.303 295.825 125.566C292.865 127.006 289.995 127.306 286.994 125.531C286.378 125.165 284.89 125.357 284.399 125.866C281.93 128.409 279.054 128.775 276.25 127.114C273.5 125.489 273.936 122.55 274.409 119.827C274.457 119.551 274.373 119.245 274.349 118.969C266.905 117.404 266.768 116.576 272.741 108.911C272.448 108.575 272.137 108.209 271.814 107.861C268.286 104.083 268.974 100.652 273.578 98.3252C274.385 97.9174 275.425 96.6939 275.329 95.9922C274.887 92.7354 275.413 90.0065 278.301 88.1113C281.577 85.9641 285.147 85.1124 288.752 86.9117C290.247 87.6554 291.125 87.5175 292.465 86.7918C295.801 84.9805 299.436 85.5923 301.977 88.4051C303.519 90.1145 303.687 92.1417 301.983 94.4448L302.001 94.4568ZM310.545 137.178C310.425 136.824 310.299 136.476 310.18 136.122C311.346 135.649 312.482 134.953 313.689 134.779C314.491 134.665 315.902 135.103 316.135 135.667C316.41 136.338 315.991 137.772 315.387 138.24C313.935 139.373 312.272 140.375 310.539 140.986C309.128 141.484 307.101 141.97 306.054 141.316C304.733 140.489 304.123 138.503 303.173 136.956C302.904 137.328 302.336 137.982 301.911 138.713C299.914 142.126 300.907 144.171 304.877 144.705C305.929 144.843 307.179 144.933 308.087 144.507C311.651 142.822 315.244 141.124 318.562 139.013C320.338 137.88 321.336 135.792 320.027 133.519C318.67 131.168 316.344 130.946 314.287 131.87C311.89 132.944 309.708 134.593 307.609 136.218C306.814 136.836 306.509 138.084 305.983 139.049C306.162 139.295 306.347 139.541 306.533 139.781C308.643 139.271 310.76 138.767 312.87 138.257C312.822 137.964 312.775 137.676 312.727 137.382L310.551 137.172L310.545 137.178ZM285.284 107.849C285.541 108.923 285.458 110.74 286.319 111.598C287.138 112.42 289.188 112.852 290.276 112.408C293.864 110.95 296.781 108.395 298.061 104.647C298.432 103.561 297.696 101.252 296.775 100.73C293.894 99.0989 288.423 102.734 288.369 106.056C288.363 106.56 288.656 107.202 289.027 107.538C289.23 107.718 289.966 107.496 290.33 107.256C291.275 106.644 292.148 105.918 293.302 105.049C293.935 107.634 292.704 109.127 291.102 109.313C289.481 109.499 287.729 108.521 285.284 107.843V107.849Z" fill="#8D0E0E"/>
<path d="M430.372 248.488C434.288 250.977 451.829 251.421 455.895 249.184C453.988 248.698 452.774 248.2 451.542 248.122C449.946 248.02 449.366 247.319 449.659 245.837C450.293 242.64 449.928 239.755 447.716 237.135C447.22 236.547 447.28 234.993 447.698 234.208C450.084 229.733 449.862 225.709 446.718 222.716C447.602 219.891 449.546 217.042 448.84 215.249C447.148 210.961 446.801 206.978 447.931 202.618C448.153 201.772 447.256 200.633 446.879 199.631C446.562 198.792 446.251 197.952 445.851 196.896C449.988 197.418 452.529 203.014 450.365 206.499C449.151 208.454 449.288 209.773 450.389 211.639C452.23 214.751 451.602 219.813 449.3 222.326C451.752 226.207 452.469 230.297 450.072 234.58C449.862 234.951 449.874 235.641 450.084 236.013C451.614 238.754 452.696 241.567 452.487 244.811C452.463 245.219 453.79 245.657 454.418 246.173C455.632 247.181 456.792 248.254 457.97 249.304C456.798 250.359 455.781 251.823 454.406 252.369C452.81 253.004 450.885 253.058 449.121 252.968C442.873 252.65 436.625 252.231 430.389 251.673C429.421 251.589 428.542 250.569 427.621 249.981C428.321 249.01 428.817 247.672 429.768 247.151C431.478 246.203 433.457 245.735 434.766 245.267C435.555 241.717 436.261 238.55 437.152 234.544C434.599 231.173 435.143 226.825 438.383 222.356C427.813 222.098 417.487 225.829 407.509 220.329C406.002 221.061 403.886 221.787 402.164 223.046C401.261 223.706 400.633 225.301 400.597 226.495C400.4 233.182 400.448 239.881 400.34 246.575C400.31 248.452 400.029 250.329 399.832 252.596C403.246 253.148 406.678 253.52 410.002 254.324C411.257 254.63 412.561 255.757 413.278 256.879C413.637 257.442 413.039 259.224 412.345 259.746C411.114 260.663 409.529 261.335 408.005 261.587C397.727 263.278 387.545 262.403 377.501 259.926C376.275 259.626 375.367 258.006 374.308 257.005C375.331 255.955 376.198 254.264 377.399 253.982C381.047 253.13 384.831 252.896 388.526 252.243C389.435 252.081 390.959 251.229 390.959 250.695C390.959 242.029 390.798 233.356 390.541 224.689C390.523 224 389.68 222.92 389.016 222.734C384.048 221.319 380.245 217.18 379.791 211.848C379.139 204.201 378.679 196.537 378.398 188.866C378.356 187.792 379.665 185.909 380.634 185.687C384.484 184.817 388.442 184.049 392.364 184.025C397.213 183.989 402.08 184.589 406.905 185.183C409.984 185.561 411.526 187.456 411.395 190.791C411.168 196.477 411.347 202.186 411 207.866C410.815 210.901 409.9 213.888 409.26 217.186C410.863 216.809 412.328 216.461 413.308 216.227C414.45 212.814 415.55 209.695 416.501 206.535C416.704 205.863 416.567 204.927 416.25 204.279C414.617 200.987 414.695 197.76 416.387 194.551C417.015 193.358 416.698 192.494 416.357 191.169C415.634 188.356 415.604 185.117 416.274 182.286C416.74 180.307 417.553 178.825 416.357 176.774C414.791 174.087 415.759 170.123 418.169 168.078C418.641 167.682 419.496 167.736 420.172 167.58C420.16 168.21 420.417 169.073 420.1 169.439C417.864 172.048 418.276 174.675 419.586 177.53C420.022 178.484 420.208 180.025 419.735 180.853C416.507 186.514 416.507 187.456 420.548 192.344C417.176 196.105 416.124 200.099 419.119 204.663C419.496 205.239 419.478 206.601 419.06 207.098C416.339 210.301 416.142 213.918 417.164 217.882C415.197 218.422 413.392 218.914 411.586 219.406C411.64 219.747 411.694 220.089 411.742 220.431C419.664 222.074 427.532 220.599 435.424 220.167C435.483 219.741 435.543 219.31 435.603 218.884C434.174 218.542 432.751 218.182 431.322 217.87C429.367 217.438 428.273 216.743 428.53 214.236C428.727 212.328 427.585 210.313 427.286 208.31C427.059 206.786 426.593 204.777 427.316 203.74C429.188 201.053 428.847 198.606 427.346 196.207C425.899 193.898 425.893 191.864 427.215 189.525C428.578 187.114 428.339 184.733 427.029 182.154C426.342 180.805 426.246 178.43 427 177.212C428.715 174.441 427.86 172.318 426.414 170.027C426.001 169.373 425.445 168.707 425.349 167.994C425.272 167.436 425.792 166.794 426.049 166.188C426.551 166.506 427.149 166.734 427.538 167.154C429.756 169.559 431.358 172.228 430.76 175.701C430.659 176.277 430.635 177.098 430.258 177.362C427.765 179.119 428.841 180.937 430.049 182.76C431.884 185.543 431.502 188.128 429.75 190.845C429.158 191.762 428.739 193.568 429.23 194.293C432.004 198.384 431.394 202.162 428.578 205.995C431.448 208.58 431.896 211.788 430.946 215.459C432.351 215.885 433.534 216.245 434.664 216.593C435.681 214.373 436.709 212.46 437.409 210.433C437.672 209.677 437.439 208.49 436.99 207.794C434.7 204.243 436.045 197.862 439.651 195.913C439.95 195.751 440.667 195.757 440.739 195.901C441.02 196.501 441.486 197.472 441.235 197.784C438.156 201.587 438.329 205.485 440.47 209.629C440.709 210.091 440.117 211.117 439.71 211.753C438.024 214.385 438.001 217.138 439.561 219.675C440.87 221.805 440.553 223.628 439.435 225.541C437.851 228.264 437.6 230.843 439.394 233.686C439.979 234.622 439.633 236.277 439.429 237.554C439.095 239.66 438.09 241.753 438.174 243.816C438.282 246.335 437.331 247.259 435.101 247.552C433.785 247.726 432.488 248.062 430.372 248.488ZM376.73 256.633C376.867 256.945 376.999 257.257 377.136 257.568C388.203 259.332 399.264 261.443 410.504 257.694C407.21 256.381 403.82 255.253 400.418 255.205C397.859 255.169 397.303 254.456 397.387 252.231C397.745 242.574 397.955 232.912 398.481 223.268C398.546 222.11 400.065 220.359 401.219 220.053C405.129 219.01 406.809 216.323 407.228 212.742C407.987 206.229 408.495 199.685 409.057 193.148C409.111 192.536 408.794 191.888 408.603 191.061C400.328 193.112 392.197 192.716 384.132 191.373C381.07 190.863 380.712 191.96 380.957 194.449C381.405 199.014 381.68 203.59 382.117 208.154C382.631 213.492 384.215 217.924 390.051 219.951C391.539 220.467 392.992 223.352 393.094 225.217C393.542 233.866 393.417 242.544 393.704 251.205C393.799 254.114 392.562 254.714 390.009 254.69C386.643 254.654 383.265 254.882 379.911 255.217C378.816 255.325 377.794 256.135 376.736 256.621L376.73 256.633ZM382.033 187.84C390.367 189.681 398.78 190.629 407.252 188.302C398.923 185.879 390.493 187.576 382.033 187.84Z" fill="#8D0E0E"/>
<path d="M44.255 257.616C44.8648 257.934 45.6421 258.102 46.0546 258.588C51.9856 265.461 59.752 269.786 67.5902 273.894C89.2454 285.224 112.276 292.751 135.892 298.754C156.375 303.966 177.056 308.063 198.048 310.348C229.634 313.79 261.291 316.369 293.098 316.687C301.666 316.771 310.228 317.065 318.789 317.305C331.614 317.665 344.432 318.049 357.251 318.456C359.236 318.522 361.227 318.714 363.188 319.014C363.851 319.116 364.437 319.746 365.059 320.136L364.832 320.981C363.917 321.041 362.996 321.143 362.082 321.149C357.323 321.161 352.563 321.149 347.804 321.149C335.972 321.149 324.134 321.359 312.302 321.101C293.487 320.694 274.666 320.274 255.88 319.272C244.867 318.684 233.926 316.909 222.943 315.764C205.718 313.97 188.41 312.831 171.28 310.378C148.699 307.139 126.571 301.639 104.946 294.214C85.2337 287.443 66.6815 278.464 49.9648 265.881C48.1472 264.514 46.509 262.87 44.9784 261.185C44.2789 260.411 44.0398 259.218 43.5914 258.216C43.8126 258.018 44.0338 257.82 44.249 257.622L44.255 257.616Z" fill="#8D0E0E"/>
<path d="M464.552 186.766C465.318 186.682 466.107 186.43 466.848 186.532C487.619 189.327 507.934 194.077 527.868 200.549C540.076 204.513 552.447 207.986 564.542 212.262C573.677 215.489 582.036 220.299 589.001 227.346C596.564 235.005 601.036 243.858 600.695 254.822C599.607 289.914 603.35 324.466 612.91 358.251C616.3 370.222 621.215 381.755 625.137 393.583C627.552 400.858 629.489 408.301 631.456 415.72C631.959 417.609 631.911 419.691 631.785 421.67C631.731 422.593 630.9 423.469 630.105 424.213C629.908 409.704 622.996 397.397 618.106 384.61C609.694 362.623 602.83 340.282 599.643 316.903C597.413 300.536 596.546 284.09 597.437 267.579C597.586 264.796 598.041 262.031 598.184 259.254C598.274 257.556 598.83 255.625 596.612 254.54C596.229 254.354 596.158 253.064 596.301 252.357C597.73 245.357 594.776 239.582 590.896 234.31C583.584 224.366 572.936 219.058 561.965 214.391C539.879 204.999 516.723 199.181 493.382 194.041C484.539 192.092 475.673 190.275 466.824 188.374C466.023 188.2 465.258 187.888 464.475 187.642C464.499 187.354 464.522 187.066 464.546 186.778L464.552 186.766Z" fill="#8D0E0E"/>
<path d="M376.544 318.319C377.519 318.151 378.488 317.851 379.462 317.839C401.608 317.551 423.562 315.314 445.444 311.949C465.336 308.89 484.958 304.692 504.329 299.288C530.6 291.953 555.711 281.721 579.638 268.592C584.822 265.749 589.563 262.313 592.857 257.203C593.395 256.363 594.196 255.691 594.872 254.942C595.177 255.133 595.476 255.331 595.781 255.523C595.332 256.447 594.998 257.455 594.412 258.282C586.819 269.048 576.338 276.053 564.583 281.481C543.568 291.185 521.931 299.126 499.57 305.106C480.402 310.234 460.923 313.658 441.295 316.447C421.523 319.26 401.59 319.074 381.722 320.184C380.018 320.28 378.284 319.806 376.562 319.602L376.538 318.325L376.544 318.319Z" fill="#8D0E0E"/>
<path d="M314.473 311.427C300.261 311.127 288.297 311.073 276.615 308.093C273.948 307.415 271.306 306.293 268.938 304.89C258.445 298.67 258.84 285.236 269.5 278.038C279.395 271.357 290.617 268.442 302.073 266.205C319.471 262.804 337.001 261.743 354.656 263.86C364.605 265.054 374.255 267.393 383.229 271.981C387.33 274.08 390.517 277.319 392.645 281.427C395.085 286.129 392.914 292.343 388.012 296.121C378.201 303.684 366.751 306.971 354.806 308.278C340.666 309.826 326.436 310.534 314.479 311.433L314.473 311.427ZM314.227 308.093C317.611 308.093 321.001 308.225 324.379 308.069C337.796 307.451 351.272 307.169 364.342 303.564C371.911 301.477 379.51 299.378 385.776 294.214C391.001 289.914 392.723 284.006 389.237 279.568C387.318 277.121 384.401 275.112 381.525 273.84C369.059 268.31 355.75 266.529 342.274 266.043C325.276 265.425 308.488 267.213 292.016 271.513C283.825 273.648 275.742 276.149 269.04 281.745C264.233 285.763 263.091 290.741 265.662 296.463C267.928 301.507 272.603 303.175 277.261 304.53C289.332 308.039 301.768 308.392 314.233 308.093H314.227Z" fill="#8D0E0E"/>
<path d="M194.508 246.917C194.508 237.818 194.478 229.158 194.532 220.491C194.544 218.668 194.06 217.492 192.176 216.899C188.559 215.759 186.485 213.18 185.498 209.503C183.172 200.885 183.782 192.086 183.89 183.336C183.902 182.136 185.355 180.301 186.526 179.905C189.307 178.957 192.326 178.232 195.237 178.262C201.27 178.322 207.315 178.772 213.323 179.383C216.08 179.665 217.084 181.536 216.803 184.517C216.229 190.671 216.187 196.872 215.709 203.044C215.189 209.743 212.935 215.297 205.509 217.06C205.025 217.174 204.463 218.224 204.445 218.854C204.224 227.532 204.044 236.211 204.038 244.889C204.038 245.429 205.551 246.293 206.46 246.449C210.155 247.085 213.939 247.295 217.58 248.128C218.818 248.41 219.745 250.083 220.809 251.115C219.721 252.159 218.776 253.844 217.514 254.144C207.482 256.531 197.324 257.892 187.059 255.757C184.625 255.253 181.385 254.69 181.678 251.295C181.947 248.164 185.115 248.56 187.375 248.134C189.91 247.66 192.457 247.265 194.514 246.917H194.508ZM218.226 251.193C217.784 250.791 217.592 250.461 217.359 250.425C213.598 249.856 209.838 248.968 206.065 248.884C201.635 248.782 201.402 248.908 201.461 244.626C201.569 236.559 201.778 228.492 201.808 220.425C201.82 216.941 203.046 214.571 206.448 213.3C209.491 212.16 211.679 210.079 212.05 206.577C212.714 200.333 213.395 194.096 214.065 187.852C214.274 185.891 213.563 185.243 211.482 185.489C206.944 186.029 202.376 186.521 197.814 186.568C194.006 186.61 190.185 185.999 186.156 185.657C185.618 194.12 185.803 202.432 188.936 210.391C189.396 211.555 190.586 212.976 191.68 213.234C195.399 214.092 197.264 215.951 196.619 219.909C196.541 220.377 196.78 220.893 196.798 221.385C197.115 229.949 197.444 238.514 197.695 247.079C197.743 248.626 197.234 249.322 195.214 249.412C191.578 249.568 187.985 250.539 183.973 251.247C187.543 255.091 210.938 254.744 218.208 251.199L218.226 251.193ZM212.881 182.388C209.186 180.283 190.066 180.649 187.812 182.898C196.254 184.643 204.403 184.295 212.881 182.388Z" fill="#8D0E0E"/>
<path d="M577.007 230.213C570.772 228.69 564.595 226.765 558.282 225.709C537.003 222.14 515.808 222.236 495.074 228.948C491.008 230.261 487.206 232.744 483.649 235.221C478.68 238.67 478.901 242.58 483.822 246.143C488.587 249.598 494.249 250.575 499.785 251.637C520.651 255.637 541.398 254.63 561.959 249.478C567.399 248.116 572.553 245.993 576.888 242.257C580.027 239.552 580.666 236.949 579.297 232.984C579.178 232.636 579.184 232.252 579.686 231.401C580.302 232.061 581.139 232.618 581.497 233.398C583.405 237.512 582.293 242.61 578.131 244.967C572.81 247.978 567.256 251.037 561.409 252.572C542.235 257.604 522.684 258.582 503.062 255.607C497.394 254.75 491.804 253.16 486.309 251.475C483.918 250.743 481.532 249.28 479.714 247.546C475.242 243.282 475.242 237.59 480.121 233.476C483.475 230.651 487.487 228.216 491.612 226.777C508.73 220.797 526.439 219.753 544.387 221.337C554.653 222.242 564.637 224.438 574.407 227.64C575.537 228.012 576.523 228.828 577.575 229.434C577.39 229.691 577.205 229.949 577.019 230.207L577.007 230.213Z" fill="#8D0E0E"/>
<path d="M429.056 145.341C430.425 145.671 431.43 145.91 432.434 146.156C432.422 146.48 432.416 146.804 432.404 147.128C426.719 148.274 421.057 149.965 414.982 146.36C416.166 146.024 417.344 145.689 418.97 145.221C418.97 145.215 419.131 144.567 419.149 143.913C419.592 125.95 420.184 107.987 420.387 90.0185C420.53 77.2496 420.16 64.4686 420.01 51.6936C419.957 47.0995 419.849 42.5113 419.849 37.9171C419.849 35.494 419.341 33.011 421.732 31.0618C422.958 30.0662 421.906 25.1301 420.943 23.5407C420.148 22.2213 419.395 20.5539 419.478 19.0845C419.789 13.5427 420.363 8.00686 421.063 2.49503C421.176 1.58939 422.42 0.821692 423.143 -0.00598145C423.681 0.85168 424.536 1.65536 424.71 2.585C425.511 6.8973 426.438 11.2336 426.671 15.5939C426.802 18.0169 425.744 20.5239 425.08 22.959C424.255 25.9878 423.054 28.9446 425.236 31.9434C425.72 32.6092 425.905 33.6168 425.941 34.4744C426.605 51.0219 427.34 67.5754 427.819 84.1289C428.357 102.787 428.656 121.458 429.05 140.123C429.086 141.808 429.05 143.493 429.05 145.341H429.056ZM423.861 34.0006C423.036 34.1266 420.967 144.567 421.039 145.029C421.601 145.077 422.187 145.137 422.773 145.179C426.91 145.437 426.952 145.437 426.91 141.238C426.814 131.852 426.766 122.46 426.521 113.079C425.923 90.6243 425.236 68.1691 424.542 45.714C424.423 41.8095 424.094 37.9051 423.867 34.0006H423.861ZM422.468 6.21357C421.415 11.4855 421.092 16.7634 422.097 22.3832C425.074 19.7802 425.284 10.5679 422.468 6.21357Z" fill="#8D0E0E"/>
<path d="M173.756 241.735C173.146 241.735 172.494 241.885 171.932 241.711C155.036 236.595 137.716 234.07 120.114 234.4C107.493 234.64 94.8536 235.749 83.0156 240.877C81.0426 241.735 79.0935 242.892 77.4912 244.32C73.4196 247.942 73.5213 253.184 78.0651 256.291C81.21 258.444 84.8272 260.333 88.5041 261.209C110.548 266.463 132.777 268.112 154.982 262.355C160.196 261.005 165.164 258.372 169.935 255.757C173.57 253.766 174.694 250.107 173.833 245.933C173.708 245.321 174.138 244.596 174.318 243.924C174.826 244.296 175.496 244.56 175.812 245.051C177.971 248.416 177.606 252.608 174.694 255.433C169.463 260.519 162.85 263.062 156.005 264.916C141.781 268.772 127.366 269.342 112.79 267.207C105.908 266.199 98.9192 265.881 92.0495 264.814C86.2501 263.92 80.5762 262.307 75.8291 258.51C68.2181 252.422 70.8248 243.594 77.8439 239.498C84.0499 235.869 90.8239 233.848 97.8669 232.954C120.712 230.057 143.354 230.651 165.553 237.53C167.729 238.202 169.905 238.892 172.04 239.69C172.775 239.965 173.379 240.601 174.043 241.069L173.774 241.729L173.756 241.735Z" fill="#8D0E0E"/>
<path d="M447.567 174.903C449.247 175.251 450.496 175.509 451.746 175.767C447.064 178.76 436.595 178.622 434.054 175.989C435.113 175.713 436.015 175.473 436.96 175.227C437.062 174.987 437.265 174.717 437.271 174.441C437.869 148.789 438.371 123.131 439.071 97.4796C439.376 86.216 439.991 74.9525 440.661 63.7009C440.828 60.93 441.815 58.2131 442.293 55.4481C442.413 54.7524 442.269 53.7868 441.851 53.259C439.543 50.3442 439.322 47.0874 439.944 43.6088C440.643 39.6864 441.223 35.7459 441.994 31.8415C442.144 31.0977 442.951 30.492 443.459 29.8203C444.129 30.456 445.307 31.0378 445.384 31.7395C446.042 37.7611 446.646 43.8007 446.897 49.8524C446.951 51.1358 445.079 52.4133 444.87 53.8108C444.529 56.1319 443.878 59.3526 445.055 60.7381C446.957 62.9812 446.664 65.1343 446.628 67.3834C446.443 78.3651 445.737 89.3528 445.904 100.322C446.197 119.893 447.016 139.451 447.543 159.015C447.686 164.377 447.567 169.745 447.567 174.903ZM444.099 63.407C443.71 63.383 443.328 63.353 442.939 63.329C442.718 64.4746 442.371 65.6081 442.299 66.7657C442.156 69.2547 442.186 71.7557 442.084 74.2447C441.594 86.4139 440.984 98.5831 440.607 110.758C440.201 123.833 439.997 136.92 439.728 150.001C439.579 157.288 439.417 164.581 439.453 171.868C439.453 173.002 440.26 174.879 441.05 175.089C442.526 175.491 444.26 174.921 445.683 174.777C445.402 169.835 445.038 165.283 444.906 160.719C444.541 147.944 444.105 135.163 444.009 122.382C443.913 108.509 444.147 94.6307 444.302 80.7582C444.332 77.8733 444.792 74.9884 444.762 72.1036C444.733 69.2067 444.332 66.3159 444.099 63.419V63.407ZM443.955 35.8119C441.498 40.3521 441.665 49.7504 444.344 52.0355C445.534 46.3737 444.882 41.0958 443.955 35.8119Z" fill="#8D0E0E"/>
<path d="M158.958 146.27C156.304 148.891 153.057 148.178 150.14 148.357C147.252 148.543 144.316 147.938 141.399 147.686C141.369 147.176 141.333 146.66 141.303 146.15C142.511 145.91 143.718 145.671 145.446 145.329C145.446 143.649 145.398 141.502 145.452 139.361C145.972 118.693 146.72 98.0253 146.965 77.3575C147.12 64.4806 146.492 51.5916 146.283 38.7087C146.241 36.1178 145.554 33.4308 148.053 31.2357C149.434 30.0242 148.645 25.1481 147.491 23.6307C146.857 22.803 146.415 21.7114 146.229 20.6798C145.081 14.3583 146.026 8.15678 147.616 2.03319C147.814 1.26549 148.812 0.707714 149.44 0.0479736C149.942 0.695718 150.761 1.28349 150.893 1.99721C151.814 6.99923 152.728 12.0133 153.326 17.0633C153.5 18.5327 152.938 20.284 152.202 21.6215C150.199 25.238 149.308 28.7227 152.005 32.3812C152.262 32.7351 152.208 33.3468 152.238 33.8386C152.692 42.5112 153.296 51.1838 153.559 59.8684C154.265 83.1212 154.845 106.374 155.425 129.633C155.52 133.525 155.514 137.43 155.341 141.322C155.221 143.925 155.227 146.162 158.964 146.27H158.958ZM149.954 33.7667C149.518 33.8087 149.087 33.8566 148.651 33.8986C148.172 70.916 150.056 107.969 146.869 144.963C148.298 145.101 149.314 145.065 150.259 145.323C152.597 145.952 153.404 144.969 153.254 142.75C153.213 142.156 153.266 141.55 153.254 140.95C152.352 106.212 151.455 71.4738 150.528 36.7295C150.504 35.7339 150.157 34.7503 149.96 33.7607L149.954 33.7667ZM149.428 6.27352C147.234 9.46426 147.288 20.0441 149.338 22.4132C152.549 16.8653 149.787 11.5454 149.428 6.27352Z" fill="#8D0E0E"/>
<path d="M249.071 248.938C251.982 249.568 254.392 250.023 256.771 250.635C257.806 250.899 258.936 251.289 259.707 251.979C260.442 252.632 261.249 253.82 261.13 254.642C261.01 255.457 259.88 256.555 259.007 256.759C256.12 257.443 253.124 258.288 250.219 258.15C243.48 257.826 236.766 257.011 230.058 256.267C229.257 256.177 228.043 255.397 227.918 254.756C227.774 254.024 228.426 252.59 229.078 252.333C231.499 251.373 234.04 250.677 236.581 250.077C237.681 249.82 238.895 250.035 240.413 250.035C240.413 248.29 240.485 246.923 240.401 245.561C239.869 236.799 239.349 228.036 238.697 219.286C238.632 218.392 237.944 217.246 237.197 216.749C232.372 213.57 229.616 209.293 229.442 203.404C229.323 199.325 228.958 195.253 228.85 191.181C228.802 189.279 228.121 188.386 226.184 188.572C224.701 188.716 223.212 188.872 221.724 188.908C221.156 188.92 220.576 188.62 220.002 188.464C220.504 187.996 220.958 187.216 221.526 187.12C223.182 186.838 224.892 186.706 226.572 186.742C228.163 186.772 228.599 186.077 228.701 184.613C229.042 179.563 230.285 177.932 235.457 177.596C241.699 177.194 247.994 177.248 254.248 177.554C256.55 177.668 258.87 179.401 258.84 182.046C258.732 190.707 258.421 199.373 257.949 208.022C257.704 212.52 254.625 215.441 251.05 217.558C249.208 218.65 249.011 219.813 249.035 221.667C249.136 230.729 249.083 239.791 249.083 248.938H249.071ZM257.13 182.748C253.836 183.216 251.486 183.732 249.124 183.852C244.282 184.097 239.409 184.457 234.596 184.121C231.9 183.935 231.14 184.529 231.373 187.036C231.846 192.2 232.593 197.364 232.611 202.534C232.629 207.902 234.901 211.657 239.068 214.625C239.809 215.153 240.724 216.053 240.772 216.833C241.472 227.388 242.069 237.95 242.602 248.518C242.715 250.785 241.436 251.913 239.104 252.051C236.724 252.195 234.357 252.56 232.001 252.944C231.403 253.04 230.877 253.592 230.315 253.934C239.875 256.075 249.16 256.387 258.463 254.066C256.419 253.064 254.338 252.572 252.233 252.213C246.727 251.271 246.757 251.295 246.775 245.963C246.805 237.272 246.823 228.582 246.775 219.897C246.763 218.014 247.295 216.719 249.071 215.813C252.76 213.93 255.277 210.781 255.671 206.738C256.436 198.936 256.658 191.079 257.13 182.748ZM233.119 181.093C240.222 183.444 247.122 181.213 254.081 180.349C247.056 179.809 239.983 178.04 233.119 181.093Z" fill="#8D0E0E"/>
<path d="M42.2701 255.931C41.5167 254.552 40.7634 253.166 39.8487 251.493C39.4361 252.153 39.0595 252.506 38.9817 252.914C36.1956 268.13 33.3676 283.34 30.719 298.586C29.8282 303.69 29.4515 308.884 28.7102 314.018C28.5906 314.828 27.8014 315.542 27.3231 316.297C26.8328 315.44 25.8523 314.528 25.936 313.73C26.6714 306.887 27.2992 300.008 28.5248 293.242C31.281 278.026 34.5156 262.9 37.2718 247.684C39.3345 236.301 45.672 228.174 54.4907 221.031C68.7143 209.515 84.9826 203.098 102.614 199.817C113.155 197.856 123.851 196.716 134.487 195.325C135.169 195.235 135.982 196.129 136.735 196.561C136.149 196.962 135.611 197.616 134.977 197.736C122.661 199.979 110.231 201.713 98.0403 204.507C89.5683 206.451 81.1561 209.234 73.1984 212.736C63.0404 217.21 54.0722 223.712 46.5628 232.109C41.1999 238.106 39.5617 244.656 42.5571 252.249C42.9636 253.28 43.0772 254.426 43.3223 255.517L42.2701 255.931Z" fill="#8D0E0E"/>
<path d="M311.441 99.6867C312.81 105.289 310.012 108.983 306.467 112.438C305.863 113.025 305.833 114.189 305.481 115.059C304.99 116.264 304.446 117.446 303.561 118.465C302.874 114.501 302.503 110.83 306.353 108.185C307.471 107.418 308.033 105.498 308.38 103.999C309.181 100.544 308.38 99.3748 304.996 98.3133C303.506 97.8454 302.768 96.5799 302.784 94.5168C305.684 95.5963 308.291 96.568 310.808 97.5036C311.023 96.0042 311.328 93.941 311.639 91.7698C309.181 90.0365 308.368 87.8714 309.373 85.3524C310.323 82.9653 312.852 81.4059 315.656 81.9457C317.456 82.2876 317.94 81.5079 318.801 80.1944C320.075 78.2512 321.641 76.3379 323.501 74.9885C326.454 72.8473 328.314 73.4111 330.651 76.6258C333.963 75.5462 337.365 74.6406 340.851 76.6258C344.062 78.4551 344.785 81.4959 342.208 84.0809C340.941 85.3524 341.222 86.0481 342.657 86.7438C344.935 87.8474 346.525 89.9466 345.951 92.1837C345.491 93.965 343.368 95.3204 341.951 96.8378C341.252 97.5876 340.164 98.1273 339.799 98.997C337.605 104.203 333.36 105.642 328.523 102.859C327.315 102.164 325.539 101.462 324.391 101.852C320.135 103.297 316.386 102.644 312.793 100.161C312.5 99.9566 312.105 99.9086 311.447 99.6807L311.441 99.6867ZM327.273 75.4623C324.941 77.3035 322.658 78.2632 321.797 79.9545C320.087 83.3252 318.299 85.6223 314.156 84.3208C313.982 84.2668 313.671 84.2908 313.582 84.4047C312.811 85.3944 312.081 86.414 311.334 87.4216C312.231 87.9074 313.103 88.705 314.036 88.783C315.035 88.873 316.32 88.5671 317.091 87.9493C322.687 83.4811 329.097 83.9429 335.542 84.7826C337.497 85.0345 340.247 83.727 340.522 81.7898C340.833 79.5886 339.165 78.803 337.413 78.617C335.99 78.4611 334.406 78.4731 333.079 78.9469C330.251 79.9485 327.781 80.6622 327.261 75.4743L327.273 75.4623ZM314.347 93.869C313.552 96.6159 313.881 97.9114 316.033 98.5952C317.773 99.1469 319.961 99.6507 321.54 99.069C324.983 97.7915 327.56 98.7631 330.382 100.622C333.031 102.362 335.847 101.3 336.457 98.3612C336.941 96.0462 338.352 95.4584 340.187 94.6847C341.467 94.1449 343.386 92.6215 343.266 91.8058C343.063 90.4504 341.443 89.3108 340.038 87.6195C338.083 96.1721 321.187 101.114 314.347 93.875V93.869ZM322.951 88.831L323.112 89.9046C324.2 90.1625 325.282 90.6183 326.37 90.6123C327.435 90.6063 328.481 90.0005 329.557 89.9046C330.071 89.8566 330.639 90.3724 331.177 90.6363C330.807 91.0201 330.454 91.7219 330.053 91.7459C327.548 91.9138 324.971 92.2796 322.544 91.8598C321.259 91.6379 320.218 89.9645 318.538 88.4891C317.94 90.1385 317.038 91.434 317.223 92.5435C317.348 93.3112 318.933 94.2349 319.967 94.3788C324.888 95.0565 329.713 94.6307 334.125 92.0877C334.95 91.6139 335.602 90.7622 336.194 89.9825C337.21 88.6451 337.066 87.3316 335.243 87.1757C332.618 86.9537 329.94 86.9537 327.321 87.2296C325.82 87.3856 324.403 88.2732 322.945 88.831H322.951Z" fill="#8D0E0E"/>
<path d="M277.793 142.912C277.41 145.023 277.087 146.366 276.932 147.728C276.537 151.278 276.065 154.631 280.399 156.682C282.319 157.594 283.526 160.131 284.878 162.062C285.218 162.548 285.123 163.783 284.728 164.221C284.357 164.635 283.15 164.767 282.618 164.473C281.266 163.723 280.023 162.746 278.875 161.702C278.211 161.103 277.817 160.203 276.992 158.967C276.992 162.968 276.932 166.272 277.057 169.571C277.075 170.051 278.056 170.447 278.468 170.975C280.896 174.069 283.359 177.146 285.631 180.355C286.055 180.955 285.667 182.13 285.655 183.042C284.65 182.904 283.401 183.102 282.695 182.568C281.177 181.422 279.939 179.905 278.588 178.538C278.283 178.718 277.978 178.897 277.679 179.077C278.313 181.381 279.228 183.654 279.521 185.999C280.154 191.079 280.752 196.201 280.788 201.311C280.8 203.542 278.845 203.908 277.308 202.078C276.465 201.077 275.664 199.661 275.64 198.414C275.557 194.473 275.933 190.521 275.969 186.574C275.993 184.109 275.718 181.638 275.575 179.173C275.294 179.173 275.013 179.173 274.738 179.173C274.176 180.577 273.727 182.04 272.998 183.354C272.633 184.013 271.712 184.853 271.138 184.793C270.457 184.715 269.47 183.834 269.333 183.156C269.034 181.728 268.86 180.103 269.261 178.748C269.937 176.48 270.696 174.015 272.155 172.24C275.264 168.474 274.026 164.419 273.422 160.197C272.669 161.726 272.095 163.388 271.102 164.737C270.433 165.643 269.159 166.105 268.155 166.764C267.706 165.541 266.588 164.071 266.929 163.136C268.035 160.107 269.004 156.472 271.264 154.535C275.234 151.14 273.739 146.714 275.455 143.026C275.198 142.828 274.935 142.636 274.678 142.438C273.901 142.9 273.165 143.595 272.328 143.763C271.282 143.967 270.152 143.733 269.064 143.691C269.106 142.702 268.747 141.232 269.261 140.801C271.485 138.917 273.948 137.316 276.346 135.643C277.362 134.935 278.474 134.359 279.479 133.639C280.716 132.752 281.888 131.774 283.084 130.838C283.311 131.12 283.538 131.396 283.766 131.678C282.737 132.95 281.703 134.221 280.68 135.493C279.419 137.064 279.556 138.347 280.944 139.961C282.474 141.742 283.64 143.883 284.716 145.994C285.075 146.696 284.662 147.788 284.609 148.699C283.55 148.477 282.163 148.591 281.506 147.956C280.19 146.684 279.269 144.999 277.793 142.942V142.912Z" fill="#8D0E0E"/>
<path d="M360.485 170.237C361.077 174.231 361.783 178.214 362.225 182.226C362.584 185.477 362.787 188.77 362.68 192.026C362.656 192.728 361.053 193.808 360.091 193.91C359.439 193.981 358.064 192.686 358.01 191.93C357.801 188.914 357.927 185.873 358.028 182.844C358.136 179.671 358.357 176.504 358.524 173.332L357.598 173.14C357.329 173.356 357.072 173.584 356.785 173.775C355.828 174.423 354.859 175.053 353.891 175.689C353.383 174.393 352.259 172.96 352.504 171.838C352.988 169.661 353.885 167.358 355.284 165.667C356.898 163.711 357.107 161.852 356.671 159.597C356.223 157.288 355.87 154.967 354.865 152.472C354.232 153.833 353.795 155.333 352.91 156.502C352.217 157.42 350.979 157.918 349.981 158.601C349.574 157.6 348.671 156.496 348.863 155.627C349.443 152.958 350.1 150.193 351.362 147.806C353.365 144.009 353.179 141.73 349.568 138.533C349.227 140.165 349.108 141.754 348.528 143.14C348.175 143.973 347.075 145.053 346.364 145.017C345.634 144.981 344.414 143.751 344.367 142.99C344.223 140.447 344.062 137.742 344.749 135.349C345.515 132.686 344.731 131.87 342.34 131.606C341.497 131.516 340.678 131.186 339.853 130.97C339.853 130.61 339.841 130.251 339.835 129.891C341.192 129.819 342.657 129.381 343.876 129.759C345.521 130.269 346.728 130.401 348.277 129.345C349.532 128.493 351.254 128.032 352.779 127.996C353.753 127.972 354.758 129.039 355.744 129.621C355.176 130.497 354.794 131.666 353.998 132.182C352.982 132.842 351.625 132.98 350.214 133.405C351.846 136.308 353.311 139.061 354.949 141.712C355.284 142.258 356.27 142.396 356.946 142.732C359.511 143.997 362.243 145.023 364.551 146.654C365.496 147.32 366.243 149.581 365.825 150.601C365.059 152.46 363.224 151.806 361.717 150.984C360.689 150.427 359.619 149.947 358.004 149.155C358.196 151.02 358.273 152.442 358.5 153.833C358.77 155.507 359.403 157.15 359.457 158.823C359.541 161.318 360.737 162.494 362.877 163.651C364.952 164.773 366.685 166.716 368.21 168.588C368.718 169.211 368.527 171.334 367.953 171.712C367.116 172.264 365.561 172.144 364.479 171.796C363.439 171.46 362.614 170.477 361.693 169.775C361.287 169.931 360.886 170.087 360.479 170.249L360.485 170.237Z" fill="#8D0E0E"/>
<path d="M327.459 211.998C333.73 212.316 340.223 211.657 345.592 216.257C348.516 218.758 349.359 226.495 347.224 229.751C347.117 229.913 347.045 230.171 346.896 230.231C343.29 231.767 339.691 233.314 336.062 234.789C333.629 235.779 331.058 236.469 328.72 237.644C321.779 241.141 314.688 241.669 307.322 239.3C303.645 238.118 299.962 236.925 296.225 235.959C290.42 234.454 288.076 226.885 291.658 220.929C294.282 216.563 298.545 214.763 303.143 213.522C305.313 212.934 307.543 212.544 309.719 212.076C310.102 211.021 310.473 210.007 310.987 208.598C311.609 209.294 311.968 209.521 312.069 209.833C312.607 211.465 312.404 213.93 314.813 213.858C317.576 213.78 320.35 213.114 323.058 212.466C323.931 212.256 324.631 211.291 325.677 210.967C325.079 214.116 322.903 215.855 320.242 216.911C316.804 218.272 313.253 217.102 310.431 214.23C307.418 215.501 304.62 216.857 301.714 217.876C295.891 219.927 292.626 224.677 293.397 230.771C293.523 231.755 294.743 232.996 295.741 233.386C297.947 234.244 300.333 234.628 302.868 235.263C303.944 228.774 306.12 222.974 312.308 220.005C312.631 220.245 312.954 220.485 313.277 220.731C312.541 221.583 311.86 222.506 311.053 223.28C307.788 226.411 306.455 230.255 307.023 234.676C307.143 235.581 308.123 236.901 308.942 237.105C314.981 238.616 320.984 238.298 326.801 235.989C327.62 235.665 328.553 234.915 328.876 234.136C330.155 231.005 327.943 224.593 325.145 222.65C324.32 222.074 323.608 221.343 322.592 220.461C328.05 219.358 331.979 224.659 332.385 233.506C334.609 232.726 336.702 232.091 338.711 231.263C344.725 228.798 345.544 227.352 343.703 221.073C343.272 219.597 341.682 218.002 340.235 217.378C337.904 216.377 335.225 216.221 332.738 215.549C330.771 215.015 328.864 214.236 326.932 213.564C327.112 213.042 327.291 212.526 327.47 212.004L327.459 211.998Z" fill="#8D0E0E"/>
<path d="M358.614 120.99C355.804 120.558 353.419 120.714 351.571 119.785C349.012 118.495 347.996 113.253 349.473 110.315C350.71 107.849 352.324 105.576 353.43 103.771C351.786 101.498 349.777 99.5728 348.851 97.2217C347.583 93.995 350.22 92.4356 352.169 91.5599C352.558 88.4651 352.468 85.7242 353.293 83.2892C354.847 78.683 359.236 77.6754 362.739 80.9561C364.091 82.2216 364.808 82.3595 366.428 81.214C368.36 79.8465 370.703 78.5151 373.184 80.8122C373.699 81.286 375.032 81.0581 375.941 80.8901C380.168 80.1104 383.863 84.0269 382.583 88.1952C382.117 89.7126 382.452 90.4084 383.576 91.44C386.637 94.2409 387.36 97.9594 386.499 101.864C385.68 105.576 383.014 107.849 379.57 109.073C378.804 109.343 377.68 108.611 376.718 108.341C377.334 107.736 377.842 106.908 378.577 106.56C384.395 103.837 385.405 97.4016 380.502 93.3652C379.038 92.1597 378.882 91.0021 379.235 89.2028C379.546 87.6075 379.534 85.4963 378.691 84.3028C378.225 83.643 375.761 84.5187 374.201 84.4767C373.394 84.4527 372.102 84.1468 371.887 83.619C370.697 80.6502 368.945 81.5499 367.57 83.0793C366.01 84.8186 364.874 86.9417 363.576 88.915C363.284 89.3648 363.08 89.8686 362.841 90.3544L361.837 90.1325C362.142 88.4651 362.452 86.7978 362.775 85.0465C359.355 81.8797 357.382 81.6278 356.121 84.5727C355.505 86.0061 355.392 87.9194 355.738 89.4547C356.36 92.1837 356.743 94.1509 353.078 94.9366C350.28 95.5363 351.553 97.8454 352.444 99.2489C353.233 100.502 354.519 101.594 355.828 102.338C357.974 103.555 357.424 104.287 356.091 105.912C354.327 108.059 352.593 110.566 351.912 113.199C350.931 116.99 353.257 118.885 356.988 117.722C359.427 116.96 360.474 117.254 360.988 120.055C361.783 124.373 364.15 125.806 367.104 123.899C368.371 123.077 368.874 121.056 369.866 119.329C371.576 119.443 374.141 120.325 374.733 117.194C375.116 115.185 375.092 113.091 375.265 110.836C375.899 110.962 376.509 110.89 376.778 111.16C379.103 113.505 377.555 120.451 374.53 121.902C373.238 122.52 371.809 123.275 370.978 124.379C369.041 126.964 366.381 127.678 363.588 127.252C360.82 126.826 359.23 124.709 358.835 121.83C358.77 121.356 358.566 120.906 358.596 121.002L358.614 120.99Z" fill="#8D0E0E"/>
<path d="M146.959 192.416C143.431 196.087 143.019 199.469 145.028 204.19C145.47 205.233 145.117 206.715 144.866 207.944C144.352 210.499 143.204 213.018 143.186 215.555C143.168 217.744 142.965 218.686 140.609 218.626C139.677 218.602 138.732 219.28 137.883 220.131C145.912 221.745 153.822 221.211 161.726 220.149L161.888 219.124C159.448 218.398 157.009 217.678 154.408 216.904C155.227 213.348 155.329 210.301 153.129 207.476C152.639 206.846 152.955 205.065 153.517 204.231C155.401 201.443 155.114 198.798 153.547 196.093C152.316 193.958 152.376 192.074 153.35 189.639C154.169 187.6 153.996 184.751 153.254 182.61C152.531 180.523 152.166 178.778 153.338 177.002C155.024 174.459 154.331 172.234 152.68 170.141C151.58 168.743 150.905 167.502 152.663 165.889C155.532 168.576 157.84 171.376 157.027 175.605C156.872 176.426 156.19 177.158 156.053 177.98C155.849 179.185 155.407 180.763 155.951 181.614C158.115 184.997 158.127 188.068 155.748 191.307C155.251 191.984 154.893 193.46 155.269 193.976C158.253 198.036 158.02 201.928 155.777 204.633C156.477 208.358 157.302 211.021 157.362 213.702C157.404 215.453 157.912 215.963 159.395 216.245C160.752 216.509 162.217 216.719 163.371 217.402C164.285 217.942 165.314 219.154 165.32 220.071C165.32 220.749 163.795 221.943 162.874 222.026C156.848 222.566 150.809 222.95 144.765 223.19C142.6 223.274 140.328 223.124 138.266 222.518C136.938 222.128 135.916 220.719 134.75 219.765C136.018 218.656 137.243 217.492 138.576 216.473C138.983 216.161 139.695 216.257 139.599 216.275C140.765 212.814 141.829 209.791 142.774 206.727C142.989 206.031 142.995 205.083 142.696 204.441C140.98 200.831 141.117 197.352 143.049 193.874C143.342 193.346 143.533 192.368 143.252 191.978C140.621 188.392 141.375 184.877 142.965 181.147C143.449 180.007 143.371 178.094 142.708 177.098C140.878 174.339 142.642 169.847 144.962 167.634C145.273 167.34 146.002 167.49 146.534 167.43C146.588 167.988 146.911 168.773 146.66 169.067C144.101 172.042 144.615 175.041 146.199 178.25C146.552 178.969 146.337 180.283 145.895 181.033C142.815 186.299 142.923 188.236 146.965 192.422L146.959 192.416Z" fill="#8D0E0E"/>
<path d="M565.702 241.135C560.907 236.781 554.79 235.605 548.805 234.592C534.57 232.18 520.448 233.17 506.589 237.272C504.724 237.824 503.026 238.946 501.25 239.803L501.346 241.261C504.018 242.035 506.649 243.12 509.381 243.528C520.849 245.231 532.382 245.399 543.933 244.566C547.598 244.302 551.251 243.858 554.91 243.51C555.944 243.414 556.985 243.378 558.025 243.318C558.12 243.6 558.21 243.882 558.306 244.164C557.481 244.596 556.698 245.279 555.825 245.417C540.459 247.858 525.052 249.742 509.525 247.037C506.446 246.503 503.313 245.495 500.557 244.038C496.933 242.119 496.928 238.202 500.676 236.781C506.494 234.574 512.526 232.63 518.637 231.593C530.923 229.506 543.233 230.045 555.257 233.608C558.372 234.532 561.343 236.031 564.225 237.566C565.265 238.124 565.845 239.552 566.634 240.583L565.702 241.135Z" fill="#8D0E0E"/>
<path d="M96.5097 254.258C99.4034 254.684 102.297 255.085 105.179 255.535C118.38 257.58 131.575 256.507 144.747 255.349C147.252 255.127 149.751 254.078 152.112 253.07C155.162 251.769 155.449 249.244 152.555 247.57C149.5 245.795 146.176 244.194 142.768 243.372C132.556 240.901 122.213 241.405 111.899 242.898C108.354 243.414 104.85 244.176 101.323 244.806C97.4185 245.501 94.3633 247.193 93.4067 251.433C93.3648 251.607 93.1974 251.775 93.048 251.901C92.9045 252.021 92.7012 252.069 92.5218 252.147C90.9195 250.089 91.7087 246.455 94.5666 244.752C96.8385 243.402 99.3855 242.31 101.956 241.711C117.507 238.094 133.082 237.518 148.555 242.173C151.748 243.132 154.492 244.907 156.334 247.882C158.342 251.133 157.894 253.784 154.402 255.223C150.953 256.651 147.282 258.108 143.623 258.366C130.804 259.272 117.944 259.626 105.149 257.844C102.793 257.515 100.474 256.909 98.1658 256.315C97.4304 256.123 96.7907 255.565 96.1031 255.169C96.2347 254.87 96.3662 254.564 96.4977 254.264L96.5097 254.258Z" fill="#8D0E0E"/>
<path d="M321.223 28.7766C319.668 29.1665 318 29.3164 316.583 30.0002C314.395 31.0617 312.882 31.1517 311.944 28.4828C311.37 26.8514 310.066 26.8754 309.277 28.1829C308.279 29.8382 308.111 32.2433 306.784 33.3948C305.528 34.4804 303.238 34.3664 301.409 34.7803C302.037 36.9394 302.527 38.6068 303.029 40.3461C300.895 40.484 298.97 40.4301 297.116 40.7779C294.856 41.2037 293.164 42.7391 293.308 45.0842C293.397 46.4997 294.348 48.197 295.448 49.1386C297.248 50.674 297.266 52.3174 296.745 54.2426C295.789 57.7752 296.602 58.7228 300.297 58.321C300.889 58.255 301.534 58.255 302.055 58.0211C304.596 56.8696 305.385 58.1591 305.851 60.4382C306.449 63.377 307.316 63.6049 309.45 61.4758C310.281 60.6481 310.999 59.6525 311.567 58.6209C313.145 55.73 313.558 55.5981 316.248 57.4693C316.559 57.6853 316.924 57.8292 318.096 58.435C318.67 54.5425 319.19 51.0399 319.836 46.6736C320.643 47.9511 321.456 48.6408 321.39 49.2406C321.073 52.2394 320.756 55.2742 319.991 58.1771C319.495 60.0603 318.018 61.0319 315.764 60.2043C315.208 60.0003 314.144 60.816 313.486 61.3678C312.29 62.3694 311.376 63.7849 310.072 64.5705C307.19 66.3099 304.691 65.4522 303.723 62.3874C303.179 60.6661 302.21 60.4202 300.823 60.822C295.789 62.2914 293.08 58.8668 293.774 53.6129C293.9 52.6772 293.356 51.3577 292.668 50.662C288.381 46.3137 289.918 39.6863 295.801 37.8571C297.433 37.3473 298.527 37.0114 298.671 34.8223C298.742 33.7667 300.62 32.1893 301.857 31.9974C303.717 31.7035 304.691 31.4816 305.367 29.3944C305.887 27.781 307.579 26.3776 309.044 25.28C310.832 23.9426 312.5 24.2184 313.689 26.4796C314.006 27.0793 315.31 27.4512 316.135 27.4152C317.594 27.3492 319.022 26.6775 320.475 26.6475C322.532 26.5995 323.65 27.7091 324.003 29.9042C324.212 31.1937 324.947 32.6091 325.88 33.5328C328.409 36.0278 329.581 38.9426 329.198 42.4153C328.899 45.1022 324.039 47.1354 321.844 45.546C321.468 45.2701 321.109 44.4965 321.235 44.1126C321.378 43.6688 322.018 43.2309 322.526 43.093C323.883 42.7271 326.191 44.6464 326.382 41.5816C326.556 38.7447 325.36 36.5616 322.652 35.386C322.562 35.3441 322.466 35.3141 322.371 35.2781C320.427 34.5584 319.519 33.5088 321.031 31.5056C321.414 31.0018 321.504 30.2821 321.731 29.6643C321.563 29.3704 321.402 29.0705 321.235 28.7766H321.223Z" fill="#8D0E0E"/>
<path d="M263.091 66.0519C262.493 65.2003 261.53 64.4086 261.375 63.479C261.004 61.3378 260.837 59.1187 260.986 56.9595C261.046 56.1199 262.068 54.8064 262.828 54.6684C264.896 54.2906 265.53 52.8332 266.559 51.3577C267.623 49.8343 269.207 48.3229 270.899 47.6692C274.056 46.4457 275.246 47.4293 276.316 50.722C276.561 51.4897 277.577 52.4133 278.349 52.5393C284.561 53.5229 286.354 56.7136 283.287 62.1535C282.163 64.1447 282.121 65.5541 283.652 67.1735C286.456 70.1303 285.673 73.495 284.345 76.7038C283.21 79.4507 280.83 80.5362 277.888 80.7462C277.081 80.8061 275.999 81.6638 275.634 82.4375C273.171 87.6974 271.7 88.3092 266.421 86.192C265.733 85.9161 264.526 85.9581 264.012 86.3959C261.883 88.1892 259.767 89.4787 257.052 87.6794C254.697 86.12 253.322 82.5095 254.236 79.4147C254.75 77.6754 254.703 76.6738 253.31 75.2763C251.438 73.3991 251.384 70.7481 253.136 68.7329C253.985 67.7553 255.779 67.5753 257.178 67.1315C257.369 67.0715 257.746 67.5813 257.997 67.7913C257.931 68.1031 257.955 68.397 257.841 68.463C253.357 71.1799 253.411 71.126 256.945 75.3183C257.507 75.984 257.417 77.3035 257.411 78.3171C257.399 79.5826 256.831 80.9201 257.088 82.0956C257.794 85.3344 259.581 85.9641 262.188 83.9429C264.101 82.4615 265.811 81.8017 268.107 83.3071C269.937 84.5067 271.545 83.8589 272.364 81.7238C272.681 80.8901 273.04 80.0564 273.243 79.1928C273.667 77.4415 274.439 76.086 276.495 76.6378C278.875 77.2735 280.674 76.182 281.368 74.2927C281.894 72.8713 281.703 70.6581 280.902 69.3806C278.941 66.2379 278.492 63.509 280.83 60.3542C282.396 58.237 281.631 56.4737 279.03 55.9999C276.256 55.4961 273.907 55.0223 273.554 51.4717C273.422 50.0982 272.005 49.6664 270.821 50.818C270.05 51.5677 269.315 52.4253 268.801 53.367C267.79 55.2082 267.079 57.1635 264.376 57.1934C263.94 57.1934 263.133 59.0407 263.175 60.0063C263.246 61.8416 263.808 63.6529 264.167 65.4762C263.808 65.6741 263.45 65.866 263.097 66.0639L263.091 66.0519Z" fill="#8D0E0E"/>
<path d="M256.335 121.224C255.516 121.944 255.025 122.406 254.505 122.826C251.157 125.53 247.851 124.481 247.134 120.181C246.685 117.494 247.05 114.675 247.05 111.922C242.344 110.602 241.298 108.395 243.08 103.579C243.325 102.925 243.409 102.128 243.839 101.642C246.458 98.6911 248.096 95.9082 244.084 92.6394C243.439 92.1117 243.696 89.9465 244.12 88.741C244.993 86.27 250.111 84.2907 252.514 85.3223C253.112 85.5802 253.543 86.234 254.428 87.0556C252.144 87.3075 250.368 87.1516 248.927 87.7754C247.725 88.2912 246.44 89.6046 246.135 90.8042C245.974 91.4459 247.654 92.9213 248.772 93.4491C252.108 95.0265 252.443 96.0281 249.824 98.5951C247.104 101.258 245.465 104.365 244.999 108.797C246.811 108.083 248.108 107.466 249.465 107.082C250.147 106.89 251.343 106.842 251.6 107.214C251.994 107.789 251.97 108.833 251.791 109.601C251.151 112.384 250.225 115.107 249.746 117.907C249.603 118.735 250.583 119.755 251.05 120.684C251.934 120.211 252.879 119.821 253.68 119.239C254.386 118.723 254.84 117.865 255.558 117.374C256.969 116.408 258.2 116.564 258.84 118.357C259.205 119.389 259.42 120.48 259.874 121.464C261.471 124.931 263.832 125.399 266.672 122.868C266.971 122.604 267.174 122.118 267.503 122.034C268.173 121.866 268.896 121.902 269.596 121.86C269.47 122.484 269.566 123.317 269.189 123.695C265.142 127.768 261.166 129.063 257.74 123.623C257.327 122.969 256.957 122.292 256.335 121.218V121.224Z" fill="#8D0E0E"/>
<path d="M360.366 104.155C360.545 101.948 360.725 100.562 360.766 99.1709C360.958 93.1673 364.898 90.0905 369.633 87.5835C371.977 86.3419 373.938 87.0617 374.811 89.2508C375.923 92.0457 377.148 95.1165 377.017 98.0133C376.778 103.351 374.721 108.269 370.918 112.246C367.176 116.15 362.656 115.065 361.251 109.835C360.689 107.748 360.569 105.54 360.366 104.161V104.155ZM363.553 100.97C363.122 101.036 362.698 101.108 362.267 101.174C362.698 104.149 362.895 107.178 363.642 110.075C364.162 112.096 366.488 112.552 368.294 111.382C373.011 108.323 376.168 97.2876 373.812 92.0817C372.395 88.9449 369.788 88.633 367.702 91.4579C364.904 95.2544 365.071 99.5307 366.261 103.777C366.811 105.732 368.455 105.756 369.179 104.005C369.974 102.08 370.057 99.8546 370.446 97.7614C370.141 97.7075 369.836 97.6595 369.531 97.6055C369.119 98.7391 368.706 99.8666 368.234 101.174C366.632 98.7571 366.823 94.9665 368.724 93.815C369.46 93.3712 371.397 93.6471 371.863 94.2828C373.89 97.0177 372.521 104.605 369.866 106.776C367.582 108.641 365.221 107.885 364.408 104.965C364.043 103.657 363.834 102.308 363.553 100.976V100.97Z" fill="#8D0E0E"/>
<path d="M264.992 266.907C263.27 271.429 262.403 276.587 259.647 280.347C253.471 288.78 249.979 298.406 245.71 307.709C244.838 309.604 244.018 311.061 241.525 310.138C238.835 309.136 238.123 307.793 239.391 305.184C246.189 291.203 253.011 277.229 259.898 263.29C260.323 262.433 261.357 261.875 262.104 261.179C262.738 262.001 263.569 262.738 263.958 263.668C264.322 264.55 264.221 265.623 264.322 266.613C264.544 266.709 264.771 266.805 264.992 266.901V266.907ZM262.63 265.653C262.248 265.503 261.865 265.347 261.483 265.197C260.628 266.793 259.731 268.358 258.924 269.978C253.172 281.571 247.414 293.158 241.764 304.8C241.376 305.598 241.854 306.809 241.926 307.835C242.673 307.121 243.654 306.539 244.132 305.681C248.831 297.213 250.685 287.281 257.447 279.844C258.613 278.56 259.42 276.809 259.982 275.136C261.022 272.029 261.764 268.82 262.63 265.653Z" fill="#8D0E0E"/>
<path d="M393.512 268.976C396.908 270.115 396.167 275.741 400.83 276.023C399.162 272.982 397.626 270.175 396.083 267.375C396.496 267.129 396.914 266.889 397.327 266.643C398.768 268.94 400.215 271.237 401.972 274.044C403.312 269.678 399.993 267.674 398.69 264.058C400.089 264.67 400.998 264.832 401.59 265.359C404.699 268.124 405.452 272.287 403.868 276.293C403.497 277.229 403.497 278.422 403.676 279.436C405.195 288.048 410.229 294.952 414.839 302.041C415.221 302.635 416.375 303.043 417.105 302.965C417.547 302.917 418.001 301.801 418.205 301.093C418.354 300.571 418.288 299.828 418.007 299.372C414.695 293.962 411.353 288.564 407.945 283.214C406.887 281.553 405.595 280.048 404.412 278.464C404.651 278.236 404.89 278.014 405.129 277.786C405.607 277.96 406.313 277.984 406.534 278.32C410.911 284.966 415.335 291.581 419.514 298.346C421.134 300.973 420.381 303.414 418.199 304.56C416.315 305.55 414.032 304.53 412.549 302.059C409.733 297.363 406.863 292.703 404.119 287.97C403.33 286.609 402.714 285.08 402.367 283.55C401.787 280.947 401.165 279.142 398.188 277.666C395.617 276.395 394.331 272.503 392.478 269.774C392.819 269.504 393.16 269.234 393.5 268.964L393.512 268.976Z" fill="#8D0E0E"/>
<path d="M389.913 102.458C394.559 104.905 396.663 109.229 395.778 114.945C395.168 118.915 392.143 120.75 388.544 121.488C386.87 121.83 386.655 122.592 386.918 123.959C387.049 124.643 387.157 125.339 387.223 126.028C387.838 132.728 385.531 134.731 378.81 133.351C378.529 133.291 378.23 133.297 377.615 133.244C376.634 137.148 375.408 141.136 370.117 140.513C367.534 140.207 365.699 137.658 365.549 133.423C366.255 134.113 366.907 134.869 367.678 135.475C368.933 136.452 370.865 138.383 371.445 138.048C372.868 137.226 373.77 135.403 374.697 133.861C375.074 133.232 374.966 132.308 375.062 131.516C375.271 129.723 376.311 129.147 377.985 129.471C378.183 129.507 378.38 129.543 378.565 129.603C384.61 131.552 385.112 131.114 384.448 123.935C384.036 119.449 383.761 119.473 388.036 118.255C392.496 116.984 393.973 113.115 391.784 108.821C390.822 106.926 388.598 105.349 389.913 102.458Z" fill="#8D0E0E"/>
<path d="M236.844 48.8088C242.117 55.2982 243.038 62.8432 243.247 70.6042C243.325 73.4531 243.492 76.2959 243.624 79.1268C240.479 78.9769 234.56 72.1576 233.041 66.2679C231.517 60.3482 233.526 50.9319 236.844 48.8088ZM237.322 53.1091L236.192 53.331C235.887 58.1411 233.645 63.0172 236.981 67.6953C237.161 66.2379 236.796 64.8045 236.814 63.377C236.826 62.4474 237.4 61.5298 237.723 60.6001C238.225 61.3198 238.733 62.0336 239.235 62.7533C239.481 63.1071 239.726 63.461 239.971 63.8209C240.204 63.7249 240.437 63.6229 240.67 63.527C239.552 60.0543 238.44 56.5817 237.322 53.1091Z" fill="#8D0E0E"/>
<path d="M381.286 79.8346C382.529 78.8329 383.976 78.0053 384.963 76.7937C386.164 75.3243 387.623 73.627 387.856 71.8817C388.98 63.359 395.013 58.1471 400.418 52.5513C402.074 50.836 403.605 51.5317 403.509 53.7628C403.162 61.7397 402.134 69.5786 394.965 74.7126C393.369 75.8521 391.228 76.212 389.375 77.0097C388.131 77.5434 386.942 78.2092 385.74 78.8269C384.454 79.4867 383.181 80.1644 381.895 80.8302C381.692 80.5003 381.489 80.1644 381.286 79.8346ZM401.189 55.1543C396.191 58.0152 389.919 67.8753 391.45 70.8621C392.837 68.6969 394.05 66.6697 395.402 64.7325C396.173 63.6289 397.165 62.6873 398.056 61.6737C397.745 63.0652 397.668 64.5766 397.07 65.8301C395.916 68.2291 394.463 70.4842 393.136 72.8053L393.847 73.1532C399.198 68.463 401.022 62.3035 401.195 55.1603L401.189 55.1543Z" fill="#8D0E0E"/>
<path d="M287.042 45.9779C286.097 43.9027 284.872 41.9055 284.286 39.7343C283.407 36.4716 281.494 34.7323 278.313 33.7967C273.536 32.3932 270.074 29.1305 267.306 25.0761C266.182 23.4327 265.022 21.8194 263.892 20.188C262.601 18.3168 263.24 16.9673 265.53 16.6914C273.344 15.7498 280.944 20.9017 283.144 28.4588C284.537 33.2389 286.193 37.947 287.7 42.6971C287.987 43.5968 288.106 44.5444 288.303 45.4741C287.879 45.642 287.46 45.8159 287.036 45.9839L287.042 45.9779ZM271.096 23.0129C274.845 21.7414 276.346 25.208 279 26.0177C277.745 21.4235 271.76 18.4667 266.804 19.7802C267.982 24.8602 275.491 31.4276 280.531 30.6299C277.47 28.1589 274.409 25.6879 271.096 23.0129Z" fill="#8D0E0E"/>
<path d="M289.344 37.3473C288.997 36.3997 288.465 35.482 288.333 34.5104C287.945 31.5956 287.843 28.6327 287.395 25.7299C286.127 17.4831 290.193 11.8334 296.231 7.13122C297.403 6.21958 298.641 5.37991 299.944 4.66619C302.718 3.14879 303.998 3.97046 303.848 7.26916C303.507 15.1141 299.52 21.0997 293.469 25.538C290.946 27.3852 290.336 29.2985 290.492 32.0154C290.587 33.6708 290.51 35.3381 290.51 36.9994C290.121 37.1194 289.732 37.2333 289.344 37.3533V37.3473ZM291.753 22.827C292.04 23.025 292.327 23.2229 292.608 23.4208C297.923 19.3604 301.277 14.1724 301.66 7.1672C296.447 7.35313 288.985 16.3496 290.055 20.9618C291.604 18.4667 293.152 15.9777 294.701 13.4827C295.137 13.7106 295.58 13.9445 296.016 14.1724C294.593 17.0573 293.17 19.9482 291.753 22.833V22.827Z" fill="#8D0E0E"/>
<path d="M327.608 31.6195C327.769 30.8458 327.746 30.5519 327.859 30.486C332.02 28.0689 331.572 24.1465 331.249 20.224C330.753 14.2444 333.987 9.54822 336.827 4.80409C338.029 2.79488 339.464 3.16073 340.905 5.43984C344.235 10.7058 343.512 19.7742 339.016 24.0985C336.325 26.6835 333.109 28.7227 330.071 30.9238C329.503 31.3316 328.648 31.3376 327.614 31.6135L327.608 31.6195ZM333.904 21.8314C336.122 18.4427 335.59 13.8065 338.824 10.8797C339.022 12.8889 338.824 14.7362 338.43 16.5415C338.041 18.3408 337.455 20.0981 336.959 21.8794C341.563 18.1548 342.071 11.6534 338.442 6.75332C335.608 11.4795 333.342 16.1816 333.904 21.8314Z" fill="#8D0E0E"/>
<path d="M209.3 394.692C209.156 394.357 208.863 394.009 208.893 393.697C209.515 387.273 210.37 380.862 210.747 374.42C210.992 370.162 210.627 365.862 210.412 361.585C209.826 349.944 210.89 338.495 214.172 327.285C214.418 326.451 214.956 325.702 215.362 324.916C215.613 324.988 215.864 325.06 216.115 325.132C216.115 325.834 216.277 326.577 216.092 327.225C212.749 339.082 212.409 351.12 212.845 363.379C213.174 372.591 212.002 381.857 211.386 391.094C211.303 392.359 210.573 393.583 210.149 394.83L209.3 394.686V394.692Z" fill="#8D0E0E"/>
<path d="M242.859 85.5023C238.237 87.0497 239.044 90.1684 239.385 93.6231C240.096 100.766 236.952 106.632 231.941 111.49C230.184 113.199 228.539 112.672 228.402 110.476C228.079 105.204 227.684 99.9446 229.717 94.8166C231.182 91.116 233.227 88.2012 237.131 86.8397C237.938 86.5578 238.524 85.7002 239.313 85.3163C240.15 84.9085 241.107 84.7466 242.01 84.4827C242.291 84.8245 242.578 85.1604 242.859 85.5023ZM236.736 94.6067C235.397 97.8054 233.974 99.3648 232.467 99.2848C233.095 96.8858 233.705 94.5287 234.488 91.5419C231.062 94.4148 229.113 105.42 230.931 108.587C234.847 105.774 237.86 98.907 236.736 94.6067Z" fill="#8D0E0E"/>
<path d="M364.282 79.3367C363.074 78.8629 362.572 78.8329 362.423 78.581C358.542 72.1456 353.693 66.1599 354.429 57.8352C354.853 53.0251 356.856 49.0487 359.606 45.3421C361.203 43.189 362.165 44.6944 362.644 46.2658C364.085 50.9919 364.706 55.826 363.702 60.7321C363.26 62.8792 362.859 65.1163 361.908 67.0476C360.163 70.5682 360.964 73.543 363.032 76.5058C363.451 77.1056 363.648 77.8553 364.294 79.3307L364.282 79.3367ZM358.799 54.9923C359.044 55.0703 359.296 55.1483 359.541 55.2322V65.4102C362.721 62.4534 363.122 51.0159 360.18 47.4293C358.626 51.2678 357.209 54.7764 355.786 58.285C356.097 58.423 356.408 58.5669 356.719 58.7049C357.412 57.4693 358.106 56.2338 358.793 54.9923H358.799Z" fill="#8D0E0E"/>
<path d="M343.284 50.9259C344.665 50.6441 345.885 50.2422 347.129 50.1882C347.882 50.1582 348.659 50.668 349.425 50.9319C349.126 51.7176 349.054 52.8212 348.492 53.229C347.326 54.0747 345.891 54.5545 344.265 55.3282C344.6 55.922 344.869 56.6357 345.329 57.1695C346.668 58.7169 346.274 60.1983 345.048 61.4278C343.619 62.8552 342.561 61.6977 341.592 60.6061C340.558 59.4426 339.625 58.7289 338.214 60.3662C337.581 61.1039 336.271 61.2659 335.273 61.6857C335.099 60.5042 334.866 59.3286 334.777 58.1351C334.747 57.6973 335.058 57.2295 335.255 56.6717C334.812 56.4138 334.454 56.2698 334.173 56.0359C333.425 55.4062 332.708 54.7404 331.984 54.0927C332.792 53.205 333.497 51.7176 334.436 51.5557C336.791 51.1479 338.645 50.758 338.507 47.7412C338.489 47.3214 339.619 46.4157 340.098 46.4937C340.971 46.6376 341.987 47.1654 342.495 47.8671C343.021 48.5929 343.009 49.7084 343.296 50.9139L343.284 50.9259Z" fill="#8D0E0E"/>
<path d="M386.493 82.0956C387.324 81.8557 388.137 81.4839 388.98 81.4059C390.463 81.2619 391.964 81.3759 393.447 81.232C404.436 80.1824 408.429 85.3583 412.931 93.9949C413.38 94.8586 413.601 95.8842 413.721 96.8618C413.984 99.0389 413.177 100.119 410.803 99.4828C404.304 97.7494 399.192 93.9469 396.316 87.9793C394.505 84.2248 391.91 83.3251 388.365 83.2652C387.803 83.2532 387.241 83.0852 386.679 82.9833L386.493 82.0836V82.0956ZM411.437 97.6415C410.803 92.1237 406.594 86.168 402.893 85.5383C404.071 86.9597 405.075 88.1772 406.456 89.8386C402.199 90.8222 401.757 85.4243 398.23 85.8741C400.812 91.9257 405.308 95.3984 411.443 97.6415H411.437Z" fill="#8D0E0E"/>
<path d="M299.095 49.2586C299.275 48.6948 299.424 47.1954 300.171 46.1158C303.394 41.4436 306.904 37.0294 312.476 34.9002C317.002 33.1729 320.296 35.6739 319.698 40.454C318.945 46.4757 309.247 54.9203 303.155 54.8603C300.536 54.8364 299.071 53.109 299.101 49.2586H299.095ZM302.772 46.1158C302.455 46.7875 301.893 47.4533 301.857 48.149C301.792 49.4505 301.624 51.0698 302.288 51.9575C302.694 52.4913 304.841 52.2994 305.774 51.7296C308.948 49.7863 312.189 47.8071 314.897 45.2941C316.446 43.8547 317.241 41.4256 317.94 39.3025C318.49 37.6471 317.588 36.3876 315.627 36.3576C311.956 36.2977 306.945 40.538 305.893 45.3061C308.374 44.1846 310.371 43.2849 312.697 42.2353C311.525 46.2957 306.981 47.9211 302.766 46.1158H302.772Z" fill="#8D0E0E"/>
<path d="M239.552 82.6354C238.386 82.7613 237.227 82.9533 236.061 82.9892C233.855 83.0612 232.611 83.9489 231.128 85.8921C229.006 88.669 225.807 90.8102 222.698 92.5915C220.109 94.0729 217 94.6367 213.467 95.8242C214.507 89.8925 216.947 85.6822 221.156 82.5454C225.149 79.5646 234.207 79.2467 239.469 81.7657C239.499 82.0536 239.522 82.3475 239.552 82.6354ZM216.875 92.2736C221.472 91.7578 224.97 90.0485 227.493 86.3659C225.969 86.9357 224.45 87.5055 222.925 88.0692L222.256 87.0916C223.487 85.9581 224.725 84.8185 226.052 83.595C221.849 83.0312 218.352 86.9057 216.875 92.2736Z" fill="#8D0E0E"/>
<path d="M269.303 68.2831C270.038 66.9636 270.774 65.6381 271.706 63.9708C272.376 65.2903 272.573 65.4942 272.531 65.6261C271.395 69.3447 269.458 71.186 267.509 70.4123C265.733 69.7105 265.118 66.2979 266.397 63.341C267.683 60.3722 269.721 57.9971 273.081 57.6133C274.068 57.4993 275.784 58.447 276.184 59.3406C278.612 64.7985 274.014 75.8581 268.579 78.1132C265.662 79.3247 263.055 78.2392 262.379 75.1264C261.955 73.1772 262.302 71.06 262.302 69.0148C262.804 68.9728 263.3 68.9308 263.802 68.8889C264.143 70.4123 264.514 71.9297 264.813 73.4591C265.303 75.9661 266.349 76.4879 268.4 75.2044C272.268 72.7873 275.162 64.2527 273.655 59.7185C269.482 60.5881 267.856 63.1191 269.303 68.2771V68.2831Z" fill="#8D0E0E"/>
<path d="M430.12 400.3C430.12 405.788 430.15 411.276 430.085 416.764C430.073 417.531 429.6 418.287 429.343 419.049C428.829 418.335 428.022 417.675 427.878 416.896C427.651 415.648 427.956 414.317 427.878 413.027C427.711 410.376 427.28 407.737 427.251 405.086C427.221 402.423 427.239 399.688 427.789 397.103C429.798 387.621 429.349 378.283 426.814 368.975C426.611 368.219 427.023 367.289 427.149 366.443C427.603 367.169 428.279 367.841 428.47 368.633C429.194 371.619 429.953 374.624 430.348 377.665C430.856 381.6 431.244 385.576 431.292 389.54C431.334 393.121 430.85 396.714 430.599 400.3H430.126H430.12Z" fill="#8D0E0E"/>
<path d="M382.613 54.0927C383.857 54.9143 384.945 55.6341 386.027 56.3478C385.136 57.3194 384.251 58.285 383.073 59.5745C382.996 59.4126 383.342 59.8084 383.354 60.2223C383.402 61.4518 383.749 63.0112 383.145 63.8088C382.727 64.3666 380.574 64.3546 379.839 63.7789C378.308 62.5673 377.16 61.6917 375.259 63.1011C374.829 63.419 373.507 62.9752 372.945 62.4834C372.646 62.2195 372.945 61.0319 373.244 60.3842C373.603 59.5865 374.243 58.9148 374.733 58.225C373.226 54.9203 373.232 54.9443 376.909 53.9187C377.411 53.7808 377.776 53.199 378.254 52.8931C379.211 52.2754 380.197 51.7116 381.172 51.1238C381.674 52.1674 382.176 53.205 382.607 54.0987L382.613 54.0927Z" fill="#8D0E0E"/>
<path d="M256.723 37.4852C257.949 36.0338 258.756 35.0802 259.569 34.1205C260.376 35.0982 261.178 36.0758 261.991 37.0654L264.968 37.947C264.657 39.0026 264.287 40.0402 264.053 41.1138C263.886 41.8815 263.82 42.6912 263.862 43.4769C263.91 44.3285 264.131 45.1682 264.275 46.0079C263.294 45.9779 262.308 46.0258 261.345 45.8939C260.909 45.8339 260.526 45.4141 259.988 45.0662C259.701 45.4501 259.539 45.8699 259.252 46.0139C258.206 46.5297 257.118 46.9495 256.048 47.4053C255.964 46.2298 255.856 45.0542 255.803 43.8787C255.761 42.9431 255.97 41.9535 255.719 41.0838C255.45 40.1482 254.786 39.3265 254.296 38.4568C255.265 38.073 256.227 37.6891 256.729 37.4912L256.723 37.4852Z" fill="#8D0E0E"/>
<path d="M340.917 115.089C341.413 116.582 341.933 118.135 342.447 119.695C340.743 119.281 339.039 118.867 336.941 118.357C336.582 118.771 335.931 119.791 335.028 120.48C334.531 120.864 333.545 120.924 332.929 120.708C332.642 120.606 332.409 119.311 332.672 118.879C333.676 117.218 333.611 116.096 332.14 114.561C330.992 113.361 332.582 112.114 335.267 112.144C336.116 110.692 336.911 109.331 337.706 107.969C338.561 108.773 339.41 109.583 339.942 110.087C341.515 110.524 342.8 110.884 344.092 111.244C342.997 112.564 341.909 113.889 340.911 115.095L340.917 115.089Z" fill="#8D0E0E"/>
<path d="M304.817 75.1924C306.06 76.206 307.023 76.9857 307.986 77.7714C306.886 78.653 305.791 79.5287 304.255 80.7582C304.093 81.244 303.699 82.4555 303.298 83.661C302.216 83.2112 301.14 82.7554 299.478 82.0597C299.46 82.0657 298.754 82.5335 298.019 82.5815C297.409 82.6234 296.506 82.3535 296.213 81.9097C295.92 81.4659 295.956 80.3203 296.315 80.0085C297.869 78.647 297.648 77.4955 296.608 75.8881C296.112 75.1144 296.524 73.7469 296.524 71.7437C299.137 74.0468 300.871 74.7126 302.449 72.2115C302.712 71.7977 303.806 71.5038 304.255 71.7197C304.739 71.9476 305.11 72.8173 305.164 73.4411C305.223 74.1728 304.883 74.9345 304.823 75.1924H304.817Z" fill="#8D0E0E"/>
<path d="M355.96 35.8659C356.33 36.9934 356.832 38.049 356.946 39.1466C356.982 39.5124 356.025 39.9802 355.523 40.4001C353.568 37.7131 350.818 42.4992 349.102 39.8123C348.133 38.3009 347.816 36.3457 347.35 34.5524C347.224 34.0786 347.464 33.3169 347.81 32.939C348.803 31.8654 349.891 30.8578 351.045 29.9642C351.416 29.6763 352.253 29.5563 352.629 29.7783C354.513 30.8818 356.318 32.1293 358.154 33.3229C357.43 34.1565 356.707 34.9962 355.96 35.8599V35.8659Z" fill="#8D0E0E"/>
<path d="M327.74 112.947C325.402 113.595 323.644 114.081 321.312 114.729C320.38 113.985 318.658 112.606 317.026 111.304C317.48 109.685 317.755 107.808 318.61 106.242C318.879 105.75 320.709 106.122 321.827 106.098C321.862 106.44 321.892 106.782 321.928 107.124C322.765 106.632 323.566 105.84 324.445 105.744C325.133 105.666 325.916 106.446 326.657 106.848C325.288 109.169 326.311 111.202 327.746 112.953L327.74 112.947Z" fill="#8D0E0E"/>
<path d="M159.831 193.796C162.187 190.359 177.289 188.656 181.385 190.881C180.721 191.421 180.219 192.176 179.657 192.224C173.289 192.794 166.91 193.256 159.831 193.802V193.796Z" fill="#8D0E0E"/>
<path d="M309.761 195.691C309.761 193.7 309.684 191.702 309.815 189.717C309.845 189.231 310.568 188.8 310.969 188.338C311.238 188.788 311.692 189.207 311.752 189.681C312.416 194.815 313.08 199.949 313.57 205.101C313.642 205.845 312.817 206.673 312.404 207.464C311.842 206.882 310.909 206.373 310.778 205.707C310.132 202.408 309.696 199.068 309.181 195.745C309.373 195.727 309.564 195.703 309.755 195.685L309.761 195.691Z" fill="#8D0E0E"/>
<path d="M325.228 208.826C324.517 206.763 323.554 205.155 323.471 203.5C323.255 199.158 323.393 194.797 323.483 190.449C323.495 189.915 324.104 189.399 324.433 188.872C324.888 189.291 325.713 189.687 325.743 190.131C326.089 195.865 326.341 201.599 326.55 207.338C326.562 207.662 325.976 208.01 325.228 208.826Z" fill="#8D0E0E"/>
<path d="M145.464 165.337C145.183 164.857 144.89 164.593 144.92 164.383C145.452 160.923 143.886 158.895 140.956 157.108C138.433 155.567 138.702 151.026 141.225 149.089C141.393 149.947 141.656 150.661 141.644 151.368C141.584 154.301 142.026 156.808 145.655 157.162C145.996 157.198 146.403 157.474 146.618 157.762C147.533 158.949 146.869 163.855 145.464 165.337Z" fill="#8D0E0E"/>
<path d="M427.149 164.503C426.641 164.167 426.168 164.029 426.037 163.741C425.296 162.056 427.304 156.376 428.47 155.105C430.103 153.318 431.316 151.14 432.709 149.119C434.431 150.355 434.563 155.057 431.866 156.148C428.082 157.684 427.717 160.239 427.801 163.49C427.807 163.729 427.502 163.975 427.143 164.503H427.149Z" fill="#8D0E0E"/>
<path d="M434.563 177.344C434.521 181.608 436.751 183.45 438.939 185.717C440.428 187.258 440.075 190.611 440.47 193.166C440.5 193.346 439.776 193.88 439.669 193.814C439.22 193.538 438.485 192.998 438.551 192.728C439.531 188.764 437.026 187.18 434.204 185.309C431.806 183.72 432.004 181.021 434.557 177.344H434.563Z" fill="#8D0E0E"/>
<path d="M154.193 158.428V164.725C153.284 164.137 152.34 163.765 152.37 163.514C152.675 161.025 152.603 158.266 153.709 156.148C155.06 153.563 157.44 151.518 159.359 149.257C161.864 151.926 160.232 155.519 154.187 158.428H154.193Z" fill="#8D0E0E"/>
<path d="M418.504 165.589C419.687 160.569 416.064 158.649 413.679 155.759C412.608 154.463 413.499 151.536 413.499 149.353C413.87 149.305 414.241 149.257 414.611 149.209C414.856 150.097 415.329 150.99 415.311 151.872C415.245 154.559 415.861 156.55 418.916 157.168C419.562 157.3 420.375 158.499 420.435 159.267C420.596 161.222 420.387 163.208 420.321 165.175L418.504 165.589Z" fill="#8D0E0E"/>
<path d="M447.315 195.625C444.81 192.524 446.383 189.795 446.018 186.916C452.176 187.36 450.765 182.478 451.536 179.095C454.113 180.865 454.251 185.933 451.542 187.186C448.392 188.644 447.668 190.701 447.931 193.706C447.961 194.048 447.716 194.407 447.309 195.625H447.315Z" fill="#8D0E0E"/>
<path d="M571.991 284.54C575.71 285.835 578.998 293.968 577.121 298.838C575.315 293.806 573.659 289.182 571.991 284.54Z" fill="#8D0E0E"/>
<path d="M494.865 319.026C493.454 316.777 492.39 315.092 491.092 313.023C494.177 313.502 495.588 315.632 494.865 319.026Z" fill="#8D0E0E"/>
<path d="M363.188 281.529C362.817 281.589 362.411 281.775 362.082 281.685C342.017 275.981 321.827 275.807 301.606 280.569C297.284 281.589 293.045 283.298 289.075 285.302C287.156 286.273 285.499 288.45 284.555 290.472C283.431 292.877 284.375 295.39 287.06 296.337C290.223 297.447 293.541 298.79 296.799 298.808C307.035 298.874 317.295 298.652 327.512 297.999C336.337 297.435 345.132 296.211 353.915 295.108C356.151 294.826 358.345 294.004 360.485 293.218C364.115 291.887 367.247 290.052 366.715 285.338C366.667 284.894 366.948 284.414 367.104 283.862C369.585 286.345 369.501 289.356 367.074 291.557C362.512 295.695 356.844 297.477 351.027 298.196C335.129 300.152 319.256 302.809 303.143 301.933C299.077 301.711 295.012 301.231 290.988 300.584C289.278 300.308 287.61 299.438 286.067 298.58C279.891 295.15 280.77 288.516 284.758 285.356C288.495 282.399 292.955 279.862 297.505 278.542C307.812 275.561 318.329 272.784 329.228 274.008C339.01 275.106 348.749 276.653 358.477 278.2C360.258 278.482 361.89 279.706 363.588 280.491L363.182 281.523L363.188 281.529Z" fill="#8D0E0E"/>
</g>
<defs>
<clipPath id="clip0_6_259">
<rect width="640" height="482" fill="white"/>
</clipPath>
</defs>
</svg>
