<svg width="425" height="100" viewBox="0 0 425 100" fill="none" xmlns="http://www.w3.org/2000/svg">
<g clip-path="url(#clip0_1_83)">
<path d="M181.046 74.7761C181.046 76.5386 180.67 78.2722 179.978 79.9769C179.285 81.6816 178.274 83.1841 177.004 84.5132C175.734 85.8422 174.204 86.9113 172.442 87.6914C170.681 88.5004 168.776 88.9049 166.697 88.9049C165.773 88.9049 164.85 88.7605 163.926 88.4715C163.002 88.1826 162.165 87.7781 161.414 87.258C160.692 86.709 160.086 86.0445 159.595 85.2355C159.133 84.4265 158.873 83.5308 158.873 82.5195C158.845 81.306 159.104 80.2947 159.624 79.5146C160.173 78.7056 160.779 78.0699 161.472 77.6365C162.165 77.1742 162.829 76.8564 163.493 76.6542C164.157 76.4519 164.561 76.3652 164.763 76.3652C164.965 76.3652 165.052 76.4519 165.052 76.6253C165.052 76.7986 164.85 76.8853 164.474 76.8853C164.07 76.8853 163.464 77.1164 162.598 77.5498C162.367 77.6943 162.078 77.8677 161.703 78.0988C161.327 78.33 161.01 78.6189 160.663 78.9656C160.317 79.3123 160.057 79.7457 159.797 80.2369C159.566 80.757 159.422 81.3349 159.422 81.9705C159.422 82.8951 159.624 83.6752 160.057 84.3398C160.49 85.0043 161.01 85.5533 161.616 85.9867C162.222 86.4201 162.915 86.7379 163.637 86.9402C164.359 87.1424 165.023 87.258 165.6 87.258C167.361 87.258 169.093 86.8824 170.826 86.1312C172.529 85.38 174.088 84.3687 175.445 83.0974C176.831 81.8261 177.928 80.3525 178.765 78.6767C179.602 77.0009 180.006 75.2673 180.006 73.4759C180.006 72.8691 179.949 72.089 179.776 71.1644C179.631 70.2398 179.429 69.4886 179.198 68.8529C178.65 69.5464 178.043 70.182 177.35 70.7888C176.686 71.3956 175.936 71.9156 175.156 72.3779C174.348 72.8402 173.511 73.2158 172.587 73.4759C171.663 73.7648 170.71 73.9093 169.7 73.9093C168.776 73.9093 167.91 73.7648 167.101 73.4759C166.293 73.1869 165.571 72.8113 164.965 72.2913C164.359 71.7712 163.897 71.1933 163.55 70.471C163.204 69.7486 163.031 68.9685 163.031 68.1017C163.031 66.4548 163.406 65.0679 164.128 63.9411C164.85 62.7853 165.802 61.803 166.957 60.9939C168.112 60.1849 169.353 59.4915 170.739 58.9425C172.125 58.3935 173.453 57.9023 174.752 57.4689C174.521 56.6599 174.406 55.7642 174.406 54.8108C174.406 53.8573 174.55 52.9327 174.81 51.9503C175.07 50.939 175.474 50.0433 176.022 49.2343C176.571 48.4253 177.235 47.7319 178.043 47.2118C178.852 46.6917 179.776 46.4317 180.873 46.4317C182.027 46.4317 182.922 46.7784 183.558 47.4429C184.222 48.1075 184.539 49.0321 184.539 50.1589C184.539 51.2858 184.222 52.2392 183.615 53.0772C182.98 53.9151 182.229 54.6374 181.306 55.273C180.382 55.9087 179.4 56.4288 178.361 56.8333C177.322 57.2667 176.369 57.6423 175.503 57.9601C175.589 58.5091 175.82 59.2025 176.109 60.0405C176.398 60.8784 176.773 61.7452 177.177 62.6698C177.581 63.5943 178.014 64.49 178.419 65.3857C178.852 66.2814 179.198 67.0615 179.487 67.7261C180.006 67.0615 180.555 66.397 181.161 65.6747C181.739 64.9523 182.316 64.23 182.865 63.5077C183.413 62.7853 183.904 62.0919 184.395 61.4562C184.857 60.7917 185.29 60.2138 185.636 59.6937C186.069 59.087 186.589 58.3646 187.224 57.5845C187.859 56.8044 188.552 56.0532 189.332 55.3886C190.111 54.6952 190.891 54.1173 191.728 53.655C192.565 53.1927 193.402 52.9327 194.24 52.9327C194.759 52.9327 195.192 53.0771 195.539 53.3661C195.885 53.655 196.058 54.0595 196.058 54.6085C196.058 55.1575 195.885 55.5909 195.568 55.9087C195.25 56.2265 194.788 56.371 194.24 56.371C193.922 56.371 193.662 56.2843 193.46 56.111C193.258 55.9376 193.114 55.7353 192.969 55.5042C192.825 55.273 192.709 55.0708 192.565 54.8974C192.421 54.7241 192.219 54.6374 192.017 54.6374C191.814 54.6374 191.468 54.753 191.093 54.9841C190.688 55.2153 190.255 55.5331 189.765 55.9376C189.274 56.3421 188.754 56.8333 188.234 57.3823C187.715 57.9312 187.224 58.538 186.762 59.1448C185.607 60.7339 184.424 62.323 183.211 63.8833C181.999 65.4435 180.844 66.8882 179.747 68.2751C180.555 70.3265 180.959 72.5224 180.959 74.8628L181.046 74.7761ZM165.745 68.8818C165.745 70.1242 166.091 71.1644 166.784 72.0312C167.477 72.898 168.487 73.3025 169.757 73.3025C171.663 73.3025 173.395 72.8113 174.983 71.829C176.571 70.8466 177.928 69.6619 179.083 68.304C178.419 66.5704 177.697 64.8945 176.917 63.3054C176.138 61.6874 175.474 59.9827 174.954 58.1624C173.77 58.6247 172.645 59.1737 171.519 59.8382C170.393 60.5027 169.411 61.254 168.574 62.1497C167.708 63.0454 167.044 64.0277 166.524 65.1257C166.004 66.2525 165.745 67.4949 165.745 68.9107V68.8818ZM175.07 54.3196C175.07 54.8108 175.07 55.3019 175.07 55.822C175.07 56.3421 175.185 56.8333 175.329 57.3245C176.167 57.0067 177.119 56.6599 178.13 56.2843C179.14 55.9376 180.093 55.4753 180.959 54.9263C181.825 54.3774 182.547 53.7128 183.124 52.9327C183.702 52.1526 183.991 51.1702 183.991 50.0433C183.991 49.2054 183.731 48.4831 183.182 47.8763C182.634 47.2985 181.912 46.9806 180.988 46.9806C180.064 46.9806 179.198 47.2118 178.505 47.703C177.783 48.1653 177.177 48.772 176.629 49.4655C176.109 50.1589 175.705 50.9679 175.445 51.8347C175.185 52.7015 175.041 53.5394 175.041 54.3196H175.07Z" fill="#343434"/>
<path d="M129.397 17.0471C129.397 20.5721 127.058 24.1549 122.352 27.7954C118.628 30.6848 114.644 32.8807 110.342 34.3253C109.043 34.7587 107.109 35.4522 104.482 36.3479L91.4323 52.9616C87.7369 57.6712 84.821 62.9587 82.6269 68.8529V69.5753H82.8578C82.8578 69.5753 83.493 69.4597 84.4168 69.1997C88.0545 68.2462 91.3746 66.4259 94.4348 63.7677H94.7524C94.7235 65.039 92.5582 66.9171 88.2277 69.4597C83.4641 72.2046 80.7503 74.1982 80.0574 75.4695H74.803C74.572 74.805 73.8791 74.4872 72.6666 74.4872H65.7666C65.1603 74.4872 64.8716 74.1115 64.8716 73.3892C64.8716 72.9558 64.9871 72.7247 65.2469 72.7247H71.5695L73.8792 71.2511V71.1644C73.8792 70.9333 72.9553 70.5577 71.0787 70.0376C69.0289 69.4308 66.1708 68.0439 62.5331 65.8191C50.8118 74.9206 38.4841 79.4857 25.5502 79.4857C24.8573 79.4857 23.818 79.4568 22.4034 79.399C20.9887 79.3412 19.9783 79.3124 19.3142 79.3124C19.3142 85.9 22.1724 90.9853 27.8599 94.5392C32.6523 97.5152 38.5707 98.9887 45.5862 98.9887C50.6097 98.9887 55.2001 98.3242 59.3862 96.9662C64.6118 95.2326 68.3649 92.6322 70.6457 89.1939C71.454 87.9515 71.8871 86.4779 71.8871 84.7443C71.8871 83.3285 71.3674 81.7972 70.3281 80.1503H70.9055C71.5695 80.1503 72.1469 80.8726 72.6666 82.2884C73.0997 83.4441 73.3306 84.4554 73.3306 85.3222C73.3306 89.1361 70.6168 92.5455 65.1603 95.5504C60.5411 98.0642 56.0084 99.451 51.649 99.7111C47.0586 99.9422 44.4026 100.029 43.7674 100.029C37.9067 99.8844 32.7101 98.5264 28.2063 95.9549C22.8942 92.9211 19.7473 88.7894 18.7946 83.5019L18.044 79.139L17.7264 78.9078C12.4142 77.9544 8.14143 75.7296 4.9657 72.2335C1.64561 68.564 0 64.0855 0 58.7403V55.273C0 54.6952 0.288703 53.5106 0.89498 51.6903C2.82929 45.6516 6.84227 40.7108 12.9628 36.7813C19.4586 32.6206 26.8205 30.5403 35.0774 30.5403C41.3712 30.5403 47.6649 32.245 53.9009 35.6833H54.2185C54.4494 35.4233 54.6804 35.0766 54.9402 34.6432C55.7197 33.1985 56.7591 31.9272 58.0005 30.8581C58.6356 30.367 59.444 29.8758 60.4545 29.4424C60.6854 29.3846 61.003 29.269 61.436 29.1245V28.9801C61.436 28.3155 61.2051 27.362 60.772 26.0618C60.339 24.7616 60.108 23.8082 60.108 23.1147C60.108 19.243 61.4072 16.2092 64.0344 14.0422C66.4595 11.9908 69.6352 10.9795 73.5904 10.9795C76.2754 10.9795 78.6716 11.5285 80.7792 12.5975C83.4352 13.9555 84.7633 15.8336 84.7633 18.2317H84.4457C83.1754 14.2156 79.7398 12.2219 74.0812 12.2219C70.4436 12.2219 67.5277 13.1465 65.2758 15.0246C62.8796 17.0471 61.6959 19.8209 61.6959 23.3459C61.6959 26.0907 62.2155 27.9399 63.2549 28.9223C66.6327 29.2979 69.895 31.1182 73.0419 34.3542C73.4172 34.8165 74.0235 35.51 74.8319 36.3768C75.8423 37.3303 78.7294 37.7926 83.5218 37.7926C84.7921 36.2612 87.7369 33.1985 92.4139 28.6622C103.731 17.6828 113.778 12.193 122.583 12.193H125.384C126.683 12.193 127.693 12.7131 128.415 13.7533C129.079 14.6778 129.397 15.7758 129.397 17.076V17.0471ZM53.2369 37.7637V37.3303C48.9641 34.6432 43.0456 33.3141 35.5682 33.3141C26.7628 33.3141 19.0255 35.3655 12.3565 39.4684C4.50377 44.2936 0.577406 50.8235 0.577406 59.0581C0.577406 66.657 4.35942 72.2624 11.9234 75.9029C14.2619 77.0009 16.1096 77.5499 17.4954 77.5499C17.9573 77.5499 18.4481 76.4808 18.9678 74.3716C19.4009 72.5513 19.6318 71.1933 19.6318 70.2976C19.6318 69.922 19.3142 69.2863 18.6791 68.3907C17.8996 67.2638 17.4665 66.6282 17.4088 66.4837C16.3695 64.4323 15.8498 61.9185 15.8498 58.9136C15.8498 53.6839 17.7264 49.2054 21.4506 45.5071C25.1749 41.8087 29.6787 39.9596 34.9042 39.9596C42.6992 39.9596 47.3185 43.4845 48.7908 50.5634H49.4549C49.7147 50.5634 50.09 50.5345 50.5808 50.4767C51.0716 50.419 51.4469 50.3901 51.6779 50.3901C51.6779 45.6227 51.6779 43.3979 51.6779 43.6579C51.7645 42.3288 52.2842 40.3641 53.2369 37.7348V37.7637ZM47.1452 50.4767C47.1452 47.9919 45.8461 46.0561 43.2189 44.6981C41.1691 43.629 38.7728 43.08 35.9724 43.08C32.6812 43.08 29.5343 43.9757 26.503 45.796C23.4716 47.6163 21.2486 49.9856 19.8339 52.9038C18.6502 55.3308 18.044 57.2667 18.044 58.6825C19.8917 60.8206 22.0569 62.2653 24.5109 63.0454C26.7628 60.5605 30.3716 57.9601 35.395 55.2442C35.8281 55.013 37.9933 54.204 41.862 52.7882C45.3553 51.5169 47.1164 50.7657 47.1164 50.4767H47.1452ZM23.3272 64.5189C22.0569 63.5077 20.3247 62.0919 18.0728 60.2716V61.8319C18.0728 62.8142 18.3327 64.0278 18.8234 65.5302C19.4009 67.2927 20.0071 68.1884 20.7289 68.1884C21.2197 67.3505 22.0858 66.1081 23.3272 64.5478V64.5189ZM39.6967 76.1052H37.4737C30.4582 76.1052 24.8573 74.3427 20.7289 70.8466H20.5268C20.2381 70.8466 19.9494 71.6845 19.6896 73.3603C19.4297 74.7761 19.3142 75.8451 19.3142 76.5386V77.8677C20.2092 78.0988 21.2774 78.1855 22.5189 78.1855H26.3586C32.1904 78.1855 36.6364 77.4921 39.6967 76.1052ZM38.8017 74.4005C36.3477 74.2849 34.0958 73.6781 32.0749 72.638C30.054 71.5978 28.5527 69.922 27.5423 67.6394C27.167 66.8015 26.9649 66.0792 26.9649 65.5013C26.7339 64.9523 25.9544 64.6923 24.5398 64.6923C22.3745 66.8593 21.2774 68.3329 21.2774 69.0552C21.2774 69.8931 22.7787 71.0777 25.8101 72.6091C28.6682 74.0249 30.6603 74.7472 31.7574 74.7472C32.3348 74.7472 33.172 74.7472 34.2979 74.805C35.4239 74.8628 36.29 74.8628 36.8385 74.8628C36.9829 74.8628 37.2138 74.8628 37.5314 74.805C37.849 74.7472 38.0511 74.7472 38.1666 74.7472L38.744 74.4294L38.8017 74.4005ZM28.4373 60.5894C27.5134 61.3118 26.5896 62.2653 25.6368 63.4788H26.9649L28.4373 60.5894ZM60.1657 63.4788C59.0687 61.8318 57.2787 59.636 54.8247 56.8911H54.5072C52.313 59.0003 49.7436 60.8206 46.8565 62.3808C41.631 65.1257 37.2427 66.4837 33.7205 66.4837C33.0565 66.4837 32.1038 66.3103 30.8046 65.9925C29.5055 65.6747 28.5527 65.5013 27.8887 65.5013C27.7444 65.5591 27.6289 65.6458 27.5712 65.7325C27.5712 68.1306 29.0435 70.1243 32.0172 71.7423C34.4712 73.0714 37.0406 73.7359 39.7256 73.7359C44.0561 73.7359 49.195 71.829 55.1712 68.015C55.8063 67.6105 56.7013 67.0038 57.8561 66.1659C59.3863 64.8368 60.1657 63.9411 60.1657 63.4788ZM28.7837 63.7099V62.7275C28.1197 62.7275 27.8021 63.0454 27.8021 63.7099H28.7837ZM29.5921 60.0694L29.5343 59.9827C29.5343 59.7804 29.4766 59.6937 29.3322 59.6937H29.2745C29.2745 59.6937 29.1302 59.7804 29.0724 59.9827V60.0694C29.0724 60.0694 29.159 60.2716 29.2745 60.2716H29.3611C29.3611 60.2716 29.5055 60.1849 29.5632 60.0694H29.5921ZM47.5205 52.7015C45.2398 52.7015 42.1795 53.4817 38.3109 55.013C34.3268 56.5444 31.5841 58.1335 30.0251 59.6937C30.2561 59.6648 30.4582 59.636 30.6314 59.636C32.277 59.636 33.2875 60.9939 33.6917 63.7099C33.8071 63.7966 34.1247 63.8544 34.5866 63.8544C38.3109 63.8544 41.3423 62.9298 43.6519 61.1095C46.1925 59.1159 47.4917 56.3132 47.4917 52.7015H47.5205ZM40.9381 75.7296C40.9381 75.7296 40.8515 75.5273 40.6494 75.5273H40.5628C40.3607 75.5273 40.2741 75.5851 40.2741 75.6718L40.3607 75.874L40.5917 75.9607C40.5917 75.9607 40.8226 75.9318 40.9092 75.874V75.7296H40.9381ZM53.9298 55.2442L52.3708 51.5458H52.1687C50.3787 51.5458 49.2528 51.8925 48.8197 52.586C48.6754 55.6198 47.8959 58.1624 46.5101 60.2427H46.8277C48.7331 59.2314 49.9745 58.5091 50.6097 58.0757C51.6201 57.3823 52.7172 56.4288 53.9298 55.2442ZM57.8561 45.6804V44.5536C57.8561 41.7509 57.2498 40.3352 56.0662 40.3352C55.1712 42.1843 54.7381 45.4204 54.7381 49.9856C56.1816 49.9856 57.1055 49.6099 57.5385 48.8587C57.7695 48.3964 57.8561 47.3274 57.8561 45.6804ZM56.6147 51.3724H55.0557L55.1423 51.5747C55.1423 51.777 55.1712 52.037 55.2578 52.4126C55.3444 52.7882 55.3733 53.0772 55.3733 53.2505H55.6042L56.5858 51.3436L56.6147 51.3724ZM70.9921 52.6149C69.5197 51.6903 66.575 51.2569 62.1867 51.2569H59.8193C58.78 51.2569 58.1737 51.3147 58.0293 51.4013C56.8745 52.037 56.2683 53.2216 56.2683 54.9552C56.2683 55.9087 56.9611 57.3823 58.3758 59.4048C59.7904 61.4273 60.8875 62.4386 61.6959 62.4386L70.9632 52.6438L70.9921 52.6149ZM77.2281 44.987C77.1704 44.6692 76.9683 44.2358 76.6507 43.6579C75.3515 41.5198 74.572 40.2196 74.2833 39.7862C73.3017 38.4571 72.2047 37.4169 70.9632 36.6657C69.1444 35.5678 67.0946 35.0188 64.8139 35.0188C63.1105 35.0188 61.5515 35.3366 60.1369 35.9723C58.3469 36.7235 57.2787 37.8214 56.9323 39.2372C58.116 41.6065 58.7222 43.7735 58.7222 45.7093C58.7222 46.1427 58.6645 46.8073 58.549 47.703C58.4335 48.5987 58.3758 49.2343 58.3758 49.6966C59.0975 49.7544 61.3783 49.9567 65.1892 50.2745C67.9896 50.5056 70.2704 50.5923 72.0315 50.5923H72.4934L77.1704 45.0159L77.2281 44.987ZM63.5147 32.0717C63.226 31.176 62.8507 30.7426 62.3888 30.7426C60.3101 30.7426 58.8088 31.5805 57.8561 33.2852C59.6172 32.4762 61.5227 32.0428 63.5436 32.0428L63.5147 32.0717ZM78.5561 56.7177V54.5796C77.4591 53.8284 76.4197 53.4528 75.4381 53.4528C75.3515 53.4528 71.685 57.1511 64.4097 64.5189V64.7212C67.0369 66.8304 70.7034 68.2173 75.4381 68.8241C77.5168 64.3167 78.5561 60.2716 78.5561 56.7177ZM73.6482 36.0012V35.6833C70.9344 32.3895 68.1051 30.7715 65.1892 30.7715C65.1026 30.8004 64.9582 30.8292 64.7561 30.8581C65.3335 31.6094 66.7482 32.6495 69.0289 33.9786C71.3097 35.3077 72.8398 35.9723 73.6482 36.0012ZM66.9791 67.6683V67.5816C66.9503 67.4372 66.8925 67.3505 66.777 67.3505H66.7193C66.7193 67.3505 66.5172 67.4372 66.5172 67.5816L66.4595 67.6683C66.4595 67.6683 66.5461 67.8706 66.6616 67.8706H66.7482C66.7482 67.8706 66.9503 67.7839 66.9503 67.6683H66.9791ZM67.5565 67.9861V67.8995C67.5277 67.755 67.4411 67.6683 67.3256 67.6683H67.2678C67.2678 67.6683 67.1235 67.755 67.0658 67.8995V67.9861C67.0658 67.9861 67.1524 68.1884 67.2678 68.1884H67.3545C67.3545 68.1884 67.4988 68.1306 67.5565 67.9861ZM68.3938 68.2173V68.1306C68.3938 67.9284 68.3361 67.8417 68.1917 67.8417H68.134C68.134 67.8417 67.9319 67.9284 67.9319 68.1306V68.2751C67.9319 68.5351 68.0185 68.6507 68.1628 68.6507C68.2783 68.564 68.3649 68.4195 68.3649 68.2173H68.3938ZM69.231 68.4195C69.231 68.4195 69.0578 68.3329 69.0001 68.3329H68.9135C68.9135 68.3329 68.7114 68.3618 68.7114 68.4195C68.798 68.564 68.8846 68.6796 68.9423 68.7374C69.0289 68.6796 69.1444 68.564 69.231 68.4195ZM70.1837 69.0263V68.8818C70.1549 68.7374 70.0971 68.6507 69.9817 68.6507H69.9239C69.9239 68.6507 69.7218 68.7374 69.7218 68.8818V69.0263C69.7218 69.0263 69.8084 69.1708 69.9239 69.2286H69.9817C69.9817 69.2286 70.1837 69.1419 70.1837 69.0263ZM71.3097 69.2286C71.3097 69.2286 71.1653 69.0841 71.0787 69.0841L70.9921 69.2286L71.1942 69.4308C71.1942 69.4308 71.3386 69.3152 71.3386 69.2286H71.3097ZM72.5511 69.5464C72.5511 69.4019 72.4645 69.3152 72.3202 69.3152C72.2624 69.3441 72.2335 69.4019 72.2335 69.5175V69.6042C72.2335 69.6042 72.2335 69.6909 72.2913 69.6909C72.4068 69.662 72.5222 69.6042 72.58 69.5464H72.5511ZM73.9658 69.7486C73.9658 69.7486 73.8503 69.662 73.7637 69.662L73.6193 69.7486C73.6771 69.8931 73.7637 70.0087 73.8503 70.0665C73.908 70.0087 73.9369 69.8931 73.9369 69.7486H73.9658ZM82.6557 38.6594C81.934 38.6594 80.8369 38.5149 79.3645 38.1971C77.8921 37.8792 76.7951 37.7348 76.0733 37.7348H75.7557L75.4381 38.0526C75.2361 37.7348 74.9474 37.4747 74.5432 37.3014H74.3122C74.6298 38.0526 75.1206 38.7749 75.7846 39.4395V38.0815L78.3252 43.8024C78.3252 43.8024 78.9315 43.2823 79.8842 42.3288C80.1151 41.6932 81.039 40.4796 82.6846 38.6305L82.6557 38.6594ZM76.3331 39.844V39.7573C76.3043 39.555 76.2465 39.4684 76.131 39.4684H76.0444C76.0444 39.4684 75.9001 39.555 75.8423 39.7573V39.844C75.8712 40.0462 75.9289 40.1329 76.0444 40.1329H76.131C76.131 40.1329 76.2754 40.0462 76.3331 39.844ZM78.5561 52.9616V49.6966L76.4197 51.8347L78.5561 52.9616ZM78.8737 61.1384V60.3005C78.8737 60.6472 78.7294 61.2829 78.4118 62.2075C78.0942 63.1321 77.9499 63.7388 77.9787 64.1144L77.8921 64.3456L77.9787 64.779C78.585 64.5478 78.8737 63.3632 78.8737 61.1962V61.1384ZM79.3068 59.0003V58.8558C79.3068 58.7114 79.249 58.538 79.1047 58.3935C79.0469 58.4513 78.9892 58.6247 78.9603 58.8558V59.0581C78.9603 59.4048 79.0181 59.636 79.1047 59.7226C79.2202 59.4337 79.3068 59.2026 79.3068 59.0003ZM91.8942 38.6594H88.0256L79.8842 48.4542C79.9997 50.5345 80.3172 52.1815 80.7792 53.3661C80.9812 53.8573 81.7896 54.4929 83.2331 55.273L91.8942 38.6594ZM82.6846 56.4866V56.1687C82.5402 55.8509 81.934 55.562 80.8946 55.273V55.2153L80.8369 55.4175L80.6925 56.2554C80.6348 56.92 80.4616 58.2491 80.2306 60.2716C80.1729 60.9073 80.144 61.3407 80.144 61.6007V62.4097L82.6846 56.4866ZM84.4746 70.6443H84.157C82.5691 70.6443 81.6741 71.2222 81.472 72.349H81.5587C82.7423 72.349 83.7239 71.7712 84.5034 70.6443H84.4746ZM106.07 19.7342C103.183 21.4389 99.8336 24.5594 96.0516 29.0956C96.8311 28.46 98.0147 27.5643 99.6026 26.3508C97.1198 28.8067 93.4532 32.6206 88.5741 37.7637H90.1331C91.6055 37.7637 92.6449 37.388 93.2511 36.6657C95.07 34.152 97.8415 30.3958 101.566 25.3973H101.133C100.988 25.3973 100.815 25.4262 100.671 25.484C102.98 23.5481 104.77 21.6412 106.07 19.7053V19.7342ZM99.9779 37.6192C99.9491 37.3303 99.9202 37.1858 99.8913 37.1858C99.516 37.1858 99.3139 37.4458 99.3139 37.9948C99.3139 38.0526 99.3139 38.0815 99.3716 38.0815C99.7758 38.0815 99.9779 37.937 99.9779 37.6192ZM100.7 25.5129C100.353 25.7729 99.9779 26.0618 99.6026 26.3508C99.9779 25.9174 100.353 25.6284 100.7 25.5129ZM128.56 17.0471C128.56 14.2444 126.654 12.8287 122.872 12.8287C120.389 12.8287 117.935 13.2043 115.539 13.9555C112.681 14.8801 110.66 16.1514 109.534 17.8272C109.245 18.2606 108.783 18.8963 108.177 19.7342C109.014 19.3875 110.978 18.1739 114.038 16.0936C116.116 14.649 118.311 13.9266 120.649 13.9266C120.707 13.9266 120.822 13.9266 120.967 13.9844C121.111 14.0422 121.226 14.0422 121.284 14.0422L121.862 14.7067C117.531 14.7067 115.048 15.3713 114.384 16.7004H114.962C112.912 17.3938 110.4 19.9075 107.455 24.2127L101.508 33.8631C101.219 34.3253 100.815 35.0477 100.267 36.0012H101.162C107.022 29.529 114.442 22.6524 123.421 15.3713V15.0535C123.421 14.649 123.247 14.4467 122.901 14.4756L125.413 14.0422C122.93 16.2381 119.032 20.2254 113.749 25.9752C112.075 27.7954 109.592 30.5692 106.272 34.2965H106.589C107.86 34.2965 110.573 33.0829 114.76 30.6559C118.108 28.7489 120.765 27.102 122.757 25.6284C126.596 22.8258 128.531 19.9364 128.531 17.0182L128.56 17.0471ZM107.513 20.8321C107.08 21.5256 106.358 22.508 105.377 23.7793C105.925 23.1725 106.618 22.1901 107.513 20.8321ZM115.885 16.4692V16.5559C115.885 16.5559 115.828 16.6426 115.799 16.6426C115.712 16.6137 115.626 16.5559 115.568 16.4981C115.597 16.3537 115.626 16.267 115.655 16.267H115.712C115.712 16.267 115.914 16.3537 115.914 16.4692H115.885ZM116.78 16.0936V16.1803C116.78 16.1803 116.694 16.3248 116.636 16.3826L116.434 16.1514C116.434 16.0069 116.463 15.8914 116.521 15.8336C116.665 15.8336 116.752 15.9203 116.752 16.1225L116.78 16.0936ZM119.003 15.3713C119.003 15.3713 118.715 15.458 118.542 15.5158L117.762 15.8047C117.762 15.8047 117.531 15.7758 117.444 15.718C117.56 15.718 117.733 15.6602 117.935 15.5446C118.137 15.4291 118.282 15.3713 118.339 15.3713H119.003ZM120.505 14.9379C120.505 15.0824 120.331 15.1979 119.985 15.2557C119.667 15.2557 119.523 15.1401 119.523 14.9379C119.523 14.8512 119.667 14.7934 119.956 14.7934H120.158C120.158 14.7934 120.418 14.8512 120.534 14.9379H120.505Z" fill="#343434"/>
<path d="M121.313 56.6888C120.62 57.729 119.812 58.8847 118.917 60.156C118.022 61.3984 117.127 62.7275 116.203 64.0855C115.279 65.4435 114.442 66.7437 113.691 67.9572C112.941 69.1997 112.306 70.3265 111.815 71.3378C111.324 72.349 111.064 73.1581 111.064 73.7359C111.064 74.6316 111.497 75.065 112.392 75.065C112.97 75.065 113.893 74.6605 115.135 73.8226C116.376 72.9847 117.935 71.5978 119.754 69.662C120.909 68.4484 121.804 67.495 122.468 66.8015C123.132 66.0792 123.594 65.5591 123.911 65.2413C124.229 64.8945 124.431 64.6923 124.489 64.5767C124.547 64.4611 124.662 64.4322 124.749 64.4322C125.008 64.4322 125.153 64.5767 125.153 64.8368C125.153 64.8945 125.008 65.1257 124.691 65.5013C124.373 65.9058 123.998 66.3392 123.507 66.8882C123.016 67.4372 122.526 67.9572 121.977 68.5351C121.429 69.113 120.938 69.6331 120.534 70.0954C118.542 72.1468 116.896 73.6492 115.539 74.6027C114.211 75.5851 113.027 76.0474 111.959 76.0474C111.266 76.0474 110.718 75.874 110.285 75.5273C109.852 75.1806 109.505 74.7472 109.274 74.2271C109.043 73.707 108.87 73.1581 108.812 72.5802C108.726 72.0023 108.697 71.4822 108.697 71.0199C108.697 70.0376 108.87 69.0263 109.245 68.0439C109.505 67.4083 109.794 66.8015 110.111 66.1659C110.429 65.5302 110.804 64.9523 111.208 64.3745C110.775 64.6345 110.198 64.9523 109.447 65.3568C108.697 65.7613 108.033 65.9347 107.455 65.9347C106.82 65.9347 106.272 65.848 105.781 65.7036C105.29 65.5591 104.944 65.2702 104.713 64.8368C104.568 64.5189 104.453 64.2011 104.395 63.8544C104.337 63.5077 104.193 63.3054 103.933 63.1898C103.673 63.0743 103.413 63.1032 103.154 63.2187C102.894 63.3632 102.634 63.5077 102.374 63.7388L95.3009 75.7585L89.9599 76.0763L102.288 57.0644L102.143 56.92C101.364 57.5556 100.382 58.4224 99.2273 59.5493C98.0725 60.6761 96.5712 62.323 94.6658 64.4611C94.2616 64.9234 93.8863 65.3279 93.5976 65.6747C93.3089 66.0214 93.1068 66.1947 93.0202 66.1947C92.8181 66.1947 92.7026 66.0503 92.7026 65.7325C92.7026 65.5302 92.9047 65.2124 93.3377 64.779C93.7708 64.3456 94.5214 63.5077 95.6185 62.2652C97.1486 60.5894 98.5633 59.1448 99.8913 57.9023C101.219 56.6888 102.259 55.562 102.98 54.5796L107.917 54.2618L102.894 62.8142C103.673 62.4964 104.597 62.3519 105.636 62.3519C106.358 62.3519 106.878 62.4964 107.195 62.8142C107.513 63.132 107.744 63.5077 107.888 63.9122C108.004 64.2878 108.119 64.49 108.293 64.5767C108.437 64.6634 108.639 64.6923 108.841 64.6923C109.736 64.6923 110.775 64.1433 111.988 63.0454L112.392 62.6409C112.392 62.6409 112.594 62.4097 112.681 62.2941C112.767 62.1786 112.854 62.0341 112.941 61.9474C113.893 60.705 114.76 59.4337 115.597 58.1913C116.434 56.9489 117.185 55.7353 117.878 54.5796L122.901 54.2618C122.526 54.8974 122.006 55.7353 121.284 56.7755L121.313 56.6888Z" fill="#343434"/>
<path d="M152.118 56.6888C151.425 57.729 150.616 58.8847 149.721 60.156C148.827 61.3984 147.932 62.7275 147.008 64.0855C146.084 65.4435 145.247 66.7437 144.496 67.9572C143.745 69.1997 143.11 70.3265 142.619 71.3378C142.129 72.349 141.869 73.158 141.869 73.7359C141.869 74.6316 142.302 75.065 143.197 75.065C143.774 75.065 144.698 74.6605 145.939 73.8226C147.181 72.9847 148.74 71.5978 150.559 69.6619C151.714 68.4484 152.609 67.4949 153.273 66.8015C153.937 66.0792 154.398 65.5591 154.716 65.2413C155.034 64.8945 155.236 64.6923 155.293 64.5767C155.351 64.4611 155.467 64.4322 155.553 64.4322C155.813 64.4322 155.957 64.5767 155.957 64.8368C155.957 64.8945 155.813 65.1257 155.496 65.5013C155.178 65.9058 154.774 66.3392 154.312 66.8882C153.85 67.4372 153.33 67.9572 152.782 68.5351C152.233 69.113 151.742 69.6331 151.338 70.0953C149.346 72.1468 147.701 73.6492 146.344 74.6027C145.016 75.5851 143.832 76.0474 142.764 76.0474C142.071 76.0474 141.522 75.874 141.089 75.5273C140.656 75.1806 140.31 74.7472 140.079 74.2271C139.848 73.707 139.675 73.158 139.617 72.5802C139.53 72.0023 139.501 71.4822 139.501 71.0199C139.501 70.0376 139.675 69.0263 140.05 68.0439L139.906 67.8994C139.328 68.5351 138.635 69.3152 137.798 70.2109C136.961 71.1355 136.037 72.0023 135.055 72.8691C134.074 73.7359 133.063 74.4871 132.024 75.0939C131.014 75.7296 130.061 76.0474 129.166 76.0474C127.924 76.0474 127.001 75.6429 126.423 74.8339C125.846 74.0248 125.557 73.0136 125.557 71.8001C125.557 70.3265 125.846 68.9396 126.394 67.6105C126.943 66.2814 127.636 65.0101 128.473 63.8544C129.31 62.6697 130.205 61.514 131.129 60.3872C132.082 59.2603 132.919 58.1624 133.641 57.0644L133.496 56.92C132.342 57.8157 131.158 58.9136 129.916 60.2138C128.675 61.514 127.462 62.8142 126.279 64.0566C125.759 64.6345 125.442 65.0101 125.326 65.1546C125.211 65.299 125.095 65.3857 124.922 65.3857C124.72 65.3857 124.604 65.2413 124.604 64.9234C124.604 64.8656 124.633 64.779 124.72 64.6634C124.806 64.5478 124.98 64.3167 125.239 63.9988C125.499 63.681 125.903 63.2476 126.452 62.6986C127.001 62.1497 127.722 61.3984 128.617 60.4739C129.397 59.6359 130.292 58.7114 131.331 57.729C132.342 56.7466 133.554 55.6775 134.911 54.5796L139.299 54.2618C136.903 58.1335 134.94 61.1962 133.467 63.421C131.966 65.6458 130.811 67.4083 130.003 68.6796C129.195 69.9509 128.646 70.9333 128.357 71.6267C128.069 72.3201 127.924 73.0425 127.924 73.8226C127.924 74.2849 128.069 74.6316 128.357 74.8339C128.646 75.0361 128.935 75.1517 129.252 75.1517C130.234 75.1517 131.591 74.4582 133.294 73.1003C134.998 71.7423 136.788 70.0376 138.664 67.9861C140.541 65.9347 142.388 63.7099 144.207 61.3118C145.997 58.9136 147.527 56.6599 148.711 54.5507L153.734 54.2329C153.359 54.8685 152.839 55.7064 152.118 56.7466V56.6888Z" fill="#343434"/>
<path d="M285.643 13.0598C285.643 17.7694 283.102 21.8145 278.021 25.195C273.431 28.2866 268.696 29.818 263.759 29.818C263.153 29.818 262.229 29.7602 260.988 29.6157C259.746 29.4713 258.822 29.4135 258.158 29.4135C253.914 31.6094 250.739 33.1985 248.631 34.152C244.474 36.1167 241.269 37.388 238.989 37.9659C238.036 38.2837 236.592 38.6882 234.658 39.1794C231.54 39.7573 226.921 40.6241 220.8 41.7798C215.979 47.5874 213.583 54.3196 213.583 61.9474C213.583 69.5753 216.758 73.7937 223.11 73.7937C223.139 73.7937 223.254 73.7648 223.399 73.707C223.543 73.6492 223.687 73.6203 223.803 73.6203C223.918 68.5062 224.525 63.3921 225.65 58.3069C225.997 57.1222 226.459 55.3308 227.036 52.9327V52.7015C231.194 45.8827 236.823 42.4733 243.896 42.4733C250.508 42.4733 253.828 45.5071 253.828 51.6036C253.828 54.464 252.817 57.5845 250.825 60.965C246.293 68.7952 237.978 73.996 225.939 76.6253C226.199 78.2144 226.661 80.5548 227.267 83.6752C227.267 83.7041 227.267 83.7619 227.325 83.8486C227.325 84.282 227.238 84.5709 227.036 84.7732C226.834 84.8021 226.719 84.6865 226.632 84.3687C226.083 82.664 225.362 80.0925 224.438 76.6253C223.37 76.3652 221.926 76.2207 220.107 76.2207C219.645 76.2207 218.953 76.2785 218 76.423C217.047 76.5675 216.354 76.6253 215.892 76.6253C212.428 76.6253 209.656 75.5562 207.578 73.3892C205.499 71.2222 204.46 68.4195 204.46 64.9523C204.46 63.421 205.355 59.6648 207.116 53.7417C208.819 48.1075 210.089 44.3513 210.984 42.4733C205.643 42.271 201.284 40.3063 197.935 36.5212C194.586 32.7362 192.911 28.1422 192.911 22.7102C192.911 18.0006 194.297 13.9844 197.069 10.6328C199.378 7.77232 203.074 5.46085 208.155 3.69835C209.194 3.32274 210.263 3.09159 211.389 3.00491C211.504 3.00491 214.016 2.36926 218.895 1.09795C221.695 0.375614 224.236 0 226.517 0C232.319 0 236.592 1.82028 239.277 5.43196C239.826 6.15429 240.086 6.90552 240.086 7.62785H239.681C237.805 3.26495 233.417 1.09795 226.517 1.09795C223.716 1.09795 221.435 1.47356 219.703 2.1959C226.055 4.16065 229.866 5.43196 231.136 6.00982C233.763 7.25224 237.054 9.5926 241.067 13.0598C253.655 6.96331 263.846 3.9295 271.67 3.9295C280.995 3.9295 285.643 6.96331 285.643 13.0598ZM213.178 4.10286H212.89C208.184 4.10286 203.998 5.83646 200.273 9.30367C196.549 12.7709 194.701 16.8448 194.701 21.4967V23.6926L195.106 24.386C196.52 19.3875 199.292 15.2268 203.363 11.9619C204.835 11.1528 206.856 9.79486 209.483 7.91679C210.291 7.07888 211.533 5.80757 213.178 4.10286ZM217.22 32.6495L216.816 32.4184C209.772 27.6799 206.25 22.768 206.25 17.6828C206.25 16.9026 206.452 15.7758 206.856 14.3022C207.26 12.8287 207.462 11.7018 207.462 10.9217C205.181 11.7018 202.727 13.9266 200.1 17.625C197.473 21.3233 196.145 24.386 196.145 26.8131C196.145 27.4776 196.376 28.1133 196.838 28.72C198.599 31.1471 200.966 33.1985 203.94 34.8454C207.058 36.579 210.032 37.4458 212.89 37.4458H213.871C213.871 37.4458 214.507 36.7235 215.517 35.2788C216.527 33.8342 217.105 32.9674 217.22 32.6495ZM197.935 35.0188V34.9032C197.906 34.6721 197.819 34.5565 197.704 34.5565H197.646C197.502 34.5565 197.415 34.6721 197.415 34.9032V35.0188C197.415 35.1632 197.502 35.2499 197.646 35.2499H197.704C197.848 35.221 197.935 35.1344 197.935 35.0188ZM209.252 40.9708C204.979 40.2485 201.197 38.3415 197.935 35.2499V35.6544C201.544 39.2661 205.124 41.0864 208.675 41.0864C208.877 41.0864 209.05 41.0575 209.252 40.9708ZM216.816 75.5273C212.226 73.9093 209.339 71.7423 208.155 68.9974C207.809 68.1884 207.202 66.9749 206.365 65.3568C206.365 65.5591 206.365 65.848 206.307 66.2525C206.25 66.657 206.25 66.946 206.25 67.0904C206.25 69.6619 207.087 71.7134 208.761 73.2447C210.436 74.7761 212.572 75.5273 215.199 75.5273H216.816ZM239.277 14.1578V14.0422C239.277 13.551 238.671 12.7709 237.487 11.7307C231.742 6.64548 226.69 4.33401 222.301 4.7963L222.937 4.33401C221.58 4.07397 219.559 3.9295 216.816 3.9295C215.113 3.9295 213.323 5.05634 211.389 7.33892H211.562C212.688 7.33892 214.276 6.96331 216.325 6.18318C218.375 5.40306 220.021 5.02745 221.204 5.02745L221.609 5.20081C216.383 6.5588 213.063 7.65675 211.677 8.55244C208.79 10.3727 207.347 13.3199 207.347 17.4516C207.347 20.7166 208.415 23.6059 210.522 26.0907C212.63 28.5756 215.344 30.1936 218.606 30.9159C225.419 23.8948 232.319 18.3184 239.277 14.1578ZM211.1 41.2598H210.291C210.032 41.2598 209.801 41.2886 209.656 41.3753C209.801 41.5776 210.06 41.6643 210.407 41.6643H210.58C210.955 41.6643 211.244 41.5776 211.389 41.3753H211.504C211.504 41.3753 211.244 41.2598 211.1 41.2598ZM256.022 27.6221L255.214 26.9286H255.04C250.19 29.269 245.542 31.1471 241.067 32.534C237.689 33.5741 232.868 34.2387 226.632 34.5565C225.217 35.7122 224.265 36.8102 223.803 37.8503H225.015C235.784 37.8503 246.12 34.4409 256.022 27.6221ZM244.705 54.6085C244.705 50.8812 242.799 49.0032 238.989 49.0032C237.487 49.0032 236.477 49.1476 235.986 49.4077C234.947 49.9856 233.301 51.9792 231.078 55.4175C228.855 58.8558 227.729 61.1095 227.729 62.1786C227.729 63.8255 229.173 64.6634 232.06 64.6634C232.724 64.6634 233.619 64.4034 234.773 63.9122C235.928 63.421 236.823 63.1609 237.487 63.1609C236.332 64.8945 234.485 65.7613 231.944 65.7613C230.558 65.7613 228.913 65.1257 227.036 63.8544C226.228 65.6747 225.824 68.4195 225.824 72.1179C225.824 72.6091 225.853 73.0425 225.939 73.3892C230.125 72.0312 234.167 69.662 238.007 66.2236C242.482 62.2652 244.705 58.3935 244.705 54.6085ZM226.517 75.1806V75.065C226.488 74.8339 226.372 74.7183 226.228 74.7183H226.17C226.17 74.7183 225.968 74.8339 225.939 75.065V75.1806C225.968 75.4117 226.055 75.5273 226.17 75.5273H226.228C226.372 75.5273 226.488 75.4117 226.517 75.1806ZM250.132 52.7015C250.132 48.3386 248.083 46.1716 244.012 46.1716C241.789 46.1716 239.739 46.7495 237.891 47.9052C242.973 48.3675 245.513 50.5345 245.513 54.4351C245.513 58.3357 243.348 62.1786 239.046 66.1081C235.582 69.3152 231.684 71.8001 227.325 73.6203H227.729C232.348 73.6203 237.227 71.3089 242.337 66.6859C247.534 61.9185 250.132 57.2378 250.132 52.7015ZM272.305 11.7307V10.6328C271.641 12.4819 270.63 14.3311 269.245 16.1803C270.544 14.1 271.208 12.0196 271.208 9.93932C271.208 7.859 269.62 6.93441 266.473 6.93441C258.245 6.93441 250.739 10.1994 244.012 16.7582V16.8737C244.012 17.5383 244.705 18.9252 246.12 21.0922C247.534 23.2592 248.227 24.7616 248.227 25.5995C248.112 25.6862 247.909 25.7729 247.592 25.8885C246.235 23.3459 244.618 20.7455 242.684 18.0873L242.568 18.2606C241.991 18.3473 239.566 20.5143 235.293 24.7905C231.02 29.0667 229.028 31.176 228.826 31.6094L228.422 32.4184H229.346C237.978 32.4184 246.35 30.2514 254.521 25.8885C254.521 21.2366 256.34 18.8963 259.948 18.8963C260.208 19.2141 260.353 19.7053 260.353 20.3987C260.353 21.8723 258.996 23.7793 256.253 26.1196L257.119 26.9286C258.245 26.4374 259.689 25.4551 261.45 23.9815L263.24 22.4213C262.171 23.4325 260.555 24.935 258.447 26.9286L258.158 27.2176V27.6221C261.19 26.2352 264.192 24.0393 267.166 21.0344C270.602 17.5383 272.305 14.4178 272.305 11.7307ZM232.06 23.6926C232.06 23.6926 231.973 23.577 231.886 23.577H231.771C231.771 23.577 231.655 23.7504 231.655 23.8659V23.9815H232.06V23.6926ZM233.157 22.5946C233.157 22.5946 233.07 22.4791 232.983 22.4791H232.868C232.868 22.4791 232.753 22.6524 232.753 22.768V22.8836H233.157V22.5946ZM235.755 20.3987C235.755 20.3987 235.668 20.3409 235.582 20.3409C235.091 20.3409 234.831 20.5721 234.831 21.0344C234.831 21.0633 234.86 21.0922 234.947 21.0922C235.495 21.0922 235.755 20.861 235.755 20.3987ZM252.038 50.6212C252.038 45.6515 249.353 43.1667 244.012 43.1667C242.742 43.1667 241.183 43.4268 239.335 43.9757C237.227 44.5825 235.899 45.3337 235.351 46.1716C237.891 44.9003 240.461 44.2647 243.088 44.2647H245.802C246.062 44.2647 246.581 44.4669 247.361 44.9003C249.815 46.2872 251.258 49.0899 251.634 53.3372C251.894 52.5282 252.038 51.6325 252.038 50.6212ZM251.518 31.3782V31.2049C251.489 31.0026 251.403 30.9159 251.287 30.9159H251.23C251.085 30.9159 250.999 31.0026 250.999 31.2049V31.3782C250.999 31.3782 251.085 31.5516 251.23 31.5516H251.287C251.432 31.5516 251.518 31.4938 251.518 31.3782ZM252.211 30.9737V30.8581C252.182 30.627 252.096 30.5114 251.98 30.5114H251.865C251.865 30.5114 251.663 30.627 251.634 30.8581V30.9737C251.663 31.2049 251.749 31.3204 251.865 31.3204H251.98C251.98 31.3204 252.182 31.2049 252.211 30.9737ZM253.02 30.6848V30.5692C252.991 30.3381 252.904 30.2225 252.789 30.2225H252.731C252.586 30.2225 252.5 30.3381 252.5 30.5692L252.442 30.6848C252.471 30.8292 252.558 30.9159 252.673 30.9159H252.789C252.933 30.887 253.02 30.8003 253.02 30.6848ZM256.657 28.3155H256.253C255.647 28.6333 254.838 29.1245 253.828 29.818C253.684 29.8469 253.539 29.9913 253.424 30.2225C253.626 30.0202 254.261 29.7313 255.329 29.2979C256.253 28.9801 256.686 28.6622 256.657 28.3155ZM259.66 20.3987C259.66 19.8498 259.4 19.5897 258.851 19.5897C257.956 19.5897 257.206 20.0231 256.571 20.9188C255.935 21.8145 255.618 22.7391 255.618 23.6926V24.5016C255.618 24.7038 255.762 24.7905 256.022 24.7905C256.686 24.7905 257.437 24.2416 258.332 23.1436C259.227 22.0457 259.66 21.1211 259.66 20.3987ZM283.911 12.2508C283.911 7.28113 280.1 4.7963 272.478 4.7963C271.006 4.7963 269.735 4.94077 268.667 5.20081C271.699 6.5588 273.286 8.00347 273.402 9.53482V11.8463C273.402 16.0358 270.63 20.2543 265.087 24.5016C264.019 25.2239 262.518 26.4086 260.641 28.0266H262.662C266.906 28.0266 271.381 26.4952 276.116 23.4036C281.312 19.9653 283.911 16.267 283.911 12.2508ZM269.245 16.1803C268.061 18.0006 266.04 20.0809 263.24 22.4213C265.925 19.9653 267.945 17.885 269.245 16.1803Z" fill="#343434"/>
<path d="M270.717 57.1511C270.717 58.3646 270.486 59.5782 269.995 60.7917C269.533 62.0341 268.985 63.1898 268.35 64.3167C267.714 65.4435 267.079 66.4548 266.415 67.3505C265.751 68.2462 265.261 68.8818 264.885 69.3152C265.03 69.373 265.289 69.4019 265.578 69.4019C266.791 69.4019 268.003 69.0841 269.216 68.4195C270.428 67.755 271.468 66.9749 272.305 66.0214C273.027 65.2413 273.46 64.7501 273.546 64.6056C273.662 64.4611 273.748 64.3745 273.864 64.3745C274.124 64.3745 274.268 64.5189 274.268 64.779C274.268 64.9234 274.153 65.1257 273.95 65.3568C273.748 65.588 273.431 65.9347 272.998 66.4259C271.843 67.7261 270.544 68.7085 269.071 69.373C267.599 70.0376 266.184 70.3554 264.827 70.3554C264.568 70.3554 264.366 70.3554 264.25 70.3265C264.135 70.2976 264.019 70.2976 263.99 70.2976C263.528 70.7599 262.893 71.3378 262.114 71.9734C261.334 72.6091 260.468 73.2447 259.515 73.8515C258.563 74.4583 257.552 74.9494 256.455 75.3828C255.358 75.8162 254.261 76.0185 253.164 76.0185C251.489 76.0185 250.306 75.4984 249.584 74.4583C248.891 73.4181 248.516 72.089 248.516 70.5288C248.516 69.113 248.92 67.6394 249.699 66.137C250.479 64.6345 251.345 63.1898 252.24 61.8607C253.135 60.5316 254.001 59.3759 254.781 58.4513C255.56 57.4978 255.964 56.92 255.964 56.6599C255.964 56.5444 255.907 56.5155 255.82 56.5155C255.733 56.5155 255.358 56.8911 254.752 57.6134C254.145 58.3358 253.164 59.4337 251.807 60.9073C250.768 62.063 249.959 62.9876 249.382 63.6521C248.804 64.3456 248.371 64.8368 248.083 65.1835C247.794 65.5302 247.592 65.7325 247.505 65.8191C247.419 65.9058 247.303 65.9347 247.188 65.9347C246.928 65.9347 246.784 65.8191 246.784 65.6169C246.784 65.5013 247.13 65.039 247.794 64.2011C248.458 63.3632 249.266 62.4386 250.19 61.4273C251.114 60.4161 252.009 59.4048 252.933 58.4513C253.857 57.4978 254.521 56.7755 254.925 56.2843C255.762 55.3886 256.715 54.0884 257.841 52.4126C258.938 50.7079 260.122 48.8587 261.421 46.8362C262.691 44.8136 264.048 42.7333 265.463 40.5952C266.877 38.4571 268.321 36.5212 269.822 34.7876C271.323 33.054 272.825 31.6383 274.384 30.5114C275.943 29.3846 277.415 28.8356 278.887 28.8356C281.457 28.8356 282.727 30.078 282.727 32.5917C282.727 33.7475 282.352 34.961 281.601 36.2323C280.85 37.5036 279.811 38.8616 278.541 40.2774C277.271 41.6932 275.769 43.1378 274.095 44.6403C272.42 46.1427 270.688 47.6163 268.927 49.1188C267.137 50.6212 265.376 52.1237 263.644 53.6261C261.883 55.1575 260.295 56.631 258.822 58.1046C258.361 58.8269 257.696 59.9249 256.83 61.3696C255.964 62.8142 255.127 64.2878 254.319 65.848C253.51 67.3794 252.789 68.8529 252.153 70.2398C251.518 71.6267 251.201 72.5802 251.201 73.1003C251.201 73.6781 251.316 74.1693 251.547 74.5449C251.778 74.9494 252.269 75.1228 252.991 75.1228C254.29 75.1228 255.733 74.7472 257.292 74.0249C258.851 73.3025 260.324 72.2335 261.681 70.8177C263.037 69.4019 264.163 67.6683 265.058 65.6458C265.953 63.5943 266.386 61.254 266.386 58.5669C266.386 57.0933 266.531 56.0532 266.819 55.3886C267.108 54.7241 267.743 54.4062 268.754 54.4062C269.447 54.4062 269.909 54.6952 270.197 55.273C270.486 55.8509 270.63 56.5155 270.63 57.2378L270.717 57.1511ZM260.035 55.5909L260.179 55.7353L269.822 47.414C270.861 46.5184 272.045 45.4782 273.344 44.2647C274.643 43.0511 275.856 41.7509 276.982 40.393C278.108 39.0061 279.061 37.5903 279.84 36.1167C280.62 34.6432 281.024 33.2274 281.024 31.8694C281.024 31.3493 280.85 30.8581 280.504 30.367C280.158 29.8758 279.725 29.6735 279.205 29.6735C277.588 29.6735 276.029 30.367 274.528 31.7249C273.027 33.0829 271.641 34.7587 270.342 36.7235C269.043 38.6882 267.83 40.7686 266.704 42.9645C265.578 45.1604 264.568 47.0962 263.673 48.772L259.977 55.5909H260.035Z" fill="#343434"/>
<path d="M293.842 57.9601C293.842 59.4337 293.207 60.7339 291.966 61.9185C290.695 63.1032 289.223 64.1144 287.491 64.9812C285.758 65.848 283.997 66.5704 282.15 67.1482C280.331 67.7261 278.83 68.1306 277.675 68.3329C277.559 68.7663 277.501 69.1708 277.444 69.6331C277.386 70.0665 277.357 70.4999 277.357 70.9333C277.357 72.4646 277.588 73.5048 278.108 74.1115C278.599 74.7183 279.465 75.0361 280.648 75.0939C281.688 75.1517 283.189 74.7183 285.123 73.7937C287.058 72.8691 289.223 71.2511 291.619 68.8818C293.149 67.3216 294.16 66.1659 294.708 65.4146C295.257 64.6923 295.603 64.3167 295.776 64.3167C296.036 64.3167 296.181 64.4611 296.181 64.779C296.181 64.8945 296.007 65.1546 295.661 65.5591C295.315 65.9636 294.881 66.4837 294.362 67.0904C293.842 67.6972 293.265 68.3329 292.601 69.0263C291.937 69.7197 291.33 70.2976 290.753 70.8177C288.761 72.638 286.942 73.9671 285.296 74.7472C283.651 75.5273 281.919 75.9607 280.071 75.9896C278.974 75.9896 278.05 75.7585 277.299 75.2962C276.549 74.8339 275.885 74.1982 275.365 73.4181C274.845 72.638 274.47 71.7423 274.239 70.7599C274.008 69.7775 273.893 68.7374 273.893 67.6972C273.893 67.1193 273.922 66.6281 274.008 66.1947C274.095 65.7902 274.124 65.5013 274.124 65.4146C274.124 65.3568 274.124 65.2991 274.037 65.2702L273.806 65.5013C273.806 65.5013 273.662 65.4435 273.575 65.3568C273.46 65.2413 273.431 65.1546 273.431 65.039C273.431 64.9812 273.546 64.8079 273.777 64.49C274.008 64.1722 274.297 63.8255 274.643 63.4788C274.99 63.1032 275.307 62.7564 275.625 62.4097C275.943 62.063 276.173 61.8318 276.318 61.6585C278.512 59.4626 280.793 57.6712 283.131 56.2843C285.499 54.8974 287.722 54.204 289.887 54.204C291.099 54.204 292.052 54.5507 292.745 55.273C293.438 55.9665 293.813 56.8911 293.813 57.989L293.842 57.9601ZM289.916 55.1286C288.876 55.1286 287.722 55.562 286.451 56.4288C285.181 57.2956 283.968 58.3646 282.814 59.6071C281.63 60.8495 280.591 62.2075 279.725 63.6232C278.858 65.039 278.252 66.2814 277.992 67.3794C279.291 67.2349 280.735 66.8304 282.294 66.2525C283.853 65.6458 285.325 64.8657 286.682 63.8833C288.039 62.9298 289.194 61.8318 290.089 60.5894C291.013 59.347 291.475 58.0468 291.475 56.631C291.475 55.6487 290.955 55.1286 289.916 55.1286Z" fill="#343434"/>
<path d="M310.731 75.9896C310.991 75.5273 311.453 74.7472 312.088 73.707C312.723 72.6669 313.474 71.4822 314.311 70.182C315.148 68.8818 316.014 67.4949 316.909 66.0503C317.804 64.6056 318.613 63.2476 319.392 61.9763C320.143 60.705 320.778 59.5493 321.24 58.5091C321.702 57.4978 321.933 56.7466 321.933 56.2843C321.933 55.562 321.586 55.1575 320.922 55.0997C320.345 55.0419 319.566 55.4175 318.526 56.2265C317.516 57.0355 316.361 58.1046 315.062 59.4337C313.791 60.7628 312.463 62.2364 311.107 63.8833C309.75 65.5013 308.45 67.0904 307.267 68.6218C306.083 70.1531 304.986 71.54 304.062 72.7824C303.109 74.0249 302.474 74.9205 302.099 75.4984L296.989 75.9607C300.8 69.8931 303.745 65.2413 305.852 61.9763C307.931 58.7403 308.999 56.8044 308.999 56.1687C308.999 55.4464 308.595 55.0708 307.815 55.0708C306.718 55.0708 305.535 55.5909 304.235 56.6021C302.965 57.6134 301.666 58.8269 300.367 60.1849C298.548 62.1786 297.307 63.5366 296.729 64.3167C296.123 65.0679 295.748 65.4435 295.603 65.4435C295.459 65.4435 295.343 65.3857 295.286 65.2991C295.228 65.1835 295.199 65.0968 295.199 64.9812C295.199 64.8656 295.603 64.3745 296.412 63.4499C297.22 62.5253 298.346 61.254 299.818 59.5782C301.637 57.5267 303.225 56.111 304.524 55.3308C305.823 54.5507 306.949 54.1462 307.902 54.1462C309.981 54.1462 311.049 55.1286 311.049 57.1222C311.049 58.0179 310.904 58.9136 310.587 59.8671C310.269 60.8206 309.865 61.7452 309.403 62.6409C308.941 63.5654 308.422 64.4611 307.902 65.3568C307.382 66.2525 306.92 67.0327 306.574 67.7261L306.718 67.8706C307.382 67.1482 308.364 66.0214 309.576 64.49C310.789 62.9587 312.117 61.4562 313.503 59.896C314.889 58.3646 316.274 57.0066 317.66 55.8509C319.046 54.6952 320.258 54.1173 321.298 54.1173C322.193 54.1173 322.857 54.4062 323.29 54.9552C323.723 55.5042 323.954 56.3999 323.954 57.6712C323.954 58.5669 323.809 59.4626 323.55 60.3294C323.29 61.2251 322.972 62.0919 322.568 62.9587C322.164 63.8255 321.76 64.6345 321.298 65.4435C320.865 66.2236 320.461 66.946 320.085 67.5527L320.23 67.6972C320.922 66.9171 321.875 65.7613 323.088 64.23C324.329 62.7275 325.657 61.1962 327.101 59.7226C328.544 58.2202 329.988 56.92 331.431 55.7931C332.875 54.6663 334.145 54.1173 335.242 54.1173C335.964 54.1173 336.628 54.4351 337.176 55.0708C337.725 55.7064 338.014 56.7177 338.014 58.1335C338.014 59.3759 337.609 60.705 336.83 62.063C336.05 63.421 335.155 64.779 334.174 66.1081C333.192 67.4372 332.268 68.7374 331.431 69.9509C330.594 71.1933 330.132 72.2913 330.017 73.2736C329.959 73.707 330.045 74.0826 330.276 74.4583C330.507 74.8339 330.825 75.0072 331.258 75.0072C331.98 75.0072 332.99 74.5449 334.289 73.6203C335.56 72.6958 336.945 71.4822 338.418 69.9798C339.717 68.564 340.727 67.4949 341.391 66.7148C342.056 65.9347 342.575 65.4146 342.893 65.0679C343.21 64.7212 343.412 64.5189 343.47 64.4322C343.557 64.3456 343.643 64.3167 343.759 64.3167C344.019 64.3167 344.163 64.4611 344.163 64.7212C344.163 64.8368 344.019 65.039 343.73 65.3857C343.441 65.7324 343.095 66.137 342.662 66.5992C342.229 67.0615 341.767 67.5816 341.247 68.1595C340.727 68.7374 340.208 69.2863 339.688 69.8064C337.696 71.8578 336.05 73.3892 334.694 74.4005C333.366 75.4117 332.153 75.9318 331.056 75.9318C329.843 75.9318 328.977 75.4695 328.458 74.5449C327.938 73.6203 327.678 72.4068 327.678 70.9044C327.678 69.2863 328.111 67.7261 328.977 66.1947C329.843 64.6634 330.796 63.2765 331.835 61.9474C332.875 60.6472 333.827 59.4626 334.694 58.4224C335.56 57.3823 335.993 56.4866 335.993 55.7642C335.993 55.6198 335.935 55.4464 335.791 55.3019C335.646 55.1575 335.386 55.0708 334.953 55.0708C334.232 55.0708 333.279 55.5042 332.124 56.371C330.969 57.2378 329.757 58.3357 328.429 59.6648C327.13 60.9939 325.802 62.4675 324.416 64.0566C323.059 65.6458 321.789 67.206 320.605 68.7374C319.421 70.2687 318.382 71.6267 317.516 72.8691C316.621 74.1115 315.986 74.9783 315.639 75.4984L310.702 75.9607L310.731 75.9896Z" fill="#343434"/>
<path d="M372.052 64.779C372.052 64.779 371.907 65.0679 371.59 65.4435C371.272 65.848 370.897 66.2814 370.406 66.8304C369.915 67.3794 369.425 67.8995 368.876 68.4773C368.327 69.0552 367.837 69.5753 367.433 70.0376C365.44 72.089 363.795 73.5914 362.438 74.5449C361.11 75.5273 359.926 75.9896 358.858 75.9896C358.165 75.9896 357.617 75.8162 357.184 75.4695C356.751 75.1228 356.404 74.6894 356.173 74.1693C355.942 73.6492 355.769 73.1003 355.711 72.5224C355.653 71.9445 355.596 71.4244 355.596 70.9621C355.596 69.8642 355.856 68.7374 356.375 67.5527C356.895 66.3681 357.559 65.1835 358.367 64.0277C359.176 62.8431 360.042 61.6585 360.994 60.445C361.947 59.2314 362.813 58.0757 363.651 56.9778L363.506 56.8333C361.514 58.7114 359.609 60.6472 357.819 62.612C356.029 64.5767 354.094 66.7148 352.045 68.9974C350.255 70.991 348.609 72.638 347.108 73.996C345.578 75.3251 344.076 75.9896 342.546 75.9896C341.334 75.9896 340.323 75.5273 339.515 74.5738C338.707 73.6203 338.302 72.3201 338.302 70.6443C338.302 68.824 338.764 67.3216 339.659 66.1947C340.583 65.0679 341.853 64.5189 343.47 64.5189C344.163 64.5189 344.683 64.7212 345.087 65.0968C345.491 65.5013 345.664 65.9636 345.664 66.5415C345.664 67.1771 345.491 67.7261 345.116 68.1884C344.74 68.6507 344.365 68.8818 343.932 68.8818C343.499 68.8818 343.181 68.824 342.95 68.7374C342.72 68.6218 342.373 68.5929 341.969 68.5929C341.334 68.5929 340.814 68.8529 340.352 69.373C339.919 69.8931 339.688 70.7021 339.688 71.8001C339.688 72.5224 339.948 73.2447 340.468 73.9671C340.987 74.6605 341.738 75.0361 342.748 75.0361C343.643 75.0361 344.567 74.6894 345.578 73.9671C346.559 73.2447 347.541 72.3779 348.465 71.3378C349.302 70.3843 350.024 69.5753 350.659 68.9107C351.294 68.2173 351.958 67.5238 352.651 66.7437C353.344 65.9636 354.181 65.0968 355.076 64.1144C356 63.132 357.155 61.8607 358.569 60.3583C359.349 59.4626 360.244 58.538 361.283 57.5845C362.294 56.631 363.506 55.5909 364.863 54.4929L369.251 54.1751C366.855 58.0468 364.892 61.1095 363.42 63.3343C361.918 65.5591 360.763 67.3216 359.955 68.5929C359.147 69.8642 358.598 70.8466 358.31 71.54C358.021 72.2335 357.876 72.9558 357.876 73.7359C357.876 74.6316 358.309 75.065 359.204 75.065C359.782 75.065 360.706 74.6605 361.947 73.8226C363.189 72.9847 364.748 71.5978 366.566 69.662C367.721 68.4484 368.616 67.4949 369.28 66.8015C369.944 66.0792 370.406 65.5591 370.724 65.2413C371.041 64.8945 371.243 64.6923 371.301 64.5767C371.388 64.4611 371.474 64.4322 371.561 64.4322C371.821 64.4322 371.965 64.5767 371.965 64.8368L372.052 64.779Z" fill="#343434"/>
<path d="M380.366 63.0743C379.01 65.2991 377.941 67.0616 377.191 68.3618C376.44 69.662 375.92 70.6154 375.689 71.2222C375.459 71.829 375.343 72.3202 375.343 72.7536C375.343 73.6492 375.574 74.256 376.036 74.5449C376.498 74.8339 376.931 75.0072 377.277 75.0072C377.999 75.0072 378.663 74.9783 379.241 74.8917C379.818 74.805 380.569 74.4872 381.521 73.9093C382.878 73.1292 384.004 71.8867 384.899 70.2109C385.794 68.5351 386.227 66.9171 386.227 65.3568C386.227 64.4612 386.025 63.8255 385.592 63.421C385.159 63.0165 384.668 62.7853 384.091 62.6698C383.571 62.5542 383.109 62.6698 382.763 63.0743C382.647 63.1898 382.532 63.1609 382.416 62.9876C382.272 62.8431 382.243 62.6698 382.301 62.5253C382.561 62.2075 382.965 62.0052 383.484 61.8896C384.004 61.7741 384.408 61.7452 384.668 61.7452C385.188 61.7452 385.765 61.8319 386.4 61.9763C387.035 62.1208 387.613 62.3808 388.133 62.7275C388.652 63.0743 389.085 63.5655 389.461 64.1722C389.836 64.8079 390.009 65.588 390.009 66.5126C390.009 67.5527 389.72 68.5929 389.143 69.5753L390.009 69.4886C391.251 69.373 392.29 69.0841 393.069 68.5929C393.849 68.1017 394.6 67.5527 395.35 66.9749C396.389 66.0792 397.082 65.4146 397.4 64.9234C397.717 64.4323 397.92 64.2011 398.035 64.2011C398.353 64.2011 398.497 64.3456 398.497 64.6056C398.497 64.7212 398.382 64.8945 398.151 65.1546C397.92 65.4146 397.631 65.7325 397.284 66.1081C396.938 66.4837 396.592 66.8304 396.187 67.206C395.783 67.5816 395.437 67.8995 395.119 68.1595C393.907 69.113 392.752 69.7197 391.626 70.0376C390.5 70.3554 389.432 70.5288 388.45 70.5865C387.815 71.3667 387.064 72.089 386.141 72.7536C385.217 73.4181 384.264 73.9671 383.253 74.4294C382.243 74.8917 381.233 75.2673 380.222 75.5273C379.24 75.7874 378.374 75.9318 377.624 75.9318C376.065 75.9318 374.823 75.4117 373.928 74.4005C373.033 73.3892 372.6 72.0312 372.6 70.3554C372.6 69.662 372.745 68.9396 373.033 68.1595C373.322 67.3794 373.697 66.5704 374.159 65.7614C374.621 64.9523 375.141 64.1433 375.689 63.3632C376.238 62.5831 376.758 61.8319 377.22 61.0806C377.739 60.3583 378.23 59.6648 378.663 59.0003C379.096 58.3358 379.616 57.6423 380.193 56.92L380.049 56.7755C379.529 57.2089 378.634 58.0179 377.335 59.2026C376.065 60.4161 374.419 62.0919 372.427 64.3167C372.023 64.779 371.734 65.0679 371.648 65.1835C371.532 65.2991 371.446 65.328 371.33 65.328C371.128 65.328 371.012 65.1835 371.012 64.8657C371.012 64.7501 371.128 64.5478 371.417 64.23C371.676 63.9122 372.369 63.1898 373.466 62.0341C374.766 60.6761 376.151 59.3181 377.595 57.989C379.038 56.6599 380.135 55.4753 380.915 54.4063L385.852 54.0884C383.542 57.8157 381.723 60.7628 380.366 62.9876V63.0743Z" fill="#343434"/>
<path d="M419.746 59.607C419.746 60.3872 419.63 61.254 419.341 62.1497C419.082 63.0743 418.735 63.9411 418.273 64.8079C417.84 65.6747 417.32 66.5126 416.772 67.3216C416.223 68.1306 415.646 68.824 415.097 69.4019C415.3 69.5175 415.588 69.5464 415.964 69.5464C417.32 69.5464 418.62 69.1997 419.89 68.4773C421.16 67.755 422.257 66.8304 423.268 65.7036C423.787 65.1257 424.105 64.7501 424.249 64.6056C424.365 64.4611 424.509 64.3745 424.596 64.3745C424.856 64.3745 425 64.5189 425 64.779C425 64.8945 424.885 65.0679 424.682 65.3279C424.48 65.588 423.932 66.1947 423.037 67.1193C422.055 68.1595 420.872 68.9974 419.543 69.6042C418.215 70.2109 416.772 70.4999 415.271 70.4999C414.751 70.4999 414.405 70.4999 414.26 70.4132C413.048 71.7712 411.633 73.0425 409.987 74.2271C408.342 75.4117 406.407 75.9896 404.213 75.9896C402.654 75.9896 401.442 75.3539 400.605 74.1115C399.767 72.8691 399.363 71.1644 399.363 68.9974C399.363 67.5816 399.421 66.6281 399.565 66.0792C399.681 65.5591 399.767 65.1546 399.767 64.8945C399.767 64.5767 399.681 64.4322 399.536 64.4322C399.219 64.4322 398.93 64.6345 398.67 65.0679C398.41 65.4724 398.237 65.7036 398.122 65.7036C397.804 65.7036 397.66 65.588 397.66 65.299C397.66 65.1835 397.804 64.9523 398.093 64.6056C398.382 64.2589 398.757 63.8255 399.219 63.3632C399.681 62.9009 400.172 62.4097 400.72 61.8607L402.221 60.3583C404.531 58.1624 406.783 56.5732 409.035 55.6198C411.287 54.6663 413.308 54.1751 415.069 54.1751C416.599 54.1751 417.754 54.6952 418.562 55.7064C419.37 56.7177 419.774 58.0179 419.774 59.5782L419.746 59.607ZM418.013 58.6536C418.013 57.7001 417.811 56.8911 417.378 56.1687C416.974 55.4464 416.252 55.0997 415.271 55.0997C413.914 55.0997 412.47 55.6776 410.969 56.8333C409.439 57.989 408.082 59.4337 406.812 61.1673C405.57 62.9009 404.531 64.7501 403.723 66.7437C402.914 68.7374 402.51 70.5287 402.51 72.1757C402.51 73.2736 402.712 74.0249 403.087 74.4583C403.492 74.8628 403.953 75.0939 404.531 75.0939C406.09 75.0939 407.678 74.5738 409.266 73.5337C410.853 72.4935 412.297 71.1644 413.567 69.5753C414.838 67.9861 415.906 66.2236 416.743 64.2878C417.58 62.3519 417.984 60.5027 417.984 58.7114L418.013 58.6536Z" fill="#343434"/>
</g>
<defs>
<clipPath id="clip0_1_83">
<rect width="425" height="100" fill="white"/>
</clipPath>
</defs>
</svg>
