<svg width="170" height="48" viewBox="0 0 170 48" fill="none" xmlns="http://www.w3.org/2000/svg">
<path fill-rule="evenodd" clip-rule="evenodd" d="M22 46C34.1503 46 44 36.1503 44 24C44 11.8497 34.1503 2 22 2C9.84971 2 0 11.8497 0 24C0 36.1503 9.84971 46 22 46ZM28.8632 12.2485C29.1973 11.0619 28.0457 10.3601 26.994 11.1094L12.3124 21.5685C11.1718 22.3811 11.3512 24 12.5819 24H16.448V23.9701H23.9828L17.8433 26.1363L15.1368 35.7515C14.8027 36.9382 15.9542 37.6399 17.006 36.8906L31.6876 26.4315C32.8282 25.619 32.6487 24 31.4181 24H25.5553L28.8632 12.2485Z" fill="white"/>
<path d="M55.38 33.9092V30.4292H58.14V16.3892H55.38V12.9092H66.18C67.46 12.9092 68.57 13.1292 69.51 13.5692C70.47 13.9892 71.21 14.5992 71.73 15.3992C72.27 16.1792 72.54 17.1192 72.54 18.2192V18.5192C72.54 19.4792 72.36 20.2692 72 20.8892C71.64 21.4892 71.21 21.9592 70.71 22.2992C70.23 22.6192 69.77 22.8492 69.33 22.9892V23.5292C69.77 23.6492 70.25 23.8792 70.77 24.2192C71.29 24.5392 71.73 25.0092 72.09 25.6292C72.47 26.2492 72.66 27.0592 72.66 28.0592V28.3592C72.66 29.5192 72.39 30.5192 71.85 31.3592C71.31 32.1792 70.56 32.8092 69.6 33.2492C68.66 33.6892 67.56 33.9092 66.3 33.9092H55.38ZM62.1 30.3092H65.82C66.68 30.3092 67.37 30.0992 67.89 29.6792C68.43 29.2592 68.7 28.6592 68.7 27.8792V27.5792C68.7 26.7992 68.44 26.1992 67.92 25.7792C67.4 25.3592 66.7 25.1492 65.82 25.1492H62.1V30.3092ZM62.1 21.5492H65.76C66.58 21.5492 67.25 21.3392 67.77 20.9192C68.31 20.4992 68.58 19.9192 68.58 19.1792V18.8792C68.58 18.1192 68.32 17.5392 67.8 17.1392C67.28 16.7192 66.6 16.5092 65.76 16.5092H62.1V21.5492Z" fill="white"/>
<path d="M81.6019 34.3292C80.1219 34.3292 78.7919 34.0292 77.6119 33.4292C76.4319 32.8292 75.5019 31.9592 74.8219 30.8192C74.1419 29.6792 73.8019 28.3092 73.8019 26.7092V26.2292C73.8019 24.6292 74.1419 23.2592 74.8219 22.1192C75.5019 20.9792 76.4319 20.1092 77.6119 19.5092C78.7919 18.9092 80.1219 18.6092 81.6019 18.6092C83.0819 18.6092 84.4119 18.9092 85.5919 19.5092C86.7719 20.1092 87.7019 20.9792 88.3819 22.1192C89.0619 23.2592 89.4019 24.6292 89.4019 26.2292V26.7092C89.4019 28.3092 89.0619 29.6792 88.3819 30.8192C87.7019 31.9592 86.7719 32.8292 85.5919 33.4292C84.4119 34.0292 83.0819 34.3292 81.6019 34.3292ZM81.6019 30.9692C82.7619 30.9692 83.7219 30.5992 84.4819 29.8592C85.2419 29.0992 85.6219 28.0192 85.6219 26.6192V26.3192C85.6219 24.9192 85.2419 23.8492 84.4819 23.1092C83.7419 22.3492 82.7819 21.9692 81.6019 21.9692C80.4419 21.9692 79.4819 22.3492 78.7219 23.1092C77.9619 23.8492 77.5819 24.9192 77.5819 26.3192V26.6192C77.5819 28.0192 77.9619 29.0992 78.7219 29.8592C79.4819 30.5992 80.4419 30.9692 81.6019 30.9692Z" fill="white"/>
<path d="M91.391 33.9092V12.9092H95.171V33.9092H91.391Z" fill="white"/>
<path d="M103.56 33.9092C102.58 33.9092 101.78 33.6092 101.16 33.0092C100.56 32.3892 100.26 31.5692 100.26 30.5492V22.1492H96.5398V19.0292H100.26V14.4092H104.04V19.0292H108.12V22.1492H104.04V29.8892C104.04 30.4892 104.32 30.7892 104.88 30.7892H107.76V33.9092H103.56Z" fill="white"/>
<path d="M116.221 34.3292C114.281 34.3292 112.691 33.9092 111.451 33.0692C110.211 32.2292 109.461 31.0292 109.201 29.4692L112.681 28.5692C112.821 29.2692 113.051 29.8192 113.371 30.2192C113.711 30.6192 114.121 30.9092 114.601 31.0892C115.101 31.2492 115.641 31.3292 116.221 31.3292C117.101 31.3292 117.751 31.1792 118.171 30.8792C118.591 30.5592 118.801 30.1692 118.801 29.7092C118.801 29.2492 118.601 28.8992 118.201 28.6592C117.801 28.3992 117.161 28.1892 116.281 28.0292L115.441 27.8792C114.401 27.6792 113.451 27.4092 112.591 27.0692C111.731 26.7092 111.041 26.2192 110.521 25.5992C110.001 24.9792 109.741 24.1792 109.741 23.1992C109.741 21.7192 110.281 20.5892 111.361 19.8092C112.441 19.0092 113.861 18.6092 115.621 18.6092C117.281 18.6092 118.661 18.9792 119.761 19.7192C120.861 20.4592 121.581 21.4292 121.921 22.6292L118.411 23.7092C118.251 22.9492 117.921 22.4092 117.421 22.0892C116.941 21.7692 116.341 21.6092 115.621 21.6092C114.901 21.6092 114.351 21.7392 113.971 21.9992C113.591 22.2392 113.401 22.5792 113.401 23.0192C113.401 23.4992 113.601 23.8592 114.001 24.0992C114.401 24.3192 114.941 24.4892 115.621 24.6092L116.461 24.7592C117.581 24.9592 118.591 25.2292 119.491 25.5692C120.411 25.8892 121.131 26.3592 121.651 26.9792C122.191 27.5792 122.461 28.3992 122.461 29.4392C122.461 30.9992 121.891 32.2092 120.751 33.0692C119.631 33.9092 118.121 34.3292 116.221 34.3292Z" fill="white"/>
<path d="M124.274 33.9092V12.9092H128.054V20.8592H128.594C128.754 20.5392 129.004 20.2192 129.344 19.8992C129.684 19.5792 130.134 19.3192 130.694 19.1192C131.274 18.8992 132.004 18.7892 132.884 18.7892C134.044 18.7892 135.054 19.0592 135.914 19.5992C136.794 20.1192 137.474 20.8492 137.954 21.7892C138.434 22.7092 138.674 23.7892 138.674 25.0292V33.9092H134.894V25.3292C134.894 24.2092 134.614 23.3692 134.054 22.8092C133.514 22.2492 132.734 21.9692 131.714 21.9692C130.554 21.9692 129.654 22.3592 129.014 23.1392C128.374 23.8992 128.054 24.9692 128.054 26.3492V33.9092H124.274Z" fill="white"/>
<path d="M141.26 33.9092V19.0292H145.04V33.9092H141.26ZM143.15 17.2892C142.47 17.2892 141.89 17.0692 141.41 16.6292C140.95 16.1892 140.72 15.6092 140.72 14.8892C140.72 14.1692 140.95 13.5892 141.41 13.1492C141.89 12.7092 142.47 12.4892 143.15 12.4892C143.85 12.4892 144.43 12.7092 144.89 13.1492C145.35 13.5892 145.58 14.1692 145.58 14.8892C145.58 15.6092 145.35 16.1892 144.89 16.6292C144.43 17.0692 143.85 17.2892 143.15 17.2892Z" fill="white"/>
<path d="M150.189 33.9092V22.1492H146.409V19.0292H150.189V16.2692C150.189 15.2492 150.489 14.4392 151.089 13.8392C151.709 13.2192 152.509 12.9092 153.489 12.9092H157.389V16.0292H154.809C154.249 16.0292 153.969 16.3292 153.969 16.9292V19.0292H157.869V22.1492H153.969V33.9092H150.189Z" fill="white"/>
<path d="M164.702 33.9092C163.722 33.9092 162.922 33.6092 162.302 33.0092C161.702 32.3892 161.402 31.5692 161.402 30.5492V22.1492H157.682V19.0292H161.402V14.4092H165.182V19.0292H169.262V22.1492H165.182V29.8892C165.182 30.4892 165.462 30.7892 166.022 30.7892H168.902V33.9092H164.702Z" fill="white"/>
</svg>
