<svg width="199" height="48" viewBox="0 0 199 48" fill="none" xmlns="http://www.w3.org/2000/svg">
<path d="M11.8322 4.48545L16.9807 23.6998V2.57514C17.389 2.47987 17.8016 2.39597 18.2182 2.3238V23.7018L24.009 2.09052C24.4263 2.12829 24.8402 2.17773 25.2505 2.23848L19.4131 24.0239L31.0163 3.92655C31.3943 4.09661 31.7666 4.27702 32.1329 4.46744L20.4865 24.6398L37.1133 8.01292C37.4131 8.29639 37.7048 8.58821 37.9883 8.888L21.359 25.5173L41.5337 13.8694C41.7241 14.2357 41.9045 14.6081 42.0745 14.9861L21.9821 26.5865L43.7616 20.7507C43.8223 21.1609 43.8717 21.5749 43.9095 21.9922L22.2984 27.7829L43.6759 27.7829C43.6037 28.1995 43.5198 28.6121 43.4245 29.0204L22.2951 29.0204L41.5133 34.1699C41.3159 34.5478 41.1079 34.9193 40.8896 35.2839L21.9803 30.2172L37.7739 39.3356C37.4749 39.6431 37.167 39.9418 36.8506 40.2315L21.3629 31.2897L33.0822 43.0089C32.7115 43.2255 32.3339 43.4316 31.9498 43.6267L20.4866 32.1634L27.9974 45.1726C27.5862 45.2888 27.1701 45.3934 26.7495 45.486L19.4138 32.7803L22.9506 45.9798C22.6354 45.9932 22.3184 46 21.9999 46C21.8911 46 21.7826 45.9992 21.6742 45.9976L18.2182 33.0996V45.6762C17.8016 45.604 17.389 45.5201 16.9807 45.4249V33.1016L13.9334 44.4742C13.5448 44.3209 13.1615 44.1569 12.784 43.9825L15.7849 32.783L10.1516 42.5402C9.80287 42.3169 9.46083 42.084 9.12588 41.8418L14.7149 32.1614L6.88786 39.9884C6.58808 39.705 6.29626 39.4132 6.01278 39.1134L13.8373 31.2888L4.15967 36.8763C3.91751 36.5413 3.68456 36.1993 3.46117 35.8506L13.2229 30.2146L2.01788 33.217C1.84348 32.8395 1.67945 32.4563 1.52617 32.0676L12.8987 29.0204L0.575287 29.0204C0.479997 28.6121 0.396075 28.1995 0.323872 27.7829L12.8954 27.7829L0.00227558 24.3282C0.000678993 24.219 -0.00012207 24.1096 -0.00012207 24C-0.00012207 23.6823 0.00661242 23.3662 0.0199464 23.0517L13.2211 26.589L0.5135 19.2522C0.60603 18.8316 0.710598 18.4154 0.826825 18.0042L13.8413 25.5181L2.37322 14.05C2.56832 13.666 2.77437 13.2884 2.99095 12.9177L14.715 24.6418L5.76964 9.14789C6.0593 8.83153 6.35809 8.52366 6.66558 8.22471L15.7857 24.0212L10.7182 5.10899C11.0828 4.89075 11.4543 4.68277 11.8322 4.48545Z" fill="white"/>
<path d="M57.848 33.9091H62.636V25.5931H72.184V21.3651H62.636V17.8091H72.8V13.6091H57.848V33.9091Z" fill="white"/>
<path d="M80.9377 21.9811C82.7577 21.9811 84.2137 23.1011 84.2137 26.3211C84.2137 29.4851 82.8137 30.6891 80.9377 30.6891C79.0617 30.6891 77.6617 29.4851 77.6617 26.3211C77.6617 23.1011 79.1177 21.9811 80.9377 21.9811ZM80.9377 18.3971C76.7657 18.3971 72.9577 20.8611 72.9577 26.3211C72.9577 31.7811 76.7657 34.2731 80.9377 34.2731C85.1097 34.2731 88.9177 31.7811 88.9177 26.3211C88.9177 20.8611 85.1097 18.3971 80.9377 18.3971Z" fill="white"/>
<path d="M97.7892 18.3971C93.2252 18.3971 90.0891 21.5051 90.0891 26.2931C90.0891 31.0811 92.8331 34.2731 97.7892 34.2731C100.813 34.2731 104.425 32.8451 105.461 28.3651H101.149C100.813 29.7931 99.7771 30.6891 98.0691 30.6891C96.4171 30.6891 94.7931 29.5971 94.7931 26.3211C94.7931 23.1011 96.4171 21.9811 98.0691 21.9811C99.4412 21.9811 100.533 22.5971 100.953 24.3611H105.265C104.369 19.8251 100.925 18.3971 97.7892 18.3971Z" fill="white"/>
<path d="M116.317 24.5011C110.465 24.9491 106.293 26.1531 106.293 29.8491C106.293 32.5931 108.645 34.2731 111.501 34.2731C113.657 34.2731 115.449 33.6851 116.569 32.0891L116.625 33.9091H121.161C120.937 32.9571 120.825 31.1931 120.825 29.5411V27.9731L120.881 24.6971C120.965 20.1331 118.501 18.3691 114.161 18.3691C109.681 18.3691 106.993 20.8891 106.769 23.7171H111.081C111.277 22.2611 112.285 21.5051 113.769 21.5051C115.449 21.5051 116.317 22.1211 116.317 23.9131V24.5011ZM116.429 27.5811C116.429 30.3531 115.029 31.1371 113.181 31.1371C111.977 31.1371 111.053 30.4931 111.053 29.5131C111.053 27.8891 113.209 27.5251 116.429 27.2171V27.5811Z" fill="white"/>
<path d="M127.872 13.6091H123.252V33.9091H127.872V13.6091Z" fill="white"/>
<path d="M130.818 13.6091V33.9091H135.606V26.8811H138.63C143.894 26.8811 147.842 25.5651 147.842 20.2171C147.842 14.8971 143.894 13.6091 138.63 13.6091H130.818ZM138.77 17.6411C141.01 17.6411 142.774 18.0891 142.774 20.2171C142.774 22.3451 141.01 22.8491 138.77 22.8491H135.606V17.6411H138.77Z" fill="white"/>
<path d="M155.958 21.9811C157.778 21.9811 159.234 23.1011 159.234 26.3211C159.234 29.4851 157.834 30.6891 155.958 30.6891C154.082 30.6891 152.682 29.4851 152.682 26.3211C152.682 23.1011 154.138 21.9811 155.958 21.9811ZM155.958 18.3971C151.786 18.3971 147.978 20.8611 147.978 26.3211C147.978 31.7811 151.786 34.2731 155.958 34.2731C160.13 34.2731 163.938 31.7811 163.938 26.3211C163.938 20.8611 160.13 18.3971 155.958 18.3971Z" fill="white"/>
<path d="M165.787 18.8451V33.9091H170.435V18.8451H165.787ZM165.787 13.6091V17.3051H170.407V13.6091H165.787Z" fill="white"/>
<path d="M177.804 18.8451H173.184V33.9091H177.804V26.1811C177.804 23.3811 178.616 22.0931 180.604 22.0931C182.844 22.0931 182.928 23.8571 182.928 26.0131V33.9091H187.548V24.8651C187.548 20.7771 186.344 18.5091 182.48 18.5091C180.1 18.5091 178.476 19.7131 177.804 20.8331V18.8451Z" fill="white"/>
<path d="M190.742 18.8451H188.362V22.1211H190.742V29.6811C190.742 33.1811 192.002 33.9091 195.726 33.9091H198.666V30.5771H197.35C195.81 30.5771 195.362 30.2971 195.362 28.8691V22.1211H198.666V18.8451H195.362V14.7291H190.742V18.8451Z" fill="white"/>
</svg>
